<?xml version="1.0" encoding="utf-8"?>
<!-- Generator: Adobe Illustrator 16.0.0, SVG Export Plug-In . SVG Version: 6.00 Build 0)  -->
<!DOCTYPE svg PUBLIC "-//W3C//DTD SVG 1.1//EN" "http://www.w3.org/Graphics/SVG/1.1/DTD/svg11.dtd">
<svg version="1.1" id="圖層_1" xmlns="http://www.w3.org/2000/svg" xmlns:xlink="http://www.w3.org/1999/xlink" x="0px" y="0px"
	 width="332.332px" height="226.031px" viewBox="0 0 332.332 226.031" enable-background="new 0 0 332.332 226.031"
	 xml:space="preserve">
<g>
	<g>
		<g>
			<g>
				<g>
					<path fill="#FBEDEC" d="M302.967,120.964c0.491-0.273,1.189-0.794,1.793-1.144C303.199,121.09,302.436,121.698,302.967,120.964
						z"/>
					<path fill="#FBEDEC" d="M328.016,109.939c-3.467-0.082-7.92,1.312-12.058,3.375c-4.152,2.062-8.09,4.613-11.198,6.506
						c2.483-2.049,7.153-5.856,12.112-8.267c1.208-0.654,2.497-1.07,3.665-1.524c0.607-0.17,1.199-0.316,1.763-0.453
						c0.282-0.064,0.558-0.128,0.825-0.189c0.273-0.039,0.543-0.06,0.801-0.084c1.035-0.095,1.928-0.142,2.636,0.045
						C327.265,109.488,327.762,109.683,328.016,109.939z"/>
					<path fill="#FBEDEC" d="M299.768,119.022c0,0,0.48-0.327,1.202-0.817c0.713-0.497,1.688-1.137,2.68-1.76
						c0.978-0.635,1.966-1.256,2.733-1.695c0.756-0.448,1.261-0.747,1.261-0.747c-2.103,1.781-3.038,2.359-3.994,2.813
						C302.686,117.26,301.732,117.6,299.768,119.022z"/>
					<path fill="#FBEDEC" d="M303.657,118.555l0.097,0.916c0,0-1.076,0.6-2.152,1.199c-1.086,0.594-2.145,1.227-2.145,1.227
						s1.025-0.86,2.086-1.686c0.526-0.417,1.052-0.833,1.446-1.146C303.381,118.75,303.656,118.555,303.657,118.555z"/>
					<path fill="#FBEDEC" d="M158.055,127.953c-0.934,0.355-1.618,0.452-1.597-0.202L158.055,127.953z"/>
					<path fill="#FBEDEC" d="M175.878,116.762c1.43-1.24,2.404-2.128,3.231-2.896C178.232,114.818,177.405,115.521,175.878,116.762z
						"/>
					<path fill="#FBEDEC" d="M143.843,140.677l2.751-2.529C145.77,139.013,144.813,139.908,143.843,140.677z"/>
					<path fill="#FBEDEC" d="M196.564,173.996c0.966,0.248,1.96,0.354,2.935,0.518c0.969,0.085,1.931,0.127,2.86,0.146
						c0.91-0.047,1.81-0.073,2.645-0.159c0.828-0.124,1.609-0.241,2.334-0.351c-3.662,1.512-6.063,1.385-7.51,1.176
						C198.338,174.974,197.612,174.477,196.564,173.996z"/>
					<path fill="#FBEDEC" d="M252.026,56.027l0.153-1.097C253.066,54.396,253.606,54.226,252.026,56.027z"/>
					<path fill="#FBEDEC" d="M186.927,120.763c-0.325-0.199-0.376-0.529-0.238-0.944c0.296-0.216,0.589-0.454,0.88-0.654
						L186.927,120.763z"/>
					<path fill="#FBEDEC" d="M133.529,151.405c-0.021,0.054-0.079,0.127-0.108,0.19l-2.544,1.719
						C132.017,152.142,132.869,151.54,133.529,151.405z"/>
					<path fill="#FBEDEC" d="M272.615,34.105c1.141-0.829,2.315-1.583,3.51-2.14C274.021,34.158,272.662,34.805,272.615,34.105z"/>
					<path fill="#FBEDEC" d="M179.476,113.497c0.036-0.022,0.013,0.014,0.05-0.008c-0.116,0.104-0.303,0.274-0.416,0.376
						C179.249,113.725,179.343,113.631,179.476,113.497z"/>
					<path fill="#FBEDEC" d="M163.646,140.994c1.284-0.966,2.471-1.89,3.863-2.91C166.064,139.535,164.65,140.512,163.646,140.994z"
						/>
					<path fill="#FBEDEC" d="M196.564,173.996c-1.1-0.272-2.21-0.583-3.409-1.178C194.905,173.413,195.785,173.617,196.564,173.996z
						"/>
					<path fill="#FBEDEC" d="M285.594,138.058c-2.136,2-2.947,2.148-3.669,2.188C283.248,139.298,284.488,138.523,285.594,138.058z"
						/>
					<path fill="#FBEDEC" d="M66.38,128.138l0.858-0.822C66.905,127.694,66.62,127.949,66.38,128.138z"/>
					<path fill="#FBEDEC" d="M4.947,224.436c0.216,0.195,0.439,0.327,0.64,0.491c0.201,0.162,0.381,0.323,0.517,0.45
						C5.014,225.236,4.672,224.725,4.947,224.436z"/>
					<path fill="#FBEDEC" d="M83.249,151.557c-4.511,5.821-11.2,9.771-15.795,14.103l2.097-0.939l-5.032,3.961l0.836,0.764
						c-7.914,6.955-16.723,16.547-20.782,17.636l2.104,0.559c0,0-2.311,1.524-4.623,3.05c-1.159,0.738-2.318,1.477-3.188,2.03
						c-0.872,0.535-1.454,0.892-1.454,0.892c0,0.001,1.398-0.725,2.787-1.504c1.394-0.774,2.787-1.549,2.787-1.549
						c-2.283,2.063-4.957,4.278-7.74,6.352c-1.386,1.055-2.807,2.046-4.204,3.016c-0.379,0.271-0.616,0.411-0.907,0.602
						c-0.28,0.179-0.559,0.357-0.834,0.534c-0.276,0.175-0.549,0.349-0.82,0.521l-0.253,0.104c-1.337,0.548-1.936,0.386-2.122,0.479
						c-0.017,0.008-0.176,0.91-0.159,0.902c-0.596,0.715-0.715,0.201-0.866-0.045c0,0-0.164,0.391-0.291,0.769
						c-0.13,0.379-0.224,0.745-0.224,0.745c-0.583,0.164-1.142,0.344-1.736,0.46c-0.569,0.115-1.288,0.138-1.645-0.237
						c-0.341-0.347-0.423-0.734-0.482-1.096c-0.051-0.368-0.054-0.745,0.002-1.155c0.108-0.818,0.43-1.81,1.099-3.024
						c0.331-0.604,0.748-1.26,1.245-1.935c0.296-0.387,1.931-2.641,3.5-4.608c3.089-4.735-2.093,2.352-2.582,2.116
						c1.069-3.007,6.032-8.461,7.358-9.436c-2.279,0.352-7.096,7.779-4.157,1.617c3.482-3.369-3.148,1.738,2.176-4.816l3.618-1.385
						c2.612-3.903-0.695-1.729,4.098-7.414c6.01-6.029-4.714,9.494,4.078-0.906c4.211-5.326,5.583-14.134,15.335-23.331
						c6.995-9.197-6.468,2.317,4.758-9.041c0,0-1.986,1.646-3.971,3.29c-1.971,1.668-3.942,3.335-3.942,3.335
						c1.359-2.343-0.536-1.808,4.505-6.622c2.07-1.076,5.748-3.502,8.436-6.101c-5.76,4.849-3.905,2.099-1.969-0.812
						c1.947-2.887,3.998-5.933-1.673-1.607l3.763-3.69c-0.521,0.406-0.776,0.388-0.638,0.031c0,0,1.231-1.257,2.463-2.513
						c1.239-1.253,2.519-2.489,2.518-2.489c-3.555,2.637-10.874,9.874-8.579,5.415c0,0,1.723-1.885,3.499-3.751
						c1.768-1.868,3.626-3.716,3.626-3.716c-2.812,1.09-0.318-1.875-1.375-2.125c0,0-1.54,1.228-3.747,3.089
						c-2.213,1.861-5.088,4.363-7.902,6.9c-5.638,5.063-11.064,10.284-11.064,10.283c1.288-0.428,4.537-3.317,3.95-1.669
						c-4.942,6.317-5.312,4.021-9.582,10.278l2.857-1.905c-0.648,0.224-1.425,0.945-0.431-0.361
						c1.312-2.355,2.589-2.765,3.025-2.404c-0.917,2.707-6.46,7.885-8.517,9.097c-6.183,7.502,0.267,2.846-0.855,4.7
						c-4.721,2.589-10.281,12.504-14.627,16.766l3.35-2.301c-3.379,6.726-8.271,11.318-11.145,14.683l1.804-0.804
						c-2.701,3.607-5.837,9.771-7.598,13.718c-0.966,2.102-1.879,4.023-2.991,6.072c-1.082,2.041-2.445,4.247-3.942,6.899
						c0,0,0.271-0.395,0.543-0.789c0.276-0.388,0.552-0.775,0.552-0.775c-0.404,2.257-0.586,4.76-0.306,7.288
						c0.162,1.259,0.408,2.6,1.089,3.856c0.685,1.274,1.779,2.213,2.589,2.824c0.192-0.143,0.555-0.221,1.095-0.27
						c0.538-0.015,1.258-0.021,2.155,0.032c1.317,1.533,6.526,0.797,13.759-2.641c-1.176,0.45-1.87,0.44-2.362,0.393
						c-0.489-0.063-0.758-0.246-1.02-0.428c-0.262-0.177-0.505-0.42-0.947-0.51c-0.439-0.121-1.072-0.03-2.079,0.085
						c2.648-1.153,4.364-2.031,5.696-2.5c1.327-0.458,2.271-0.659,3.234-0.694c0.959-0.097,1.934-0.167,3.266-0.492
						c0.664-0.19,1.415-0.492,2.29-0.896c0.876-0.397,1.872-0.932,2.982-1.698c2.485-2.202,1.108-1.591-0.857-0.543
						c-1.998,1.036-4.701,2.433-5.278,2.325c0.793-0.343,1.588-0.79,2.385-1.26c0.794-0.477,1.604-0.933,2.377-1.483
						c0.776-0.543,1.544-1.1,2.295-1.662l0.561-0.422l0.482-0.396l0.942-0.795c1.275-1.073,2.379-2.138,3.465-3.194
						c1.097-1.049,2.119-2.14,3.149-3.161c4.072-4.142,7.699-7.801,11.805-9.019c0,0-0.806,1.088-1.612,2.176
						c-0.817,1.083-1.634,2.166-1.634,2.166c4.245-2.609,6.208-4.423,5.546-4.268c-1.109,1.136-1.731,1.235-2.372,1.353
						c4.947-5.591,9.607-9.027,14.382-12.428c4.765-3.4,9.613-6.771,14.674-12.256c-1.266,0.295-2.941,1.629-3.402,1.288
						c4.398-5.298,7.223-2.194,14.084-11.001l-2.088,0.979c2.277-2.935,5.001-4.069,4.812-3.558
						c-1.941-2.355,16.596-16.489,19.194-24.753c5.001-2.663,16.867-12.673,19.586-16.635c3.54-6.069-5.688,2.787-5.096-0.192
						c3.768-3.757,6.938-4.515,12.187-10.471c1.269,1.126-8.756,13.391,2.545,3.688l0.853-2.104
						c-1.023,1.157-2.288,2.886-3.987,4.235c-3.776,2.289,1.047-2.618,1.435-3.637c0,0,2.955-2.687,5.91-5.373
						c2.97-2.668,5.939-5.335,5.939-5.335c2.083,0.499-5.091,6.785-5.478,7.806c8.788-9.033,18.066-21.374,27.641-28.275
						l-1.28,0.233c6.081-4.411,7.198-6.431,8.12-8.12c0.94-1.658,1.678-2.999,7.166-5.724c4.509-4.407-2.991-0.027,4.235-6.216
						c2.07-1.715,1.285-0.186,1.061,0.296c4.727-3.436,5.463-4.565,6.198-5.526c0.738-0.952,1.442-1.789,6.222-4.409l-3.012-0.094
						c5.487-3.442,11.476-6.428,17.173-9.326c5.702-2.902,11.102-5.728,15.55-8.967c-0.665-0.451-2.423,0.262-4.381,1.154
						c-1.948,0.909-4.074,2.029-5.528,2.308c6.979-3.071,14.614-7.706,22.332-11.939c1.922-1.07,3.87-2.067,5.777-3.071
						c1.938-0.937,3.818-1.923,5.712-2.728c0.943-0.409,1.873-0.812,2.787-1.209c0.922-0.375,1.839-0.711,2.734-1.043
						c1.804-0.672,3.533-1.269,4.775-1.298c-0.657,0.451-0.671,0.844-0.369,1.113c0.294,0.272,0.809,0.543,0.92,0.891
						c0.013,0.043,0.024,0.086,0.036,0.126c0.001,0.004,0.003,0.013,0.004,0.012l-0.002-0.093l-0.013-0.153
						c-0.006-0.098-0.012-0.192-0.018-0.284c-0.017-0.365-0.002-0.673,0.015-0.888c0.009-0.363,0.015-0.428-0.005,0.062
						c-0.02,0.281-0.032,0.691,0.021,1.313c0.007,0.363,0.031,0.779,0.089,1.246c0.033,0.076-0.002,0.09-0.021,0.141
						c-0.078,0.163-0.434,0.375-1.141,0.764c-0.265-0.166-0.571-0.245-0.876-0.291c-0.329-0.03-0.723,0.019-1.097,0.089
						c-0.762,0.149-1.565,0.45-2.417,0.829c-1.706,0.747-3.562,1.907-5.707,2.757c2.143,0.179,4.887-0.683,7.938-1.84
						c0.707-0.291,1.437-0.591,2.181-0.897c0.575-0.239,1.174-0.438,1.263-0.49c0.002-0.012,0.01,0.011,0.008-0.031
						c-0.033-0.284-0.061-0.572-0.101-0.793c-0.068-0.479-0.108-0.965-0.12-1.456c-0.031-0.438-0.053-0.821-0.027-1.242
						c0.03-0.429,0.009-0.685,0.076-1.041c0.038-0.183,0.048-0.304,0.067-0.424c0.022-0.125,0.056-0.25,0.099-0.374
						c0.056-0.207,0.12-0.369,0.199-0.5c0.108-0.221,0.205-0.229,0.065-0.157c-0.271,0.194-1.477,0.383-3.121,0.081
						c-0.421-0.065-0.801-0.17-1.323-0.27c-0.243-0.054-0.483-0.115-0.721-0.182c-0.195-0.053-0.599-0.187-0.489-0.141
						c0.007,0.026,0.02,0.064-0.001,0.16c-0.044,0.338-0.281,0.984-0.557,1.61c-0.28,0.638-0.62,1.31-0.98,1.963
						c-0.717,1.309-1.517,2.552-2.282,3.595c-1.547,2.093-2.981,3.41-4.038,3.287l-0.091,2.461
						c-1.476,1.483-5.762,4.797-3.757,1.712c0,0-2.226,3.015-4.55,6.009c-2.347,2.986-4.693,5.972-4.693,5.972
						c2.204-1.603,5.658-4.078,8.659-6.659c3.005-2.576,5.543-5.266,6.014-7.125c1.944-1.173,1.197,0.188,0.402,1.621
						c-0.794,1.429-1.632,2.927,0.285,2.024c-4.203,3.135-5.047,4.458-5.726,6.013c-0.688,1.542-1.218,3.299-4.974,7.07
						c0.812-2.501-1.486-1.016-4.058,0.932c-2.569,1.952-5.426,4.365-5.642,3.838c-2.06,2.815-8.075,7.74-10.662,9.392
						c-4.356,4.299-12.933,15.602-20.41,22.088c3.102-2.182,7.871-5.777,8.536-4.518c-3.939,2.915-7.664,6.704-7.185,8.47
						c14.131-10.22,1.315-6.477,13.509-16.296c3.961-1.508,7.25-4.262,13.152-9.713c-1.763,3.361-0.333,2.502-0.464,4.455
						c-9.517,4.489-18.017,18.13-28.433,25.916c-4.608,3.045-3.419-1.514-12.377,6.846l6.614-8.259
						c-7.425,8.926-2.708,1.132-9.767,7.579l3.562-1.808c-3.965,4.296-5.641,5.652-8.573,7.299l4.854-2.131
						c-2.065,2.391-6.038,6.669-6.888,5.922c-0.248,0.901-0.189,1.364,0.04,1.596c-0.661,0.206-1.86,1.11-4.444,3.752
						c1.692-1.365,2.718-2.552,3.148-2.181c-10.328,9.579-0.887,3.783-7.222,9.79c1.292-0.657-0.086,1.478-2.143,3.849
						c-0.492-0.57-1.646-0.256-3.171,0.577c-0.357,0.206-0.746,0.431-1.161,0.67c-0.406,0.229-0.842,0.479-1.281,0.746
						c-0.919,0.563-1.915,1.212-2.927,1.885c-4.06,2.695-8.52,5.873-10.788,6.737l0.07-0.003l-9.698,6.784
						c1.969-1.377,0.554,0.929-1.833,3.413l0.411-0.375c-2.527,2.808,5.505-0.452-3.56,6.259l-5.043,3.216
						c0.868-0.614,0.404,0.399,0.136,0.938l-5.117,3.41c-5.111,8.276-14.238,10.522-21.311,19.211
						c2.135-2.396,5.829-5.553,4.935-3.465c-1.326,1.707-3.886,3.699-5.393,4.542l0.634-0.146c0,0-4.12,3.299-8.145,6.858
						c-2.015,1.775-4.005,3.63-5.481,5.103c-1.479,1.461-2.447,2.544-2.447,2.544c0.967-0.465,3.443-3.024,5.388-4.71
						c1.943-1.703,3.296-2.673,1.891-0.338c-1.137,3.249-6.26,6.761-8.593,10.561c-0.102-0.234,0.052-0.835,0.274-1.541
						c0.24-0.665,0.512-1.42,0.693-1.924c0.167-0.505,0.193-0.799-0.134-0.587c-0.326,0.228-1.015,0.877-2.232,2.649
						c-0.091,0.58-1.099,2.604-1.388,5.255c-0.014,0.159-0.028,0.315-0.041,0.468c-0.009,0.162-0.007,0.366-0.005,0.536
						c0.006,0.354,0.028,0.678,0.059,0.96c0.099,0.679,0.281,1.228,0.405,1.466c0.13,0.248,0.209,0.237,0.228-0.085
						c0.011-0.161,0.009-0.402,0.011-0.729c0.003-0.162,0.007-0.347,0.011-0.554c0.019-0.177,0.049-0.352,0.08-0.556
						c-0.132,0.873-0.047,2.266,0.655,3.639c0.196,0.327,0.422,0.651,0.67,0.958c0.124,0.153,0.254,0.304,0.387,0.446l0.396,0.339
						c0.272,0.221,0.562,0.43,0.859,0.621c0.274,0.163,0.511,0.265,0.78,0.389c0.255,0.111,0.549,0.239,0.785,0.313l0.671,0.181
						c0.224,0.056,0.46,0.112,0.681,0.155l0.583,0.079c0.829,0.12,1.479,0.111,2.203,0.13c2.67-0.047,5.031-0.477,7.258-0.892
						c4.519-0.84,8.913-1.954,12.314-2.737c1.857-1.181-1.417-0.123-2.497,0.222l-0.422,0.421c-2.244,0.62-2.583,0.203-3.382,0.131
						c-0.396-0.029-0.914,0.006-1.851,0.264c-0.941,0.248-2.265,0.809-4.397,1.565c-0.352-0.58,0.24-1.125,1.424-1.65
						c0.585-0.283,1.313-0.584,2.152-0.881c0.84-0.295,1.789-0.592,2.781-0.961c4.012-1.348,8.99-3.239,12.258-5.262
						c0,0-2.897,1.076-5.85,1.952c-1.467,0.456-2.97,0.817-4.07,1.125c-1.114,0.28-1.867,0.431-1.867,0.431
						c4.438-2.658,9.125-5.438,13.932-8.416c4.802-2.979,9.712-6.166,14.595-9.401c9.661-6.486,19.305-12.962,27.465-18.441
						c-4.258,3.84-8.524,6.123-6.774,7.335c5.098-3.126,7.311-4.482,9.521-5.838c0.542-0.336,1.083-0.673,1.669-1.036
						c0.41-0.237,0.85-0.492,1.352-0.783c0.508-0.299,0.995-0.55,1.546-0.824c0.553-0.29,1.199-0.577,1.931-0.892l-0.505,0.136
						c0.774-0.718,1.729-1.229,2.646-1.636c0.94-0.368,1.843-0.627,2.709-0.813c1.761-0.401,3.207-0.668,5.875-2.372
						c0.008-0.419-0.48-0.446-1.111-0.283c-0.637,0.149-1.418,0.435-2.066,0.711c-1.312,0.496-2.188,0.786-1.37-0.879
						c-0.001-0.001,2.609-0.882,5.277-1.288c1.335-0.185,2.664-0.336,3.664-0.351c0.997-0.065,1.659-0.024,1.659-0.024
						c-0.167-0.607-1.019-0.785-2.215-0.825c-0.594,0.023-1.273,0.095-1.997,0.194c-0.72,0.126-1.477,0.321-2.247,0.509
						c-3.103,0.841-6.064,2.248-8,2.934c-1.465,0.774-0.018,0.116,1.474-0.174c0.37-0.076,0.736-0.141,1.055-0.166
						c0.325-0.008,0.601,0.019,0.782,0.095c0.368,0.152,0.345,0.514-0.259,1.174c-4.041,1.334-6.254,2.193-8.573,2.768
						c-0.64,0.17-1.24,0.329-1.819,0.482c-0.318,0.076-0.63,0.151-0.94,0.225c-0.373,0.115-0.743,0.229-1.114,0.344
						c-1.499,0.436-3.029,0.865-4.778,1.427c-2.218,0.563-1.163-0.646,0.75-2.196c0.952-0.778,2.15-1.59,3.227-2.331
						c1.124-0.727,2.166-1.356,2.755-1.72c4.559-1.356,8.83-2.482,13.414-3.437c2.323-0.438,4.754-0.838,7.519-1.174
						c1.387-0.081,2.852-0.362,4.431-0.332c0.393,0.011,0.794,0.035,1.181,0.13c0.383,0.086,0.776,0.258,0.971,0.566
						c0.198,0.307,0.174,0.656,0.101,0.95c-0.077,0.299-0.199,0.577-0.341,0.839c0,0,0.012,0.185-0.041,0.459
						c-0.053,0.272-0.184,0.635-0.381,1.02c-0.38,0.758-1.043,1.675-1.043,1.675c-3.97,3.099-6.348,4.456-8.605,5.919
						c-1.114,0.722-2.166,1.432-3.188,2.323c-0.505,0.451-1.011,0.945-1.453,1.574c-0.217,0.315-0.425,0.665-0.544,1.079
						c-0.064,0.268-0.09,0.166-0.07,1.271c0.079,1.059,0.503,2.312,1.235,3.287c0,0-0.092-0.158-0.23-0.451
						c-0.141-0.292-0.325-0.709-0.446-1.256c-0.067-0.27-0.125-0.561-0.14-0.854c-0.014-0.275-0.052-0.654-0.005-0.876
						c0.036-0.225,0.067-0.536,0.11-0.696l0.148-0.237c0.44-0.641,1.149-1.295,1.149-1.295c-0.131,0.427-0.228,0.867-0.229,1.309
						c0.008,0.134,0.015,0.265,0.021,0.394c0.031,0.271,0.013,0.46,0.081,0.775c0.104,0.582,0.322,1.163,0.612,1.633
						c0.59,0.965,1.332,1.489,1.895,1.809c0.589,0.345,1.078,0.526,1.508,0.682c-0.817-0.422-1.78-0.974-2.561-2.1
						c-0.375-0.554-0.644-1.271-0.677-1.935c-0.043-0.356,0.012-0.607,0.036-0.881c0.043-0.21,0.092-0.312,0.154-0.472
						c0.54-1.17,1.568-2.243,2.655-3.307c1.104-1.061,2.332-2.115,3.614-3.176c1.249-1.046,2.727-2.181,3.985-3.211
						c-0.166,0.702-1.052,2.014-2.752,4.075c-0.989,1.162-2.029,2.383-3.106,3.648c-0.555,0.687-1.095,1.414-1.425,2.167
						l-0.117,0.281c-0.05,0.071-0.108,0.124-0.16,0.188l-0.079,0.094c-0.012,0.027-0.003,0.05-0.006,0.076l-0.007,0.155
						c0.025,0.194,0.071,0.403,0.214,0.61c0.265,0.428,0.833,0.801,1.437,1.097c0.618,0.288,1.296,0.52,1.993,0.713
						c0.349,0.095,0.703,0.177,1.061,0.259l1.083,0.178l1.1,0.172l1.109,0.058c2.977,0.147,5.983-0.409,8.572-1.401
						c-0.318-0.012-1.397,0.293-2.554,0.548c-1.161,0.24-2.421,0.366-3.036,0.165c7.758-2.154,14.685-6.814,21.007-11.361
						c6.304-4.617,11.971-9.304,16.467-13.396c1.438-2.206-0.503-0.592-2.726,1.255c-2.221,1.845-4.736,3.894-4.44,2.394
						c2.521-2.051,4.8-4.631,6.775-6.674c1.975-2.042,3.653-3.551,4.82-3.524c-1.798,0.103,0.904-2.427,2.869-4
						c0.966-0.804,1.743-1.365,1.562-1.401c-0.181-0.031-1.332,0.441-4.055,2.056c2.162-1.994,4.491-3.903,7.113-5.506
						c2.596-1.595,5.613-2.875,8.798-3.251c0.818-0.079,1.655-0.158,2.676,0.104c0.243,0.052,0.545,0.205,0.806,0.359
						c0.14,0.104,0.275,0.219,0.401,0.338c0.121,0.129,0.222,0.297,0.317,0.453c0.334,0.666,0.282,1.322,0.176,1.795
						c-0.229,0.979-0.657,1.675-1.083,2.369c-0.437,0.68-0.899,1.322-1.389,1.932c-1.949,2.445-4.106,4.634-6.275,6.816
						c-4.347,4.349-8.868,8.494-13.031,12.978c-1.037,1.125-2.049,2.274-3.003,3.485c-0.946,1.22-1.855,2.479-2.553,3.975
						c-0.339,0.748-0.64,1.577-0.653,2.599c0.021,0.516,0.106,1.083,0.394,1.604c0.137,0.267,0.301,0.51,0.506,0.712
						c0.191,0.231,0.409,0.386,0.631,0.544c0.895,0.6,1.79,0.798,2.634,0.954l0.624,0.077l0.156,0.019l0.078,0.01l0.02,0.002
						c-0.108,0.002,0.17,0,0.147,0h0.034l0.277-0.001l1.106-0.006c-1.178-0.609-1.209-1.172-0.245-1.687
						c-0.487,0.016-1.031,0.096-1.511,0.055c-0.513-0.034-1.038-0.099-1.54-0.25c-0.511-0.125-0.984-0.382-1.341-0.729
						c-0.357-0.354-0.535-0.84-0.542-1.356c0.017-1.049,0.492-2.104,1.054-3.064c0.565-0.968,1.239-1.875,1.938-2.726
						c2.84-3.386,5.979-5.961,8.008-7.072c-1.307,2.309-3.579,4.328-5.48,6.067c-1.917,1.719-3.417,3.234-3.42,4.01
						c1.546-1.905,4.836-5.912,5.774-5.247c-1.598,2.932-3.146,4.852-4.278,6.396c-0.273,0.377-0.521,0.731-0.694,1.01
						c-0.222,0.305-0.237,0.473-0.405,0.485c-0.846,0.097-0.821,0.392-0.431-0.095c0.1-0.113,0.084-0.093,0.082-0.08l-0.005,0.032
						c0.008,0.026,0.067,0.051,0.098,0.084c0.056,0.071,0.255,0.118,0.396,0.183c0,0-0.34,0.035-0.681,0.071
						c-0.241,0.035-0.303,0.09-0.332,0.081c-0.055,0.063,0.021,0.151,0.134,0.305c0.1,0.059,0.177,0.136,0.289,0.202
						c0.128,0.063,0.253,0.125,0.375,0.186c0.293,0.092,0.564,0.21,0.876,0.271l0.224,0.056l0.11,0.028l0.055,0.014l0.027,0.007
						l0.007,0.002c-0.238,0.003-0.062,0.001-0.112,0.002l0.016,0.002c0.169,0.017,0.334,0.033,0.495,0.049
						c1.351,0.201,2.175,0.139,3.03,0.183c0.845-0.031,1.565-0.095,2.223-0.104c0.652-0.037,1.214-0.117,1.798-0.186
						c2.266-0.361,4.806-1.036,10.994-6.215c3.647-4.723-0.749-0.826-1.867-2.129c1.66-0.884,4.517-3.59,7.355-6.339
						c2.855-2.731,5.764-5.438,7.802-6.104c0,0-1.741,1.653-3.482,3.308c-1.76,1.631-3.521,3.262-3.521,3.262
						c5.346-4.103,9.963-8.5,13.777-11.246c-0.601,0.062-1.142,0.056-2.282,0.924c4.271-3.259,9.214-8.038,12.009-9.02l-0.103-2.36
						c-1.864,2.712-8.734,9.314-10.599,9.684c-0.421-1.789,7.312-7.67,10.405-10.575c-14.17,12.18-16.058,10.578-26.908,21.789
						l2.339-1.312c-3.167,3.731-7.094,6.766-11.098,9.147c-1.99,1.227-4.022,2.169-5.931,3.02c-1.869,0.763-3.871,1.288-4.827,1.515
						c0.705-0.416,0.893-0.679,1.038-0.992c0.065-0.159,0.05-0.284-0.036-0.37c-0.09-0.082-0.263-0.12-0.369-0.193
						c-0.239,0.079-0.39,0.211-0.708,0.345l-0.887,0.111l-0.442,0.054l-0.222,0.027l-0.11,0.013l-0.056,0.007l-0.027,0.004
						l-0.014,0.001c-0.104,0.002,0.851-0.008,0.443-0.004l-0.458,0.017c-0.071-0.012-0.252,0.004-0.242,0.003l-0.013,0.008
						c0.012-0.041-0.037,0.108-0.07,0.199l-0.115,0.298c-0.101,0.324-0.188,0.591-0.343,0.879c-0.191,0.32-0.233,0.457-0.356,0.636
						c-0.059,0.086-0.127,0.169-0.203,0.249c-0.033,0.046-0.054,0.078-0.091,0.117c-0.348,0.314-0.068-0.084,1.033-0.071
						c0.317-0.019,0.576,0.015,0.912,0.058c0.188,0.01,0.437,0.039,0.565,0.059l-0.01-0.004c-0.019,0.006,0.013-0.068,0.012-0.1
						c0.006-0.042,0.002-0.079,0.032-0.156c0.14-0.526,0.549-1.388,1.058-2.229c1.036-1.72,2.417-3.525,3.881-5.295
						c1.469-1.775,3.049-3.544,4.672-5.323c3.251-3.577,6.705-7.13,10.144-11.188c0.859-1.022,1.718-2.079,2.569-3.249
						c0.426-0.593,0.85-1.191,1.273-1.887c0.421-0.69,0.846-1.414,1.255-2.459c0.099-0.232,0.2-0.542,0.291-0.874
						c0.045-0.168,0.089-0.303,0.128-0.5c0.04-0.21,0.073-0.423,0.101-0.636c0.066-0.356,0.061-1.033-0.001-1.579
						c-0.031-0.289-0.14-0.703-0.25-1.041c-0.107-0.347-0.256-0.691-0.488-1.056c-0.215-0.345-0.473-0.706-0.736-0.969
						c-0.264-0.257-0.553-0.498-0.854-0.712c-0.332-0.241-0.527-0.311-0.802-0.448c-0.249-0.113-0.545-0.237-0.767-0.304
						c-0.39-0.104-0.841-0.209-1.194-0.252c-0.319-0.03-0.64-0.053-0.959-0.066c-1.1,0.01-2.016,0.137-2.812,0.304
						c-0.83,0.169-1.536,0.337-2.355,0.614c0,0-0.518,0.036-1.293,0.09c-0.756,0.086-1.759,0.244-2.761,0.438
						c-1.965,0.415-3.826,1.03-3.827,1.03l0.307,1.4c-2.422,1.714-3.661,2.655-4.465,3.068c-0.776,0.427-1.078,0.343-1.29,0.167
						c-0.4-0.342-0.538-1.089-3.285,1.347c2.123-1.813,1.888-1.313,2.553-1.411c-2.805,1.808-4.407,3.132-5.391,4.1
						c-0.991,0.97-1.371,1.6-1.594,2.133c-0.452,1.066-0.317,1.746-2.956,4.048c1.692-0.647,4.186-2.924,6.24-4.548
						c2.053-1.628,3.569-2.613,3.021-0.838c-5.25,3.588-10.876,9.188-15.759,13.426c-4.876,4.273-9.091,7.084-10.782,6.321
						c-3.854,3.617-8.367,6.951-12.991,8.43c-2.308,0.747-4.541,0.957-6.711,0.704c-0.536-0.066-1.032-0.169-1.242-0.256
						c-0.082-0.02-0.09-0.037-0.104-0.046l-0.013-0.006c0.011-0.034-0.032,0.068-0.067,0.146c-0.039,0.082-0.064,0.15-0.084,0.211
						c-0.092,0.255-0.199,0.507-0.322,0.754c-0.517,1.012-0.91,1.619-1.322,2.002c-0.339,0.347-0.501,0.338-0.337,0.303
						c0.071-0.021,0.139-0.028,0.199-0.028h0.012c-0.852,0.068,7.409-0.611,3.943-0.314l0.119,0.033l0.237,0.068l0.478,0.136
						l0.238,0.068c0.073,0.015,0.183,0.075,0.192,0.009l0.19-0.235l0.389-0.471c1.091-1.273,2.389-2.586,3.559-3.835
						c2.404-2.521,3.912-4.663,4.854-6.268c0.496-0.82,0.911-1.555,1.26-2.202c0.33-0.604,0.659-1.207,0.986-1.806
						c1.18-2.203,2.085-3.752,2.798-5.398c0.317-0.845,0.662-1.613,0.517-2.818c-0.048-0.303-0.16-0.664-0.38-1.023
						c-0.216-0.358-0.492-0.655-0.758-0.906c-0.539-0.486-1.082-0.808-1.616-1.1c-2.139-1.048-4.527-1.618-7.096-1.888
						c-0.397,0.018-0.714,0.096-0.921,0.158c-0.205,0.06-0.306,0.108-0.33,0.148c-0.054,0.084,0.206,0.114,0.5,0.173
						c0.551,0.17,1.323,0.332,0.591,0.511c-1.534-0.669-4.467-0.657-7.892-0.126c-3.488,0.666-7.432,1.754-11.167,3.411
						c-1.836,0.699-3.625,1.669-5.225,2.466c-0.4,0.2-0.79,0.396-1.169,0.585c-0.377,0.215-0.744,0.424-1.098,0.626
						c-0.707,0.395-1.367,0.763-1.971,1.1c-0.6,0.32-1.145,0.611-1.625,0.868c-0.451,0.254-0.847,0.461-1.181,0.615
						c-0.668,0.309-1.094,0.405-1.208,0.227c-0.554,0.398-1.056,0.779-1.509,1.143c-0.261,0.197-0.335,0.308-0.494,0.459
						c-0.135,0.145-0.266,0.282-0.391,0.416c-0.492,0.545-0.873,1.046-1.179,1.498c-0.618,0.9-0.903,1.632-1.203,2.105
						c-4.61,2.134-9.645,5.383-14.709,8.97l3.912-2.385l-0.262,0.485l-5.53,3.383l0.126-0.229
						c-6.258,4.484-12.734,9.427-19.354,13.499c-3.302,2.05-6.638,3.877-9.943,5.329c-3.3,1.461-6.553,2.609-9.66,3.252
						c0.894-0.191,1.554-0.296,2.029-0.333c0.47-0.059,0.756-0.041,0.909,0.031c0.306,0.145,0.075,0.508-0.278,0.909
						c-0.708,0.778-1.939,1.657-0.16,1.346c-0.899-0.021-1.908,0.046-3.003,0.188c-1.105,0.103-2.306,0.248-3.571,0.468
						c-0.64,0.076-1.298,0.162-1.971,0.264c-0.66,0.09-1.398,0.243-2.003,0.293c-0.65,0.091-1.243,0.128-1.796,0.164
						c-0.493,0.012-1.018,0-1.027-0.058l-0.001-0.004l-0.001-0.002c0-0.008,0-0.005-0.006,0.068l-0.068,0.639l-0.095,0.641
						c-0.037,0.214-0.022,0.334-0.044,0.507c-0.053,0.637-0.209,1.301-0.423,1.916c-0.068,0.43-0.244,0.876-0.494,1.271
						c-0.038,0.111-0.095,0.224-0.173,0.331c-0.039,0.053-0.083,0.105-0.133,0.155l-0.07,0.067l-0.005,0.012
						c0.013,0.028-0.192,0.131,0.044,0.007c0.077-0.031,0.116-0.03,0.208-0.049c0.174-0.058,0.349-0.091,0.518-0.101
						c0.232,0.02,0.896-0.042,1.411,0.046c0.421,0.105,1.294,0.188,1.978,0.388c0.37,0.096,0.667,0.219,1.072,0.347l0.679,0.197
						c0.052,0.013,0.021-0.003,0.035-0.003c0.024-0.029-0.012,0,0.051-0.101c0.043-0.075,0.082-0.151,0.118-0.229
						c0.04-0.082,0.126-0.212,0.184-0.317c0.245-0.438,0.632-1.016,1.032-1.592c1.689-2.38,3.935-5.022,6.099-7.448
						c-0.455-0.342-0.086-1.399-1.475-0.572c0,0,1.521-1.205,3.042-2.411c1.556-1.186,3.112-2.371,3.112-2.371l-1.204,0.252
						c4.734-5.124,10.581-9.712,15.96-13.889c5.386-4.18,10.333-7.966,13.448-11.546c-4.579,3.596-4.97,3.198-6.008,2.907
						c7.688-6.718,15.014-12.991,24.626-20.215c-0.595,0.295-1.035,0.425-1.182,0.281c2.225-2.233,5.522-4.201,8.175-6.078
						l-0.56-1.311c2.529-1.792,5.178-4.13,7.974-6.598l1.108-0.98c0.383-0.334,0.771-0.68,1.167-1.07
						c0.703-0.669,1.357-1.273,2.059-1.9c1.385-1.238,2.817-2.433,4.302-3.52c0.977-3.064,13.536-11.431,19.068-17.834
						c2.519-2.043-6.08,3.855,0.386-2.471c2.989,1.181,8.36-8.252,11.102-6.524l4.757-6.438l2.354-0.134
						c2.614-6.881,8.152-6.378,14.47-14.257c-0.614,0.146-1.44,0.842-1.244,0.312c2.494-2.099,7.825-7.376,4.39-2.62
						c3.728-3.833,16.77-16.72,9.933-11.861c1.07,0.191-4.639,5.146-7.119,7.26c-0.686-1.237,5.245-6.723,5.527-9.204
						c0.285-0.087,1.182-0.706,1.869-1.116l0.169-1.416c7.972-6.389,13.998-14.778,20.267-19.41
						c-0.046-0.614,0.861-2.197,3.165-5.027l1.444,0.908c0,0,1.734-2.244,3.457-4.785c0.863-1.27,1.729-2.646,2.39-3.811
						c0.661-1.159,1.115-2.111,1.115-2.111s-0.351,0.367-0.87,0.859c-0.515,0.471-1.193,1.052-1.856,1.543
						c-1.329,1.009-2.622,1.802-2.622,1.802c0.869-1.402,1.736-2.788,2.614-4.368c0.44-0.807,0.885-1.652,1.331-2.72
						c0.112-0.272,0.221-0.533,0.333-0.864c0.109-0.304,0.217-0.624,0.322-1.018c0.2-0.704,0.408-1.68,0.448-2.932
						c0.021-1.263-0.133-3.3-1.48-5.504c-0.336-0.545-0.718-1.051-1.175-1.526c-0.45-0.479-0.945-0.914-1.411-1.237
						c-1.027-0.734-1.892-1.104-2.784-1.416c-0.722-0.233-1.548-0.411-2.07-0.469c-0.281-0.038-0.629-0.077-0.857-0.089
						l-0.709-0.028c-0.913-0.013-1.606,0.047-2.228,0.114c-1.218,0.142-2.174,0.334-3.028,0.522
						c-0.845,0.187-1.652,0.398-2.33,0.577c-4.87,1.227-9.53,2.402-14.16,4.457c-0.547,1.84-5.024,3.802-10.106,6.279
						c-5.062,2.487-10.691,5.546-13.623,8.914c0,0,1.737-0.869,3.475-1.737c0.865-0.438,1.736-0.864,2.399-1.173
						c0.658-0.313,1.097-0.522,1.097-0.522c-7.184,4.086-10.98,6.999-14.645,9.805c-3.664,2.814-7.204,5.523-13.578,9.701
						c4.877-4.258,7.494-6.214,10.613-8.739c3.138-2.561,6.857-5.596,14.275-11.649c-7.857,5.581-14.85,9.925-21.547,14.371
						c-6.683,4.449-13.046,9.005-19.247,15.094c1.324-0.207,4.96-2.591,2.116,0.607c-3.591,0.939-12.454,10.405-11.599,7.461
						c-3.705,3.909-3.354,5.729-5.659,8.039c0,0-3.716,2.539-7.389,5.136c-3.667,2.606-7.334,5.214-7.334,5.214l0.631-0.121
						c-9.871,11.691-20.475,20.957-31.213,30.16c-10.721,9.202-21.534,18.329-31.546,29.613l1.053,0.225l-6.257,4.409
						c4.787-3.562-0.994,2.615-0.757,3.503l-14.982,12.211C78.083,154.65,80.163,155.142,83.249,151.557z M275.967,28.457
						c0,0-0.766,0.939-1.53,1.878c-0.77,0.918-1.539,1.835-1.539,1.835c-0.534,0.798-1.14,1.575-1.964,2.284l1.964-2.284
						C274.264,30.12,274.802,28.233,275.967,28.457z M209.327,162.366c1.03-0.133,0.462,0.278-0.522,0.765
						c-0.488,0.256-1.076,0.527-1.615,0.729c-0.539,0.209-1.02,0.451-1.307,0.569c0,0,0.092-0.03,0.251-0.083
						c0.159-0.067,0.386-0.163,0.658-0.277c0.547-0.226,1.279-0.518,2.003-0.902c0.73-0.341,1.455-0.739,1.995-1.058
						c0.543-0.308,0.905-0.513,0.905-0.513C212.228,160.716,210.202,162.009,209.327,162.366z M267.073,22.024
						c0,0,0.149-0.67,0.3-1.341c0.139-0.668,0.277-1.335,0.277-1.335s0.64-0.51,1.279-1.021c0.627-0.521,1.254-1.043,1.254-1.043
						s-0.723,1.196-1.509,2.381C267.895,20.851,267.073,22.024,267.073,22.024z M231.884,33.66c0,0,1.432-0.737,2.863-1.475
						c1.441-0.715,2.883-1.429,2.883-1.429l-0.331,0.479c0,0-1.426,0.705-2.853,1.41c-1.414,0.731-2.829,1.463-2.829,1.463
						L231.884,33.66z M169.512,71.148c0.352-0.225,0.667-0.441,1.089-0.67C170.265,70.721,169.887,70.95,169.512,71.148
						c-4.293,2.759-4.404,5.607-8.748,6.92C163.316,73.417,166.911,72.55,169.512,71.148z M264.782,5.471
						c2.116-0.625,3.284-1.059,5.528-1.769c-0.964-0.131-2.829,0.064-3.886,0.104c-0.469-0.003-0.804-0.048-0.833-0.185
						c-0.015-0.068,0.048-0.16,0.207-0.282c0.158-0.121,0.392-0.267,0.893-0.486c0.755-0.069,1.842-0.327,3.533-0.582
						c0.855-0.116,1.864-0.264,3.412-0.215l0.595,0.035c0.246,0.024,0.492,0.054,0.736,0.09c0.431,0.054,1.112,0.207,1.699,0.393
						c0.273,0.079,0.715,0.255,1.052,0.407c0.358,0.163,0.692,0.325,1.117,0.597c0.402,0.257,0.773,0.521,1.143,0.839
						c0.383,0.339,0.743,0.711,1.068,1.101c1.311,1.6,1.823,3.429,1.944,4.645c0.048,0.366,0.041,0.562,0.052,0.849
						c0.003,0.257,0.002,0.544-0.014,0.769c-0.035,0.4-0.086,0.839-0.152,1.178c-0.274,1.367-0.63,2.054-0.935,2.683
						c-0.618,1.146-1.111,1.584-1.382,1.513c0.305-0.464,0.593-0.988,0.856-1.583c0.13-0.275,0.26-0.646,0.374-0.964
						c0.119-0.398,0.226-0.717,0.317-1.204c0.162-0.854,0.345-2.029-0.013-3.76c-0.052-0.222-0.086-0.394-0.168-0.649
						c-0.079-0.248-0.169-0.493-0.268-0.733c-0.179-0.459-0.459-0.977-0.792-1.463c-0.635-0.952-1.584-1.803-2.442-2.304
						c-1.77-1.028-3.153-1.132-4.08-1.178c-0.488-0.014-0.854,0.016-1.257,0.048c-0.327,0.043-0.667,0.092-0.964,0.151
						c-1.152,0.241-1.892,0.556-2.591,0.841c-0.666,0.29-1.221,0.565-1.711,0.8c-0.24,0.117-0.474,0.225-0.691,0.317
						c-0.188,0.086-0.367,0.159-0.541,0.216C265.896,5.918,265.308,5.896,264.782,5.471z M183.756,121.528l1.067-1.225l-4.832,3.548
						L183.756,121.528z M162.114,139.48c-3.451,1.055-9.701,6.778-14.327,10.374c-0.321,1.937,5.106-0.865,10.236-5.469
						C164.855,139.949,159.068,140.929,162.114,139.48z M221.39,32.296l1.946-0.104l-1.223,0.979c0,0,1.429-0.775,2.857-1.551
						c1.421-0.784,2.867-1.527,2.867-1.527c-6.285,5.835-12.635,7.309-16.424,9.534C214.53,37.418,224.402,33.464,221.39,32.296z
						 M117.767,178.09c-2.406,1.709-5.646,4.239-8.234,6.229c-2.596,1.982-4.536,3.438-4.609,2.739
						c0.605,0.77,2.438-0.273,4.398-1.684c1.955-1.417,4.04-3.223,4.963-4.151C115.28,180.066,116.138,179.369,117.767,178.09z
						 M115.471,175.269c6.782-5.275,7.851-4.985,13.854-8.053c-5.669,6.271-8.993,6.069-8.976,4.634
						c-4.888,3.401-3.197,3.53-5.281,5.878L115.471,175.269z M125.6,173.123l2.358-2.537c2.477-3.346,1.651-5.552,7.398-7.766
						c0,0-1.858,1.937-3.717,3.873c-1.841,1.946-3.682,3.893-3.682,3.893C127.414,171.343,126.658,172.19,125.6,173.123z
						 M124.317,184.894c0,0-0.803,0.278-1.61,0.526c-0.808,0.238-1.616,0.477-1.616,0.477c1.457-0.716,2.296-1.084,2.754-1.219
						C124.306,184.553,124.39,184.676,124.317,184.894c0,0,0.674-0.223,1.349-0.445c0.679-0.215,1.348-0.468,1.348-0.468
						c-2.974,2.142-3.758,2.564-3.725,2.369C123.325,186.17,124.143,185.328,124.317,184.894z M113.103,184.371
						c0,0,1.75-1.734,3.557-3.439c1.818-1.699,3.636-3.398,3.636-3.398C119.245,177.269,115.098,181.946,113.103,184.371z
						 M123.262,187.436c-1.775,1.017-5.009,2.801-7.739,3.973c-2.715,1.208-4.854,1.983-4.181,1.687
						c0.274-0.674,2.674-1.716,5.254-2.895c1.304-0.547,2.632-1.198,3.829-1.662C121.605,188.029,122.62,187.61,123.262,187.436z
						 M260.179,140.297c0,0,1.094-1.182,2.159-2.412c1.07-1.225,2.091-2.544,2.091-2.544s-0.209,0.853-0.446,1.693
						c-0.245,0.837-0.49,1.675-0.49,1.675s-0.829,0.407-1.658,0.814C261.006,139.91,260.179,140.297,260.179,140.297z
						 M215.642,164.247c0,0,0.231-0.351,0.443-0.723c0.213-0.368,0.426-0.736,0.426-0.736s0.754-0.509,1.489-1.049
						c0.732-0.547,1.464-1.094,1.464-1.094c0.001,0-0.921,0.934-1.876,1.835c-0.482,0.446-0.966,0.892-1.328,1.226
						C215.897,164.044,215.642,164.247,215.642,164.247z M192.589,148.335c0.545-0.423,0.658-0.796,0.302-1.014
						c-0.986,0.099-1.806,0.208-2.085,0.006c0.494-0.148,0.937-0.218,1.293-0.226c0.356,0.021,0.629,0.101,0.792,0.22
						c0.648-0.079,1.4-0.233,2.198-0.391c0.798-0.118,1.645-0.271,2.485-0.442c0.845-0.202,1.658-0.256,2.419-0.406
						c0.786-0.146,1.478-0.274,2.012-0.374c-0.235-0.302-1.474-0.321-2.797-0.362c-1.364,0.093-2.83,0.193-3.527,0.121
						c1.988-0.729,4.235-1.026,6.24-0.872c1.046-0.01,1.963,0.237,2.898,0.37c0.937,0.13,1.792,0.341,2.606,0.617
						c0.781,0.284,1.645,0.681,1.976,1.449c0.273,0.761,0.025,1.321,0.014,1.6c-0.044,0.288,0.048,0.354,0.347,0.172
						c0.296-0.182,0.812-0.605,1.449-1.342c-0.462,1.247-2.209,3.361-4.027,5.11c-1.781,1.749-3.585,3.169-3.212,2.441
						c1.219-1.251,2.616-2.655,3.883-4.339c0.311-0.426,0.611-0.87,0.859-1.361c0.231-0.488,0.467-1.041,0.359-1.665
						c-0.103-0.657-0.771-1.081-1.35-1.268c-0.604-0.209-1.235-0.29-1.861-0.338c-2.513-0.111-5.076,0.148-7.397,0.576
						C196.143,147.094,194.089,147.7,192.589,148.335c-0.495,0.382-1.233,0.707-2.432,1.163
						C190.607,149.166,191.514,148.753,192.589,148.335z M113.188,197.234c-2.519,0.752-3.65,0.941-4.18,0.963
						c-2.269,0.262-4.015,0.201-3.54-0.586c5.317-0.866,2.166,0.533,3.54,0.586C110.369,197.961,111.842,197.681,113.188,197.234z
						 M96.666,199.376c0.008-0.014,0.09,0.188,0.331,0.395c0.121,0.104,0.271,0.229,0.451,0.366c0.18,0.115,0.389,0.206,0.623,0.321
						c0.927,0.394,2.131,0.533,3.29,0.562c1.147,0.001,2.277-0.081,3.109-0.177c0.828-0.102,1.384-0.173,1.384-0.173
						s-1.146,0.024-2.291-0.022c-0.573-0.024-1.141-0.054-1.574-0.111c-0.425-0.046-0.709-0.077-0.709-0.077s0.21,0.006,0.577,0.017
						c0.372,0.017,0.899,0.023,1.526-0.008c0.636-0.007,1.356-0.079,2.144-0.138c0.771-0.093,1.592-0.192,2.415-0.291
						c1.659-0.17,3.284-0.506,4.525-0.714c0.621-0.103,1.134-0.205,1.488-0.292c0.357-0.081,0.561-0.126,0.561-0.126
						c-0.843,0.462-1.744,0.839-2.661,1.183c-0.919,0.334-1.832,0.697-2.774,0.917c-0.936,0.242-1.863,0.454-2.762,0.634
						c-0.919,0.161-1.817,0.295-2.707,0.335c-1.754,0.105-3.406-0.023-4.749-0.522c-0.35-0.15-0.636-0.255-0.923-0.443
						c-0.288-0.196-0.521-0.352-0.714-0.558c-0.196-0.22-0.337-0.421-0.432-0.591C96.7,199.685,96.672,199.498,96.666,199.376z
						 M95.543,195.508c0,0,0.428-0.424,0.881-0.741c0.455-0.325,0.902-0.604,0.902-0.604c0-0.001-0.57,0.479-1.11,1.075
						c-0.264,0.304-0.536,0.619-0.703,0.919c-0.177,0.293-0.295,0.487-0.295,0.487S95.516,195.469,95.543,195.508
						c-0.007-0.018-0.393,0.398-0.387,0.415c0,0,0.075-0.302,0.263-0.731c0.172-0.459,0.465-1.033,0.836-1.688
						c0.748-1.3,1.871-2.815,3.057-4.24c2.374-2.843,4.956-5.387,4.956-5.387s-2.469,2.513-4.729,5.3
						c-1.131,1.393-2.201,2.869-2.918,4.102c-0.369,0.601-0.628,1.175-0.816,1.565C95.638,195.266,95.543,195.508,95.543,195.508z
						 M202.901,94.592c1.123-6.499-10.916,7.055-14.217,7.716c0.47,1.327-2.002,6.581,7.938-3.343
						c-7.713,9.46-7.135,3.598-10.025,10.952c3.966-4.26,9.638-8.485,10.449-9.14l-4.771,4.922
						C196.697,104.646,198.947,97.443,202.901,94.592z M253.744,41.037c0,0,1.518-1.666,3.035-3.333
						c1.502-1.681,3.004-3.362,3.004-3.362s-1.464,1.554-2.929,3.107c-1.479,1.54-2.957,3.08-2.957,3.08L253.744,41.037z
						 M129.608,120.17c1.08,0.188-5.982,9.522-9.123,10.287C124.436,126.143,129.027,121.706,129.608,120.17z M61.405,187.258
						c0,0,1.986-1.59,3.972-3.18c1.974-1.606,3.948-3.212,3.948-3.212c-0.009,2.837-6.648,6.178-9.933,9.639
						C57.486,190.871,60.711,188.837,61.405,187.258z M5.856,218.738c0.013-0.005-0.119-0.181-0.174-0.5
						c-0.036-0.156-0.079-0.338-0.125-0.532c-0.014-0.201-0.03-0.415-0.045-0.63c-0.035-0.428,0.032-0.861,0.04-1.184
						c0.052-0.321,0.087-0.535,0.087-0.535s-0.126,0.295-0.315,0.736c-0.136,0.442-0.387,1.036-0.484,1.628
						c-0.149,0.596-0.18,1.176-0.198,1.613c0.002,0.428,0.044,0.704,0.044,0.704L5.856,218.738z M7.826,222.966
						c-1.337,0.134-0.334,0.792,1.23,1.067c1.557,0.304,3.744,0.151,4.671-0.102c0,0-0.388-0.012-0.969-0.029
						c-0.574-0.036-1.312-0.116-2.044-0.231c-0.731-0.102-1.449-0.284-1.987-0.415C8.187,223.082,7.826,222.966,7.826,222.966z
						 M29.115,168.163l-2.562,3.421l3.809-1.897L29.115,168.163z M26.554,174.798c-1.615,0.013-2.807-1.455-8.023,6.997
						c0.858,1.133,2.426-1.025,1.562,2.857c2.165-2.411,3.292-4.863,4.181-6.216c-1.512,1.61-2.597,4.04-3.679,3.989
						C22.355,179.173,24.788,176.284,26.554,174.798c0.574,0.014,1.229-0.165,2.184-1.051
						C28.392,173.517,27.583,173.936,26.554,174.798z M7.179,206.701c-0.361,1.176-0.548,2.138-0.479,2.492l-0.603,0.756
						C5.86,209.018,6.456,207.796,7.179,206.701c0.38-1.286,0.973-2.854,1.71-4.53c-0.399-0.454-1.785,1.067-3.179,3.132
						c-1.402,2.052-2.565,4.503-3.181,5.615c0.638-1.782,1.675-3.584,2.736-5.432c1.105-1.872,2.141-3.744,3.115-6.116
						c-0.372,0.316-0.542,0.328-0.83,0.643c-0.289,0.314-0.718,0.943-1.482,2.481c0,0,0.766-1.673,1.68-3.392
						c0.91-1.713,1.907-3.453,1.907-3.453c1.641-1.879,2.569-2.679,3.007-2.832c0.433-0.149,0.374,0.354,0.028,1.228
						c-0.673,1.765-2.45,5.045-3.802,8.126c0.195,0.15,0.262,0.571,0.043,1.611C8.645,204.674,7.863,205.643,7.179,206.701z
						 M36.797,168.37l-2.259,2.254c-1.375,0.986-1.078-0.104-1.698,0.127C35.259,167.904,38.956,164.658,36.797,168.37z
						 M106.521,140.084c-1.24,1.742,3.147-0.772,6.239-4.386l-0.57,2.989c-0.886-0.712-7.494,6.15-8.325,6.83
						C101.56,145.602,104.646,143.438,106.521,140.084z M274.488,17.243c-1.361,0.239-3.416,2.998-5.619,5.83
						c-2.18,2.842-4.409,5.809-5.485,6.657c1.848-2.568,4.898-6.723,7.197-9.792C272.889,16.903,274.483,14.818,274.488,17.243z
						 M262.215,34.648c-2.202,2.511-2.685,3.349-3.265,2.38c-1.4,0.917-2.721,3.266-4.142,4.177
						C258.412,35.75,259.414,37.182,262.215,34.648c0.574-0.656,1.229-1.394,2.082-2.302
						C263.478,33.42,262.82,34.092,262.215,34.648z M187.91,61.344l-4.396,1.674l-5.149,4.642c0,0,2.381-1.59,4.761-3.18
						C185.501,62.889,187.909,61.344,187.91,61.344z M131.427,109.736c1.032,0.244-4.589,5.839-6.074,6.684
						c1.198,0.489,4.858-3.366,7.967-6.241c0.456-0.311,1.128-0.891,2.094-1.842c-0.652,0.518-1.332,1.136-2.094,1.842
						c-1.325,0.914-0.966-0.293-1.258-0.591l1.257-1.725l-4.4,3.881L131.427,109.736z M37.248,198.686
						c-1.513,1.787-2.451,2.675-3.332,3.318c-0.435,0.319-0.876,0.602-1.334,0.861c-0.428,0.226-0.899,0.475-1.493,0.788
						c0.111-0.22,0.367-0.52,0.724-0.862c0.185-0.179,0.366-0.339,0.62-0.56c0.259-0.225,0.541-0.46,0.839-0.699
						C34.469,200.586,35.923,199.527,37.248,198.686z M159.183,81.702c-5.461,5.89,4.038-1.305,0.59,2.703l2.991-2.937
						c-4.131,5.544-4.48,2.308-7.731,5.842l2.176-2.361c1.072-2.567-4.12,2.784-5.169,2.546
						C154.431,84.575,161.361,79.358,159.183,81.702z M31.181,202.33c-0.544,0.567-1.118,1.092-1.486,1.407
						c-0.232,0.213-0.452,0.363-0.649,0.459c-0.395,0.194-0.701,0.158-0.95,0.027c-0.502-0.253-0.768-0.854-1.32-0.66
						c0.773-1.071,0.948-0.873,1.437-0.644c0.226,0.118,0.493,0.261,0.846,0.301c0.209-0.005,0.278,0.087,0.761-0.154
						C30.224,202.883,30.674,202.645,31.181,202.33z M120.47,114.263l0.198-0.512l-5.017,4.068l-0.2,0.522L120.47,114.263z"/>
					<path fill="#FBEDEC" d="M27.025,219.09c-1.155,0.672-2.13,1.232-2.955,1.624c-0.821,0.359-1.505,0.626-2.114,0.844
						c0.802-0.375,1.623-0.759,2.465-1.152C25.269,219.959,26.134,219.52,27.025,219.09z"/>
					<path fill="#FBEDEC" d="M243.323,43.6c0.104,0.339-0.241,0.949-0.789,1.69C242.479,45.084,242.646,44.635,243.323,43.6z"/>
					<path fill="#FBEDEC" d="M232.279,54.264c-0.137,0.141-0.283,0.291-0.407,0.418c-0.112,0.076-0.275,0.186-0.407,0.273
						L232.279,54.264z"/>
					<path fill="#FBEDEC" d="M283.207,142.321c3.409-1.192-2.16,2.35-4.11,4.175C281.044,144.674,281.088,143.225,283.207,142.321z"
						/>
					<path fill="#FBEDEC" d="M266.096,154.649c1.479-0.703,3.371-1.961,5.492-3.718
						C270.341,152.122,268.824,153.273,266.096,154.649z"/>
					<path fill="#FBEDEC" d="M279.168,143.638c-2.771,3.002-5.338,5.462-7.58,7.294C273.546,149.08,274.839,147.13,279.168,143.638z
						"/>
					<path fill="#FBEDEC" d="M253.206,144.256c-1.446,0.9-3.16,2.591-4.501,4.075c-1.342,1.483-2.302,2.76-2.302,2.76
						c8.669-10.834-3.158,0.842-4.396,1.518c2.962-3.323,4.718-4.643,6.227-5.592C249.75,146.084,251.047,145.594,253.206,144.256z"
						/>
					<path fill="#FBEDEC" d="M264.821,130.552c-0.423,1.249-1.201,2.38-1.691,3.3C263.718,132.646,264.39,131.604,264.821,130.552z"
						/>
					<path fill="#FBEDEC" d="M262.028,129.728c-2.226,0.229-3.729,0.515-5.056,0.642c-1.298,0.181-2.389,0.212-3.536,0.454
						c2.357-1.818,4.874-2.538,7.124-2.666c1.123-0.051,2.237-0.024,3.266,0.255c0.5,0.148,0.998,0.413,1.15,0.818
						c0.158,0.393,0.025,0.864-0.155,1.321c0.133-0.37,0.167-0.745,0.105-1.032c-0.072-0.279-0.251-0.479-0.562-0.576
						c-0.588-0.225-1.288-0.142-1.77-0.071C261.592,129.059,261.236,129.389,262.028,129.728z"/>
					<path fill="#FBEDEC" d="M177.572,162.284c0.145-0.055,0.338-0.15,0.536-0.241c0.175-0.071,0.362-0.146,0.537-0.196
						c0.35-0.103,0.638-0.104,0.685,0.195c0,0-0.185,0.105-0.463,0.266c-0.139,0.079-0.3,0.172-0.473,0.271
						c-0.204,0.125-0.422,0.257-0.639,0.39c-0.225,0.14-0.45,0.278-0.661,0.408c-0.105,0.065-0.208,0.128-0.304,0.188
						c-0.165,0.107-0.321,0.21-0.466,0.304c-0.594,0.388-0.99,0.646-0.99,0.646C172.521,165.945,177.395,162.474,177.572,162.284z"
						/>
					<path fill="#FBEDEC" d="M153.299,176.375c-5.157,3.798-1.608,2.953-4.421,4.641l-0.858-1.76L153.299,176.375z"/>
					<path fill="#FBEDEC" d="M150.199,166.479l1.613-0.992c-0.576,0.412-1.141,0.815-1.754,1.255L150.199,166.479z"/>
					<path fill="#FBEDEC" d="M128.437,195.575c0,0,1.268-0.104,2.535-0.208c0.64-0.058,1.281-0.115,1.761-0.158
						c0.476-0.053,0.793-0.088,0.793-0.088C128.335,197.514,127.433,195.957,128.437,195.575z"/>
					<path fill="#FBEDEC" d="M104.438,206.186c0,0,0.296-0.01,0.741-0.026c0.419-0.029,0.979-0.068,1.538-0.107
						c1.048-0.104,2.096-0.209,2.096-0.209s-0.798,0.169-1.994,0.423c-1.289,0.229-2.999,0.537-5.133,0.63
						c-0.591,0.005-1.128,0.018-1.75-0.011c-0.339-0.029-0.675-0.059-1.007-0.088l-0.492-0.055
						c-0.183-0.027-0.403-0.073-0.599-0.113c-1.355-0.218-3.715-1.025-5.44-2.869c-0.443-0.488-0.827-1.005-1.143-1.508
						c-0.294-0.5-0.501-1.004-0.683-1.486c-0.39-1.034-0.419-1.661-0.491-2.275c-0.027-0.298-0.04-0.562-0.047-0.792
						c0.009-0.178,0.017-0.33,0.023-0.452c0.019-0.242,0.03-0.371,0.03-0.371c0.008,0.023-0.046,0.299-0.026,1.018
						c0.075,0.817,0.088,1.876,0.86,3.544c0.318,0.768,0.928,1.571,1.611,2.313c0.362,0.402,0.678,0.615,1.059,0.908
						c0.368,0.269,0.777,0.534,1.172,0.751c0.631,0.302,1.414,0.619,2.041,0.785c0.551,0.13,1.158,0.254,1.695,0.324
						c0.459,0.04,0.921,0.07,1.375,0.09c0.455,0.02,0.774-0.011,1.153-0.02c0.76-0.018,1.307-0.101,1.823-0.157
						c0.522-0.054,0.898-0.124,1.166-0.172C104.284,206.213,104.438,206.186,104.438,206.186z"/>
					<path fill="#FBEDEC" d="M105.269,176.353l0.419-1.08c0,0,1.547-1.354,3.095-2.71c1.558-1.326,3.115-2.652,3.115-2.652
						s-1.666,1.593-3.332,3.186C106.907,174.699,105.269,176.353,105.269,176.353z"/>
					<path fill="#FBEDEC" d="M208.613,52.459c-1.028-0.338,1.07-2.322,3.796-4.504c2.72-2.188,6.076-4.544,7.438-5.819
						C219.139,45.448,211.205,47.512,208.613,52.459z"/>
					<path fill="#FBEDEC" d="M38.643,210.615c0,0,0.64-0.449,1.6-1.122c0.969-0.666,2.228-1.584,3.483-2.508
						c2.51-1.847,4.962-3.753,4.962-3.753c-3.49,3.334-4.039,3.744-4.667,4.06C43.381,207.597,42.695,207.852,38.643,210.615z"/>
				</g>
			</g>
		</g>
	</g>
</g>
</svg>
