<?xml version="1.0" encoding="utf-8"?>
<!-- Generator: Adobe Illustrator 16.0.0, SVG Export Plug-In . SVG Version: 6.00 Build 0)  -->
<!DOCTYPE svg PUBLIC "-//W3C//DTD SVG 1.1//EN" "http://www.w3.org/Graphics/SVG/1.1/DTD/svg11.dtd">
<svg version="1.1" id="圖層_1" xmlns="http://www.w3.org/2000/svg" xmlns:xlink="http://www.w3.org/1999/xlink" x="0px" y="0px"
	 width="305.379px" height="67.621px" viewBox="0 0 305.379 67.621" enable-background="new 0 0 305.379 67.621"
	 xml:space="preserve">
<g enable-background="new    ">
	<path fill="#575757" d="M7.755,63.477l0.172-0.086c0,0.345-0.029,0.573-0.086,0.689c0,0.172-0.058,0.259-0.172,0.259
		c-0.403,0.172-0.762,0.345-1.077,0.517c-0.316,0.173-0.676,0.373-1.077,0.604c-0.288,0.114-0.46,0.143-0.517,0.086
		c-0.058-0.058-0.172-0.23-0.345-0.517c-0.288-0.461-0.46-0.763-0.517-0.905c-0.058-0.144,0.143-0.445,0.603-0.904
		c0.401-0.518,0.833-0.963,1.293-1.336c0.459-0.374,0.918-0.791,1.378-1.25c2.183-1.723,4.395-3.446,6.635-5.17
		c2.241-1.724,4.509-3.419,6.808-5.084c1.838-1.322,3.691-2.629,5.558-3.921c1.866-1.293,3.749-2.599,5.645-3.921
		c0.114,0,0.229-0.057,0.345-0.173c-0.748,0-1.265,0.03-1.551,0.087c-4.826,0.805-9.565,1.58-14.218,2.326
		c-1.609,0.288-3.218,0.561-4.826,0.818c-1.609,0.259-3.218,0.561-4.826,0.905c-0.46,0.116-0.905,0.216-1.336,0.302
		c-0.431,0.086-0.848,0.187-1.25,0.302H4.05c-0.116-0.229-0.202-0.401-0.259-0.518c-0.23-0.517-0.288-0.89-0.172-1.12
		c0.115-0.229,0.431-0.431,0.948-0.604c0.862-0.286,1.737-0.53,2.628-0.732c0.89-0.2,1.737-0.444,2.542-0.732
		c5.055-1.206,10.11-2.154,15.167-2.844c2.068-0.4,4.136-0.717,6.204-0.947c2.068-0.229,4.107-0.487,6.118-0.775
		c0.345-0.057,0.66-0.201,0.948-0.432c12.638-8.444,25.477-16.545,38.519-24.3c2.758-1.608,5.486-3.188,8.187-4.74
		c2.7-1.551,5.485-2.986,8.359-4.309c0.401-0.229,0.991-0.545,1.766-0.947c0.776-0.401,1.58-0.732,2.413-0.991
		c0.832-0.259,1.594-0.373,2.284-0.345c0.689,0.029,1.12,0.388,1.292,1.077h-0.345c-0.172-0.287-0.46-0.373-0.862-0.259
		c-0.689,0.461-1.379,0.862-2.068,1.207c-0.689,0.345-1.379,0.661-2.068,0.947c-0.172,0.173-0.359,0.332-0.56,0.475
		c-0.202,0.144-0.417,0.273-0.646,0.388c0.115,0.172,0.216,0.359,0.302,0.56c0.086,0.202,0.186,0.388,0.302,0.561
		c-0.172,0.288-0.332,0.532-0.474,0.732c-0.144,0.202-0.388,0.359-0.732,0.474c-0.116,0-0.202,0.059-0.258,0.173
		c-0.058,0.115-0.145,0.23-0.259,0.345c-2.528,2.757-4.97,5.588-7.325,8.487c-2.356,2.902-4.683,5.847-6.98,8.833
		c-0.919,1.265-1.81,2.485-2.671,3.662c-0.862,1.179-1.753,2.399-2.671,3.662c-0.575,0.806-1.006,1.438-1.293,1.896
		c1.321-0.057,2.628-0.071,3.921-0.043c1.292,0.029,2.599,0.101,3.921,0.215c0.287,0.058,0.545,0.13,0.775,0.216
		c0.229,0.086,0.488,0.158,0.776,0.215c0.229,0.116,0.401,0.259,0.517,0.432c0.114,0.172,0.229,0.345,0.345,0.517
		c0.114,0.23,0.2,0.461,0.258,0.689c0.057,0.23,0.143,0.488,0.258,0.775c-2.011-0.345-4.05-0.502-6.118-0.474
		c-2.068,0.029-4.108,0.101-6.118,0.215c-0.23,0-0.402,0-0.517,0c-0.116,0-0.23,0.087-0.345,0.259
		c-0.978,1.379-1.925,2.758-2.843,4.137c-0.92,1.378-1.839,2.757-2.758,4.136c-1.781,2.7-3.447,5.3-4.998,7.799
		c-1.551,2.499-3.016,5.127-4.395,7.885c-0.345-0.116-0.676-0.316-0.991-0.604c-0.316-0.288-0.532-0.575-0.646-0.861
		c-0.058-0.23,0.028-0.633,0.258-1.207c0.229-0.574,0.517-1.192,0.862-1.853c0.345-0.661,0.689-1.264,1.034-1.81
		c0.345-0.547,0.573-0.904,0.689-1.077c0.918-1.494,1.823-2.973,2.714-4.438c0.89-1.465,1.823-2.943,2.8-4.438
		c0.804-1.206,1.58-2.412,2.327-3.619c0.746-1.206,1.521-2.44,2.327-3.705c0.057-0.114,0.143-0.229,0.259-0.345h-1.207
		c-1.609,0.116-3.203,0.23-4.783,0.345c-1.581,0.116-3.175,0.23-4.782,0.345c-1.954,0.23-3.85,0.445-5.688,0.646
		c-1.839,0.202-3.763,0.359-5.773,0.474c-0.92,0.058-1.81,0.145-2.671,0.259c-0.862,0.115-1.753,0.23-2.671,0.345
		c-0.46,0-0.891,0.172-1.292,0.517c-3.619,2.529-7.225,5.041-10.814,7.54c-3.591,2.499-7.196,5.012-10.815,7.54
		c-1.437,0.977-2.815,1.968-4.136,2.974c-1.322,1.004-2.643,1.995-3.964,2.973c-0.116,0.114-0.187,0.2-0.215,0.259
		c-0.03,0.056-0.101,0.114-0.215,0.172L7.755,63.477z M43.861,37.97h0.259c1.78-0.172,3.546-0.33,5.299-0.474
		c1.752-0.143,3.519-0.272,5.3-0.388c2.24-0.173,4.495-0.33,6.765-0.475c2.269-0.143,4.524-0.301,6.764-0.474
		c0.172,0,0.302-0.028,0.388-0.086c0.086-0.057,0.186-0.114,0.301-0.173c1.493-2.067,2.943-4.106,4.352-6.118
		c1.407-2.01,2.857-4.021,4.352-6.031c1.838-2.413,3.733-4.783,5.687-7.109c1.953-2.327,3.992-4.553,6.118-6.679
		c0.115-0.114,0.216-0.215,0.302-0.302c0.086-0.086,0.186-0.186,0.302-0.302l-0.086-0.086c-7.813,4.653-15.541,9.336-23.18,14.046
		C59.142,28.032,51.501,32.915,43.861,37.97z"/>
	<path fill="#575757" d="M106.422,40.986c0.459-0.115,0.775,0.029,0.948,0.431c0.172,0.402,0,0.747-0.517,1.034
		c-0.402,0.115-0.689,0.229-0.861,0.345s-0.46,0.229-0.862,0.345c-2.701,0.978-5.271,1.839-7.712,2.585
		c-2.442,0.747-5.099,1.351-7.971,1.81c-0.977,0.23-1.938,0.374-2.887,0.431c-0.948,0.058-1.911,0.145-2.887,0.259
		c-0.402,0.058-0.833,0.058-1.292,0c-0.46-0.057-0.919-0.114-1.379-0.173c-0.746-0.114-1.292-0.431-1.637-0.947
		c-0.345-0.518-0.689-0.919-1.034-1.207c-0.459-0.689-0.517-1.32-0.172-1.896c0.23-0.287,0.46-0.573,0.689-0.861
		c0.23-0.287,0.489-0.574,0.776-0.862c1.607-1.32,3.303-2.527,5.084-3.619c1.78-1.091,3.762-1.866,5.946-2.326
		c0.401-0.115,0.789-0.201,1.164-0.259c0.373-0.057,0.789-0.028,1.25,0.086c0.401,0.116,0.746,0.288,1.034,0.518l0.259,0.258
		c0.172,0.173,0.345,0.375,0.517,0.604c0.114,0.172,0.244,0.331,0.388,0.474c0.143,0.145,0.215,0.273,0.215,0.388
		c0,0.059-0.116,0.202-0.345,0.432c-0.23,0.229-0.517,0.474-0.862,0.732c-0.345,0.258-0.719,0.503-1.12,0.732
		c-0.402,0.229-0.747,0.402-1.034,0.517c-0.633,0.23-1.063,0.159-1.292-0.215c-0.23-0.373-0.431-0.675-0.603-0.905
		c-0.116-0.114-0.03-0.302,0.258-0.561c0.287-0.258,0.574-0.502,0.862-0.732c-1.437,0.461-2.801,1.006-4.093,1.638
		c-1.292,0.633-2.514,1.322-3.662,2.068c-0.116,0.115-0.46,0.374-1.034,0.775c-0.575,0.402-1.092,0.848-1.551,1.336
		c-0.459,0.488-0.746,0.934-0.861,1.335c-0.115,0.403,0.202,0.633,0.948,0.689c2.355,0.173,4.653,0,6.894-0.517
		c3.331-0.746,6.261-1.407,8.79-1.982c2.527-0.573,5.141-1.292,7.842-2.154c0.287-0.114,0.588-0.215,0.905-0.302
		C105.833,41.201,106.134,41.102,106.422,40.986z"/>
	<path fill="#575757" d="M128.826,40.986c0.459-0.115,0.775,0.029,0.948,0.431c0.172,0.402,0,0.747-0.517,1.034
		c-0.402,0.115-0.689,0.229-0.861,0.345s-0.46,0.229-0.862,0.345c-2.701,0.978-5.271,1.839-7.712,2.585
		c-2.442,0.747-5.099,1.351-7.971,1.81c-0.977,0.23-1.938,0.374-2.887,0.431c-0.948,0.058-1.911,0.145-2.887,0.259
		c-0.402,0.058-0.833,0.058-1.292,0c-0.46-0.057-0.919-0.114-1.379-0.173c-0.746-0.114-1.292-0.431-1.637-0.947
		c-0.345-0.518-0.689-0.919-1.034-1.207c-0.459-0.689-0.517-1.32-0.172-1.896c0.23-0.287,0.46-0.573,0.689-0.861
		c0.23-0.287,0.489-0.574,0.776-0.862c1.607-1.32,3.303-2.527,5.084-3.619c1.78-1.091,3.762-1.866,5.946-2.326
		c0.401-0.115,0.789-0.201,1.164-0.259c0.373-0.057,0.789-0.028,1.25,0.086c0.401,0.116,0.746,0.288,1.034,0.518l0.259,0.258
		c0.172,0.173,0.345,0.375,0.517,0.604c0.114,0.172,0.244,0.331,0.388,0.474c0.143,0.145,0.215,0.273,0.215,0.388
		c0,0.059-0.116,0.202-0.345,0.432c-0.23,0.229-0.517,0.474-0.862,0.732c-0.345,0.258-0.719,0.503-1.12,0.732
		c-0.402,0.229-0.747,0.402-1.034,0.517c-0.633,0.23-1.063,0.159-1.292-0.215c-0.23-0.373-0.431-0.675-0.603-0.905
		c-0.116-0.114-0.03-0.302,0.258-0.561c0.287-0.258,0.574-0.502,0.862-0.732c-1.437,0.461-2.801,1.006-4.093,1.638
		c-1.292,0.633-2.514,1.322-3.662,2.068c-0.116,0.115-0.46,0.374-1.034,0.775c-0.575,0.402-1.092,0.848-1.551,1.336
		c-0.459,0.488-0.746,0.934-0.861,1.335c-0.115,0.403,0.202,0.633,0.948,0.689c2.355,0.173,4.653,0,6.894-0.517
		c3.331-0.746,6.261-1.407,8.79-1.982c2.527-0.573,5.141-1.292,7.842-2.154c0.287-0.114,0.588-0.215,0.905-0.302
		C128.236,41.201,128.538,41.102,128.826,40.986z"/>
	<path fill="#575757" d="M129.946,41.417c-0.861,0.46-1.624,0.935-2.283,1.422c-0.661,0.488-1.221,1.077-1.681,1.767
		c-0.345,0.229-0.603,0.546-0.775,0.947c-0.114,0.288-0.057,0.432,0.172,0.432c0.287,0.058,0.56,0.115,0.819,0.172
		c0.258,0.058,0.502,0.116,0.732,0.172c2.183,0,4.451-0.258,6.808-0.775c2.757-0.631,5.485-1.363,8.186-2.197
		c2.7-0.832,5.343-1.708,7.928-2.628c0.632-0.287,1.321-0.546,2.068-0.775c0.746-0.229,1.436-0.459,2.068-0.689
		c0.287-0.114,0.459-0.114,0.517,0c0.057,0.115,0.144,0.23,0.259,0.345c0.114,0.288,0,0.547-0.345,0.775
		c-0.806,0.402-1.624,0.805-2.456,1.206c-0.833,0.403-1.652,0.806-2.456,1.207c-2.413,1.149-4.883,2.111-7.411,2.887
		c-2.528,0.775-5.056,1.451-7.583,2.024c-1.207,0.288-2.428,0.489-3.663,0.604c-1.236,0.114-2.399,0.086-3.49-0.086
		c-0.633-0.114-1.193-0.302-1.68-0.561c-0.488-0.259-0.875-0.703-1.164-1.336c-0.229-0.344-0.459-0.631-0.689-0.861
		c-0.287-0.689-0.143-1.521,0.431-2.499c0.46-0.517,0.962-0.991,1.508-1.422s1.047-0.847,1.508-1.249
		c1.378-0.919,2.786-1.737,4.222-2.456c1.436-0.718,2.93-1.307,4.481-1.767c0.459-0.114,0.976-0.216,1.551-0.302
		c0.573-0.086,1.148-0.186,1.723-0.302c0.804-0.172,1.379,0.086,1.724,0.775c0.114,0.23,0.229,0.432,0.345,0.604
		c0.114,0.173,0.229,0.345,0.345,0.518c0.287,0.344,0.201,0.719-0.259,1.12c-0.402,0.402-0.689,0.661-0.861,0.775
		c-1.207,0.689-2.413,1.292-3.62,1.81c-1.206,0.517-2.557,0.892-4.05,1.12c-0.23,0.058-0.489,0.086-0.776,0.086
		c-0.288,0-0.575,0-0.861,0C130.778,42.222,130.347,41.934,129.946,41.417z M131.928,40.297c2.413-0.459,4.682-1.35,6.808-2.672
		c-1.206,0.288-2.356,0.646-3.447,1.077C134.197,39.133,133.077,39.665,131.928,40.297z"/>
	<path fill="#575757" d="M163.811,37.625h-0.172c-0.461-0.286-0.935-0.416-1.422-0.388c-0.488,0.029-0.99,0.13-1.508,0.302
		c-1.034,0.345-2.025,0.79-2.973,1.336c-0.948,0.546-1.883,1.163-2.801,1.853c-1.092,0.805-2.126,1.667-3.103,2.585
		c-0.978,0.92-1.867,1.954-2.671,3.103c-0.632,0.919-1.121,1.867-1.465,2.844c-0.056,0.114-0.086,0.215-0.086,0.301
		c0,0.087-0.028,0.216-0.086,0.389l0.689-0.345c3.103-1.724,6.247-3.318,9.437-4.783c3.188-1.465,6.476-2.771,9.866-3.921
		c0.918-0.286,1.838-0.573,2.757-0.861c0.919-0.287,1.867-0.487,2.844-0.604c0.287-0.057,0.719-0.086,1.293-0.086
		c0.172,0,0.287,0.029,0.345,0.086c0.229,0.345,0.373,0.604,0.431,0.775c0.057,0.059,0.014,0.13-0.129,0.216
		c-0.145,0.086-0.273,0.129-0.388,0.129c-1.149,0.461-2.327,0.892-3.533,1.293c-1.206,0.402-2.385,0.805-3.533,1.206
		c-3.39,1.265-6.679,2.644-9.866,4.137c-3.188,1.493-6.334,3.103-9.436,4.825c-0.517,0.287-0.804,0.503-0.862,0.646
		c-0.057,0.143-0.057,0.53,0,1.163c0.058,0.46,0.101,0.876,0.129,1.25c0.029,0.373,0.073,0.789,0.129,1.249
		c0.345,2.7-0.775,4.481-3.36,5.343c-1.896,0.574-3.82,0.604-5.774,0.086c-0.804-0.172-1.407-0.603-1.81-1.292
		c-0.114-0.23-0.345-0.575-0.689-1.034c-0.287-0.345-0.315-0.719-0.086-1.12c0.172-0.23,0.331-0.446,0.474-0.646
		c0.144-0.202,0.301-0.388,0.474-0.561c0.978-0.919,1.969-1.737,2.973-2.455c1.006-0.72,2.083-1.422,3.231-2.111
		c0.402-0.23,0.791-0.461,1.163-0.689c0.375-0.23,0.762-0.461,1.164-0.689c0.288-0.116,0.374-0.288,0.258-0.518
		c-0.172-2.526,0.661-4.882,2.499-7.065c1.379-1.666,2.887-3.131,4.524-4.395s3.46-2.327,5.472-3.188
		c0.345-0.173,0.702-0.302,1.077-0.388c0.373-0.087,0.761-0.187,1.163-0.302c1.091-0.173,1.925,0.172,2.499,1.034
		c0.115,0.229,0.259,0.445,0.432,0.646C163.553,37.181,163.695,37.396,163.811,37.625z M146.06,53.395l-0.345,0.173
		c-0.804,0.459-1.579,0.933-2.327,1.422c-0.746,0.487-1.493,0.99-2.24,1.508c-0.574,0.401-1.12,0.847-1.637,1.336
		c-0.517,0.487-1.062,0.961-1.637,1.421c-0.115,0.115-0.201,0.216-0.259,0.302c-0.057,0.087-0.143,0.187-0.258,0.302
		c0.116,0.057,0.202,0.086,0.258,0.086c2.529,0.632,4.769,0.287,6.722-1.033c0.46-0.289,0.848-0.646,1.163-1.077
		c0.316-0.432,0.503-0.935,0.56-1.509c0.058-0.46,0.073-0.935,0.043-1.422C146.075,54.414,146.06,53.912,146.06,53.395z"/>
	<path fill="#575757" d="M183.716,37.625h-0.173c-0.46-0.286-0.934-0.416-1.422-0.388c-0.488,0.029-0.99,0.13-1.508,0.302
		c-1.033,0.345-2.024,0.79-2.973,1.336c-0.947,0.546-1.883,1.163-2.801,1.853c-1.092,0.805-2.125,1.667-3.102,2.585
		c-0.979,0.92-1.867,1.954-2.672,3.103c-0.631,0.919-1.12,1.867-1.465,2.844c-0.057,0.114-0.086,0.215-0.086,0.301
		c0,0.087-0.028,0.216-0.086,0.389l0.689-0.345c3.102-1.724,6.247-3.318,9.436-4.783s6.477-2.771,9.867-3.921
		c0.918-0.286,1.838-0.573,2.757-0.861c0.919-0.287,1.866-0.487,2.844-0.604c0.286-0.057,0.718-0.086,1.292-0.086
		c0.173,0,0.287,0.029,0.346,0.086c0.229,0.345,0.373,0.604,0.431,0.775c0.056,0.059,0.013,0.13-0.13,0.216
		c-0.144,0.086-0.273,0.129-0.387,0.129c-1.15,0.461-2.327,0.892-3.533,1.293c-1.207,0.402-2.385,0.805-3.533,1.206
		c-3.391,1.265-6.679,2.644-9.867,4.137c-3.188,1.493-6.334,3.103-9.436,4.825c-0.518,0.287-0.805,0.503-0.861,0.646
		c-0.057,0.143-0.057,0.53,0,1.163c0.057,0.46,0.101,0.876,0.129,1.25c0.029,0.373,0.072,0.789,0.129,1.249
		c0.345,2.7-0.775,4.481-3.36,5.343c-1.896,0.574-3.819,0.604-5.774,0.086c-0.803-0.172-1.406-0.603-1.809-1.292
		c-0.115-0.23-0.346-0.575-0.689-1.034c-0.287-0.345-0.315-0.719-0.086-1.12c0.172-0.23,0.33-0.446,0.474-0.646
		c0.144-0.202,0.302-0.388,0.474-0.561c0.978-0.919,1.969-1.737,2.973-2.455c1.006-0.72,2.084-1.422,3.232-2.111
		c0.402-0.23,0.79-0.461,1.162-0.689c0.375-0.23,0.763-0.461,1.164-0.689c0.288-0.116,0.374-0.288,0.258-0.518
		c-0.172-2.526,0.662-4.882,2.5-7.065c1.379-1.666,2.887-3.131,4.523-4.395c1.638-1.264,3.461-2.327,5.473-3.188
		c0.344-0.173,0.702-0.302,1.076-0.388c0.373-0.087,0.762-0.187,1.164-0.302c1.09-0.173,1.924,0.172,2.498,1.034
		c0.115,0.229,0.26,0.445,0.432,0.646C183.457,37.181,183.6,37.396,183.716,37.625z M165.965,53.395l-0.346,0.173
		c-0.803,0.459-1.578,0.933-2.326,1.422c-0.746,0.487-1.493,0.99-2.24,1.508c-0.574,0.401-1.12,0.847-1.637,1.336
		c-0.518,0.487-1.062,0.961-1.638,1.421c-0.114,0.115-0.2,0.216-0.259,0.302c-0.057,0.087-0.143,0.187-0.258,0.302
		c0.115,0.057,0.201,0.086,0.258,0.086c2.529,0.632,4.77,0.287,6.722-1.033c0.46-0.289,0.849-0.646,1.163-1.077
		c0.316-0.432,0.504-0.935,0.561-1.509c0.058-0.46,0.072-0.935,0.043-1.422C165.979,54.414,165.965,53.912,165.965,53.395z"/>
	<path fill="#575757" d="M203.965,37.884c-0.402,0.058-0.719,0.116-0.947,0.172c-0.23,0.059-0.575,0.116-1.035,0.173
		c0.173,0.517,0.445,0.92,0.819,1.206c0.373,0.288,0.761,0.489,1.163,0.604c2.297,0.633,4.337,0.818,6.119,0.561
		c1.779-0.259,3.676-0.589,5.687-0.991c0.804-0.173,1.622-0.388,2.456-0.646c0.832-0.259,1.65-0.502,2.456-0.732
		c0.114-0.057,0.259-0.086,0.431-0.086c0.459,0,0.718,0.229,0.775,0.689c0.057,0.402-0.086,0.661-0.431,0.775
		c-1.034,0.574-2.068,0.978-3.103,1.206c-1.551,0.575-3.145,1.063-4.782,1.465c-1.638,0.402-3.317,0.633-5.041,0.689
		c-0.806,0.058-1.608,0.043-2.413-0.043s-1.609-0.272-2.412-0.561h-0.259c-0.345,1.322-0.905,2.327-1.681,3.017
		s-1.594,1.322-2.455,1.896c-1.379,0.862-2.601,1.436-3.663,1.724c-1.063,0.287-2.341,0.545-3.835,0.775c-0.46,0-0.934,0-1.422,0
		s-0.963-0.058-1.422-0.172c-0.287-0.173-0.545-0.332-0.775-0.475c-0.229-0.144-0.4-0.359-0.517-0.646
		c-0.114-0.229-0.243-0.444-0.388-0.646c-0.143-0.201-0.271-0.388-0.389-0.561c-0.4-0.573-0.43-1.263-0.086-2.068
		c0.173-0.517,0.402-0.976,0.689-1.378c0.289-0.401,0.604-0.805,0.948-1.207c1.263-1.206,2.427-2.183,3.489-2.93
		c1.062-0.746,2.371-1.493,3.922-2.24c1.148-0.459,2.312-0.905,3.49-1.336c1.176-0.431,2.369-0.646,3.576-0.646
		c0.689,0.116,1.162,0.302,1.422,0.561c0.258,0.259,0.529,0.79,0.818,1.594c0,0.633-0.102,0.862-0.303,0.689
		C204.668,38.143,204.366,38,203.965,37.884z M188.109,47.535c0.172,0,0.316,0.029,0.431,0.086c0.114,0.058,0.229,0.086,0.345,0.086
		c1.148,0.116,2.355,0.043,3.619-0.215c1.264-0.259,2.484-0.646,3.662-1.164c1.178-0.517,2.254-1.163,3.232-1.938
		c0.976-0.775,1.752-1.65,2.326-2.628c0.172-0.345,0.114-0.789-0.172-1.336c-0.289-0.545-0.489-0.991-0.604-1.336
		c-0.172-0.345-0.375-0.431-0.604-0.258c-1.15,0.402-2.126,0.747-2.93,1.033c-0.805,0.289-1.753,0.806-2.844,1.552
		c-0.978,0.575-1.867,1.178-2.672,1.81c-0.805,0.633-1.608,1.351-2.412,2.154c-0.288,0.288-0.547,0.604-0.775,0.947
		C188.482,46.673,188.281,47.076,188.109,47.535z"/>
	<path fill="#575757" d="M237.742,40.986c-0.172,0.172-0.359,0.201-0.56,0.086c-0.202-0.114-0.36-0.259-0.474-0.431
		c-0.173-0.229-0.316-0.487-0.432-0.776c0.115-0.573,0.401-1.249,0.861-2.024s0.633-1.278,0.518-1.508
		c-0.288-0.401-1.107-0.345-2.456,0.172c-1.351,0.518-2.901,1.265-4.653,2.24c-1.753,0.978-3.533,2.068-5.342,3.274
		c-1.811,1.207-3.318,2.327-4.524,3.361c-0.633,0.575-1.308,1.12-2.025,1.637c-0.719,0.518-1.451,1.034-2.197,1.552
		c-0.345,0.345-0.659,0.286-0.948-0.173c0-0.058-0.157-0.358-0.474-0.904c-0.315-0.546-0.53-0.875-0.646-0.991
		c-0.114-0.287-0.056-0.604,0.173-0.948c0.402-0.689,0.775-1.379,1.12-2.067c0.345-0.689,0.719-1.35,1.12-1.982
		c0.918-1.436,1.939-2.801,3.059-4.093c1.121-1.293,2.254-2.57,3.404-3.835c0.172-0.173,0.373-0.345,0.604-0.518
		c0.229-0.172,0.459-0.314,0.689-0.431c0.4-0.345,0.775-0.258,1.119,0.259c0.173,0.288,0.316,0.633,0.432,1.034
		c0.057,0.115,0.043,0.259-0.043,0.431c-0.086,0.173-0.188,0.316-0.302,0.431l-1.638,1.982c-0.23,0.288-0.56,0.719-0.99,1.292
		c-0.432,0.575-0.892,1.193-1.379,1.854c-0.488,0.661-0.991,1.322-1.508,1.981c-0.518,0.661-0.948,1.222-1.293,1.681
		c0.918-0.689,2.01-1.493,3.274-2.413c1.263-0.918,2.585-1.823,3.964-2.714s2.742-1.694,4.094-2.413
		c1.349-0.718,2.598-1.25,3.748-1.595c2.01-0.573,3.461-0.459,4.352,0.345c0.891,0.806,1.45,1.868,1.681,3.188
		c0.056,0.633-0.216,1.193-0.819,1.681C238.647,40.139,238.144,40.585,237.742,40.986z"/>
	<path fill="#575757" d="M250.495,34.523c-0.345,0.288-0.689,0.574-1.034,0.861c-0.345,0.288-0.689,0.575-1.033,0.861
		c-1.322,1.15-2.572,2.342-3.749,3.576c-1.179,1.236-2.284,2.542-3.317,3.921c-0.289,0.288-0.518,0.604-0.689,0.948
		c-0.173,0.345-0.375,0.689-0.604,1.034c-0.115,0.115-0.201,0.288-0.258,0.517c0.572,0,0.976-0.028,1.205-0.086
		c1.148-0.287,2.27-0.646,3.361-1.077c1.091-0.431,2.183-0.875,3.274-1.336l5.688-2.585c0.573-0.229,1.005-0.373,1.292-0.431
		c0.229,0,0.402,0.086,0.518,0.259c0.114,0.115,0.201,0.229,0.258,0.345s0,0.258-0.172,0.431c-0.344,0.345-0.604,0.574-0.775,0.689
		c-1.667,1.149-3.361,2.169-5.084,3.059c-1.724,0.892-3.533,1.652-5.429,2.284c-0.806,0.288-1.581,0.46-2.327,0.517
		c-1.149,0.172-1.952-0.172-2.412-1.034c-0.229-0.345-0.518-0.746-0.862-1.206c-0.286-0.459-0.345-0.891-0.173-1.293
		c0.23-0.746,0.489-1.349,0.776-1.81c0.689-1.148,1.493-2.24,2.413-3.274c0.918-1.034,1.865-2.01,2.844-2.93
		c0.631-0.632,1.263-1.207,1.896-1.724c0.632-0.517,1.263-1.034,1.896-1.551l0.172-0.173c0.459-0.286,0.805-0.401,1.035-0.345
		c0.229,0.059,0.486,0.316,0.775,0.775c0.114,0.116,0.2,0.245,0.258,0.388C250.293,34.279,250.379,34.408,250.495,34.523z
		 M259.802,25.733c-0.058,0.116-0.116,0.259-0.173,0.431c-0.058,0.173-0.144,0.316-0.258,0.431
		c-0.461,0.689-0.991,1.308-1.594,1.854c-0.604,0.546-1.25,1.049-1.939,1.508c-0.461,0.288-0.92,0.56-1.379,0.818
		c-0.461,0.259-0.92,0.532-1.379,0.818c-0.288,0.173-0.574,0.188-0.861,0.044c-0.288-0.144-0.461-0.416-0.518-0.819
		c0-0.114,0.043-0.215,0.13-0.302c0.086-0.086,0.186-0.186,0.302-0.301c0.344-0.287,0.703-0.574,1.076-0.862
		c0.373-0.287,0.703-0.573,0.992-0.861c0.517-0.459,1.019-0.948,1.508-1.465c0.486-0.518,0.961-1.005,1.422-1.465
		c0.286-0.173,0.314-0.432,0.086-0.776c-0.172-0.172-0.245-0.301-0.216-0.388c0.028-0.086,0.13-0.186,0.302-0.301
		c0.114-0.057,0.186-0.115,0.215-0.173c0.029-0.057,0.1-0.114,0.216-0.172c0.229-0.345,0.46-0.401,0.689-0.173
		c0.229,0.288,0.444,0.575,0.646,0.861c0.2,0.289,0.416,0.575,0.646,0.862C259.771,25.36,259.802,25.505,259.802,25.733z"/>
	<path fill="#575757" d="M257.731,41.417c-0.861,0.46-1.624,0.935-2.283,1.422c-0.661,0.488-1.222,1.077-1.681,1.767
		c-0.345,0.229-0.604,0.546-0.775,0.947c-0.114,0.288-0.057,0.432,0.172,0.432c0.287,0.058,0.561,0.115,0.819,0.172
		c0.259,0.058,0.502,0.116,0.732,0.172c2.183,0,4.451-0.258,6.808-0.775c2.758-0.631,5.485-1.363,8.186-2.197
		c2.7-0.832,5.344-1.708,7.928-2.628c0.633-0.287,1.322-0.546,2.068-0.775s1.436-0.459,2.068-0.689c0.287-0.114,0.459-0.114,0.518,0
		c0.057,0.115,0.143,0.23,0.258,0.345c0.115,0.288,0,0.547-0.344,0.775c-0.806,0.402-1.625,0.805-2.457,1.206
		c-0.833,0.403-1.651,0.806-2.455,1.207c-2.413,1.149-4.884,2.111-7.411,2.887c-2.528,0.775-5.056,1.451-7.583,2.024
		c-1.207,0.288-2.428,0.489-3.662,0.604c-1.236,0.114-2.399,0.086-3.49-0.086c-0.633-0.114-1.193-0.302-1.68-0.561
		c-0.488-0.259-0.876-0.703-1.164-1.336c-0.229-0.344-0.459-0.631-0.689-0.861c-0.287-0.689-0.143-1.521,0.432-2.499
		c0.46-0.517,0.962-0.991,1.508-1.422c0.545-0.431,1.047-0.847,1.508-1.249c1.379-0.919,2.785-1.737,4.223-2.456
		c1.436-0.718,2.93-1.307,4.48-1.767c0.459-0.114,0.977-0.216,1.551-0.302s1.148-0.186,1.724-0.302
		c0.804-0.172,1.379,0.086,1.724,0.775c0.114,0.23,0.229,0.432,0.345,0.604c0.114,0.173,0.229,0.345,0.345,0.518
		c0.287,0.344,0.201,0.719-0.259,1.12c-0.402,0.402-0.689,0.661-0.861,0.775c-1.206,0.689-2.413,1.292-3.62,1.81
		c-1.205,0.517-2.557,0.892-4.049,1.12c-0.23,0.058-0.489,0.086-0.776,0.086c-0.288,0-0.575,0-0.861,0
		C258.564,42.222,258.133,41.934,257.731,41.417z M259.713,40.297c2.414-0.459,4.682-1.35,6.809-2.672
		c-1.207,0.288-2.356,0.646-3.447,1.077C261.982,39.133,260.862,39.665,259.713,40.297z"/>
	<path fill="#575757" d="M291.596,37.625h-0.172c-0.461-0.286-0.935-0.416-1.422-0.388c-0.488,0.029-0.99,0.13-1.508,0.302
		c-1.034,0.345-2.025,0.79-2.973,1.336c-0.948,0.546-1.883,1.163-2.801,1.853c-1.092,0.805-2.126,1.667-3.103,2.585
		c-0.978,0.92-1.867,1.954-2.671,3.103c-0.632,0.919-1.121,1.867-1.465,2.844c-0.057,0.114-0.086,0.215-0.086,0.301
		c0,0.087-0.029,0.216-0.087,0.389l0.689-0.345c3.103-1.724,6.247-3.318,9.437-4.783c3.188-1.465,6.476-2.771,9.866-3.921
		c0.918-0.286,1.838-0.573,2.757-0.861c0.919-0.287,1.867-0.487,2.844-0.604c0.287-0.057,0.719-0.086,1.293-0.086
		c0.172,0,0.287,0.029,0.345,0.086c0.229,0.345,0.373,0.604,0.431,0.775c0.057,0.059,0.014,0.13-0.129,0.216
		c-0.145,0.086-0.273,0.129-0.388,0.129c-1.149,0.461-2.327,0.892-3.533,1.293c-1.206,0.402-2.385,0.805-3.533,1.206
		c-3.39,1.265-6.679,2.644-9.866,4.137c-3.188,1.493-6.334,3.103-9.436,4.825c-0.518,0.287-0.805,0.503-0.862,0.646
		c-0.057,0.143-0.057,0.53,0,1.163c0.058,0.46,0.101,0.876,0.13,1.25c0.029,0.373,0.072,0.789,0.129,1.249
		c0.344,2.7-0.775,4.481-3.361,5.343c-1.896,0.574-3.819,0.604-5.773,0.086c-0.804-0.172-1.406-0.603-1.81-1.292
		c-0.114-0.23-0.345-0.575-0.688-1.034c-0.287-0.345-0.316-0.719-0.087-1.12c0.173-0.23,0.331-0.446,0.474-0.646
		c0.145-0.202,0.302-0.388,0.475-0.561c0.977-0.919,1.969-1.737,2.973-2.455c1.006-0.72,2.083-1.422,3.231-2.111
		c0.402-0.23,0.79-0.461,1.163-0.689c0.375-0.23,0.762-0.461,1.164-0.689c0.287-0.116,0.373-0.288,0.258-0.518
		c-0.172-2.526,0.661-4.882,2.499-7.065c1.379-1.666,2.887-3.131,4.524-4.395c1.637-1.264,3.46-2.327,5.472-3.188
		c0.345-0.173,0.702-0.302,1.077-0.388c0.373-0.087,0.761-0.187,1.163-0.302c1.091-0.173,1.925,0.172,2.499,1.034
		c0.115,0.229,0.259,0.445,0.432,0.646C291.338,37.181,291.48,37.396,291.596,37.625z M273.845,53.395l-0.345,0.173
		c-0.804,0.459-1.579,0.933-2.326,1.422c-0.746,0.487-1.494,0.99-2.24,1.508c-0.574,0.401-1.121,0.847-1.638,1.336
		c-0.517,0.487-1.062,0.961-1.638,1.421c-0.114,0.115-0.2,0.216-0.258,0.302c-0.057,0.087-0.143,0.187-0.259,0.302
		c0.116,0.057,0.202,0.086,0.259,0.086c2.528,0.632,4.769,0.287,6.721-1.033c0.461-0.289,0.849-0.646,1.164-1.077
		c0.316-0.432,0.503-0.935,0.56-1.509c0.058-0.46,0.073-0.935,0.043-1.422C273.859,54.414,273.845,53.912,273.845,53.395z"/>
</g>
</svg>
