<?xml version="1.0" encoding="utf-8"?>
<!-- Generator: Adobe Illustrator 16.0.0, SVG Export Plug-In . SVG Version: 6.00 Build 0)  -->
<!DOCTYPE svg PUBLIC "-//W3C//DTD SVG 1.1//EN" "http://www.w3.org/Graphics/SVG/1.1/DTD/svg11.dtd">
<svg version="1.1" id="圖層_1" xmlns="http://www.w3.org/2000/svg" xmlns:xlink="http://www.w3.org/1999/xlink" x="0px" y="0px"
	 width="334px" height="68px" viewBox="0 0 334 68" enable-background="new 0 0 334 68" xml:space="preserve">
<g enable-background="new    ">
	<path fill="#575757" d="M38.703,52.908c0.239,0.059,0.45,0.119,0.63,0.18c0.18,0.06,0.27,0.239,0.27,0.54l0.09,0.09
		c-0.18,0.181-0.331,0.345-0.45,0.495c-0.121,0.149-0.27,0.284-0.45,0.405c-0.061,0.059-0.166,0.074-0.315,0.045
		c-0.15-0.031-0.256-0.105-0.315-0.226c-0.301-0.301-0.54-0.615-0.72-0.944c-0.18-0.331-0.36-0.675-0.54-1.035
		c-0.121-0.24-0.135-0.495-0.045-0.765c0.09-0.271,0.194-0.555,0.315-0.855c0.839-1.56,1.785-3.06,2.835-4.5
		c1.049-1.439,2.115-2.88,3.195-4.32c0.119-0.119,0.209-0.238,0.27-0.359v-0.09l-2.16,0.54c-1.08,0.301-2.146,0.57-3.195,0.81
		c-1.05,0.24-2.146,0.48-3.285,0.72c-0.601,0.121-1.201,0.211-1.8,0.271c-0.6,0.061-1.17,0-1.71-0.181
		c-0.36-0.18-0.661-0.389-0.9-0.63c-0.061,0-0.076-0.059-0.045-0.18c0.029-0.119,0.075-0.21,0.135-0.27
		c0.54-0.66,1.049-1.05,1.53-1.171c1.919-0.54,3.765-1.004,5.535-1.395c1.769-0.39,3.584-0.885,5.445-1.485
		c0.479-0.18,0.99-0.344,1.53-0.495c0.54-0.148,1.08-0.314,1.62-0.494c0.36,0,0.57-0.12,0.63-0.36c1.56-1.92,3.164-3.899,4.815-5.94
		c1.65-2.039,3.315-3.96,4.995-5.76c0.84-0.84,1.649-1.634,2.43-2.385c0.779-0.75,1.649-1.485,2.61-2.205
		c0.059,0,0.12-0.029,0.18-0.09c0.479-0.3,0.824-0.419,1.035-0.36c0.21,0.061,0.464,0.331,0.765,0.811
		c0.12,0.12,0.194,0.225,0.225,0.314c0.029,0.09,0.104,0.195,0.225,0.315c0.239,0.18,0.344,0.346,0.315,0.495
		c-0.031,0.15-0.105,0.346-0.225,0.585c-0.661,0.841-1.23,1.62-1.71,2.34c-0.481,0.72-1.05,1.561-1.71,2.52
		c-0.36,0.54-0.69,0.977-0.99,1.306c-0.301,0.33-0.69,0.646-1.17,0.944c0.72-1.499,1.62-3.06,2.7-4.68
		c0.059-0.06,0.09-0.21,0.09-0.45c-1.68,1.681-3.51,3.601-5.49,5.76c-1.98,2.16-3.75,4.171-5.31,6.03c0.239,0,0.39-0.029,0.45-0.09
		c4.379-1.319,8.969-2.685,13.77-4.095c4.8-1.409,9.36-2.955,13.68-4.636c2.819-1.139,5.58-2.309,8.28-3.51
		c2.7-1.199,5.34-2.55,7.92-4.05c1.379-0.779,2.729-1.62,4.05-2.52c1.319-0.9,2.549-1.891,3.69-2.971
		c1.319-1.318,2.07-2.52,2.25-3.6s0.014-2.025-0.495-2.835c-0.51-0.811-1.26-1.515-2.25-2.115c-0.99-0.599-2.025-1.049-3.105-1.35
		c-2.4-0.66-4.801-1.095-7.2-1.306c-2.4-0.209-4.86-0.284-7.38-0.225c-3.06,0-6.061,0.105-9,0.314
		c-2.94,0.211-5.91,0.466-8.91,0.766c-11.581,1.439-22.981,3.811-34.2,7.109c-2.7,0.842-5.355,1.711-7.965,2.61
		c-2.61,0.9-5.206,1.86-7.785,2.88c-0.54,0.24-1.275,0.556-2.205,0.945c-0.931,0.391-1.905,0.841-2.925,1.35
		c-1.021,0.511-2.07,1.066-3.15,1.665c-1.08,0.601-2.07,1.201-2.97,1.8c-0.661,0.481-1.156,0.855-1.485,1.125
		c-0.331,0.271-0.616,0.616-0.855,1.035c-0.121,0.121-0.18,0.347-0.18,0.676c0,0.33-0.15,0.404-0.45,0.225
		c-0.061,0-0.18-0.104-0.36-0.315c-0.18-0.209-0.346-0.495-0.495-0.854c-0.151-0.36-0.286-0.72-0.405-1.08
		c-0.121-0.36-0.121-0.659,0-0.9c0.239-0.599,0.66-1.184,1.26-1.755c0.599-0.569,1.274-1.094,2.025-1.575
		c0.75-0.479,1.485-0.899,2.205-1.26c0.72-0.359,1.35-0.688,1.89-0.99c3-1.56,6.06-2.909,9.18-4.05
		c3.119-1.139,6.269-2.219,9.45-3.24c3.6-1.139,7.169-2.145,10.71-3.015c3.54-0.869,7.169-1.665,10.89-2.385
		c2.579-0.54,5.175-1.02,7.785-1.44c2.61-0.419,5.234-0.778,7.875-1.08c3.659-0.419,7.32-0.733,10.98-0.944
		c3.659-0.21,7.32-0.255,10.98-0.136c2.28,0.121,4.514,0.331,6.705,0.631c2.189,0.301,4.395,0.841,6.615,1.619
		c1.02,0.36,1.98,0.781,2.88,1.261c0.9,0.48,1.679,1.141,2.34,1.979c0.36,0.481,0.72,0.916,1.08,1.306
		c0.36,0.391,0.689,0.825,0.99,1.305c0.66,0.841,0.93,1.681,0.81,2.52c-0.121,0.841-0.42,1.681-0.9,2.521
		c-0.481,0.899-1.05,1.665-1.71,2.295c-0.661,0.63-1.381,1.275-2.16,1.935c-1.62,1.261-3.33,2.416-5.13,3.465
		c-1.8,1.051-3.66,2.057-5.58,3.016c-2.88,1.439-5.836,2.775-8.865,4.005c-3.031,1.23-6.136,2.355-9.315,3.375
		c-2.221,0.78-4.455,1.53-6.705,2.25s-4.486,1.44-6.705,2.16l-0.36,0.18c0.54,0.24,1.08,0.481,1.62,0.72
		c0.54,0.241,1.049,0.54,1.53,0.9c1.319,0.961,2.399,2.101,3.24,3.42c0.3,0.601,0.599,1.156,0.9,1.665
		c0.299,0.511,0.509,1.096,0.63,1.755c0.18,1.021,0.165,2.011-0.045,2.97c-0.211,0.961-0.556,1.861-1.035,2.7
		c-0.661,1.2-1.456,2.279-2.385,3.24c-0.931,0.959-1.935,1.859-3.015,2.7c-2.16,1.679-4.441,3.074-6.84,4.185
		c-2.401,1.109-4.95,2.084-7.65,2.925c-1.381,0.36-2.745,0.689-4.095,0.99c-1.35,0.3-2.716,0.509-4.095,0.63
		c-1.201,0.12-2.385,0.194-3.555,0.226c-1.17,0.029-2.355-0.076-3.555-0.315c-1.021-0.18-1.951-0.511-2.79-0.99
		c-0.841-0.48-1.561-1.23-2.16-2.25c-0.121-0.359-0.285-0.69-0.495-0.989c-0.211-0.302-0.375-0.661-0.495-1.08
		c-0.121-0.54-0.105-1.035,0.045-1.485c0.149-0.45,0.374-0.915,0.675-1.395c0.479-0.661,1.004-1.216,1.575-1.665
		c0.569-0.45,1.184-0.887,1.845-1.306c0.659-0.359,1.319-0.706,1.98-1.035c0.659-0.33,1.319-0.645,1.98-0.944
		c0.119-0.121,0.254-0.181,0.405-0.181c0.149,0,0.284-0.03,0.405-0.09c-0.24,0.66-0.571,1.17-0.99,1.53
		c-1.08,0.84-2.115,1.694-3.105,2.565c-0.99,0.869-1.815,1.903-2.475,3.104c-0.481,0.72-0.751,1.47-0.81,2.25
		c0,0.3,0.149,0.54,0.45,0.72c0.479,0.239,0.975,0.435,1.485,0.585c0.509,0.149,1.064,0.255,1.665,0.315
		c2.64,0.239,5.31,0.149,8.01-0.27c4.739-0.842,9.299-2.281,13.68-4.32c1.74-0.841,3.434-1.786,5.085-2.835
		c1.649-1.051,3.164-2.266,4.545-3.646c0.84-0.839,1.589-1.71,2.25-2.609c0.66-0.9,1.139-1.949,1.44-3.15
		c0.419-1.38,0.45-2.669,0.09-3.87c-0.18-0.599-0.481-1.049-0.9-1.35c-1.8-1.38-3.931-2.25-6.39-2.61
		c-0.601-0.059-1.246-0.135-1.935-0.225c-0.69-0.09-1.305-0.075-1.845,0.045c-0.6,0.121-1.201,0.27-1.8,0.45
		c-0.841,0.24-1.651,0.465-2.43,0.675c-0.78,0.211-1.561,0.465-2.34,0.765c-0.121,0-0.225,0.031-0.315,0.09
		c-0.09,0.061-0.195,0.121-0.315,0.181c-1.201,1.439-2.385,2.88-3.555,4.319c-1.17,1.44-2.265,2.94-3.285,4.5
		c-0.36,0.481-0.706,1.006-1.035,1.575c-0.331,0.571-0.675,1.154-1.035,1.755c-0.061,0.06-0.09,0.104-0.09,0.136
		C38.792,52.803,38.762,52.848,38.703,52.908z"/>
	<path fill="#575757" d="M79.202,44.718c-0.9,0.481-1.696,0.977-2.385,1.485c-0.69,0.511-1.275,1.125-1.755,1.845
		c-0.36,0.24-0.63,0.571-0.81,0.99c-0.119,0.301-0.059,0.45,0.18,0.45c0.299,0.061,0.585,0.121,0.855,0.18
		c0.27,0.061,0.524,0.121,0.765,0.18c2.279,0,4.649-0.27,7.11-0.81c2.88-0.659,5.729-1.425,8.55-2.295
		c2.82-0.869,5.58-1.785,8.28-2.745c0.66-0.3,1.379-0.569,2.16-0.811c0.779-0.238,1.499-0.479,2.16-0.72
		c0.3-0.119,0.479-0.119,0.54,0c0.059,0.121,0.149,0.24,0.27,0.36c0.12,0.301,0,0.57-0.36,0.81
		c-0.841,0.421-1.696,0.841-2.565,1.261c-0.871,0.42-1.726,0.841-2.565,1.26c-2.52,1.201-5.101,2.205-7.74,3.015
		c-2.641,0.811-5.28,1.516-7.92,2.115c-1.26,0.301-2.536,0.511-3.825,0.63c-1.291,0.119-2.506,0.09-3.645-0.09
		c-0.661-0.12-1.246-0.315-1.755-0.585c-0.509-0.271-0.914-0.734-1.215-1.396c-0.239-0.359-0.479-0.659-0.72-0.899
		c-0.299-0.721-0.149-1.589,0.45-2.61c0.481-0.54,1.005-1.035,1.575-1.485c0.57-0.449,1.094-0.884,1.575-1.305
		c1.44-0.959,2.91-1.813,4.41-2.564c1.499-0.75,3.06-1.364,4.68-1.846c0.479-0.119,1.02-0.225,1.62-0.314
		c0.599-0.09,1.2-0.194,1.8-0.315c0.839-0.18,1.44,0.09,1.8,0.811c0.12,0.24,0.239,0.449,0.36,0.63c0.12,0.18,0.239,0.359,0.36,0.54
		c0.3,0.359,0.21,0.751-0.27,1.17c-0.421,0.42-0.72,0.69-0.9,0.81c-1.26,0.72-2.52,1.351-3.78,1.891
		c-1.26,0.54-2.67,0.931-4.23,1.17c-0.241,0.061-0.511,0.09-0.81,0.09c-0.301,0-0.601,0-0.9,0
		C80.071,45.559,79.621,45.258,79.202,44.718z M81.272,43.548c2.52-0.479,4.89-1.409,7.11-2.79c-1.26,0.301-2.461,0.675-3.6,1.125
		C83.642,42.333,82.472,42.889,81.272,43.548z"/>
	<path fill="#575757" d="M114.571,40.758h-0.18c-0.481-0.3-0.976-0.435-1.485-0.405c-0.51,0.031-1.035,0.136-1.575,0.315
		c-1.08,0.36-2.115,0.825-3.105,1.395c-0.99,0.571-1.966,1.216-2.925,1.936c-1.141,0.841-2.22,1.741-3.24,2.7
		c-1.021,0.96-1.951,2.04-2.79,3.239c-0.66,0.961-1.17,1.951-1.53,2.971c-0.059,0.119-0.09,0.225-0.09,0.314s-0.03,0.226-0.09,0.405
		l0.72-0.36c3.24-1.8,6.525-3.465,9.855-4.994c3.33-1.53,6.764-2.895,10.305-4.096c0.959-0.299,1.919-0.599,2.88-0.899
		c0.959-0.3,1.949-0.51,2.97-0.63c0.299-0.06,0.75-0.091,1.35-0.091c0.18,0,0.3,0.031,0.36,0.091c0.239,0.359,0.389,0.63,0.45,0.81
		c0.059,0.061,0.014,0.135-0.135,0.225c-0.15,0.091-0.286,0.136-0.405,0.136c-1.201,0.48-2.43,0.931-3.69,1.35
		c-1.26,0.421-2.49,0.841-3.69,1.26c-3.541,1.32-6.975,2.761-10.305,4.32c-3.33,1.56-6.615,3.24-9.855,5.04
		c-0.54,0.3-0.839,0.524-0.9,0.675c-0.059,0.149-0.059,0.554,0,1.215c0.061,0.479,0.105,0.914,0.135,1.306
		c0.031,0.389,0.076,0.823,0.135,1.305c0.36,2.819-0.81,4.68-3.51,5.58c-1.98,0.599-3.99,0.63-6.03,0.09
		c-0.839-0.18-1.469-0.63-1.89-1.35c-0.12-0.241-0.36-0.601-0.72-1.08c-0.299-0.36-0.329-0.751-0.09-1.17
		c0.18-0.241,0.346-0.466,0.495-0.676c0.151-0.211,0.315-0.404,0.495-0.585c1.021-0.96,2.056-1.815,3.105-2.564
		c1.051-0.751,2.176-1.485,3.375-2.205c0.42-0.24,0.826-0.481,1.215-0.72c0.391-0.241,0.796-0.481,1.215-0.721
		c0.301-0.121,0.391-0.301,0.27-0.54c-0.18-2.64,0.69-5.099,2.61-7.38c1.44-1.739,3.015-3.27,4.725-4.59
		c1.71-1.319,3.614-2.43,5.715-3.33c0.36-0.18,0.734-0.314,1.125-0.405c0.39-0.09,0.794-0.193,1.215-0.314
		c1.139-0.18,2.009,0.18,2.61,1.08c0.12,0.24,0.27,0.465,0.45,0.675C114.301,40.294,114.45,40.519,114.571,40.758z M96.031,57.228
		l-0.36,0.181c-0.839,0.479-1.649,0.975-2.43,1.484c-0.779,0.51-1.56,1.035-2.34,1.575c-0.599,0.419-1.17,0.885-1.71,1.396
		c-0.54,0.509-1.109,1.004-1.71,1.484c-0.12,0.12-0.209,0.226-0.27,0.315c-0.059,0.09-0.149,0.194-0.27,0.314
		c0.121,0.06,0.211,0.091,0.27,0.091c2.641,0.659,4.981,0.299,7.02-1.08c0.481-0.301,0.886-0.676,1.215-1.125
		c0.331-0.45,0.526-0.977,0.585-1.575c0.061-0.481,0.076-0.976,0.045-1.485C96.047,58.293,96.031,57.768,96.031,57.228z"/>
	<path fill="#575757" d="M141.48,25.368c-2.88-0.12-5.611-0.135-8.19-0.045c-2.581,0.09-5.13,0.135-7.65,0.135h-0.72
		c-1.201-0.119-1.771-0.75-1.71-1.89c0-0.181,0.12-0.271,0.36-0.271c0.599-0.059,1.17-0.104,1.71-0.135
		c0.54-0.029,1.109-0.074,1.71-0.135c3.24-0.12,6.179-0.226,8.82-0.315c2.64-0.09,5.31-0.074,8.01,0.045
		c0.419,0,0.75-0.119,0.99-0.359c1.56-1.261,3.09-2.521,4.59-3.78c1.499-1.26,3.029-2.489,4.59-3.69
		c0.66-0.599,1.44-1.139,2.34-1.62c0.479-0.299,0.84-0.18,1.08,0.36c0.12,0.301,0.239,0.585,0.36,0.855
		c0.12,0.27,0.239,0.555,0.36,0.854c0,0.24-0.061,0.421-0.18,0.54c-0.301,0.36-0.63,0.69-0.99,0.99l-6.21,5.939
		c-0.121,0-0.211,0.09-0.27,0.271c0.239,0,0.45,0.016,0.63,0.045c0.18,0.031,0.389,0.045,0.63,0.045
		c2.039,0.121,4.064,0.256,6.075,0.405c2.01,0.15,4.035,0.346,6.075,0.585c1.02,0.121,2.025,0.27,3.015,0.45
		c0.989,0.18,1.994,0.359,3.015,0.539c0.059,0,0.104,0.016,0.135,0.046c0.029,0.03,0.075,0.045,0.135,0.045
		c1.14,0.301,1.74,0.931,1.801,1.89l0.27,1.08c0.06,0.24-0.031,0.36-0.27,0.36c-0.42,0-0.69-0.149-0.811-0.45
		c-0.24-0.239-0.6-0.419-1.08-0.54c-0.66-0.12-1.305-0.226-1.935-0.315s-1.275-0.193-1.935-0.314
		c-2.281-0.3-4.545-0.524-6.795-0.676c-2.25-0.148-4.515-0.283-6.795-0.404c-0.78-0.06-1.561-0.104-2.34-0.135
		c-0.781-0.03-1.561-0.075-2.34-0.136c-0.36,0-0.63,0.09-0.81,0.271c-1.861,1.561-3.721,3.075-5.58,4.545
		c-1.861,1.471-3.75,2.896-5.67,4.274c-0.54,0.302-1.08,0.781-1.62,1.44l-9.72,10.26c-0.601,0.661-1.156,1.336-1.665,2.025
		c-0.51,0.69-1.035,1.395-1.575,2.115c-0.3,0.48-0.66,1.17-1.08,2.069c0.481,0,0.81-0.03,0.99-0.09
		c1.139-0.121,2.235-0.314,3.285-0.585c1.049-0.27,2.084-0.585,3.105-0.945c2.1-0.778,4.169-1.619,6.21-2.52
		c2.039-0.9,4.08-1.8,6.12-2.7c1.02-0.479,2.084-0.959,3.195-1.439c1.11-0.479,2.205-0.96,3.285-1.44
		c0.12-0.059,0.239-0.135,0.36-0.225c0.12-0.091,0.239-0.015,0.36,0.225c0.119,0.24,0.135,0.421,0.045,0.54
		c-0.09,0.121-0.196,0.24-0.315,0.36c-1.021,0.841-2.115,1.59-3.285,2.25s-2.355,1.291-3.555,1.89
		c-2.34,1.201-4.725,2.326-7.155,3.375c-2.43,1.049-4.936,1.904-7.515,2.565c-0.661,0.18-1.305,0.328-1.935,0.449
		c-0.63,0.12-1.275,0.149-1.935,0.09c-0.72,0-1.26-0.301-1.62-0.899c-0.12-0.18-0.239-0.36-0.36-0.54
		c-0.119-0.18-0.239-0.33-0.36-0.45c-0.479-0.54-0.569-1.109-0.27-1.71c0.301-0.54,0.585-1.094,0.855-1.665
		c0.27-0.569,0.585-1.094,0.945-1.575c1.08-1.62,2.264-3.164,3.555-4.635c1.29-1.47,2.595-2.894,3.915-4.275
		c4.14-4.379,8.399-8.64,12.78-12.779c0.12-0.06,0.21-0.135,0.27-0.226C141.269,25.593,141.359,25.489,141.48,25.368z"/>
	<path fill="#575757" d="M172.258,42.468c-0.96,0.121-1.875,0.315-2.744,0.585c-0.871,0.271-1.727,0.585-2.565,0.945
		c-1.201,0.48-2.581,1.141-4.14,1.979c-1.561,0.842-2.88,1.591-3.96,2.25v0.181c0.12-0.06,0.329-0.165,0.63-0.315
		c0.3-0.148,0.63-0.3,0.99-0.45c0.36-0.148,0.689-0.299,0.99-0.449c0.3-0.149,0.54-0.255,0.72-0.315
		c1.379-0.54,2.745-1.08,4.095-1.62c1.35-0.54,2.714-1.049,4.095-1.53c0.3-0.119,0.614-0.209,0.944-0.27
		c0.33-0.06,0.645-0.119,0.945-0.18c0.721-0.12,1.29,0.12,1.711,0.72c0.299,0.42,0.688,0.931,1.17,1.53
		c0.18,0.24,0.299,0.555,0.359,0.944c0.059,0.392,0.135,0.781,0.225,1.17c0.09,0.392,0.21,0.736,0.36,1.035
		c0.149,0.301,0.405,0.481,0.765,0.54c0.84,0.121,1.59,0.121,2.25,0c0.66-0.119,1.351-0.3,2.07-0.54
		c1.199-0.359,2.354-0.733,3.465-1.125c1.109-0.39,2.234-0.794,3.375-1.215c0.239-0.119,0.45-0.209,0.631-0.27
		c0.18-0.06,0.389-0.12,0.629-0.181c0.42-0.119,0.721,0,0.9,0.36c0.059,0.24-0.061,0.48-0.359,0.72
		c-1.32,0.841-2.655,1.665-4.006,2.476c-1.35,0.81-2.805,1.365-4.365,1.665c-1.021,0.18-2.04,0.27-3.06,0.27
		c-1.44,0-2.445-0.419-3.015-1.26c-0.571-0.84-1.006-1.859-1.305-3.061c-0.061-0.238-0.105-0.449-0.135-0.63
		c-0.031-0.18-0.046-0.39-0.046-0.63c0-0.419-0.18-0.54-0.54-0.36c-0.6,0.181-1.201,0.347-1.8,0.495
		c-0.601,0.15-1.2,0.376-1.8,0.676c-1.62,0.66-3.24,1.336-4.86,2.024c-1.62,0.69-3.24,1.396-4.86,2.115
		c-0.54,0.18-1.095,0.36-1.665,0.54c-0.571,0.18-1.095,0.36-1.575,0.54c-0.72,0.18-1.29-0.06-1.71-0.72
		c-0.12-0.239-0.255-0.465-0.405-0.676c-0.149-0.209-0.315-0.404-0.495-0.585c-0.299-0.419-0.27-0.81,0.09-1.17
		c0.301-0.299,0.585-0.585,0.855-0.854c0.27-0.271,0.585-0.524,0.945-0.766c1.679-1.26,3.42-2.398,5.22-3.42
		c1.8-1.02,3.719-1.858,5.76-2.52c1.499-0.479,2.849-0.689,4.05-0.63c1.139,0,2.07,0.449,2.79,1.35c0.36,0.54,0.54,0.87,0.54,0.99
		c0,0.121-0.121,0.15-0.359,0.09c-0.24-0.059-0.526-0.149-0.855-0.27C172.873,42.528,172.558,42.468,172.258,42.468z"/>
	<path fill="#575757" d="M215.816,44.268c0.479-0.119,0.811,0.031,0.99,0.45c0.18,0.421,0,0.78-0.54,1.08
		c-0.421,0.121-0.72,0.24-0.9,0.36c-0.18,0.121-0.481,0.24-0.899,0.359c-2.821,1.021-5.506,1.921-8.055,2.7
		c-2.552,0.78-5.326,1.411-8.326,1.891c-1.021,0.24-2.024,0.391-3.015,0.449c-0.989,0.061-1.995,0.15-3.015,0.271
		c-0.421,0.061-0.871,0.061-1.35,0c-0.481-0.06-0.961-0.12-1.44-0.18c-0.779-0.12-1.351-0.45-1.71-0.99
		c-0.36-0.54-0.721-0.959-1.08-1.26c-0.479-0.721-0.54-1.38-0.18-1.98c0.24-0.3,0.48-0.599,0.72-0.9
		c0.24-0.299,0.511-0.599,0.81-0.899c1.68-1.38,3.449-2.64,5.311-3.78c1.859-1.139,3.929-1.949,6.209-2.43
		c0.42-0.12,0.824-0.21,1.216-0.271c0.39-0.059,0.823-0.029,1.305,0.09c0.419,0.121,0.779,0.302,1.08,0.54l0.271,0.271
		c0.18,0.18,0.359,0.391,0.539,0.63c0.12,0.18,0.255,0.346,0.406,0.495c0.148,0.15,0.225,0.285,0.225,0.405
		c0,0.061-0.121,0.211-0.36,0.449c-0.24,0.241-0.54,0.495-0.899,0.766c-0.36,0.27-0.752,0.525-1.17,0.765
		c-0.421,0.24-0.781,0.421-1.08,0.54c-0.662,0.24-1.111,0.166-1.351-0.225c-0.24-0.39-0.45-0.705-0.63-0.945
		c-0.121-0.119-0.031-0.315,0.27-0.585c0.3-0.271,0.6-0.524,0.9-0.765c-1.5,0.48-2.925,1.05-4.275,1.71
		c-1.35,0.66-2.625,1.381-3.824,2.159c-0.121,0.121-0.481,0.392-1.08,0.811c-0.601,0.42-1.141,0.886-1.62,1.395
		c-0.479,0.511-0.779,0.977-0.9,1.396c-0.119,0.42,0.211,0.661,0.99,0.72c2.46,0.18,4.86,0,7.2-0.54
		c3.479-0.779,6.539-1.47,9.18-2.069c2.64-0.6,5.369-1.351,8.189-2.25c0.301-0.12,0.615-0.226,0.945-0.315
		S215.516,44.389,215.816,44.268z"/>
	<path fill="#575757" d="M233.814,25.368c-2.88-0.12-5.611-0.135-8.189-0.045c-2.581,0.09-5.131,0.135-7.65,0.135h-0.72
		c-1.201-0.119-1.771-0.75-1.71-1.89c0-0.181,0.119-0.271,0.359-0.271c0.6-0.059,1.17-0.104,1.711-0.135
		c0.539-0.029,1.109-0.074,1.709-0.135c3.24-0.12,6.18-0.226,8.82-0.315c2.64-0.09,5.311-0.074,8.01,0.045
		c0.42,0,0.75-0.119,0.99-0.359c1.56-1.261,3.09-2.521,4.59-3.78s3.029-2.489,4.59-3.69c0.66-0.599,1.44-1.139,2.34-1.62
		c0.48-0.299,0.84-0.18,1.08,0.36c0.12,0.301,0.24,0.585,0.36,0.855c0.12,0.27,0.239,0.555,0.36,0.854c0,0.24-0.061,0.421-0.18,0.54
		c-0.301,0.36-0.631,0.69-0.99,0.99l-6.211,5.939c-0.12,0-0.211,0.09-0.27,0.271c0.239,0,0.45,0.016,0.631,0.045
		c0.18,0.031,0.389,0.045,0.629,0.045c2.039,0.121,4.064,0.256,6.075,0.405c2.01,0.15,4.034,0.346,6.075,0.585
		c1.02,0.121,2.025,0.27,3.016,0.45c0.989,0.18,1.994,0.359,3.015,0.539c0.059,0,0.104,0.016,0.135,0.046
		c0.029,0.03,0.075,0.045,0.135,0.045c1.14,0.301,1.739,0.931,1.8,1.89l0.271,1.08c0.06,0.24-0.031,0.36-0.271,0.36
		c-0.42,0-0.689-0.149-0.81-0.45c-0.24-0.239-0.601-0.419-1.08-0.54c-0.661-0.12-1.305-0.226-1.935-0.315
		c-0.631-0.09-1.275-0.193-1.936-0.314c-2.281-0.3-4.545-0.524-6.795-0.676c-2.25-0.148-4.516-0.283-6.795-0.404
		c-0.78-0.06-1.561-0.104-2.34-0.135c-0.781-0.03-1.561-0.075-2.34-0.136c-0.36,0-0.631,0.09-0.811,0.271
		c-1.86,1.561-3.721,3.075-5.58,4.545c-1.86,1.471-3.75,2.896-5.67,4.274c-0.539,0.302-1.08,0.781-1.619,1.44l-9.721,10.26
		c-0.601,0.661-1.156,1.336-1.665,2.025c-0.511,0.69-1.034,1.395-1.575,2.115c-0.299,0.48-0.659,1.17-1.08,2.069
		c0.481,0,0.811-0.03,0.99-0.09c1.139-0.121,2.234-0.314,3.285-0.585c1.049-0.27,2.084-0.585,3.105-0.945
		c2.1-0.778,4.169-1.619,6.209-2.52c2.039-0.9,4.08-1.8,6.121-2.7c1.02-0.479,2.084-0.959,3.194-1.439
		c1.11-0.479,2.205-0.96,3.285-1.44c0.12-0.059,0.239-0.135,0.36-0.225c0.119-0.091,0.238-0.015,0.359,0.225
		c0.119,0.24,0.135,0.421,0.045,0.54c-0.09,0.121-0.195,0.24-0.314,0.36c-1.021,0.841-2.115,1.59-3.285,2.25
		s-2.355,1.291-3.555,1.89c-2.34,1.201-4.726,2.326-7.155,3.375c-2.431,1.049-4.937,1.904-7.515,2.565
		c-0.661,0.18-1.306,0.328-1.936,0.449c-0.63,0.12-1.275,0.149-1.936,0.09c-0.719,0-1.26-0.301-1.619-0.899
		c-0.119-0.18-0.239-0.36-0.36-0.54c-0.119-0.18-0.239-0.33-0.36-0.45c-0.479-0.54-0.568-1.109-0.27-1.71
		c0.301-0.54,0.585-1.094,0.855-1.665c0.27-0.569,0.584-1.094,0.944-1.575c1.08-1.62,2.265-3.164,3.556-4.635
		c1.289-1.47,2.594-2.894,3.914-4.275c4.141-4.379,8.4-8.64,12.78-12.779c0.12-0.06,0.21-0.135,0.271-0.226
		C233.604,25.593,233.693,25.489,233.814,25.368z"/>
	<path fill="#575757" d="M258.022,44.268c-0.181,0.181-0.376,0.211-0.585,0.091c-0.211-0.12-0.375-0.271-0.495-0.45
		c-0.18-0.239-0.331-0.51-0.45-0.811c0.119-0.599,0.42-1.305,0.9-2.114c0.479-0.811,0.66-1.335,0.54-1.575
		c-0.302-0.419-1.156-0.36-2.565,0.18c-1.41,0.54-3.03,1.32-4.859,2.34c-1.831,1.021-3.69,2.16-5.58,3.42
		c-1.891,1.261-3.465,2.431-4.725,3.511c-0.662,0.6-1.366,1.17-2.115,1.71c-0.752,0.54-1.516,1.08-2.295,1.619
		c-0.36,0.36-0.689,0.3-0.99-0.18c0-0.061-0.164-0.374-0.495-0.945c-0.329-0.569-0.554-0.914-0.675-1.034
		c-0.119-0.3-0.06-0.63,0.18-0.99c0.42-0.72,0.811-1.44,1.17-2.16s0.751-1.409,1.17-2.07c0.959-1.499,2.025-2.925,3.195-4.274
		c1.17-1.351,2.354-2.685,3.555-4.005c0.18-0.181,0.39-0.36,0.631-0.54c0.238-0.181,0.479-0.329,0.719-0.45
		c0.42-0.36,0.811-0.271,1.17,0.27c0.181,0.302,0.33,0.661,0.451,1.08c0.059,0.121,0.045,0.271-0.045,0.45
		c-0.091,0.18-0.196,0.33-0.315,0.45l-1.71,2.07c-0.24,0.301-0.586,0.751-1.035,1.35c-0.45,0.601-0.932,1.246-1.439,1.935
		c-0.512,0.69-1.035,1.381-1.576,2.07c-0.539,0.69-0.989,1.275-1.35,1.755c0.959-0.72,2.1-1.56,3.42-2.52
		c1.319-0.959,2.7-1.904,4.141-2.835c1.439-0.93,2.864-1.77,4.274-2.521c1.409-0.749,2.714-1.305,3.915-1.665
		c2.1-0.599,3.614-0.479,4.545,0.36c0.93,0.841,1.515,1.95,1.756,3.33c0.059,0.661-0.226,1.246-0.855,1.755
		C258.967,43.384,258.441,43.849,258.022,44.268z"/>
	<path fill="#575757" d="M265.041,44.718c-0.899,0.481-1.695,0.977-2.385,1.485c-0.69,0.511-1.275,1.125-1.755,1.845
		c-0.36,0.24-0.63,0.571-0.81,0.99c-0.119,0.301-0.06,0.45,0.18,0.45c0.299,0.061,0.585,0.121,0.855,0.18
		c0.27,0.061,0.523,0.121,0.765,0.18c2.279,0,4.649-0.27,7.11-0.81c2.879-0.659,5.729-1.425,8.549-2.295
		c2.82-0.869,5.58-1.785,8.281-2.745c0.659-0.3,1.379-0.569,2.16-0.811c0.778-0.238,1.498-0.479,2.159-0.72
		c0.3-0.119,0.479-0.119,0.54,0c0.059,0.121,0.148,0.24,0.27,0.36c0.12,0.301,0,0.57-0.359,0.81
		c-0.841,0.421-1.695,0.841-2.564,1.261c-0.871,0.42-1.727,0.841-2.565,1.26c-2.521,1.201-5.101,2.205-7.74,3.015
		c-2.642,0.811-5.28,1.516-7.92,2.115c-1.261,0.301-2.536,0.511-3.825,0.63c-1.291,0.119-2.506,0.09-3.645-0.09
		c-0.661-0.12-1.246-0.315-1.756-0.585c-0.508-0.271-0.914-0.734-1.215-1.396c-0.238-0.359-0.479-0.659-0.72-0.899
		c-0.3-0.721-0.149-1.589,0.45-2.61c0.48-0.54,1.006-1.035,1.574-1.485c0.57-0.449,1.095-0.884,1.576-1.305
		c1.439-0.959,2.909-1.813,4.41-2.564c1.498-0.75,3.06-1.364,4.68-1.846c0.479-0.119,1.02-0.225,1.619-0.314s1.2-0.194,1.801-0.315
		c0.84-0.18,1.439,0.09,1.8,0.811c0.12,0.24,0.239,0.449,0.36,0.63c0.119,0.18,0.238,0.359,0.359,0.54
		c0.3,0.359,0.21,0.751-0.27,1.17c-0.421,0.42-0.721,0.69-0.9,0.81c-1.26,0.72-2.52,1.351-3.779,1.891
		c-1.261,0.54-2.671,0.931-4.23,1.17c-0.24,0.061-0.511,0.09-0.811,0.09c-0.301,0-0.6,0-0.899,0
		C265.91,45.559,265.461,45.258,265.041,44.718z M267.111,43.548c2.52-0.479,4.89-1.409,7.11-2.79
		c-1.261,0.301-2.461,0.675-3.601,1.125C269.48,42.333,268.311,42.889,267.111,43.548z"/>
	<path fill="#575757" d="M300.41,40.758h-0.18c-0.48-0.3-0.976-0.435-1.484-0.405c-0.511,0.031-1.035,0.136-1.575,0.315
		c-1.08,0.36-2.115,0.825-3.104,1.395c-0.99,0.571-1.967,1.216-2.926,1.936c-1.141,0.841-2.221,1.741-3.24,2.7
		c-1.021,0.96-1.95,2.04-2.789,3.239c-0.66,0.961-1.17,1.951-1.531,2.971c-0.059,0.119-0.09,0.225-0.09,0.314
		s-0.029,0.226-0.09,0.405l0.721-0.36c3.24-1.8,6.524-3.465,9.854-4.994c3.33-1.53,6.765-2.895,10.306-4.096
		c0.959-0.299,1.919-0.599,2.879-0.899c0.959-0.3,1.949-0.51,2.971-0.63c0.299-0.06,0.75-0.091,1.35-0.091
		c0.18,0,0.3,0.031,0.36,0.091c0.239,0.359,0.39,0.63,0.45,0.81c0.059,0.061,0.014,0.135-0.135,0.225
		c-0.15,0.091-0.286,0.136-0.406,0.136c-1.2,0.48-2.43,0.931-3.689,1.35c-1.26,0.421-2.49,0.841-3.689,1.26
		c-3.541,1.32-6.976,2.761-10.305,4.32c-3.33,1.56-6.615,3.24-9.855,5.04c-0.54,0.3-0.84,0.524-0.9,0.675
		c-0.059,0.149-0.059,0.554,0,1.215c0.061,0.479,0.105,0.914,0.135,1.306c0.031,0.389,0.076,0.823,0.135,1.305
		c0.361,2.819-0.81,4.68-3.51,5.58c-1.979,0.599-3.989,0.63-6.029,0.09c-0.84-0.18-1.47-0.63-1.891-1.35
		c-0.119-0.241-0.359-0.601-0.72-1.08c-0.3-0.36-0.329-0.751-0.09-1.17c0.18-0.241,0.346-0.466,0.495-0.676
		c0.15-0.211,0.314-0.404,0.494-0.585c1.021-0.96,2.057-1.815,3.105-2.564c1.051-0.751,2.176-1.485,3.375-2.205
		c0.42-0.24,0.826-0.481,1.215-0.72c0.391-0.241,0.797-0.481,1.215-0.721c0.301-0.121,0.392-0.301,0.271-0.54
		c-0.181-2.64,0.69-5.099,2.61-7.38c1.439-1.739,3.015-3.27,4.725-4.59c1.71-1.319,3.614-2.43,5.715-3.33
		c0.36-0.18,0.734-0.314,1.125-0.405c0.39-0.09,0.795-0.193,1.215-0.314c1.139-0.18,2.01,0.18,2.61,1.08
		c0.12,0.24,0.271,0.465,0.45,0.675C300.141,40.294,300.289,40.519,300.41,40.758z M281.871,57.228l-0.36,0.181
		c-0.839,0.479-1.649,0.975-2.431,1.484c-0.778,0.51-1.559,1.035-2.34,1.575c-0.599,0.419-1.17,0.885-1.709,1.396
		c-0.541,0.509-1.109,1.004-1.711,1.484c-0.119,0.12-0.209,0.226-0.27,0.315c-0.059,0.09-0.148,0.194-0.27,0.314
		c0.121,0.06,0.211,0.091,0.27,0.091c2.641,0.659,4.98,0.299,7.02-1.08c0.481-0.301,0.887-0.676,1.215-1.125
		c0.331-0.45,0.526-0.977,0.586-1.575c0.061-0.481,0.076-0.976,0.045-1.485C281.887,58.293,281.871,57.768,281.871,57.228z"/>
	<path fill="#575757" d="M321.199,40.758h-0.18c-0.481-0.3-0.977-0.435-1.485-0.405c-0.511,0.031-1.035,0.136-1.575,0.315
		c-1.08,0.36-2.115,0.825-3.104,1.395c-0.99,0.571-1.966,1.216-2.925,1.936c-1.141,0.841-2.221,1.741-3.24,2.7
		c-1.021,0.96-1.951,2.04-2.79,3.239c-0.659,0.961-1.17,1.951-1.53,2.971c-0.059,0.119-0.09,0.225-0.09,0.314
		s-0.029,0.226-0.09,0.405l0.72-0.36c3.24-1.8,6.524-3.465,9.854-4.994c3.33-1.53,6.765-2.895,10.306-4.096
		c0.959-0.299,1.919-0.599,2.88-0.899c0.959-0.3,1.949-0.51,2.971-0.63c0.299-0.06,0.749-0.091,1.35-0.091
		c0.18,0,0.299,0.031,0.359,0.091c0.239,0.359,0.39,0.63,0.45,0.81c0.06,0.061,0.015,0.135-0.135,0.225
		c-0.15,0.091-0.286,0.136-0.405,0.136c-1.201,0.48-2.43,0.931-3.689,1.35c-1.26,0.421-2.49,0.841-3.69,1.26
		c-3.541,1.32-6.976,2.761-10.305,4.32c-3.33,1.56-6.615,3.24-9.855,5.04c-0.54,0.3-0.839,0.524-0.899,0.675
		c-0.06,0.149-0.06,0.554,0,1.215c0.061,0.479,0.105,0.914,0.135,1.306c0.031,0.389,0.076,0.823,0.135,1.305
		c0.36,2.819-0.811,4.68-3.51,5.58c-1.98,0.599-3.99,0.63-6.03,0.09c-0.839-0.18-1.47-0.63-1.89-1.35
		c-0.119-0.241-0.36-0.601-0.721-1.08c-0.299-0.36-0.328-0.751-0.09-1.17c0.18-0.241,0.346-0.466,0.495-0.676
		c0.151-0.211,0.315-0.404,0.495-0.585c1.021-0.96,2.057-1.815,3.105-2.564c1.051-0.751,2.176-1.485,3.375-2.205
		c0.42-0.24,0.825-0.481,1.215-0.72c0.391-0.241,0.796-0.481,1.215-0.721c0.301-0.121,0.391-0.301,0.27-0.54
		c-0.18-2.64,0.691-5.099,2.61-7.38c1.44-1.739,3.015-3.27,4.726-4.59c1.709-1.319,3.613-2.43,5.715-3.33
		c0.359-0.18,0.734-0.314,1.125-0.405c0.389-0.09,0.794-0.193,1.215-0.314c1.139-0.18,2.01,0.18,2.609,1.08
		c0.12,0.24,0.271,0.465,0.45,0.675C320.93,40.294,321.078,40.519,321.199,40.758z M302.659,57.228l-0.36,0.181
		c-0.839,0.479-1.648,0.975-2.43,1.484c-0.779,0.51-1.56,1.035-2.34,1.575c-0.6,0.419-1.17,0.885-1.71,1.396
		c-0.54,0.509-1.109,1.004-1.71,1.484c-0.119,0.12-0.209,0.226-0.27,0.315c-0.06,0.09-0.149,0.194-0.271,0.314
		c0.121,0.06,0.211,0.091,0.271,0.091c2.641,0.659,4.98,0.299,7.02-1.08c0.48-0.301,0.886-0.676,1.215-1.125
		c0.33-0.45,0.525-0.977,0.585-1.575c0.061-0.481,0.076-0.976,0.045-1.485C302.675,58.293,302.659,57.768,302.659,57.228z"/>
</g>
</svg>
