<?xml version="1.0" encoding="utf-8"?>
<!-- Generator: Adobe Illustrator 16.0.0, SVG Export Plug-In . SVG Version: 6.00 Build 0)  -->
<!DOCTYPE svg PUBLIC "-//W3C//DTD SVG 1.1//EN" "http://www.w3.org/Graphics/SVG/1.1/DTD/svg11.dtd">
<svg version="1.1" id="圖層_1" xmlns="http://www.w3.org/2000/svg" xmlns:xlink="http://www.w3.org/1999/xlink" x="0px" y="0px"
	 width="784px" height="256.08px" viewBox="0 0 784 256.08" enable-background="new 0 0 784 256.08" xml:space="preserve">
<g enable-background="new    ">
	<path fill="#FFFFFF" d="M104.81,109.395c1.657-0.413,2.799,0.106,3.421,1.555c0.622,1.453,0,2.697-1.866,3.732
		c-1.453,0.418-2.488,0.831-3.11,1.244c-0.622,0.418-1.662,0.831-3.11,1.244c-9.748,3.527-19.025,6.638-27.835,9.33
		c-8.815,2.697-18.403,4.874-28.768,6.531c-3.528,0.831-6.998,1.351-10.419,1.555c-3.421,0.209-6.896,0.521-10.419,0.934
		c-1.453,0.209-3.008,0.209-4.665,0c-1.662-0.204-3.319-0.413-4.976-0.622c-2.692-0.413-4.665-1.556-5.909-3.422
		c-1.244-1.865-2.488-3.313-3.732-4.354c-1.657-2.488-1.866-4.768-0.622-6.843c0.831-1.035,1.662-2.07,2.488-3.109
		c0.831-1.035,1.764-2.07,2.799-3.11c5.802-4.768,11.92-9.121,18.35-13.062c6.424-3.937,13.577-6.735,21.459-8.397
		c1.448-0.413,2.848-0.724,4.199-0.933c1.346-0.204,2.848-0.103,4.509,0.311c1.448,0.418,2.692,1.04,3.732,1.866l0.933,0.933
		c0.622,0.622,1.244,1.352,1.866,2.178c0.413,0.622,0.88,1.195,1.4,1.71c0.515,0.521,0.777,0.987,0.777,1.399
		c0,0.209-0.418,0.729-1.244,1.556c-0.831,0.831-1.866,1.71-3.11,2.644c-1.244,0.933-2.595,1.817-4.043,2.644
		c-1.453,0.831-2.697,1.453-3.732,1.866c-2.284,0.831-3.839,0.573-4.665-0.777c-0.831-1.347-1.555-2.435-2.177-3.266
		c-0.418-0.413-0.107-1.089,0.933-2.021c1.035-0.934,2.07-1.813,3.11-2.645c-5.186,1.662-10.108,3.631-14.773,5.909
		c-4.665,2.284-9.072,4.772-13.218,7.465c-0.418,0.418-1.662,1.351-3.732,2.799c-2.075,1.453-3.941,3.062-5.598,4.82
		c-1.657,1.765-2.692,3.373-3.11,4.821c-0.413,1.453,0.729,2.284,3.421,2.488c8.499,0.622,16.794,0,24.881-1.866
		c12.022-2.692,22.597-5.078,31.723-7.153c9.122-2.07,18.554-4.665,28.302-7.775c1.035-0.413,2.124-0.777,3.266-1.089
		C102.682,110.172,103.771,109.812,104.81,109.395z"/>
	<path fill="#FFFFFF" d="M145.551,103.174c-3.319,0.418-6.482,1.089-9.486,2.021c-3.008,0.934-5.962,2.021-8.864,3.266
		c-4.15,1.662-8.917,3.941-14.306,6.843c-5.394,2.905-9.953,5.496-13.685,7.775v0.622c0.413-0.204,1.137-0.569,2.177-1.089
		c1.035-0.516,2.177-1.035,3.421-1.556c1.244-0.515,2.381-1.034,3.421-1.555c1.035-0.515,1.866-0.88,2.488-1.089
		c4.767-1.865,9.486-3.731,14.151-5.598s9.379-3.625,14.151-5.287c1.035-0.413,2.124-0.725,3.266-0.934
		c1.137-0.204,2.226-0.413,3.266-0.622c2.488-0.412,4.456,0.418,5.909,2.488c1.035,1.453,2.381,3.217,4.043,5.287
		c0.622,0.831,1.035,1.92,1.244,3.266c0.204,1.352,0.467,2.697,0.778,4.043c0.311,1.352,0.724,2.542,1.244,3.577
		c0.515,1.04,1.4,1.662,2.644,1.866c2.901,0.418,5.491,0.418,7.775,0c2.279-0.413,4.665-1.035,7.153-1.866
		c4.145-1.244,8.135-2.537,11.974-3.888c3.834-1.346,7.722-2.746,11.663-4.198c0.826-0.413,1.555-0.725,2.177-0.934
		c0.622-0.204,1.346-0.413,2.177-0.622c1.448-0.413,2.488,0,3.11,1.244c0.204,0.831-0.209,1.662-1.244,2.488
		c-4.563,2.906-9.175,5.754-13.84,8.553s-9.695,4.719-15.084,5.754c-3.528,0.622-7.051,0.933-10.574,0.933
		c-4.977,0-8.451-1.448-10.419-4.354c-1.973-2.901-3.475-6.425-4.51-10.575c-0.209-0.826-0.364-1.555-0.466-2.177
		c-0.107-0.622-0.156-1.346-0.156-2.177c0-1.448-0.622-1.866-1.866-1.244c-2.075,0.622-4.15,1.195-6.22,1.71
		c-2.075,0.521-4.15,1.298-6.22,2.333c-5.598,2.284-11.197,4.616-16.795,6.998c-5.598,2.386-11.196,4.82-16.794,7.309
		c-1.866,0.622-3.786,1.244-5.753,1.866c-1.973,0.622-3.786,1.244-5.443,1.866c-2.488,0.621-4.456-0.204-5.909-2.488
		c-0.413-0.826-0.879-1.604-1.399-2.333c-0.515-0.724-1.089-1.399-1.71-2.021c-1.035-1.448-0.933-2.799,0.311-4.043
		c1.04-1.035,2.022-2.021,2.955-2.955c0.933-0.933,2.021-1.812,3.265-2.644c5.803-4.354,11.819-8.29,18.039-11.818
		c6.22-3.522,12.854-6.424,19.905-8.708c5.18-1.657,9.846-2.381,13.996-2.177c3.936,0,7.153,1.555,9.641,4.665
		c1.244,1.866,1.866,3.008,1.866,3.421c0,0.418-0.418,0.521-1.244,0.312c-0.831-0.204-1.817-0.516-2.955-0.934
		C147.674,103.383,146.586,103.174,145.551,103.174z"/>
	<path fill="#FFFFFF" d="M272.438,109.395c-0.622,0.622-1.297,0.729-2.021,0.311c-0.729-0.413-1.297-0.933-1.71-1.555
		c-0.622-0.826-1.142-1.76-1.555-2.799c0.413-2.07,1.448-4.51,3.11-7.31c1.657-2.799,2.279-4.611,1.866-5.442
		c-1.04-1.448-3.995-1.244-8.864,0.622c-4.874,1.866-10.472,4.563-16.794,8.086c-6.327,3.528-12.751,7.465-19.283,11.818
		c-6.531,4.354-11.974,8.397-16.328,12.13c-2.284,2.075-4.718,4.043-7.309,5.909c-2.595,1.866-5.238,3.732-7.931,5.598
		c-1.244,1.244-2.381,1.035-3.421-0.622c0-0.209-0.569-1.292-1.711-3.266c-1.137-1.968-1.915-3.158-2.333-3.576
		c-0.413-1.035-0.204-2.177,0.622-3.421c1.453-2.488,2.799-4.977,4.043-7.465c1.244-2.487,2.595-4.869,4.043-7.152
		c3.314-5.181,6.998-10.108,11.041-14.773c4.043-4.665,8.135-9.276,12.285-13.84c0.622-0.622,1.346-1.244,2.177-1.866
		c0.826-0.622,1.657-1.137,2.488-1.555c1.448-1.244,2.799-0.934,4.043,0.933c0.622,1.04,1.137,2.284,1.555,3.732
		c0.204,0.418,0.156,0.933-0.155,1.555s-0.676,1.143-1.089,1.556l-5.909,7.152c-0.831,1.04-2.021,2.596-3.577,4.666
		c-1.555,2.074-3.217,4.305-4.976,6.687c-1.764,2.386-3.577,4.771-5.442,7.153c-1.866,2.386-3.421,4.407-4.665,6.064
		c3.314-2.488,7.255-5.39,11.818-8.708c4.558-3.314,9.33-6.58,14.306-9.797c4.976-3.213,9.899-6.113,14.773-8.709
		c4.869-2.59,9.379-4.509,13.529-5.753c7.255-2.07,12.489-1.657,15.706,1.244c3.212,2.905,5.234,6.739,6.065,11.507
		c0.204,2.284-0.778,4.306-2.955,6.064C275.704,106.338,273.887,107.946,272.438,109.395z"/>
	<path fill="#FFFFFF" d="M336.192,98.198c-1.453,0.209-2.595,0.418-3.421,0.622c-0.831,0.209-2.075,0.418-3.732,0.622
		c0.622,1.865,1.604,3.318,2.955,4.354c1.346,1.04,2.746,1.765,4.199,2.177c8.29,2.284,15.652,2.955,22.082,2.022
		c6.424-0.934,13.267-2.124,20.527-3.577c2.901-0.622,5.855-1.399,8.864-2.332c3.003-0.934,5.957-1.813,8.863-2.644
		c0.414-0.204,0.934-0.312,1.555-0.312c1.658,0,2.591,0.831,2.8,2.488c0.204,1.453-0.312,2.386-1.556,2.799
		c-3.731,2.075-7.464,3.528-11.196,4.354c-5.598,2.075-11.352,3.839-17.261,5.287c-5.909,1.453-11.974,2.284-18.194,2.488
		c-2.906,0.209-5.807,0.155-8.708-0.156c-2.906-0.311-5.807-0.981-8.708-2.021h-0.933c-1.244,4.772-3.266,8.397-6.065,10.886
		c-2.799,2.488-5.753,4.771-8.864,6.842c-4.976,3.11-9.383,5.181-13.218,6.221c-3.839,1.035-8.451,1.968-13.84,2.799
		c-1.662,0-3.373,0-5.132,0c-1.764,0-3.475-0.209-5.131-0.622c-1.04-0.622-1.968-1.195-2.799-1.71
		c-0.826-0.521-1.448-1.298-1.866-2.333c-0.413-0.826-0.879-1.604-1.399-2.333c-0.515-0.724-0.981-1.399-1.399-2.021
		c-1.448-2.07-1.555-4.558-0.311-7.464c0.622-1.866,1.453-3.523,2.488-4.977c1.04-1.448,2.177-2.9,3.421-4.354
		c4.558-4.354,8.757-7.878,12.596-10.574c3.834-2.692,8.553-5.39,14.151-8.087c4.145-1.657,8.344-3.266,12.596-4.82
		c4.247-1.555,8.553-2.333,12.907-2.333c2.488,0.418,4.199,1.089,5.132,2.021c0.933,0.934,1.915,2.853,2.955,5.754
		c0,2.284-0.364,3.11-1.088,2.488C338.729,99.131,337.64,98.616,336.192,98.198z M278.966,133.031c0.622,0,1.142,0.106,1.555,0.311
		c0.413,0.209,0.826,0.312,1.244,0.312c4.145,0.418,8.499,0.155,13.062-0.778c4.558-0.933,8.966-2.332,13.218-4.198
		c4.247-1.866,8.135-4.198,11.663-6.998c3.523-2.799,6.322-5.957,8.397-9.485c0.622-1.244,0.413-2.848-0.622-4.82
		c-1.04-1.969-1.764-3.577-2.177-4.821c-0.622-1.244-1.351-1.555-2.177-0.933c-4.15,1.453-7.673,2.697-10.574,3.732
		c-2.906,1.039-6.327,2.905-10.264,5.598c-3.528,2.075-6.74,4.252-9.641,6.531c-2.906,2.284-5.807,4.874-8.708,7.775
		c-1.04,1.04-1.973,2.177-2.799,3.421C280.312,129.921,279.588,131.374,278.966,133.031z"/>
	<path fill="#FFFFFF" d="M375.998,139.251c1.04-0.209,1.973-0.311,2.799-0.311c0.831,0,1.662-0.107,2.488-0.312
		c4.767-0.622,9.432-1.662,13.996-3.109c4.558-1.448,9.019-3.11,13.373-4.977c7.464-3.11,14.928-6.322,22.393-9.642
		c7.464-3.313,14.928-6.735,22.393-10.263c2.279-1.035,4.402-1.915,6.375-2.644c1.969-0.725,4.092-1.604,6.377-2.644
		c1.035-0.622,1.759-0.622,2.176,0c0.623,1.243,0.414,2.177-0.621,2.799c-2.488,1.662-4.977,3.372-7.465,5.132
		c-2.488,1.764-5.082,3.475-7.775,5.131c-8.707,4.772-17.416,9.127-26.125,13.062c-8.707,3.941-17.727,7.357-27.057,10.264
		c-2.906,1.035-5.808,1.866-8.709,2.488c-2.906,0.622-5.807,1.035-8.708,1.244c-1.866,0-3.47-0.263-4.821-0.777
		c-1.346-0.521-2.537-1.609-3.577-3.266c-0.413-0.831-0.826-1.352-1.244-1.556c-2.07-2.488-2.279-5.598-0.622-9.33
		c1.453-2.901,3.062-5.646,4.82-8.242c1.764-2.59,3.684-5.233,5.754-7.931c6.011-7.464,12.333-14.719,18.971-21.771
		c6.634-7.046,13.373-14.098,20.216-21.148c9.122-9.121,18.296-17.985,27.524-26.592c9.224-8.601,18.816-16.843,28.769-24.725
		c2.901-2.692,5.958-5.234,9.175-7.62c3.212-2.381,6.375-4.714,9.486-6.998c0.826-0.622,1.656-1.137,2.488-1.555
		c0.826-0.413,1.758-0.826,2.799-1.244c0.826-0.204,1.447,0.107,1.865,0.933l2.799,6.531c0.414,0.622,0.205,1.352-0.621,2.178
		c-0.418,0.622-0.934,1.195-1.555,1.71c-0.623,0.521-1.244,1.089-1.867,1.711c-11.195,11.405-22.859,22.082-34.988,32.034
		s-24.623,19.594-37.477,28.924c-0.418,0.418-0.885,0.831-1.399,1.244c-0.521,0.418-0.987,0.831-1.399,1.244
		c-6.43,6.429-12.703,12.805-18.816,19.127c-6.118,6.327-12.183,12.907-18.194,19.749c-1.866,2.284-3.684,4.563-5.443,6.842
		c-1.764,2.284-3.577,4.666-5.443,7.153c-1.244,1.662-2.381,3.834-3.421,6.531C375.687,138.833,375.794,139.042,375.998,139.251z"/>
	<path fill="#FFFFFF" d="M500.088,97.265h-0.623c-1.662-1.035-3.371-1.501-5.131-1.399c-1.764,0.107-3.576,0.467-5.443,1.089
		c-3.731,1.244-7.309,2.853-10.729,4.82c-3.421,1.973-6.794,4.198-10.107,6.687c-3.941,2.906-7.673,6.017-11.196,9.33
		c-3.528,3.319-6.74,7.052-9.642,11.197c-2.279,3.318-4.043,6.74-5.287,10.263c-0.204,0.413-0.312,0.777-0.312,1.089
		c0,0.311-0.102,0.777-0.311,1.399l2.488-1.244c11.196-6.22,22.548-11.974,34.055-17.261c11.508-5.287,23.375-10.001,35.611-14.151
		c3.314-1.035,6.633-2.07,9.953-3.11c3.312-1.034,6.734-1.759,10.262-2.177c1.035-0.204,2.592-0.311,4.666-0.311
		c0.621,0,1.035,0.106,1.244,0.311c0.826,1.244,1.346,2.177,1.555,2.799c0.205,0.209,0.049,0.467-0.467,0.778
		c-0.52,0.311-0.986,0.466-1.398,0.466c-4.15,1.662-8.398,3.218-12.752,4.665c-4.354,1.453-8.605,2.906-12.752,4.354
		c-12.236,4.563-24.104,9.539-35.61,14.929c-11.507,5.389-22.858,11.196-34.056,17.416c-1.865,1.035-2.9,1.812-3.109,2.333
		c-0.205,0.515-0.205,1.915,0,4.198c0.209,1.657,0.364,3.159,0.467,4.51c0.105,1.347,0.262,2.848,0.466,4.51
		c1.244,9.743-2.8,16.173-12.13,19.282c-6.842,2.07-13.786,2.178-20.838,0.312c-2.9-0.622-5.078-2.177-6.53-4.665
		c-0.413-0.831-1.244-2.075-2.488-3.732c-1.035-1.244-1.138-2.595-0.312-4.043c0.623-0.831,1.195-1.608,1.711-2.333
		c0.52-0.729,1.089-1.399,1.711-2.021c3.527-3.318,7.104-6.273,10.729-8.863c3.63-2.595,7.518-5.132,11.663-7.62
		c1.453-0.831,2.853-1.662,4.198-2.488c1.351-0.83,2.751-1.661,4.198-2.487c1.041-0.418,1.352-1.04,0.934-1.866
		c-0.622-9.121,2.387-17.621,9.02-25.503c4.977-6.012,10.418-11.299,16.328-15.861c5.908-4.559,12.488-8.397,19.749-11.508
		c1.243-0.622,2.536-1.088,3.888-1.399c1.346-0.311,2.746-0.671,4.198-1.089c3.937-0.622,6.944,0.622,9.019,3.732
		c0.414,0.831,0.934,1.608,1.557,2.333C499.154,95.661,499.67,96.438,500.088,97.265z M436.02,154.18l-1.244,0.622
		c-2.9,1.657-5.7,3.367-8.396,5.132c-2.693,1.759-5.391,3.576-8.087,5.442c-2.07,1.448-4.043,3.057-5.909,4.82
		c-1.866,1.76-3.834,3.47-5.909,5.132c-0.413,0.413-0.724,0.777-0.933,1.089c-0.205,0.311-0.516,0.671-0.934,1.089
		c0.418,0.204,0.729,0.311,0.934,0.311c9.125,2.279,17.212,1.035,24.258-3.732c1.662-1.04,3.062-2.332,4.199-3.888
		c1.143-1.555,1.817-3.372,2.021-5.442c0.209-1.662,0.262-3.372,0.155-5.132C436.072,157.858,436.02,156.046,436.02,154.18z"/>
	<path fill="#FFFFFF" d="M563.221,86.068c-1.244,1.04-2.488,2.075-3.732,3.11c-1.244,1.04-2.488,2.075-3.732,3.11
		c-4.771,4.149-9.281,8.45-13.529,12.906c-4.252,4.461-8.24,9.175-11.973,14.151c-1.041,1.04-1.867,2.177-2.488,3.421
		c-0.623,1.244-1.352,2.488-2.178,3.732c-0.418,0.418-0.723,1.04-0.932,1.866c2.068,0,3.521-0.103,4.354-0.312
		c4.145-1.035,8.188-2.332,12.129-3.888c3.936-1.555,7.877-3.158,11.818-4.82l20.527-9.33c2.07-0.826,3.625-1.347,4.664-1.556
		c0.826,0,1.449,0.312,1.867,0.934c0.412,0.418,0.723,0.831,0.932,1.244c0.205,0.418,0,0.933-0.621,1.555
		c-1.244,1.244-2.178,2.075-2.799,2.488c-6.016,4.149-12.129,7.828-18.35,11.041c-6.221,3.217-12.752,5.962-19.594,8.241
		c-2.906,1.04-5.705,1.662-8.398,1.866c-4.148,0.622-7.045-0.622-8.707-3.732c-0.826-1.244-1.867-2.691-3.111-4.354
		c-1.033-1.657-1.242-3.213-0.621-4.665c0.83-2.692,1.764-4.87,2.799-6.531c2.488-4.146,5.389-8.087,8.709-11.818
		c3.314-3.732,6.734-7.256,10.264-10.575c2.279-2.278,4.557-4.354,6.842-6.22c2.279-1.866,4.559-3.732,6.842-5.599l0.623-0.621
		c1.656-1.035,2.9-1.448,3.73-1.244c0.826,0.209,1.76,1.142,2.799,2.799c0.414,0.418,0.725,0.885,0.934,1.399
		C562.492,85.188,562.803,85.655,563.221,86.068z M596.811,54.346c-0.209,0.418-0.418,0.933-0.623,1.555
		c-0.209,0.622-0.52,1.143-0.934,1.556c-1.662,2.487-3.576,4.718-5.754,6.687c-2.176,1.973-4.508,3.785-6.996,5.442
		c-1.662,1.04-3.32,2.021-4.977,2.955c-1.662,0.933-3.32,1.919-4.977,2.954c-1.039,0.622-2.074,0.676-3.109,0.155
		c-1.041-0.515-1.662-1.501-1.867-2.954c0-0.413,0.156-0.777,0.467-1.089c0.311-0.311,0.67-0.671,1.088-1.089
		c1.244-1.034,2.537-2.069,3.889-3.109c1.346-1.035,2.537-2.07,3.576-3.11c1.867-1.657,3.68-3.421,5.443-5.287
		c1.758-1.866,3.469-3.625,5.131-5.287c1.035-0.622,1.137-1.556,0.311-2.799c-0.621-0.622-0.883-1.089-0.777-1.4
		c0.104-0.311,0.467-0.67,1.09-1.088c0.412-0.204,0.67-0.413,0.777-0.622c0.102-0.204,0.359-0.413,0.777-0.622
		c0.826-1.244,1.656-1.448,2.488-0.622c0.826,1.04,1.604,2.075,2.332,3.11c0.725,1.04,1.502,2.074,2.332,3.109
		C596.703,52.999,596.811,53.52,596.811,54.346z"/>
	<path fill="#FFFFFF" d="M677.045,107.528c0.621,0,1.137,0.209,1.555,0.622c-0.418,1.244-0.83,1.973-1.244,2.177l-16.482,8.708
		l-24.57,13.062c-1.041,0.622-1.764,1.556-2.178,2.8c-15.137,34.002-35.873,64.17-62.201,90.504
		c-4.145,4.145-8.445,7.979-12.908,11.507c-4.455,3.523-9.174,6.735-14.15,9.642c-2.488,1.657-5.023,3.003-7.619,4.043
		c-2.59,1.035-5.336,1.759-8.242,2.177c-3.936,0.622-6.842-0.622-8.709-3.731c-0.621-1.04-1.189-2.022-1.709-2.955
		c-0.516-0.933-0.982-1.92-1.4-2.954c-1.035-1.866-1.447-3.732-1.244-5.599c0.209-1.866,0.623-3.839,1.244-5.909
		c1.244-4.15,3.008-8.038,5.287-11.663c2.285-3.63,4.875-7.206,7.775-10.729c5.807-7.882,12.08-15.191,18.816-21.927
		c6.74-6.739,13.84-13.218,21.305-19.438c9.33-7.882,18.66-15.191,27.99-21.927c9.33-6.74,19.283-13.11,29.857-19.127
		c0.203-0.204,0.412-0.359,0.621-0.466c0.205-0.103,0.414-0.36,0.623-0.778l6.842-17.728c-0.418-0.413-1.195-0.311-2.332,0.312
		c-1.143,0.622-2.23,1.142-3.266,1.555l-23.326,13.374c-4.977,2.696-9.953,5.287-14.93,7.774c-4.975,2.488-10.16,4.563-15.549,6.221
		c-1.453,0.413-2.801,0.724-4.043,0.933c-1.244,0.204-2.488,0.413-3.732,0.622c-2.07,0.204-3.625-0.622-4.666-2.488
		c-0.621-1.243-1.244-2.381-1.865-3.421c-1.244-2.279-1.658-4.043-1.244-5.287l0.311-0.622c1.865-3.731,3.732-6.997,5.598-9.797
		c1.867-2.799,3.938-5.336,6.221-7.619c2.279-2.279,4.666-4.51,7.152-6.687c2.488-2.178,5.289-4.714,8.398-7.62
		c1.035-0.826,2.225-1.711,3.576-2.644c1.346-0.934,2.537-1.604,3.576-2.021c1.658-0.622,3.004-0.204,4.043,1.244
		c1.035,1.453,1.348,2.696,0.934,3.731c0.205,0.209,0,0.574-0.621,1.089c-0.623,0.52-1.352,1.089-2.178,1.711
		c-0.83,0.622-1.711,1.244-2.645,1.865c-0.932,0.622-1.709,1.143-2.332,1.556c-2.697,2.488-5.029,4.665-6.998,6.531
		c-1.973,1.866-3.785,3.684-5.441,5.442c-1.662,1.764-3.217,3.63-4.666,5.599c-1.453,1.973-3.008,4.407-4.664,7.309
		c-0.418,0.622-0.832,1.453-1.244,2.488c-0.418,1.039,0.203,1.243,1.865,0.622c3.732-1.244,7.357-2.692,10.885-4.354
		c3.523-1.657,7.047-3.314,10.574-4.977l23.326-11.818c0.826-0.204,2.279-0.933,4.355-2.177c2.068-1.244,4.246-2.435,6.531-3.576
		c2.277-1.138,4.455-2.07,6.529-2.8c2.07-0.724,3.523-0.67,4.355,0.155l4.664,7.153c0.205,0.418,0.104,1.196-0.311,2.333
		c-0.418,1.142-0.885,2.439-1.398,3.888c-0.521,1.453-1.041,2.853-1.557,4.198c-0.52,1.352-0.883,2.439-1.088,3.266l1.865-0.933
		c3.938-1.866,7.775-3.679,11.508-5.442c3.732-1.76,7.668-3.159,11.818-4.199c2.279-0.622,4.457-1.137,6.531-1.555
		C672.895,108.359,674.971,107.946,677.045,107.528z M621.686,142.672c0-0.418,0.049-0.729,0.154-0.933
		c0.104-0.209,0.258-0.52,0.467-0.933l-1.555,0.933c-12.236,7.877-23.947,16.173-35.145,24.881
		c-11.195,8.708-21.975,18.242-32.344,28.613c-4.559,4.767-8.865,9.588-12.908,14.462c-4.043,4.869-7.824,10.001-11.352,15.395
		c-1.656,2.692-3.158,5.336-4.51,7.931c-1.346,2.59-2.434,5.336-3.266,8.242c-0.412,2.07-0.516,3.266-0.311,3.576
		c0.209,0.312,1.453,0.359,3.732,0.155c2.283-0.209,4.406-0.729,6.375-1.555c1.973-0.831,3.994-1.764,6.064-2.799
		c9.748-5.395,18.973-12.339,27.68-20.838c11.818-11.405,22.393-23.535,31.725-36.388
		C605.824,170.557,614.221,156.979,621.686,142.672z"/>
	<path fill="#FFFFFF" d="M717.783,103.174c-3.318,0.418-6.482,1.089-9.484,2.021c-3.01,0.934-5.963,2.021-8.865,3.266
		c-4.15,1.662-8.916,3.941-14.307,6.843c-5.393,2.905-9.951,5.496-13.684,7.775v0.622c0.412-0.204,1.137-0.569,2.178-1.089
		c1.035-0.516,2.176-1.035,3.42-1.556c1.244-0.515,2.381-1.034,3.422-1.555c1.035-0.515,1.865-0.88,2.488-1.089
		c4.768-1.865,9.484-3.731,14.15-5.598s9.379-3.625,14.15-5.287c1.035-0.413,2.125-0.725,3.266-0.934
		c1.139-0.204,2.227-0.413,3.266-0.622c2.488-0.412,4.457,0.418,5.91,2.488c1.035,1.453,2.381,3.217,4.043,5.287
		c0.621,0.831,1.035,1.92,1.244,3.266c0.203,1.352,0.467,2.697,0.777,4.043c0.311,1.352,0.725,2.542,1.244,3.577
		c0.516,1.04,1.398,1.662,2.643,1.866c2.902,0.418,5.492,0.418,7.775,0c2.279-0.413,4.666-1.035,7.154-1.866
		c4.145-1.244,8.135-2.537,11.973-3.888c3.834-1.346,7.723-2.746,11.664-4.198c0.826-0.413,1.555-0.725,2.176-0.934
		c0.623-0.204,1.348-0.413,2.178-0.622c1.449-0.413,2.488,0,3.109,1.244c0.205,0.831-0.209,1.662-1.242,2.488
		c-4.564,2.906-9.176,5.754-13.842,8.553c-4.664,2.799-9.693,4.719-15.084,5.754c-3.527,0.622-7.051,0.933-10.574,0.933
		c-4.975,0-8.449-1.448-10.418-4.354c-1.973-2.901-3.475-6.425-4.51-10.575c-0.209-0.826-0.365-1.555-0.467-2.177
		c-0.107-0.622-0.154-1.346-0.154-2.177c0-1.448-0.623-1.866-1.867-1.244c-2.074,0.622-4.15,1.195-6.221,1.71
		c-2.074,0.521-4.148,1.298-6.219,2.333c-5.6,2.284-11.197,4.616-16.795,6.998c-5.598,2.386-11.197,4.82-16.795,7.309
		c-1.865,0.622-3.785,1.244-5.754,1.866c-1.973,0.622-3.785,1.244-5.441,1.866c-2.488,0.621-4.457-0.204-5.91-2.488
		c-0.412-0.826-0.879-1.604-1.4-2.333c-0.514-0.724-1.088-1.399-1.709-2.021c-1.035-1.448-0.934-2.799,0.311-4.043
		c1.039-1.035,2.021-2.021,2.955-2.955c0.932-0.933,2.021-1.812,3.266-2.644c5.801-4.354,11.818-8.29,18.037-11.818
		c6.221-3.522,12.854-6.424,19.906-8.708c5.18-1.657,9.844-2.381,13.994-2.177c3.938,0,7.154,1.555,9.643,4.665
		c1.244,1.866,1.865,3.008,1.865,3.421c0,0.418-0.418,0.521-1.244,0.312c-0.83-0.204-1.818-0.516-2.955-0.934
		C719.908,103.383,718.818,103.174,717.783,103.174z"/>
</g>
</svg>
