<?xml version="1.0" encoding="utf-8"?>
<!-- Generator: Adobe Illustrator 16.0.0, SVG Export Plug-In . SVG Version: 6.00 Build 0)  -->
<!DOCTYPE svg PUBLIC "-//W3C//DTD SVG 1.1//EN" "http://www.w3.org/Graphics/SVG/1.1/DTD/svg11.dtd">
<svg version="1.1" id="圖層_1" xmlns="http://www.w3.org/2000/svg" xmlns:xlink="http://www.w3.org/1999/xlink" x="0px" y="0px"
	 width="380px" height="144.667px" viewBox="0 0 380 144.667" enable-background="new 0 0 380 144.667" xml:space="preserve">
<rect y="7.333" fill="#F8D9D7" width="380" height="50"/>
<rect y="90.333" fill="#F8D9D7" width="325" height="50"/>
<g enable-background="new    ">
	<path fill="#575757" d="M67.919,28.075c0.906-0.226,1.728-0.51,2.465-0.851c0.736-0.34,1.445-0.707,2.125-1.104
		c2.89-1.586,5.68-3.258,8.373-5.015c2.691-1.756,5.312-3.684,7.862-5.78c2.606-2.096,4.873-4.391,6.8-6.885
		c0.68-0.963,1.133-1.898,1.36-2.806c0.056-0.453,0.056-0.735,0-0.85c-0.057-0.113-0.284-0.283-0.68-0.51
		c-0.85-0.453-1.729-0.766-2.635-0.936c-0.907-0.17-1.842-0.283-2.805-0.34c-2.777-0.113-5.497,0.057-8.16,0.51
		c-2.664,0.454-5.327,1.05-7.99,1.785c-4.08,1.135-8.033,2.465-11.857,3.995c-3.825,1.53-7.607,3.259-11.348,5.185
		c-2.947,1.475-5.78,3.075-8.5,4.803c-2.72,1.729-5.384,3.585-7.99,5.567c-1.475,1.19-2.905,2.423-4.292,3.698
		c-1.39,1.274-2.678,2.649-3.868,4.122c-0.737,0.907-1.389,1.827-1.955,2.763c-0.567,0.935-1.02,1.97-1.36,3.103
		c-0.17,0.68-0.284,1.347-0.34,1.997c-0.057,0.652,0.028,1.317,0.255,1.998c0.113,0.622,0.396,1.075,0.85,1.359
		c0.792,0.566,1.615,1.021,2.465,1.36s1.756,0.65,2.72,0.935c1.643,0.396,3.258,0.651,4.845,0.766
		c1.586,0.112,3.201,0.141,4.845,0.085c1.133-0.114,2.223-0.185,3.272-0.213c1.048-0.029,2.138-0.1,3.272-0.212
		c1.7-0.114,3.413-0.312,5.143-0.596c1.728-0.284,3.442-0.595,5.142-0.935c4.76-0.851,9.448-1.856,14.068-3.018
		c4.618-1.161,9.222-2.423,13.812-3.782c3.286-1.021,6.573-2.04,9.86-3.061c3.286-1.02,6.573-2.04,9.86-3.06
		c0.283-0.113,0.538-0.17,0.765-0.17c0.226,0,0.481-0.028,0.765-0.085c0.056,0.114,0.085,0.241,0.085,0.382
		c0,0.143,0.028,0.27,0.085,0.383c-0.17,0.114-0.34,0.228-0.51,0.34c-0.17,0.114-0.369,0.228-0.595,0.34
		c-4.194,1.87-8.402,3.557-12.623,5.058c-4.222,1.502-8.542,2.876-12.962,4.123c-2.89,0.793-5.78,1.558-8.67,2.295
		c-2.89,0.735-5.809,1.388-8.755,1.955c-2.097,0.452-4.165,0.85-6.205,1.189s-4.137,0.651-6.29,0.936
		c-2.21,0.226-4.435,0.396-6.672,0.51c-2.239,0.112-4.492,0.056-6.757-0.17c-1.36-0.114-2.692-0.312-3.995-0.596
		c-1.304-0.284-2.579-0.736-3.825-1.359c-0.68-0.34-1.332-0.752-1.955-1.232c-0.625-0.482-1.162-1.035-1.615-1.658
		c-0.227-0.284-0.425-0.566-0.595-0.85c-0.17-0.284-0.37-0.567-0.595-0.85c-0.737-1.021-1.162-2.083-1.275-3.188
		c-0.114-1.105,0-2.253,0.34-3.442c0.34-1.076,0.793-2.083,1.36-3.018c0.566-0.936,1.218-1.828,1.955-2.678
		c1.36-1.756,2.848-3.371,4.462-4.845c1.615-1.474,3.329-2.891,5.143-4.25c3.91-2.891,7.948-5.496,12.113-7.82
		c4.165-2.323,8.485-4.391,12.962-6.205c2.436-0.963,4.873-1.87,7.31-2.72c2.436-0.851,4.93-1.586,7.48-2.21
		c1.926-0.453,3.838-0.851,5.737-1.19c1.898-0.34,3.838-0.565,5.823-0.68c1.076-0.056,2.138-0.085,3.188-0.085
		c1.048,0,2.083,0.142,3.103,0.425c0.453,0.114,0.878,0.241,1.275,0.383c0.396,0.142,0.821,0.297,1.275,0.467
		c0.906,0.454,1.558,1.077,1.955,1.87c0.226,0.34,0.438,0.681,0.637,1.021c0.198,0.34,0.383,0.709,0.553,1.104
		c0.566,1.077,0.595,2.21,0.085,3.4c-0.284,0.737-0.667,1.402-1.147,1.997c-0.482,0.596-1.007,1.205-1.573,1.828
		c-1.644,1.927-3.457,3.669-5.44,5.228c-1.984,1.559-4.024,3.046-6.12,4.462c-1.475,1.021-2.962,1.998-4.463,2.933
		c-1.502,0.936-3.046,1.827-4.632,2.678c-1.134,0.567-2.295,1.104-3.485,1.615c-0.284,0.114-0.54,0.17-0.765,0.17
		c-0.227,0-0.482,0.029-0.765,0.085c-0.17,0.057-0.312,0.029-0.425-0.085c-0.227-0.283-0.439-0.581-0.638-0.893
		C68.442,28.742,68.202,28.415,67.919,28.075z"/>
	<path fill="#575757" d="M106.763,26.459c-0.17-0.226-0.312-0.425-0.425-0.595c-0.114-0.17-0.227-0.34-0.34-0.51
		c0.453-0.283,0.878-0.511,1.275-0.681c0.396-0.17,0.821-0.396,1.275-0.68c0.113-0.113,0.226-0.198,0.34-0.255
		c0.113-0.056,0.226-0.141,0.34-0.255c2.153-2.493,4.363-4.873,6.63-7.141c2.266-2.266,4.675-4.447,7.225-6.545
		c1.246-1.075,2.493-2.096,3.74-3.06c1.246-0.963,2.605-1.87,4.08-2.721c0.396-0.226,0.793-0.425,1.19-0.595
		c0.396-0.17,0.821-0.282,1.275-0.34c0.396-0.113,0.708,0,0.935,0.34c0.113,0.228,0.226,0.439,0.34,0.638
		c0.113,0.199,0.226,0.383,0.34,0.553c0.17,0.17,0.198,0.396,0.085,0.68c-0.284,0.34-0.51,0.652-0.68,0.936
		c-0.17,0.284-0.369,0.566-0.595,0.85c-1.02,1.247-2.112,2.423-3.272,3.527c-1.162,1.105-2.367,2.14-3.612,3.103
		c-2.154,1.984-4.435,3.782-6.843,5.397c-2.409,1.615-4.887,3.16-7.438,4.633c-0.17,0.114-0.34,0.241-0.51,0.382
		c-0.17,0.143-0.369,0.298-0.595,0.468c-1.814,2.154-3.57,4.308-5.27,6.46c-1.7,2.154-3.372,4.393-5.015,6.715
		c-0.057,0.114-0.114,0.199-0.17,0.255c-0.057,0.058-0.085,0.143-0.085,0.256c0.566-0.396,1.076-0.736,1.53-1.021
		c2.55-1.756,5.326-3.03,8.33-3.825c2.21-0.793,4.051-0.282,5.525,1.53c0.283,0.397,0.552,0.737,0.808,1.021
		c0.255,0.284,0.523,0.566,0.807,0.85c1.19,1.304,2.635,1.814,4.335,1.53c0.85-0.17,1.658-0.368,2.423-0.596
		c0.765-0.226,1.543-0.48,2.337-0.765c0.226-0.113,0.453-0.17,0.68-0.17c0.226,0,0.453-0.056,0.68-0.17
		c0.453-0.17,0.68-0.113,0.68,0.17c0.226,0.284,0.396,0.624,0.51,1.02c0.113,0.284-0.029,0.482-0.425,0.596
		c-0.68,0.454-1.402,0.808-2.167,1.062s-1.545,0.524-2.337,0.808c-0.964,0.17-1.955,0.255-2.975,0.255
		c-1.02-0.113-1.842-0.481-2.465-1.105c-0.34-0.283-0.667-0.608-0.977-0.978c-0.312-0.368-0.61-0.723-0.893-1.062
		c-0.794-1.02-1.672-1.671-2.635-1.955c-0.964-0.282-2.012-0.282-3.145,0c-1.19,0.34-2.337,0.78-3.442,1.317
		c-1.105,0.54-2.197,1.092-3.272,1.658c-1.134,0.736-2.21,1.502-3.23,2.295s-2.068,1.643-3.145,2.55
		c-0.283,0.056-0.623,0.283-1.02,0.68c-0.283,0.113-0.453,0.085-0.51-0.085c-0.34-0.34-0.538-0.652-0.595-0.935
		c-0.226-0.284-0.297-0.595-0.212-0.936c0.085-0.34,0.242-0.68,0.467-1.02c0.114-0.226,0.242-0.468,0.383-0.723
		c0.142-0.255,0.297-0.523,0.467-0.808c1.304-2.322,2.72-4.519,4.25-6.587s3.145-4.123,4.845-6.163
		c0.056-0.056,0.085-0.112,0.085-0.17C106.678,26.489,106.706,26.459,106.763,26.459z M132.858,5.634l-0.17-0.17
		c-3.004,1.984-5.809,4.123-8.415,6.418c-2.607,2.295-5.129,4.717-7.565,7.268c2.946-1.926,5.766-4.009,8.458-6.248
		C127.856,10.665,130.421,8.242,132.858,5.634z"/>
	<path fill="#575757" d="M134.642,34.45c-0.85,0.454-1.602,0.922-2.252,1.402c-0.652,0.482-1.205,1.062-1.657,1.742
		c-0.34,0.228-0.595,0.539-0.765,0.936c-0.113,0.284-0.056,0.425,0.17,0.425c0.283,0.057,0.553,0.114,0.808,0.17
		c0.255,0.057,0.495,0.114,0.722,0.17c2.153,0,4.391-0.255,6.715-0.765c2.72-0.623,5.411-1.346,8.075-2.168
		c2.663-0.82,5.27-1.686,7.82-2.593c0.623-0.282,1.303-0.537,2.04-0.765c0.736-0.226,1.416-0.453,2.04-0.68
		c0.283-0.113,0.453-0.113,0.51,0c0.056,0.114,0.141,0.227,0.255,0.34c0.113,0.284,0,0.539-0.34,0.765
		c-0.794,0.397-1.602,0.795-2.422,1.19c-0.822,0.397-1.63,0.794-2.423,1.189c-2.38,1.135-4.817,2.083-7.31,2.848
		c-2.495,0.766-4.987,1.432-7.48,1.998c-1.19,0.284-2.395,0.481-3.612,0.595c-1.219,0.113-2.367,0.085-3.442-0.085
		c-0.625-0.113-1.177-0.298-1.658-0.553c-0.48-0.255-0.863-0.693-1.147-1.317c-0.226-0.34-0.453-0.623-0.68-0.85
		c-0.283-0.681-0.141-1.501,0.425-2.465c0.454-0.511,0.95-0.978,1.487-1.403c0.538-0.425,1.034-0.835,1.488-1.232
		c1.36-0.905,2.748-1.713,4.165-2.422c1.416-0.708,2.89-1.289,4.42-1.743c0.453-0.112,0.963-0.212,1.53-0.297
		c0.566-0.085,1.133-0.184,1.7-0.298c0.793-0.17,1.36,0.085,1.7,0.765c0.113,0.228,0.226,0.426,0.34,0.596
		c0.113,0.17,0.226,0.34,0.34,0.51c0.283,0.34,0.198,0.709-0.255,1.104c-0.397,0.397-0.68,0.652-0.85,0.766
		c-1.19,0.68-2.38,1.274-3.57,1.785c-1.19,0.51-2.522,0.879-3.995,1.104c-0.227,0.058-0.482,0.085-0.765,0.085
		c-0.284,0-0.567,0-0.85,0C135.463,35.244,135.038,34.959,134.642,34.45z M136.597,33.344c2.38-0.452,4.618-1.33,6.715-2.635
		c-1.19,0.284-2.324,0.638-3.4,1.062C138.835,32.197,137.73,32.721,136.597,33.344z"/>
	<path fill="#575757" d="M175.866,34.025c-0.17,0.17-0.354,0.199-0.553,0.085c-0.199-0.113-0.354-0.255-0.467-0.426
		c-0.17-0.226-0.312-0.48-0.425-0.765c0.113-0.565,0.396-1.232,0.85-1.997c0.453-0.766,0.623-1.261,0.51-1.488
		c-0.284-0.396-1.092-0.34-2.423,0.171c-1.332,0.51-2.862,1.247-4.59,2.21c-1.729,0.964-3.485,2.04-5.27,3.229
		c-1.785,1.19-3.272,2.295-4.462,3.315c-0.624,0.566-1.29,1.104-1.998,1.614c-0.709,0.511-1.432,1.021-2.167,1.53
		c-0.34,0.34-0.651,0.283-0.935-0.17c0-0.057-0.155-0.354-0.467-0.893c-0.311-0.538-0.523-0.863-0.638-0.978
		c-0.113-0.283-0.056-0.595,0.17-0.935c0.397-0.681,0.765-1.36,1.105-2.04c0.34-0.681,0.709-1.331,1.105-1.955
		c0.906-1.416,1.913-2.763,3.018-4.038c1.105-1.274,2.223-2.535,3.357-3.782c0.17-0.17,0.368-0.34,0.595-0.51
		c0.226-0.17,0.453-0.311,0.68-0.425c0.396-0.34,0.765-0.255,1.105,0.255c0.17,0.284,0.311,0.624,0.425,1.02
		c0.056,0.114,0.042,0.255-0.042,0.426c-0.085,0.17-0.185,0.312-0.297,0.425l-1.615,1.955c-0.227,0.284-0.552,0.709-0.978,1.274
		c-0.425,0.567-0.879,1.177-1.36,1.828c-0.482,0.651-0.978,1.304-1.487,1.955c-0.51,0.651-0.935,1.204-1.275,1.657
		c0.906-0.681,1.983-1.473,3.23-2.38c1.246-0.906,2.55-1.799,3.91-2.678c1.36-0.878,2.706-1.671,4.038-2.38
		c1.331-0.708,2.563-1.232,3.697-1.572c1.983-0.566,3.414-0.453,4.292,0.34c0.878,0.794,1.431,1.842,1.658,3.145
		c0.056,0.624-0.212,1.177-0.808,1.657C176.759,33.189,176.262,33.628,175.866,34.025z"/>
	<path fill="#575757" d="M198.985,34.025c-0.17,0.17-0.354,0.199-0.553,0.085c-0.199-0.113-0.354-0.255-0.468-0.426
		c-0.17-0.226-0.312-0.48-0.425-0.765c0.113-0.565,0.396-1.232,0.851-1.997c0.453-0.766,0.623-1.261,0.51-1.488
		c-0.284-0.396-1.092-0.34-2.423,0.171c-1.332,0.51-2.862,1.247-4.59,2.21c-1.729,0.964-3.485,2.04-5.27,3.229
		c-1.785,1.19-3.272,2.295-4.462,3.315c-0.624,0.566-1.29,1.104-1.998,1.614c-0.709,0.511-1.432,1.021-2.167,1.53
		c-0.34,0.34-0.651,0.283-0.935-0.17c0-0.057-0.155-0.354-0.467-0.893c-0.311-0.538-0.523-0.863-0.638-0.978
		c-0.113-0.283-0.056-0.595,0.17-0.935c0.397-0.681,0.765-1.36,1.105-2.04c0.34-0.681,0.709-1.331,1.105-1.955
		c0.906-1.416,1.913-2.763,3.018-4.038c1.105-1.274,2.223-2.535,3.357-3.782c0.17-0.17,0.368-0.34,0.595-0.51
		c0.226-0.17,0.453-0.311,0.68-0.425c0.396-0.34,0.765-0.255,1.105,0.255c0.17,0.284,0.311,0.624,0.425,1.02
		c0.056,0.114,0.042,0.255-0.042,0.426c-0.085,0.17-0.185,0.312-0.297,0.425l-1.615,1.955c-0.227,0.284-0.552,0.709-0.978,1.274
		c-0.425,0.567-0.879,1.177-1.36,1.828c-0.482,0.651-0.978,1.304-1.487,1.955c-0.51,0.651-0.935,1.204-1.275,1.657
		c0.906-0.681,1.983-1.473,3.23-2.38c1.246-0.906,2.55-1.799,3.91-2.678c1.36-0.878,2.706-1.671,4.038-2.38
		c1.33-0.708,2.562-1.232,3.697-1.572c1.982-0.566,3.414-0.453,4.293,0.34c0.877,0.794,1.43,1.842,1.657,3.145
		c0.056,0.624-0.212,1.177-0.808,1.657C199.878,33.189,199.381,33.628,198.985,34.025z"/>
	<path fill="#575757" d="M230.943,33.514c0.17,0,0.312,0.058,0.426,0.17c-0.114,0.341-0.228,0.54-0.34,0.596l-4.506,2.38
		l-6.715,3.57c-0.283,0.17-0.482,0.425-0.595,0.765c-4.138,9.293-9.804,17.538-17,24.735c-1.133,1.133-2.308,2.181-3.527,3.145
		c-1.218,0.963-2.508,1.841-3.868,2.635c-0.68,0.453-1.373,0.821-2.082,1.105c-0.708,0.282-1.458,0.48-2.252,0.595
		c-1.076,0.17-1.87-0.17-2.38-1.02c-0.17-0.284-0.326-0.553-0.468-0.808c-0.141-0.255-0.268-0.525-0.382-0.808
		c-0.283-0.51-0.396-1.021-0.34-1.53c0.057-0.51,0.17-1.049,0.34-1.615c0.34-1.134,0.822-2.196,1.445-3.188
		c0.625-0.992,1.332-1.97,2.125-2.933c1.587-2.153,3.301-4.151,5.143-5.992c1.842-1.842,3.782-3.612,5.822-5.312
		c2.55-2.154,5.1-4.151,7.65-5.992c2.549-1.843,5.27-3.583,8.16-5.228c0.055-0.056,0.112-0.099,0.17-0.128
		c0.055-0.027,0.112-0.098,0.17-0.212l1.869-4.846c-0.113-0.112-0.326-0.085-0.637,0.085c-0.312,0.171-0.609,0.312-0.893,0.426
		l-6.375,3.654c-1.36,0.737-2.721,1.445-4.08,2.125c-1.36,0.681-2.777,1.247-4.25,1.7c-0.397,0.113-0.766,0.198-1.105,0.255
		c-0.34,0.056-0.68,0.113-1.02,0.17c-0.566,0.056-0.991-0.17-1.275-0.68c-0.17-0.34-0.34-0.65-0.51-0.935
		c-0.34-0.623-0.453-1.105-0.34-1.445l0.084-0.17c0.511-1.021,1.021-1.913,1.531-2.678c0.51-0.765,1.075-1.458,1.699-2.082
		c0.623-0.623,1.275-1.232,1.955-1.828c0.68-0.595,1.445-1.288,2.295-2.082c0.283-0.226,0.608-0.468,0.978-0.723
		c0.368-0.255,0.693-0.438,0.978-0.553c0.453-0.17,0.82-0.056,1.105,0.34c0.283,0.397,0.367,0.737,0.255,1.021
		c0.056,0.057,0,0.156-0.171,0.297c-0.17,0.143-0.369,0.298-0.594,0.468c-0.228,0.17-0.469,0.34-0.723,0.51
		c-0.256,0.17-0.468,0.312-0.638,0.426c-0.737,0.68-1.375,1.274-1.913,1.784c-0.539,0.511-1.034,1.007-1.487,1.488
		c-0.454,0.481-0.879,0.992-1.274,1.529c-0.397,0.54-0.822,1.205-1.275,1.998c-0.114,0.17-0.227,0.396-0.34,0.68
		c-0.114,0.284,0.056,0.34,0.51,0.17c1.02-0.34,2.011-0.735,2.975-1.189c0.963-0.453,1.926-0.906,2.891-1.36l6.375-3.23
		c0.226-0.056,0.623-0.255,1.189-0.595s1.161-0.665,1.785-0.978c0.623-0.311,1.219-0.565,1.785-0.765
		c0.566-0.198,0.963-0.184,1.189,0.042l1.275,1.955c0.057,0.114,0.028,0.327-0.085,0.638c-0.114,0.312-0.241,0.667-0.382,1.062
		c-0.143,0.397-0.285,0.779-0.426,1.147c-0.142,0.369-0.241,0.667-0.297,0.893l0.51-0.255c1.076-0.51,2.125-1.006,3.145-1.487
		c1.021-0.481,2.096-0.863,3.23-1.147c0.623-0.17,1.218-0.312,1.785-0.425C229.81,33.742,230.377,33.628,230.943,33.514z
		 M215.814,43.12c0-0.114,0.013-0.199,0.042-0.255c0.028-0.058,0.07-0.143,0.128-0.255l-0.426,0.255
		c-3.344,2.152-6.545,4.42-9.604,6.8s-6.006,4.985-8.841,7.82c-1.245,1.303-2.422,2.62-3.527,3.952
		c-1.104,1.331-2.138,2.733-3.102,4.207c-0.453,0.736-0.863,1.459-1.232,2.168c-0.368,0.708-0.666,1.458-0.893,2.253
		c-0.113,0.565-0.141,0.892-0.085,0.978c0.057,0.085,0.397,0.098,1.02,0.042c0.624-0.057,1.205-0.199,1.743-0.425
		c0.539-0.228,1.091-0.482,1.656-0.766c2.664-1.474,5.186-3.372,7.565-5.694c3.229-3.117,6.12-6.433,8.67-9.945
		C211.479,50.741,213.773,47.03,215.814,43.12z"/>
</g>
<g enable-background="new    ">
	<path fill="#575757" d="M91.919,131.099c0.226,0.057,0.425,0.113,0.595,0.171c0.17,0.056,0.255,0.226,0.255,0.51l0.085,0.085
		c-0.17,0.17-0.312,0.325-0.425,0.468c-0.114,0.141-0.255,0.268-0.425,0.382c-0.057,0.056-0.157,0.07-0.298,0.043
		c-0.142-0.029-0.242-0.1-0.297-0.213c-0.284-0.284-0.51-0.582-0.68-0.893c-0.17-0.312-0.34-0.638-0.51-0.978
		c-0.114-0.227-0.127-0.467-0.042-0.723c0.085-0.255,0.183-0.522,0.297-0.807c0.793-1.474,1.686-2.891,2.678-4.25
		c0.991-1.36,1.998-2.721,3.018-4.08c0.113-0.113,0.198-0.227,0.255-0.341v-0.085l-2.04,0.511c-1.02,0.284-2.027,0.539-3.018,0.765
		c-0.992,0.228-2.027,0.454-3.103,0.68c-0.567,0.114-1.134,0.199-1.7,0.255c-0.567,0.058-1.105,0-1.615-0.17
		c-0.34-0.17-0.624-0.367-0.85-0.595c-0.057,0-0.072-0.056-0.042-0.17c0.028-0.113,0.07-0.198,0.127-0.255
		c0.51-0.623,0.991-0.991,1.445-1.105c1.813-0.51,3.555-0.948,5.228-1.317c1.67-0.367,3.385-0.835,5.142-1.402
		c0.453-0.17,0.935-0.325,1.445-0.468c0.51-0.141,1.02-0.297,1.53-0.467c0.34,0,0.538-0.113,0.595-0.341
		c1.473-1.812,2.988-3.683,4.547-5.609c1.558-1.926,3.13-3.74,4.718-5.44c0.792-0.793,1.558-1.543,2.295-2.252
		c0.736-0.708,1.558-1.402,2.465-2.083c0.056,0,0.113-0.027,0.17-0.085c0.453-0.282,0.778-0.396,0.978-0.34
		c0.198,0.058,0.438,0.312,0.723,0.765c0.113,0.114,0.183,0.213,0.212,0.298c0.028,0.085,0.098,0.185,0.212,0.298
		c0.226,0.17,0.326,0.326,0.297,0.467c-0.029,0.143-0.1,0.327-0.212,0.553c-0.624,0.794-1.162,1.53-1.615,2.21
		c-0.454,0.681-0.992,1.475-1.615,2.38c-0.34,0.511-0.652,0.922-0.935,1.232c-0.284,0.312-0.652,0.61-1.105,0.893
		c0.68-1.415,1.53-2.89,2.55-4.42c0.056-0.056,0.085-0.197,0.085-0.425c-1.587,1.587-3.315,3.4-5.185,5.44s-3.542,3.938-5.015,5.694
		c0.226,0,0.368-0.027,0.425-0.085c4.136-1.245,8.471-2.535,13.005-3.867c4.533-1.331,8.84-2.79,12.92-4.378
		c2.663-1.075,5.27-2.181,7.82-3.314c2.55-1.133,5.043-2.408,7.48-3.825c1.303-0.735,2.578-1.53,3.825-2.38
		c1.246-0.851,2.408-1.785,3.485-2.805c1.246-1.246,1.955-2.381,2.125-3.4c0.17-1.021,0.013-1.912-0.467-2.678
		c-0.482-0.765-1.19-1.431-2.125-1.997s-1.913-0.991-2.933-1.275c-2.267-0.623-4.534-1.033-6.8-1.232
		c-2.267-0.198-4.59-0.269-6.97-0.213c-2.89,0-5.724,0.1-8.5,0.298c-2.777,0.199-5.582,0.439-8.415,0.723
		c-10.937,1.36-21.704,3.6-32.3,6.715c-2.55,0.794-5.058,1.615-7.522,2.465c-2.465,0.851-4.917,1.758-7.353,2.721
		c-0.51,0.227-1.205,0.524-2.083,0.892c-0.879,0.37-1.8,0.795-2.763,1.275c-0.964,0.482-1.955,1.007-2.975,1.572
		c-1.02,0.567-1.955,1.135-2.805,1.7c-0.625,0.454-1.092,0.808-1.403,1.062c-0.312,0.255-0.582,0.582-0.807,0.978
		c-0.114,0.114-0.17,0.327-0.17,0.638c0,0.312-0.142,0.383-0.425,0.212c-0.057,0-0.17-0.098-0.34-0.297
		c-0.17-0.198-0.327-0.468-0.468-0.808c-0.142-0.34-0.27-0.68-0.382-1.021c-0.114-0.34-0.114-0.622,0-0.85
		c0.226-0.565,0.623-1.118,1.19-1.657c0.566-0.538,1.203-1.033,1.913-1.487c0.708-0.453,1.402-0.851,2.083-1.19
		s1.275-0.65,1.785-0.935c2.833-1.474,5.723-2.748,8.67-3.825c2.946-1.076,5.921-2.096,8.925-3.061
		c3.4-1.075,6.771-2.025,10.115-2.847c3.343-0.821,6.771-1.573,10.285-2.253c2.436-0.51,4.888-0.963,7.353-1.36
		c2.465-0.396,4.943-0.735,7.438-1.02c3.456-0.396,6.913-0.693,10.37-0.893c3.456-0.198,6.913-0.24,10.37-0.128
		c2.153,0.114,4.263,0.312,6.333,0.596c2.068,0.284,4.15,0.794,6.248,1.529c0.963,0.341,1.87,0.737,2.72,1.19
		c0.85,0.454,1.586,1.077,2.21,1.87c0.34,0.454,0.68,0.864,1.02,1.232c0.34,0.369,0.651,0.779,0.935,1.232
		c0.623,0.794,0.878,1.587,0.765,2.38c-0.114,0.794-0.397,1.587-0.85,2.38c-0.454,0.851-0.992,1.572-1.615,2.168
		c-0.625,0.595-1.305,1.204-2.04,1.827c-1.53,1.19-3.145,2.282-4.845,3.272c-1.7,0.992-3.457,1.941-5.27,2.848
		c-2.72,1.36-5.512,2.622-8.373,3.782c-2.862,1.162-5.794,2.225-8.797,3.188c-2.097,0.737-4.208,1.445-6.333,2.125
		c-2.125,0.681-4.237,1.36-6.333,2.04l-0.34,0.17c0.51,0.228,1.02,0.454,1.53,0.681c0.51,0.227,0.991,0.51,1.445,0.85
		c1.246,0.907,2.266,1.984,3.06,3.23c0.283,0.566,0.566,1.091,0.85,1.572c0.283,0.481,0.481,1.034,0.595,1.657
		c0.17,0.964,0.155,1.899-0.042,2.805c-0.199,0.907-0.525,1.758-0.978,2.551c-0.625,1.133-1.375,2.152-2.252,3.06
		c-0.879,0.906-1.828,1.756-2.848,2.55c-2.04,1.586-4.194,2.903-6.46,3.953c-2.267,1.048-4.675,1.968-7.225,2.762
		c-1.304,0.341-2.592,0.651-3.868,0.936c-1.275,0.282-2.564,0.48-3.867,0.595c-1.134,0.113-2.252,0.184-3.357,0.213
		c-1.105,0.027-2.225-0.072-3.358-0.298c-0.964-0.17-1.842-0.482-2.635-0.935c-0.794-0.455-1.474-1.162-2.04-2.125
		c-0.114-0.341-0.27-0.652-0.467-0.936c-0.199-0.284-0.355-0.624-0.468-1.02c-0.114-0.511-0.1-0.978,0.042-1.402
		c0.141-0.426,0.354-0.865,0.638-1.318c0.453-0.624,0.948-1.147,1.487-1.572c0.538-0.425,1.118-0.837,1.743-1.232
		c0.623-0.34,1.246-0.667,1.87-0.978c0.623-0.312,1.246-0.609,1.87-0.893c0.113-0.114,0.241-0.17,0.383-0.17
		c0.141,0,0.268-0.029,0.382-0.085c-0.227,0.623-0.539,1.105-0.935,1.445c-1.02,0.793-1.998,1.601-2.933,2.422
		c-0.935,0.821-1.714,1.799-2.337,2.933c-0.454,0.681-0.709,1.388-0.765,2.125c0,0.283,0.141,0.511,0.425,0.681
		c0.453,0.226,0.92,0.41,1.402,0.552c0.481,0.142,1.005,0.241,1.573,0.298c2.493,0.226,5.015,0.141,7.565-0.255
		c4.476-0.794,8.783-2.154,12.92-4.08c1.643-0.794,3.243-1.687,4.803-2.678c1.558-0.992,2.988-2.14,4.292-3.442
		c0.792-0.793,1.5-1.615,2.125-2.465c0.623-0.85,1.076-1.841,1.36-2.975c0.396-1.304,0.425-2.521,0.085-3.655
		c-0.17-0.566-0.454-0.991-0.85-1.275c-1.7-1.303-3.712-2.125-6.035-2.465c-0.567-0.056-1.176-0.128-1.827-0.213
		c-0.652-0.085-1.232-0.07-1.743,0.043c-0.567,0.114-1.134,0.255-1.7,0.425c-0.794,0.228-1.56,0.439-2.295,0.638
		c-0.737,0.199-1.474,0.439-2.21,0.723c-0.114,0-0.212,0.029-0.297,0.085c-0.085,0.057-0.185,0.114-0.297,0.17
		c-1.134,1.36-2.252,2.72-3.357,4.08c-1.105,1.359-2.14,2.777-3.103,4.25c-0.34,0.454-0.667,0.949-0.978,1.487
		c-0.312,0.539-0.638,1.091-0.978,1.657c-0.057,0.056-0.085,0.099-0.085,0.128C92.004,131,91.975,131.042,91.919,131.099z"/>
	<path fill="#575757" d="M128.299,131.099c0.284-0.057,0.539-0.085,0.765-0.085c0.228,0,0.455-0.029,0.68-0.085
		c1.303-0.17,2.578-0.454,3.825-0.85c1.246-0.396,2.465-0.85,3.655-1.36c2.04-0.85,4.08-1.728,6.12-2.635
		c2.04-0.905,4.08-1.841,6.12-2.805c0.623-0.283,1.203-0.523,1.742-0.723c0.538-0.198,1.119-0.438,1.743-0.723
		c0.283-0.17,0.481-0.17,0.595,0c0.17,0.34,0.113,0.595-0.17,0.765c-0.68,0.455-1.36,0.922-2.04,1.403
		c-0.68,0.481-1.389,0.949-2.125,1.402c-2.38,1.304-4.76,2.494-7.14,3.569c-2.38,1.077-4.845,2.011-7.395,2.806
		c-0.794,0.282-1.587,0.51-2.38,0.68c-0.794,0.17-1.587,0.283-2.38,0.34c-0.51,0-0.948-0.071-1.317-0.212
		c-0.368-0.143-0.693-0.44-0.978-0.893c-0.113-0.228-0.226-0.369-0.34-0.425c-0.566-0.681-0.623-1.53-0.17-2.551
		c0.397-0.793,0.836-1.543,1.317-2.252c0.482-0.708,1.007-1.431,1.572-2.168c1.643-2.04,3.371-4.022,5.185-5.95
		c1.813-1.926,3.655-3.853,5.525-5.779c2.493-2.493,5-4.916,7.522-7.268c2.521-2.351,5.143-4.604,7.863-6.758
		c0.793-0.735,1.628-1.431,2.507-2.082c0.878-0.651,1.743-1.289,2.593-1.913c0.226-0.17,0.453-0.311,0.68-0.425
		c0.226-0.113,0.481-0.226,0.765-0.34c0.226-0.056,0.396,0.029,0.51,0.255l0.765,1.785c0.113,0.17,0.056,0.369-0.17,0.595
		c-0.114,0.17-0.255,0.327-0.425,0.468c-0.17,0.142-0.34,0.297-0.51,0.468c-3.06,3.116-6.248,6.034-9.562,8.755
		c-3.315,2.72-6.729,5.354-10.242,7.904c-0.114,0.114-0.242,0.228-0.383,0.341c-0.142,0.114-0.27,0.227-0.382,0.34
		c-1.757,1.757-3.472,3.499-5.143,5.228c-1.672,1.729-3.33,3.527-4.973,5.397c-0.51,0.624-1.006,1.247-1.487,1.87
		c-0.482,0.624-0.978,1.274-1.487,1.955c-0.34,0.454-0.651,1.048-0.935,1.784C128.214,130.985,128.243,131.042,128.299,131.099z"/>
	<path fill="#575757" d="M163.147,119.879c-0.397,0.058-0.709,0.114-0.935,0.17c-0.228,0.058-0.567,0.114-1.02,0.17
		c0.17,0.511,0.438,0.907,0.807,1.19c0.368,0.284,0.75,0.482,1.147,0.595c2.266,0.624,4.278,0.808,6.035,0.553
		c1.756-0.255,3.626-0.58,5.61-0.978c0.793-0.17,1.601-0.383,2.423-0.638c0.821-0.255,1.628-0.495,2.422-0.723
		c0.113-0.056,0.255-0.085,0.425-0.085c0.453,0,0.708,0.228,0.765,0.681c0.056,0.396-0.085,0.651-0.425,0.765
		c-1.02,0.567-2.04,0.964-3.06,1.19c-1.53,0.566-3.103,1.049-4.718,1.444c-1.615,0.397-3.272,0.624-4.972,0.681
		c-0.794,0.057-1.587,0.042-2.38-0.043c-0.794-0.085-1.587-0.269-2.38-0.553h-0.255c-0.34,1.305-0.893,2.295-1.658,2.976
		c-0.765,0.68-1.572,1.304-2.422,1.87c-1.36,0.85-2.564,1.415-3.612,1.699c-1.049,0.283-2.31,0.538-3.783,0.766
		c-0.454,0-0.922,0-1.402,0c-0.482,0-0.95-0.058-1.403-0.17c-0.284-0.17-0.538-0.327-0.765-0.468
		c-0.226-0.143-0.396-0.354-0.51-0.638c-0.113-0.226-0.24-0.438-0.382-0.638c-0.141-0.197-0.269-0.382-0.382-0.552
		c-0.396-0.566-0.425-1.246-0.085-2.04c0.17-0.511,0.397-0.963,0.68-1.36c0.284-0.396,0.595-0.793,0.935-1.19
		c1.246-1.189,2.393-2.152,3.442-2.89c1.048-0.735,2.337-1.473,3.868-2.21c1.133-0.453,2.28-0.893,3.442-1.317
		c1.161-0.425,2.337-0.638,3.527-0.638c0.68,0.114,1.148,0.298,1.403,0.553s0.523,0.779,0.808,1.572c0,0.624-0.1,0.85-0.298,0.68
		C163.841,120.134,163.543,119.994,163.147,119.879z M147.508,129.4c0.17,0,0.312,0.029,0.425,0.085
		c0.113,0.057,0.226,0.085,0.34,0.085c1.133,0.114,2.323,0.042,3.57-0.213c1.246-0.255,2.45-0.638,3.612-1.147
		c1.161-0.51,2.223-1.147,3.188-1.912c0.963-0.766,1.728-1.629,2.295-2.593c0.17-0.34,0.113-0.778-0.17-1.317
		c-0.284-0.538-0.482-0.978-0.595-1.317c-0.17-0.34-0.37-0.425-0.595-0.255c-1.134,0.396-2.097,0.736-2.89,1.02
		c-0.794,0.284-1.729,0.794-2.805,1.53c-0.964,0.567-1.842,1.162-2.635,1.785c-0.794,0.624-1.587,1.332-2.38,2.125
		c-0.284,0.284-0.539,0.595-0.765,0.935C147.875,128.549,147.678,128.947,147.508,129.4z"/>
	<path fill="#575757" d="M188.306,119.625h-0.17c-0.454-0.283-0.921-0.41-1.402-0.383c-0.482,0.029-0.978,0.128-1.487,0.298
		c-1.02,0.34-1.998,0.779-2.933,1.317c-0.935,0.539-1.857,1.147-2.763,1.827c-1.077,0.795-2.097,1.645-3.06,2.551
		c-0.964,0.907-1.842,1.927-2.635,3.06c-0.623,0.907-1.105,1.842-1.445,2.805c-0.056,0.113-0.085,0.213-0.085,0.298
		s-0.028,0.213-0.085,0.383l0.68-0.34c3.06-1.7,6.163-3.272,9.308-4.718s6.388-2.733,9.732-3.867
		c0.906-0.283,1.812-0.566,2.721-0.851c0.905-0.283,1.84-0.48,2.805-0.595c0.283-0.056,0.707-0.085,1.274-0.085
		c0.171,0,0.283,0.029,0.341,0.085c0.225,0.34,0.367,0.595,0.424,0.765c0.057,0.058,0.014,0.128-0.127,0.213
		c-0.143,0.085-0.27,0.127-0.383,0.127c-1.134,0.455-2.295,0.88-3.484,1.275c-1.19,0.397-2.353,0.794-3.485,1.19
		c-3.344,1.247-6.587,2.606-9.732,4.079c-3.145,1.474-6.248,3.061-9.308,4.761c-0.51,0.282-0.793,0.495-0.85,0.638
		c-0.056,0.141-0.056,0.522,0,1.147c0.057,0.452,0.1,0.863,0.127,1.232c0.029,0.367,0.072,0.778,0.128,1.232
		c0.34,2.663-0.765,4.42-3.315,5.27c-1.87,0.566-3.768,0.595-5.695,0.085c-0.793-0.17-1.388-0.595-1.785-1.274
		c-0.113-0.228-0.34-0.567-0.68-1.021c-0.283-0.34-0.311-0.709-0.085-1.104c0.17-0.228,0.327-0.44,0.467-0.638
		c0.142-0.199,0.297-0.383,0.468-0.553c0.964-0.907,1.941-1.715,2.932-2.423c0.992-0.709,2.055-1.402,3.188-2.082
		c0.397-0.228,0.78-0.454,1.147-0.68c0.37-0.228,0.752-0.454,1.147-0.681c0.285-0.114,0.37-0.284,0.255-0.51
		c-0.17-2.493,0.652-4.815,2.465-6.97c1.36-1.644,2.848-3.088,4.462-4.335c1.615-1.246,3.414-2.295,5.397-3.146
		c0.34-0.17,0.693-0.297,1.062-0.382c0.368-0.085,0.75-0.184,1.147-0.298c1.076-0.17,1.898,0.17,2.465,1.02
		c0.113,0.228,0.255,0.44,0.425,0.638C188.051,119.186,188.192,119.399,188.306,119.625z M170.796,135.179l-0.34,0.17
		c-0.793,0.453-1.558,0.921-2.295,1.403c-0.736,0.48-1.473,0.978-2.21,1.487c-0.565,0.396-1.105,0.835-1.615,1.317
		c-0.51,0.48-1.048,0.948-1.615,1.402c-0.113,0.113-0.198,0.213-0.255,0.298c-0.056,0.085-0.141,0.183-0.255,0.297
		c0.114,0.056,0.199,0.085,0.255,0.085c2.494,0.623,4.704,0.283,6.63-1.02c0.455-0.284,0.837-0.638,1.148-1.062
		c0.312-0.425,0.497-0.922,0.552-1.487c0.057-0.454,0.072-0.922,0.042-1.402C170.811,136.185,170.796,135.69,170.796,135.179z"/>
	<path fill="#575757" d="M207.939,119.625h-0.17c-0.454-0.283-0.922-0.41-1.402-0.383c-0.482,0.029-0.978,0.128-1.487,0.298
		c-1.021,0.34-1.997,0.779-2.933,1.317c-0.936,0.539-1.857,1.147-2.763,1.827c-1.077,0.795-2.097,1.645-3.06,2.551
		c-0.965,0.907-1.842,1.927-2.635,3.06c-0.623,0.907-1.105,1.842-1.445,2.805c-0.057,0.113-0.086,0.213-0.086,0.298
		s-0.027,0.213-0.084,0.383l0.68-0.34c3.061-1.7,6.162-3.272,9.308-4.718s6.388-2.733,9.732-3.867
		c0.905-0.283,1.813-0.566,2.72-0.851c0.906-0.283,1.841-0.48,2.805-0.595c0.283-0.056,0.709-0.085,1.275-0.085
		c0.17,0,0.283,0.029,0.34,0.085c0.227,0.34,0.368,0.595,0.426,0.765c0.055,0.058,0.013,0.128-0.128,0.213
		c-0.142,0.085-0.27,0.127-0.382,0.127c-1.135,0.455-2.296,0.88-3.486,1.275c-1.189,0.397-2.352,0.794-3.484,1.19
		c-3.344,1.247-6.588,2.606-9.732,4.079c-3.145,1.474-6.248,3.061-9.308,4.761c-0.51,0.282-0.793,0.495-0.851,0.638
		c-0.055,0.141-0.055,0.522,0,1.147c0.058,0.452,0.1,0.863,0.128,1.232c0.029,0.367,0.071,0.778,0.128,1.232
		c0.34,2.663-0.766,4.42-3.315,5.27c-1.87,0.566-3.768,0.595-5.695,0.085c-0.793-0.17-1.388-0.595-1.785-1.274
		c-0.113-0.228-0.34-0.567-0.68-1.021c-0.283-0.34-0.311-0.709-0.085-1.104c0.17-0.228,0.327-0.44,0.467-0.638
		c0.142-0.199,0.297-0.383,0.468-0.553c0.964-0.907,1.941-1.715,2.932-2.423c0.992-0.709,2.055-1.402,3.188-2.082
		c0.397-0.228,0.78-0.454,1.147-0.68c0.37-0.228,0.752-0.454,1.147-0.681c0.285-0.114,0.37-0.284,0.255-0.51
		c-0.17-2.493,0.652-4.815,2.465-6.97c1.359-1.644,2.848-3.088,4.463-4.335c1.615-1.246,3.413-2.295,5.396-3.146
		c0.341-0.17,0.693-0.297,1.062-0.382s0.751-0.184,1.148-0.298c1.076-0.17,1.897,0.17,2.465,1.02
		c0.113,0.228,0.255,0.44,0.425,0.638C207.685,119.186,207.826,119.399,207.939,119.625z M190.43,135.179l-0.34,0.17
		c-0.793,0.453-1.558,0.921-2.295,1.403c-0.736,0.48-1.473,0.978-2.21,1.487c-0.565,0.396-1.105,0.835-1.615,1.317
		c-0.51,0.48-1.048,0.948-1.615,1.402c-0.113,0.113-0.198,0.213-0.255,0.298c-0.056,0.085-0.141,0.183-0.255,0.297
		c0.114,0.056,0.199,0.085,0.255,0.085c2.494,0.623,4.704,0.283,6.63-1.02c0.455-0.284,0.837-0.638,1.148-1.062
		c0.312-0.425,0.497-0.922,0.552-1.487c0.057-0.454,0.072-0.922,0.042-1.402C190.444,136.185,190.43,135.69,190.43,135.179z"/>
	<path fill="#575757" d="M227.913,119.879c-0.397,0.058-0.709,0.114-0.935,0.17c-0.228,0.058-0.567,0.114-1.02,0.17
		c0.17,0.511,0.438,0.907,0.807,1.19c0.368,0.284,0.75,0.482,1.147,0.595c2.267,0.624,4.278,0.808,6.035,0.553
		c1.756-0.255,3.626-0.58,5.61-0.978c0.793-0.17,1.6-0.383,2.422-0.638c0.821-0.255,1.629-0.495,2.423-0.723
		c0.112-0.056,0.255-0.085,0.425-0.085c0.453,0,0.708,0.228,0.766,0.681c0.055,0.396-0.086,0.651-0.426,0.765
		c-1.02,0.567-2.039,0.964-3.06,1.19c-1.53,0.566-3.103,1.049-4.718,1.444c-1.615,0.397-3.272,0.624-4.973,0.681
		c-0.794,0.057-1.587,0.042-2.38-0.043c-0.794-0.085-1.587-0.269-2.38-0.553h-0.255c-0.34,1.305-0.893,2.295-1.657,2.976
		c-0.766,0.68-1.572,1.304-2.423,1.87c-1.36,0.85-2.564,1.415-3.612,1.699c-1.049,0.283-2.31,0.538-3.783,0.766
		c-0.453,0-0.922,0-1.402,0c-0.482,0-0.949-0.058-1.402-0.17c-0.284-0.17-0.537-0.327-0.765-0.468
		c-0.226-0.143-0.396-0.354-0.511-0.638c-0.112-0.226-0.24-0.438-0.382-0.638c-0.141-0.197-0.269-0.382-0.382-0.552
		c-0.396-0.566-0.426-1.246-0.086-2.04c0.17-0.511,0.397-0.963,0.68-1.36c0.285-0.396,0.596-0.793,0.936-1.19
		c1.246-1.189,2.393-2.152,3.442-2.89c1.048-0.735,2.337-1.473,3.868-2.21c1.133-0.453,2.279-0.893,3.441-1.317
		c1.161-0.425,2.338-0.638,3.527-0.638c0.681,0.114,1.148,0.298,1.403,0.553s0.522,0.779,0.808,1.572c0,0.624-0.1,0.85-0.298,0.68
		C228.606,120.134,228.309,119.994,227.913,119.879z M212.273,129.4c0.17,0,0.312,0.029,0.425,0.085
		c0.112,0.057,0.226,0.085,0.34,0.085c1.134,0.114,2.323,0.042,3.57-0.213c1.245-0.255,2.45-0.638,3.612-1.147
		c1.16-0.51,2.223-1.147,3.188-1.912c0.963-0.766,1.729-1.629,2.295-2.593c0.17-0.34,0.113-0.778-0.17-1.317
		c-0.284-0.538-0.482-0.978-0.595-1.317c-0.171-0.34-0.37-0.425-0.595-0.255c-1.135,0.396-2.098,0.736-2.891,1.02
		c-0.794,0.284-1.729,0.794-2.805,1.53c-0.965,0.567-1.842,1.162-2.635,1.785c-0.795,0.624-1.588,1.332-2.381,2.125
		c-0.283,0.284-0.539,0.595-0.765,0.935C212.641,128.549,212.443,128.947,212.273,129.4z"/>
	<path fill="#575757" d="M271.518,121.834c-1.814,0.794-3.345,1.53-4.591,2.21c-1.247,0.68-2.395,1.332-3.442,1.955
		c-1.049,0.624-2.125,1.262-3.23,1.912c-1.104,0.652-2.366,1.347-3.781,2.083c-0.341,0.17-0.695,0.198-1.062,0.085
		c-0.37-0.113-0.695-0.311-0.979-0.595c-0.283-0.283-0.524-0.581-0.723-0.893c-0.199-0.311-0.297-0.608-0.297-0.893
		c0.453-1.021,0.99-2.11,1.615-3.272c0.623-1.161,1.16-2.309,1.615-3.442c0.112-0.227,0.197-0.426,0.254-0.596
		s-0.142-0.197-0.595-0.085c-0.284,0.114-0.837,0.454-1.657,1.021c-0.822,0.567-1.785,1.247-2.891,2.04
		c-1.104,0.794-2.267,1.657-3.484,2.593c-1.219,0.935-2.38,1.784-3.484,2.55c-1.105,0.765-2.055,1.374-2.848,1.827
		c-0.795,0.453-1.305,0.65-1.531,0.595c-0.34-0.114-0.764-0.396-1.274-0.85c-0.51-0.453-0.851-0.821-1.021-1.105
		c-0.225-0.396-0.084-1.062,0.426-1.997s1.147-1.926,1.912-2.975c0.766-1.048,1.543-2.025,2.338-2.933
		c0.793-0.906,1.33-1.501,1.615-1.785c0.453-0.453,0.835-0.836,1.146-1.147c0.312-0.311,0.693-0.58,1.148-0.808
		c0.396-0.17,0.707-0.24,0.935-0.213c0.226,0.029,0.481,0.213,0.765,0.553c0.396,0.454,0.51,0.737,0.34,0.851
		c-0.736,0.454-1.544,1.147-2.422,2.082c-0.879,0.935-1.742,1.912-2.592,2.933c-0.851,1.02-1.603,1.997-2.254,2.933
		c-0.651,0.935-1.119,1.629-1.402,2.082c2.776-1.7,5.426-3.541,7.948-5.524c2.521-1.983,5.198-3.684,8.032-5.101
		c0.566-0.226,1.048-0.056,1.445,0.51c0.226,0.285,0.438,0.567,0.637,0.851c0.198,0.284,0.354,0.567,0.469,0.85
		c0.17,0.454,0.17,1.007,0,1.658c-0.171,0.651-0.426,1.332-0.766,2.04c-0.34,0.709-0.695,1.374-1.062,1.997
		c-0.369,0.624-0.667,1.134-0.893,1.53c-0.114,0.284,0.34,0.142,1.359-0.426c1.021-0.565,2.295-1.288,3.826-2.167
		c1.529-0.878,3.158-1.812,4.887-2.805c1.729-0.991,3.244-1.743,4.548-2.253c0.452-0.226,0.991-0.438,1.614-0.638
		c0.623-0.197,1.162-0.07,1.615,0.383c0.453,0.454,0.793,0.837,1.021,1.147c0.226,0.312,0.282,0.837,0.17,1.572
		c0,0.907,0,1.843,0,2.806c0,0.964,0.085,1.784,0.255,2.465c0.17,0.794,0.48,1.204,0.936,1.232c0.453,0.029,0.905-0.014,1.359-0.128
		c0.51-0.17,1.076-0.438,1.7-0.808c0.623-0.367,1.245-0.778,1.87-1.232c0.623-0.452,1.232-0.893,1.827-1.317
		s1.118-0.778,1.573-1.062c0.34-0.226,0.665-0.283,0.977-0.17c0.311,0.114,0.383,0.454,0.213,1.021c0,0.057-0.072,0.127-0.213,0.212
		c-0.142,0.085-0.241,0.157-0.297,0.213c-0.965,0.68-2.027,1.517-3.188,2.507c-1.162,0.992-2.311,1.715-3.443,2.168
		c-1.02,0.453-1.969,0.665-2.847,0.638c-0.88-0.029-1.545-0.524-1.997-1.487c-0.285-0.623-0.482-1.501-0.596-2.636
		c-0.114-1.133-0.199-2.04-0.255-2.72v-2.04c0-0.283-0.185-0.368-0.553-0.255C271.87,121.694,271.63,121.779,271.518,121.834z"/>
	<path fill="#575757" d="M297.186,119.625h-0.17c-0.454-0.283-0.922-0.41-1.402-0.383c-0.482,0.029-0.978,0.128-1.487,0.298
		c-1.021,0.34-1.997,0.779-2.933,1.317c-0.936,0.539-1.857,1.147-2.763,1.827c-1.077,0.795-2.097,1.645-3.06,2.551
		c-0.965,0.907-1.842,1.927-2.635,3.06c-0.623,0.907-1.105,1.842-1.445,2.805c-0.057,0.113-0.086,0.213-0.086,0.298
		s-0.027,0.213-0.084,0.383l0.68-0.34c3.061-1.7,6.162-3.272,9.308-4.718s6.388-2.733,9.732-3.867
		c0.905-0.283,1.813-0.566,2.72-0.851c0.906-0.283,1.841-0.48,2.805-0.595c0.283-0.056,0.709-0.085,1.275-0.085
		c0.17,0,0.283,0.029,0.34,0.085c0.227,0.34,0.368,0.595,0.426,0.765c0.055,0.058,0.013,0.128-0.128,0.213
		c-0.142,0.085-0.27,0.127-0.382,0.127c-1.135,0.455-2.296,0.88-3.486,1.275c-1.189,0.397-2.352,0.794-3.484,1.19
		c-3.344,1.247-6.588,2.606-9.732,4.079c-3.145,1.474-6.248,3.061-9.308,4.761c-0.51,0.282-0.793,0.495-0.851,0.638
		c-0.055,0.141-0.055,0.522,0,1.147c0.058,0.452,0.1,0.863,0.128,1.232c0.029,0.367,0.071,0.778,0.128,1.232
		c0.34,2.663-0.766,4.42-3.315,5.27c-1.87,0.566-3.768,0.595-5.694,0.085c-0.793-0.17-1.389-0.595-1.785-1.274
		c-0.113-0.228-0.34-0.567-0.68-1.021c-0.283-0.34-0.312-0.709-0.086-1.104c0.17-0.228,0.327-0.44,0.468-0.638
		c0.142-0.199,0.298-0.383,0.468-0.553c0.964-0.907,1.941-1.715,2.932-2.423c0.992-0.709,2.055-1.402,3.188-2.082
		c0.398-0.228,0.78-0.454,1.148-0.68c0.369-0.228,0.752-0.454,1.146-0.681c0.285-0.114,0.37-0.284,0.256-0.51
		c-0.17-2.493,0.652-4.815,2.465-6.97c1.359-1.644,2.848-3.088,4.463-4.335c1.615-1.246,3.413-2.295,5.396-3.146
		c0.341-0.17,0.693-0.297,1.062-0.382s0.751-0.184,1.148-0.298c1.076-0.17,1.897,0.17,2.465,1.02
		c0.113,0.228,0.255,0.44,0.425,0.638C296.931,119.186,297.072,119.399,297.186,119.625z M279.676,135.179l-0.34,0.17
		c-0.793,0.453-1.559,0.921-2.295,1.403c-0.736,0.48-1.473,0.978-2.211,1.487c-0.564,0.396-1.104,0.835-1.614,1.317
		c-0.511,0.48-1.048,0.948-1.615,1.402c-0.112,0.113-0.198,0.213-0.255,0.298c-0.056,0.085-0.141,0.183-0.255,0.297
		c0.114,0.056,0.199,0.085,0.255,0.085c2.494,0.623,4.704,0.283,6.63-1.02c0.454-0.284,0.837-0.638,1.147-1.062
		c0.312-0.425,0.497-0.922,0.553-1.487c0.057-0.454,0.072-0.922,0.043-1.402C279.69,136.185,279.676,135.69,279.676,135.179z"/>
</g>
</svg>
