<?xml version="1.0" encoding="utf-8"?>
<!-- Generator: Adobe Illustrator 16.0.0, SVG Export Plug-In . SVG Version: 6.00 Build 0)  -->
<!DOCTYPE svg PUBLIC "-//W3C//DTD SVG 1.1//EN" "http://www.w3.org/Graphics/SVG/1.1/DTD/svg11.dtd">
<svg version="1.1" id="圖層_1" xmlns="http://www.w3.org/2000/svg" xmlns:xlink="http://www.w3.org/1999/xlink" x="0px" y="0px"
	 width="332.332px" height="83.029px" viewBox="0 0 332.332 83.029" enable-background="new 0 0 332.332 83.029"
	 xml:space="preserve">
<rect y="27.031" fill="#FBEBEA" width="307" height="49"/>
<g enable-background="new    ">
	<path fill="#575757" d="M97.668,0.782c2.758,0.116,5.688,0.532,8.79,1.25c3.102,0.719,5.845,1.796,8.229,3.231
		c2.383,1.437,4.15,3.274,5.3,5.515c1.148,2.24,1.148,4.941,0,8.101c-0.461,1.322-1.064,2.557-1.81,3.705
		c-0.747,1.149-1.581,2.24-2.499,3.274c-1.495,1.839-3.132,3.52-4.912,5.041c-1.781,1.522-3.649,2.973-5.601,4.352
		c-4.653,3.333-9.623,6.349-14.908,9.048c-7.755,3.908-15.885,7.209-24.387,9.91c-4.539,1.436-9.048,2.527-13.529,3.274
		c-0.748,0.114-1.495,0.201-2.241,0.259c-0.747,0.057-1.523,0.143-2.327,0.259c-1.034,0.114-2.068,0.172-3.102,0.172
		s-2.068-0.086-3.103-0.259c-0.288-0.058-0.589-0.115-0.905-0.172c-0.316-0.058-0.646-0.145-0.991-0.259
		c-0.862-0.288-1.551-0.719-2.068-1.292c-0.517-0.575-0.978-1.265-1.378-2.068c-0.172-0.402-0.215-0.791-0.129-1.163
		c0.086-0.375,0.215-0.763,0.388-1.164c0.287-0.574,0.646-1.049,1.077-1.422c0.431-0.373,0.875-0.702,1.336-0.99
		c0.287-0.115,0.487,0,0.603,0.345c0.114,0.229,0.129,0.417,0.043,0.56c-0.086,0.143-0.187,0.302-0.301,0.474
		c-0.289,0.401-0.547,0.789-0.776,1.164c-0.23,0.373-0.46,0.789-0.689,1.249c-0.116,0.229-0.202,0.474-0.258,0.732
		c-0.058,0.259-0.144,0.53-0.259,0.818c0,0.229,0.143,0.432,0.431,0.604c0.459,0.229,0.933,0.388,1.422,0.474
		c0.487,0.087,0.961,0.158,1.422,0.216c1.321,0.114,2.599,0.143,3.834,0.086c1.235-0.058,2.513-0.172,3.834-0.345
		c4.365-0.574,8.631-1.494,12.797-2.757c4.165-1.265,8.315-2.672,12.452-4.223c4.309-1.607,8.501-3.404,12.581-5.386
		c4.079-1.982,8.071-4.18,11.978-6.592c2.585-1.608,5.069-3.318,7.454-5.128c2.383-1.81,4.638-3.805,6.764-5.988
		c1.091-1.149,2.111-2.312,3.059-3.49c0.948-1.177,1.767-2.484,2.456-3.921c1.034-2.125,1.436-3.978,1.207-5.559
		c-0.23-1.579-0.905-2.943-2.025-4.093c-1.12-1.148-2.571-2.082-4.352-2.801c-1.781-0.718-3.662-1.277-5.644-1.68
		c-1.982-0.401-3.951-0.689-5.903-0.862c-1.954-0.172-3.677-0.259-5.17-0.259c-2.988,0-5.946,0.102-8.875,0.302
		c-2.93,0.202-5.86,0.475-8.79,0.819c-8.389,0.978-16.732,2.455-25.033,4.438c-8.302,1.981-16.445,4.668-24.43,8.057
		c-1.896,0.806-3.778,1.667-5.645,2.586c-1.867,0.919-3.662,1.981-5.386,3.188c-0.747,0.518-1.551,1.207-2.413,2.068
		c-0.172,0.173-0.316,0.461-0.431,0.862c-0.116,0.288-0.259,0.345-0.431,0.172l-0.431-0.689c-0.403-0.631-0.604-1.206-0.604-1.724
		c0.057-0.517,0.272-1.004,0.646-1.465c0.373-0.459,0.819-0.904,1.336-1.335c0.517-0.432,1.047-0.819,1.594-1.164
		c0.545-0.345,1.048-0.659,1.508-0.947c2.642-1.608,5.701-3.131,9.177-4.567c3.475-1.436,7.08-2.743,10.814-3.921
		c3.734-1.177,7.511-2.24,11.332-3.188c3.82-0.948,7.396-1.767,10.729-2.456c5.86-1.148,11.819-2.053,17.881-2.714
		C84.469,0.683,90.889,0.495,97.668,0.782z M79.314,20.689c-0.46,0.633-0.876,1.192-1.25,1.68c-0.375,0.489-0.775,0.991-1.207,1.509
		c-0.431,0.517-0.891,1.077-1.379,1.68c-0.488,0.604-1.077,1.308-1.766,2.111c0.459-0.804,0.918-1.579,1.378-2.326
		c0.459-0.746,0.918-1.493,1.379-2.241c0.057-0.114,0.086-0.286,0.086-0.517c-0.805,0.633-1.796,1.609-2.973,2.93
		c-1.178,1.322-2.471,2.787-3.878,4.395c-1.408,1.609-2.83,3.29-4.265,5.041c-1.437,1.754-2.772,3.404-4.007,4.955
		c-1.236,1.552-2.298,2.93-3.188,4.137c-0.891,1.206-1.508,2.04-1.853,2.499c-0.402,0.574-0.762,1.135-1.077,1.68
		c-0.316,0.547-0.646,1.136-0.991,1.767l-0.172,0.259c0.229,0.057,0.431,0.114,0.603,0.172c0.172,0.057,0.258,0.229,0.258,0.518
		l0.086,0.086c-0.172,0.173-0.316,0.33-0.431,0.474c-0.116,0.144-0.259,0.272-0.431,0.389c-0.058,0.056-0.159,0.071-0.302,0.043
		c-0.144-0.03-0.245-0.102-0.301-0.216c-0.575-0.633-1.006-1.265-1.292-1.896c-0.116-0.287-0.129-0.561-0.043-0.818
		c0.086-0.259,0.186-0.531,0.302-0.819c0.862-1.551,1.81-3.044,2.844-4.48c1.034-1.436,2.068-2.872,3.102-4.309
		c1.896-2.413,3.706-4.682,5.429-6.808c1.493-1.838,2.973-3.633,4.438-5.386c1.465-1.752,2.599-3.088,3.404-4.007
		c0.804-0.805,1.608-1.595,2.413-2.37c0.804-0.775,1.693-1.508,2.671-2.197c0.057,0,0.115-0.028,0.172-0.086
		c0.459-0.287,0.789-0.401,0.991-0.345c0.201,0.058,0.444,0.316,0.732,0.775l0.431,0.604c0.229,0.172,0.33,0.344,0.302,0.517
		C79.5,20.257,79.428,20.459,79.314,20.689z"/>
	<path fill="#575757" d="M107.665,43.352c-0.861,0.46-1.624,0.935-2.283,1.422c-0.661,0.488-1.221,1.077-1.681,1.767
		c-0.345,0.229-0.603,0.546-0.775,0.947c-0.114,0.288-0.057,0.432,0.172,0.432c0.287,0.058,0.56,0.115,0.819,0.172
		c0.258,0.058,0.502,0.116,0.732,0.172c2.183,0,4.451-0.258,6.808-0.775c2.757-0.631,5.485-1.363,8.186-2.197
		c2.7-0.832,5.343-1.708,7.928-2.628c0.632-0.287,1.321-0.546,2.068-0.775c0.746-0.229,1.435-0.459,2.068-0.689
		c0.287-0.114,0.459-0.114,0.517,0c0.057,0.115,0.143,0.23,0.259,0.345c0.114,0.288,0,0.547-0.345,0.775
		c-0.805,0.402-1.624,0.805-2.456,1.206c-0.833,0.403-1.652,0.806-2.456,1.207c-2.413,1.149-4.883,2.111-7.411,2.887
		c-2.528,0.775-5.056,1.451-7.583,2.024c-1.207,0.288-2.428,0.489-3.663,0.604c-1.236,0.114-2.399,0.086-3.49-0.086
		c-0.633-0.114-1.193-0.302-1.68-0.561c-0.488-0.259-0.875-0.703-1.164-1.336c-0.229-0.344-0.459-0.631-0.689-0.861
		c-0.287-0.689-0.143-1.521,0.431-2.499c0.46-0.517,0.962-0.991,1.508-1.422s1.047-0.847,1.508-1.249
		c1.378-0.919,2.786-1.737,4.222-2.456c1.436-0.718,2.93-1.307,4.481-1.767c0.459-0.114,0.976-0.216,1.551-0.302
		c0.573-0.086,1.148-0.186,1.723-0.302c0.804-0.172,1.379,0.086,1.724,0.775c0.114,0.23,0.229,0.432,0.345,0.604
		c0.114,0.173,0.229,0.345,0.345,0.518c0.287,0.344,0.201,0.719-0.259,1.12c-0.402,0.402-0.689,0.661-0.861,0.775
		c-1.207,0.689-2.413,1.292-3.62,1.81c-1.206,0.517-2.557,0.892-4.05,1.12c-0.23,0.058-0.489,0.086-0.776,0.086
		c-0.288,0-0.575,0-0.861,0C108.497,44.156,108.066,43.868,107.665,43.352z M109.646,42.232c2.413-0.459,4.682-1.35,6.808-2.672
		c-1.206,0.288-2.356,0.646-3.447,1.077C111.916,41.068,110.795,41.6,109.646,42.232z"/>
	<path fill="#575757" d="M141.53,39.56h-0.172c-0.46-0.286-0.935-0.416-1.422-0.388c-0.489,0.029-0.991,0.13-1.508,0.302
		c-1.034,0.345-2.025,0.79-2.973,1.336c-0.948,0.546-1.882,1.163-2.8,1.853c-1.092,0.805-2.126,1.667-3.103,2.585
		c-0.978,0.92-1.867,1.954-2.671,3.103c-0.632,0.919-1.121,1.867-1.465,2.844c-0.056,0.114-0.086,0.215-0.086,0.301
		c0,0.087-0.028,0.216-0.086,0.389l0.689-0.345c3.103-1.724,6.248-3.318,9.436-4.783s6.476-2.771,9.867-3.921
		c0.918-0.286,1.838-0.573,2.757-0.861c0.918-0.287,1.866-0.487,2.844-0.604c0.287-0.057,0.718-0.086,1.292-0.086
		c0.172,0,0.287,0.029,0.345,0.086c0.229,0.345,0.373,0.604,0.431,0.775c0.056,0.059,0.013,0.13-0.129,0.216
		c-0.144,0.086-0.273,0.129-0.388,0.129c-1.15,0.461-2.327,0.892-3.533,1.293c-1.207,0.402-2.385,0.805-3.533,1.206
		c-3.39,1.265-6.678,2.644-9.867,4.137c-3.188,1.493-6.333,3.103-9.436,4.825c-0.517,0.287-0.804,0.503-0.862,0.646
		c-0.057,0.143-0.057,0.53,0,1.163c0.058,0.46,0.101,0.876,0.129,1.25c0.029,0.373,0.073,0.789,0.129,1.249
		c0.345,2.7-0.775,4.481-3.36,5.343c-1.896,0.574-3.82,0.604-5.774,0.086c-0.804-0.172-1.407-0.603-1.81-1.292
		c-0.114-0.23-0.345-0.575-0.689-1.034c-0.287-0.345-0.315-0.719-0.086-1.12c0.172-0.23,0.331-0.446,0.474-0.646
		c0.144-0.202,0.301-0.388,0.474-0.561c0.978-0.919,1.969-1.737,2.973-2.455c1.006-0.72,2.083-1.422,3.231-2.111
		c0.402-0.23,0.791-0.461,1.163-0.689c0.375-0.23,0.762-0.461,1.164-0.689c0.288-0.116,0.374-0.288,0.258-0.518
		c-0.172-2.526,0.661-4.882,2.499-7.065c1.379-1.666,2.887-3.131,4.524-4.395c1.638-1.264,3.46-2.327,5.472-3.188
		c0.345-0.173,0.703-0.302,1.077-0.388c0.373-0.087,0.761-0.187,1.163-0.302c1.091-0.173,1.924,0.172,2.499,1.034
		c0.115,0.229,0.259,0.445,0.431,0.646C141.271,39.115,141.414,39.331,141.53,39.56z M123.778,55.329l-0.345,0.173
		c-0.804,0.459-1.579,0.933-2.327,1.422c-0.746,0.487-1.493,0.99-2.24,1.508c-0.574,0.401-1.12,0.847-1.637,1.336
		c-0.517,0.487-1.062,0.961-1.637,1.421c-0.115,0.115-0.201,0.216-0.259,0.302c-0.057,0.087-0.143,0.187-0.258,0.302
		c0.116,0.057,0.202,0.086,0.258,0.086c2.529,0.632,4.769,0.287,6.722-1.033c0.46-0.289,0.848-0.646,1.163-1.077
		c0.316-0.432,0.503-0.935,0.56-1.509c0.058-0.46,0.073-0.935,0.043-1.422C123.793,56.349,123.778,55.847,123.778,55.329z"/>
	<path fill="#575757" d="M172.723,42.921c0.459-0.115,0.775,0.029,0.947,0.431c0.173,0.402,0,0.747-0.517,1.034
		c-0.402,0.115-0.688,0.229-0.861,0.345s-0.46,0.229-0.862,0.345c-2.701,0.978-5.271,1.839-7.712,2.585
		c-2.442,0.747-5.099,1.351-7.971,1.81c-0.977,0.23-1.938,0.374-2.887,0.431c-0.948,0.058-1.911,0.145-2.887,0.259
		c-0.402,0.058-0.833,0.058-1.292,0c-0.46-0.057-0.919-0.114-1.379-0.173c-0.746-0.114-1.292-0.431-1.637-0.947
		c-0.345-0.518-0.689-0.919-1.034-1.207c-0.459-0.689-0.517-1.32-0.172-1.896c0.23-0.287,0.46-0.573,0.689-0.861
		c0.23-0.287,0.489-0.574,0.776-0.862c1.607-1.32,3.303-2.527,5.084-3.619c1.78-1.091,3.762-1.866,5.946-2.326
		c0.401-0.115,0.789-0.201,1.164-0.259c0.373-0.057,0.789-0.028,1.25,0.086c0.401,0.116,0.746,0.288,1.034,0.518l0.259,0.258
		c0.172,0.173,0.345,0.375,0.517,0.604c0.114,0.172,0.244,0.331,0.388,0.474c0.143,0.145,0.215,0.273,0.215,0.388
		c0,0.059-0.116,0.202-0.345,0.432c-0.23,0.229-0.517,0.474-0.862,0.732c-0.345,0.258-0.719,0.503-1.12,0.732
		c-0.402,0.229-0.747,0.402-1.034,0.517c-0.633,0.23-1.063,0.159-1.292-0.215c-0.23-0.373-0.431-0.675-0.603-0.905
		c-0.116-0.114-0.03-0.302,0.258-0.561c0.287-0.258,0.574-0.502,0.862-0.732c-1.437,0.461-2.801,1.006-4.093,1.638
		c-1.292,0.633-2.514,1.322-3.662,2.068c-0.116,0.115-0.46,0.374-1.034,0.775c-0.575,0.402-1.092,0.848-1.551,1.336
		c-0.459,0.488-0.746,0.934-0.861,1.335c-0.115,0.403,0.202,0.633,0.948,0.689c2.355,0.173,4.653,0,6.894-0.517
		c3.331-0.746,6.261-1.407,8.79-1.982c2.527-0.573,5.141-1.292,7.842-2.154c0.286-0.114,0.589-0.215,0.905-0.302
		C172.133,43.136,172.435,43.036,172.723,42.921z"/>
	<path fill="#575757" d="M192.887,42.921c-0.173,0.172-0.36,0.201-0.561,0.086c-0.202-0.114-0.359-0.259-0.475-0.431
		c-0.172-0.229-0.316-0.487-0.431-0.776c0.114-0.573,0.401-1.249,0.862-2.024c0.459-0.775,0.631-1.278,0.517-1.508
		c-0.288-0.401-1.106-0.345-2.456,0.172c-1.35,0.518-2.901,1.265-4.652,2.24c-1.754,0.978-3.533,2.068-5.344,3.274
		c-1.809,1.207-3.317,2.327-4.523,3.361c-0.633,0.575-1.308,1.12-2.025,1.637c-0.719,0.518-1.451,1.034-2.197,1.552
		c-0.345,0.345-0.66,0.286-0.947-0.173c0-0.058-0.158-0.358-0.475-0.904c-0.314-0.546-0.53-0.875-0.646-0.991
		c-0.114-0.287-0.057-0.604,0.172-0.948c0.403-0.689,0.776-1.379,1.121-2.067c0.345-0.689,0.719-1.35,1.12-1.982
		c0.919-1.436,1.938-2.801,3.06-4.093c1.119-1.293,2.254-2.57,3.403-3.835c0.173-0.173,0.373-0.345,0.603-0.518
		c0.229-0.172,0.46-0.314,0.689-0.431c0.402-0.345,0.775-0.258,1.121,0.259c0.172,0.288,0.314,0.633,0.431,1.034
		c0.057,0.115,0.043,0.259-0.043,0.431c-0.087,0.173-0.188,0.316-0.302,0.431l-1.637,1.982c-0.23,0.288-0.561,0.719-0.992,1.292
		c-0.43,0.575-0.891,1.193-1.378,1.854c-0.489,0.661-0.991,1.322-1.509,1.981c-0.517,0.661-0.947,1.222-1.292,1.681
		c0.919-0.689,2.011-1.493,3.274-2.413c1.264-0.918,2.586-1.823,3.964-2.714c1.379-0.891,2.743-1.694,4.093-2.413
		c1.35-0.718,2.6-1.25,3.749-1.595c2.011-0.573,3.46-0.459,4.352,0.345c0.89,0.806,1.45,1.868,1.681,3.188
		c0.057,0.633-0.216,1.193-0.818,1.681C193.791,42.073,193.287,42.52,192.887,42.921z"/>
	<path fill="#575757" d="M205.639,36.458c-0.346,0.288-0.689,0.574-1.035,0.861c-0.344,0.288-0.689,0.575-1.033,0.861
		c-1.322,1.15-2.572,2.342-3.748,3.576c-1.179,1.236-2.284,2.542-3.318,3.921c-0.288,0.288-0.518,0.604-0.689,0.948
		s-0.374,0.689-0.604,1.034c-0.115,0.115-0.2,0.288-0.258,0.517c0.573,0,0.977-0.028,1.206-0.086
		c1.148-0.287,2.269-0.646,3.36-1.077s2.184-0.875,3.275-1.336l5.688-2.585c0.573-0.229,1.004-0.373,1.292-0.431
		c0.229,0,0.401,0.086,0.517,0.259c0.115,0.115,0.201,0.229,0.259,0.345c0.057,0.115,0,0.258-0.173,0.431
		c-0.344,0.345-0.603,0.574-0.775,0.689c-1.666,1.149-3.36,2.169-5.084,3.059c-1.723,0.892-3.533,1.652-5.428,2.284
		c-0.806,0.288-1.582,0.46-2.327,0.517c-1.149,0.172-1.952-0.172-2.413-1.034c-0.229-0.345-0.518-0.746-0.861-1.206
		c-0.287-0.459-0.346-0.891-0.173-1.293c0.23-0.746,0.489-1.349,0.776-1.81c0.689-1.148,1.492-2.24,2.412-3.274
		c0.918-1.034,1.866-2.01,2.844-2.93c0.631-0.632,1.264-1.207,1.896-1.724c0.631-0.517,1.262-1.034,1.895-1.551l0.173-0.173
		c0.459-0.286,0.804-0.401,1.034-0.345c0.229,0.059,0.487,0.316,0.775,0.775c0.115,0.116,0.201,0.245,0.259,0.388
		C205.436,36.214,205.522,36.343,205.639,36.458z M214.945,27.668c-0.059,0.116-0.116,0.259-0.173,0.431
		c-0.058,0.173-0.144,0.316-0.259,0.431c-0.461,0.689-0.99,1.308-1.594,1.854s-1.25,1.049-1.939,1.508
		c-0.46,0.288-0.92,0.56-1.379,0.818c-0.46,0.259-0.919,0.532-1.379,0.818c-0.287,0.173-0.574,0.188-0.861,0.044
		s-0.46-0.416-0.517-0.819c0-0.114,0.043-0.215,0.13-0.302c0.086-0.086,0.186-0.186,0.301-0.301
		c0.345-0.287,0.703-0.574,1.077-0.862c0.373-0.287,0.703-0.573,0.991-0.861c0.518-0.459,1.02-0.948,1.508-1.465
		c0.487-0.518,0.961-1.005,1.422-1.465c0.287-0.173,0.314-0.432,0.086-0.776c-0.172-0.172-0.244-0.301-0.215-0.388
		c0.027-0.086,0.129-0.186,0.301-0.301c0.115-0.057,0.187-0.115,0.216-0.173c0.028-0.057,0.1-0.114,0.216-0.172
		c0.229-0.345,0.459-0.401,0.689-0.173c0.229,0.288,0.443,0.575,0.646,0.861c0.2,0.289,0.416,0.575,0.646,0.862
		C214.915,27.295,214.945,27.44,214.945,27.668z"/>
	<path fill="#575757" d="M189.178,73.727c0.173-0.201,0.316-0.388,0.432-0.56c1.033-1.206,2.055-2.428,3.059-3.662
		c1.006-1.236,2.025-2.456,3.06-3.663c1.724-2.011,3.446-4.007,5.17-5.988c1.724-1.982,3.447-3.979,5.171-5.989l3.36-3.619
		c0.573-0.632,1.263-1.306,2.067-2.025c0.805-0.718,1.639-1.45,2.5-2.197c0.861-0.746,1.709-1.465,2.542-2.154
		c0.832-0.689,1.594-1.32,2.283-1.896c0.919-0.804,1.938-1.508,3.06-2.111c1.12-0.604,2.081-1.077,2.887-1.422
		c0.4-0.229,0.918-0.345,1.551-0.345c0.345,0,0.604,0.145,0.775,0.431c0.229,0.23,0.416,0.461,0.561,0.689
		c0.143,0.23,0.301,0.461,0.474,0.689c0.229,0.345,0.286,0.806,0.173,1.379c-0.116,0.517-0.461,1.135-1.035,1.853
		c-0.574,0.719-1.221,1.437-1.938,2.154c-0.72,0.719-1.438,1.379-2.154,1.982c-0.72,0.603-1.279,1.049-1.682,1.335
		c3.619-0.918,7.095-1.981,10.428-3.188c3.33-1.207,6.691-2.556,10.082-4.051c0.287-0.172,0.604-0.33,0.947-0.474
		c0.346-0.143,0.66-0.272,0.948-0.388c0.114-0.057,0.315-0.028,0.603,0.086c0.115,0.116,0.229,0.345,0.346,0.689
		c0,0.116-0.059,0.23-0.173,0.345l-4.653,2.585c-3.85,2.012-7.684,3.576-11.504,4.696s-7.569,2.054-11.245,2.801
		c-0.862,0.229-1.638,0.186-2.327-0.129c-0.689-0.316-1.35-0.791-1.981-1.422c-0.058-0.114-0.116-0.201-0.173-0.259
		c-0.058-0.057-0.144-0.143-0.258-0.259c-0.116,0.173-0.332,0.403-0.646,0.689c-0.316,0.287-0.633,0.589-0.948,0.905
		c-0.316,0.314-0.633,0.616-0.948,0.904c-0.316,0.287-0.531,0.487-0.646,0.604c-2.125,2.354-4.179,4.71-6.16,7.066
		c-1.982,2.354-3.949,4.768-5.903,7.238c-1.493,2.01-3.017,3.992-4.567,5.945s-3.072,3.906-4.566,5.86
		c-0.459,0.573-0.934,1.12-1.422,1.637c-0.488,0.518-0.961,1.005-1.422,1.465c-0.287,0.287-0.488,0.416-0.604,0.388
		c-0.114-0.029-0.287-0.187-0.518-0.474c-0.172-0.23-0.329-0.431-0.473-0.604c-0.144-0.172-0.303-0.374-0.475-0.603
		c-0.287-0.288-0.345-0.547-0.172-0.775c0.344-0.978,0.719-1.896,1.119-2.758c1.668-3.274,3.463-6.463,5.387-9.565
		c1.925-3.102,3.92-6.204,5.988-9.307c1.724-2.471,3.505-4.911,5.343-7.324c1.839-2.413,3.764-4.71,5.774-6.894
		c0.861-0.977,1.751-1.909,2.67-2.801c0.919-0.89,1.896-1.737,2.931-2.542c0.057-0.057,0.114-0.1,0.173-0.13
		c0.057-0.027,0.113-0.071,0.172-0.129c0.345-0.172,0.588-0.243,0.732-0.215c0.143,0.029,0.33,0.187,0.561,0.474
		c0.286,0.46,0.416,0.747,0.387,0.861c-0.029,0.116-0.215,0.375-0.56,0.775c-0.806,0.862-1.624,1.738-2.456,2.629
		c-0.834,0.891-1.652,1.796-2.455,2.714c-1.495,1.667-2.931,3.376-4.309,5.128c-1.379,1.751-2.7,3.546-3.965,5.386
		c-1.436,2.01-2.844,4.05-4.223,6.118c-1.379,2.067-2.728,4.106-4.05,6.118c-0.632,0.918-1.22,1.838-1.767,2.757
		c-0.545,0.919-1.105,1.838-1.68,2.758c-0.057,0.057-0.086,0.1-0.086,0.129c0,0.028-0.029,0.071-0.087,0.13l0.087,0.086
		C188.863,74.115,189.006,73.928,189.178,73.727z M226.836,39.733c0-0.057-0.016-0.087-0.043-0.087c-0.03,0-0.044-0.027-0.044-0.086
		c-0.288,0.116-0.532,0.188-0.732,0.216c-0.202,0.029-0.417,0.101-0.646,0.215c-0.862,0.345-1.638,0.763-2.327,1.25
		c-0.689,0.488-1.437,1.049-2.241,1.681c-1.378,1.092-2.714,2.11-4.006,3.059c-1.293,0.948-2.543,1.939-3.749,2.973l0.173,0.173
		c0.459,0.23,1.004,0.345,1.637,0.345c0.518,0,1.004-0.071,1.465-0.216c0.459-0.143,0.918-0.33,1.379-0.56
		c1.607-0.919,3.274-2.097,4.998-3.533c1.723-1.436,2.986-2.986,3.791-4.653C226.605,40.335,226.72,40.077,226.836,39.733z"/>
	<path fill="#575757" d="M258.545,24.824c-2.758-0.114-5.372-0.129-7.842-0.043c-2.471,0.086-4.911,0.129-7.324,0.129h-0.689
		c-1.15-0.114-1.695-0.717-1.637-1.81c0-0.172,0.114-0.258,0.344-0.258c0.574-0.057,1.121-0.1,1.638-0.13
		c0.517-0.028,1.062-0.071,1.638-0.129c3.102-0.114,5.916-0.216,8.444-0.302c2.527-0.086,5.085-0.071,7.669,0.043
		c0.402,0,0.719-0.114,0.948-0.345c1.493-1.206,2.958-2.412,4.396-3.619c1.435-1.206,2.9-2.383,4.395-3.533
		c0.631-0.573,1.379-1.09,2.24-1.551c0.459-0.287,0.804-0.172,1.034,0.345c0.114,0.288,0.229,0.561,0.345,0.818
		c0.114,0.259,0.229,0.532,0.344,0.819c0,0.229-0.057,0.402-0.172,0.517c-0.288,0.345-0.604,0.661-0.947,0.948l-5.946,5.687
		c-0.116,0-0.202,0.087-0.259,0.259c0.229,0,0.432,0.015,0.604,0.043c0.172,0.03,0.373,0.043,0.604,0.043
		c1.952,0.116,3.891,0.245,5.816,0.388c1.924,0.145,3.863,0.332,5.816,0.561c0.977,0.116,1.939,0.259,2.887,0.431
		c0.948,0.173,1.909,0.345,2.887,0.518c0.057,0,0.1,0.015,0.129,0.043c0.029,0.029,0.072,0.043,0.13,0.043
		c1.091,0.288,1.665,0.892,1.724,1.81l0.258,1.034c0.057,0.23-0.029,0.345-0.258,0.345c-0.402,0-0.661-0.143-0.775-0.431
		c-0.23-0.229-0.575-0.401-1.035-0.518c-0.633-0.114-1.249-0.215-1.852-0.302c-0.604-0.086-1.222-0.186-1.854-0.302
		c-2.184-0.286-4.352-0.502-6.506-0.646c-2.154-0.143-4.323-0.272-6.506-0.388c-0.747-0.057-1.494-0.1-2.24-0.13
		c-0.748-0.028-1.494-0.071-2.24-0.129c-0.346,0-0.604,0.086-0.775,0.259c-1.781,1.494-3.562,2.944-5.344,4.352
		c-1.781,1.408-3.59,2.772-5.428,4.093c-0.518,0.288-1.035,0.747-1.552,1.379l-9.307,9.823c-0.575,0.633-1.106,1.279-1.595,1.939
		c-0.488,0.661-0.99,1.335-1.508,2.024c-0.286,0.461-0.631,1.121-1.033,1.982c0.46,0,0.775-0.029,0.947-0.086
		c1.091-0.116,2.14-0.302,3.146-0.561c1.005-0.259,1.995-0.56,2.974-0.904c2.01-0.746,3.992-1.552,5.945-2.413
		c1.952-0.862,3.906-1.724,5.859-2.585c0.977-0.459,1.996-0.919,3.06-1.379c1.062-0.459,2.11-0.918,3.146-1.379
		c0.113-0.057,0.229-0.129,0.344-0.216c0.115-0.086,0.229-0.013,0.346,0.216c0.113,0.23,0.129,0.402,0.043,0.517
		c-0.086,0.116-0.188,0.23-0.303,0.345c-0.977,0.806-2.024,1.523-3.145,2.154c-1.12,0.633-2.256,1.236-3.404,1.81
		c-2.24,1.15-4.523,2.228-6.85,3.231c-2.327,1.005-4.727,1.823-7.195,2.456c-0.633,0.173-1.25,0.315-1.854,0.431
		s-1.221,0.144-1.853,0.087c-0.689,0-1.206-0.288-1.552-0.862c-0.113-0.172-0.229-0.345-0.344-0.517
		c-0.115-0.173-0.229-0.316-0.345-0.431c-0.46-0.518-0.546-1.062-0.259-1.638c0.288-0.517,0.561-1.048,0.818-1.594
		c0.259-0.546,0.561-1.048,0.905-1.509c1.034-1.551,2.167-3.029,3.403-4.438c1.234-1.407,2.484-2.771,3.749-4.093
		c3.964-4.193,8.042-8.272,12.236-12.236c0.114-0.057,0.2-0.13,0.259-0.216C258.344,25.04,258.43,24.941,258.545,24.824z"/>
	<path fill="#575757" d="M271.383,36.458c-0.346,0.288-0.689,0.574-1.035,0.861c-0.344,0.288-0.689,0.575-1.033,0.861
		c-1.322,1.15-2.572,2.342-3.748,3.576c-1.179,1.236-2.284,2.542-3.318,3.921c-0.288,0.288-0.518,0.604-0.689,0.948
		s-0.374,0.689-0.604,1.034c-0.115,0.115-0.2,0.288-0.258,0.517c0.573,0,0.977-0.028,1.206-0.086
		c1.148-0.287,2.269-0.646,3.36-1.077s2.184-0.875,3.275-1.336l5.688-2.585c0.573-0.229,1.004-0.373,1.292-0.431
		c0.229,0,0.401,0.086,0.517,0.259c0.115,0.115,0.201,0.229,0.259,0.345c0.057,0.115,0,0.258-0.173,0.431
		c-0.344,0.345-0.603,0.574-0.775,0.689c-1.666,1.149-3.36,2.169-5.084,3.059c-1.723,0.892-3.533,1.652-5.428,2.284
		c-0.806,0.288-1.582,0.46-2.327,0.517c-1.149,0.172-1.952-0.172-2.413-1.034c-0.229-0.345-0.518-0.746-0.861-1.206
		c-0.287-0.459-0.346-0.891-0.173-1.293c0.23-0.746,0.489-1.349,0.776-1.81c0.689-1.148,1.492-2.24,2.412-3.274
		c0.918-1.034,1.866-2.01,2.844-2.93c0.631-0.632,1.264-1.207,1.896-1.724c0.631-0.517,1.262-1.034,1.895-1.551l0.173-0.173
		c0.459-0.286,0.804-0.401,1.034-0.345c0.229,0.059,0.487,0.316,0.775,0.775c0.115,0.116,0.201,0.245,0.259,0.388
		C271.18,36.214,271.267,36.343,271.383,36.458z M280.689,27.668c-0.059,0.116-0.116,0.259-0.173,0.431
		c-0.058,0.173-0.144,0.316-0.259,0.431c-0.461,0.689-0.99,1.308-1.594,1.854s-1.25,1.049-1.939,1.508
		c-0.46,0.288-0.92,0.56-1.379,0.818c-0.46,0.259-0.919,0.532-1.379,0.818c-0.287,0.173-0.574,0.188-0.861,0.044
		s-0.46-0.416-0.517-0.819c0-0.114,0.043-0.215,0.13-0.302c0.086-0.086,0.186-0.186,0.301-0.301
		c0.345-0.287,0.703-0.574,1.077-0.862c0.373-0.287,0.703-0.573,0.991-0.861c0.518-0.459,1.02-0.948,1.508-1.465
		c0.487-0.518,0.961-1.005,1.422-1.465c0.287-0.173,0.314-0.432,0.086-0.776c-0.172-0.172-0.244-0.301-0.215-0.388
		c0.027-0.086,0.129-0.186,0.301-0.301c0.115-0.057,0.187-0.115,0.216-0.173c0.028-0.057,0.1-0.114,0.216-0.172
		c0.229-0.345,0.459-0.401,0.689-0.173c0.229,0.288,0.443,0.575,0.646,0.861c0.2,0.289,0.416,0.575,0.646,0.862
		C280.659,27.295,280.689,27.44,280.689,27.668z"/>
	<path fill="#575757" d="M288.185,39.819c-0.402,0.058-0.719,0.116-0.948,0.172c-0.229,0.059-0.574,0.116-1.033,0.173
		c0.172,0.517,0.443,0.92,0.818,1.206c0.373,0.288,0.761,0.489,1.163,0.604c2.298,0.633,4.337,0.818,6.118,0.561
		c1.78-0.259,3.676-0.589,5.688-0.991c0.804-0.173,1.623-0.388,2.456-0.646c0.832-0.259,1.651-0.502,2.456-0.732
		c0.114-0.057,0.258-0.086,0.431-0.086c0.459,0,0.718,0.229,0.775,0.689c0.057,0.402-0.086,0.661-0.431,0.775
		c-1.034,0.574-2.068,0.978-3.102,1.206c-1.552,0.575-3.146,1.063-4.783,1.465c-1.637,0.402-3.317,0.633-5.041,0.689
		c-0.805,0.058-1.609,0.043-2.413-0.043c-0.806-0.086-1.608-0.272-2.413-0.561h-0.258c-0.345,1.322-0.904,2.327-1.681,3.017
		c-0.775,0.689-1.595,1.322-2.456,1.896c-1.379,0.862-2.6,1.436-3.662,1.724c-1.063,0.287-2.342,0.545-3.834,0.775
		c-0.461,0-0.936,0-1.422,0c-0.489,0-0.963-0.058-1.422-0.172c-0.289-0.173-0.546-0.332-0.775-0.475
		c-0.229-0.144-0.402-0.359-0.518-0.646c-0.115-0.229-0.244-0.444-0.388-0.646s-0.272-0.388-0.388-0.561
		c-0.401-0.573-0.432-1.263-0.086-2.068c0.172-0.517,0.402-0.976,0.689-1.378c0.287-0.401,0.603-0.805,0.947-1.207
		c1.264-1.206,2.426-2.183,3.49-2.93c1.062-0.746,2.369-1.493,3.92-2.24c1.148-0.459,2.312-0.905,3.49-1.336s2.37-0.646,3.576-0.646
		c0.689,0.116,1.164,0.302,1.422,0.561c0.259,0.259,0.531,0.79,0.818,1.594c0,0.633-0.101,0.862-0.301,0.689
		C288.888,40.077,288.586,39.935,288.185,39.819z M272.329,49.47c0.173,0,0.316,0.029,0.431,0.086
		c0.115,0.058,0.229,0.086,0.345,0.086c1.149,0.116,2.354,0.043,3.62-0.215c1.262-0.259,2.483-0.646,3.662-1.164
		c1.176-0.517,2.254-1.163,3.23-1.938s1.752-1.65,2.327-2.628c0.173-0.345,0.114-0.789-0.173-1.336
		c-0.287-0.545-0.488-0.991-0.603-1.336c-0.173-0.345-0.374-0.431-0.604-0.258c-1.149,0.402-2.126,0.747-2.93,1.033
		c-0.806,0.289-1.753,0.806-2.844,1.552c-0.978,0.575-1.868,1.178-2.671,1.81c-0.806,0.633-1.609,1.351-2.413,2.154
		c-0.288,0.288-0.547,0.604-0.776,0.947C272.702,48.608,272.502,49.011,272.329,49.47z"/>
	<path fill="#575757" d="M319.377,48.091c0.459-0.172,0.934-0.373,1.422-0.604c0.488-0.229,0.934-0.401,1.336-0.517
		c0.459-0.173,1.047-0.431,1.767-0.775c0.718-0.345,1.45-0.689,2.197-1.034c0.746-0.345,1.479-0.689,2.197-1.034
		c0.718-0.345,1.306-0.604,1.767-0.775c0.057-0.057,0.1-0.086,0.129-0.086s0.072-0.028,0.129-0.087
		c0.518-0.114,0.833,0.03,0.949,0.432c0,0.115-0.03,0.201-0.087,0.258c-0.288,0.173-0.575,0.359-0.862,0.561
		c-0.287,0.202-0.574,0.388-0.861,0.56c-0.633,0.288-1.365,0.676-2.197,1.164c-0.833,0.488-1.695,0.99-2.585,1.508
		c-0.892,0.517-1.738,0.991-2.542,1.422c-0.805,0.431-1.465,0.732-1.982,0.904c-0.633,0.23-1.076,0.245-1.336,0.043
		c-0.258-0.2-0.531-0.53-0.818-0.99c-0.344-0.574-0.46-1.105-0.344-1.595c0.113-0.487,0.344-1.22,0.689-2.197
		c0.286-0.746,0.517-1.364,0.689-1.853c0.172-0.487,0.372-1.077,0.603-1.767c0.173-0.459,0.043-0.675-0.388-0.646
		c-0.432,0.03-1.006,0.202-1.724,0.518c-0.719,0.316-1.538,0.719-2.456,1.206c-0.92,0.488-1.781,0.935-2.585,1.336
		c-0.862,0.46-1.538,0.805-2.024,1.034c-0.489,0.229-0.936,0.46-1.336,0.689c-0.402,0.229-0.834,0.474-1.293,0.732
		c-0.461,0.258-1.092,0.589-1.896,0.99c-0.633,0.403-1.322,0.775-2.068,1.12c-0.747,0.345-1.465,0.72-2.154,1.121
		c-0.288,0.058-0.517,0.172-0.689,0.345c-0.46,0.172-0.732,0.229-0.818,0.172c-0.087-0.057-0.188-0.259-0.302-0.604
		c-0.115-0.172-0.215-0.345-0.302-0.517c-0.086-0.173-0.157-0.345-0.216-0.518c-0.172-0.286-0.143-0.659,0.087-1.12
		c0.401-0.804,0.89-1.579,1.465-2.326c2.124-2.872,4.395-5.457,6.808-7.756c0.4-0.286,0.761-0.56,1.077-0.818
		c0.315-0.259,0.675-0.53,1.077-0.818c0.459-0.287,0.746-0.259,0.861,0.086c0.287,0.402,0.401,0.689,0.345,0.861
		c-0.058,0.173-0.316,0.461-0.775,0.862c-1.495,1.379-2.873,2.844-4.136,4.395c-1.265,1.551-2.557,3.103-3.879,4.653
		c-0.115,0.115-0.229,0.259-0.344,0.431c0.344-0.172,0.604-0.287,0.775-0.345c1.551-0.861,3.115-1.724,4.696-2.585
		c1.579-0.861,3.202-1.694,4.868-2.499c1.608-0.746,2.9-1.306,3.879-1.681c0.976-0.373,1.951-0.588,2.93-0.646
		c0.918,0,1.535,0.474,1.852,1.421c0.316,0.948,0.389,1.767,0.217,2.456c-0.173,0.633-0.446,1.437-0.819,2.413
		C319.994,46.57,319.664,47.402,319.377,48.091z"/>
</g>
</svg>
