<?xml version="1.0" encoding="utf-8"?>
<!-- Generator: Adobe Illustrator 16.0.0, SVG Export Plug-In . SVG Version: 6.00 Build 0)  -->
<!DOCTYPE svg PUBLIC "-//W3C//DTD SVG 1.1//EN" "http://www.w3.org/Graphics/SVG/1.1/DTD/svg11.dtd">
<svg version="1.1" id="圖層_1" xmlns="http://www.w3.org/2000/svg" xmlns:xlink="http://www.w3.org/1999/xlink" x="0px" y="0px"
	 width="385.667px" height="83.029px" viewBox="0 0 385.667 83.029" enable-background="new 0 0 385.667 83.029"
	 xml:space="preserve">
<rect y="0.031" fill="#F8D9D7" width="366" height="83"/>
<g enable-background="new    ">
	<path fill="#575757" d="M114.44,58.386c-1.006,0.029-1.853,0.043-2.542,0.043c-0.288,0-0.517-0.087-0.689-0.259
		c-0.345-0.459-0.517-0.948-0.517-1.465c0-0.229,0.086-0.401,0.259-0.518c1.896-0.114,3.762-0.2,5.601-0.258
		c1.838-0.057,3.647-0.115,5.429-0.173c0.345,0,0.603-0.114,0.775-0.345c1.207-1.206,2.312-2.297,3.318-3.274
		c1.004-0.976,1.995-1.938,2.973-2.887c0.977-0.948,1.967-1.924,2.973-2.93c1.004-1.005,2.111-2.111,3.317-3.317
		c2.413-2.642,4.725-5.242,6.937-7.799c2.211-2.556,3.891-5.386,5.041-8.488c0.631-1.952,0.444-3.475-0.56-4.566
		c-1.006-1.091-2.499-1.882-4.481-2.37c-1.982-0.487-4.252-0.732-6.808-0.732c-2.557,0-5.056,0.101-7.497,0.302
		c-2.442,0.202-4.653,0.445-6.635,0.732c-1.982,0.288-3.347,0.488-4.093,0.603c-4.769,0.748-9.494,1.71-14.175,2.888
		c-4.683,1.178-9.235,2.528-13.659,4.05c-4.424,1.522-8.703,3.203-12.839,5.041c-4.136,1.839-8.014,3.734-11.633,5.688
		c-0.402,0.229-1.092,0.661-2.068,1.292c-0.978,0.633-1.825,1.265-2.542,1.896c-0.719,0.633-1.077,1.163-1.077,1.594
		s0.776,0.561,2.327,0.388c1.207-0.172,2.614-0.444,4.223-0.818c1.607-0.373,3.016-0.703,4.222-0.991
		c0.229-0.057,0.545,0.029,0.948,0.259c0.114,0.115,0.258,0.258,0.431,0.431c0.172,0.172,0.315,0.316,0.431,0.431
		c0.172,0.402,0.086,0.633-0.258,0.689c-0.862,0.288-1.911,0.618-3.145,0.991c-1.236,0.374-2.471,0.676-3.706,0.904
		c-1.236,0.23-2.37,0.302-3.404,0.216s-1.81-0.502-2.327-1.25c-0.23-0.286-0.446-0.517-0.646-0.688
		c-0.202-0.173-0.388-0.373-0.56-0.604c-0.402-0.746-0.258-1.579,0.431-2.499c0.689-0.918,1.65-1.853,2.887-2.801
		c1.234-0.948,2.656-1.881,4.265-2.801c1.608-0.918,3.159-1.751,4.653-2.499c1.493-0.745,2.814-1.363,3.964-1.853
		c1.149-0.487,1.866-0.789,2.155-0.904c7.525-3.331,15.05-5.917,22.577-7.756c7.525-1.838,15.051-3.331,22.577-4.48
		c1.724-0.287,3.546-0.518,5.472-0.689c1.924-0.173,3.848-0.272,5.773-0.302c1.924-0.028,3.749,0.043,5.472,0.215
		c1.724,0.173,3.245,0.461,4.567,0.862c0.918,0.288,1.767,0.633,2.542,1.034c0.775,0.402,1.479,1.034,2.111,1.896
		c0.345,0.461,0.674,0.904,0.991,1.336c0.315,0.431,0.646,0.876,0.991,1.335c0.804,1.438,0.918,3.017,0.345,4.74
		c-0.23,1.092-0.575,2.067-1.034,2.93c-0.46,0.861-0.948,1.695-1.465,2.499c-0.978,1.494-1.997,2.916-3.059,4.266
		c-1.064,1.351-2.198,2.714-3.404,4.093c-2.298,2.585-4.582,5.056-6.851,7.411c-2.271,2.356-4.668,4.597-7.196,6.721
		c2.814-0.114,5.543-0.1,8.187,0.044c2.642,0.144,5.285,0.331,7.928,0.56c0.115,0,0.201,0.015,0.259,0.043
		c0.057,0.03,0.143,0.073,0.258,0.13c0.229,0.058,0.401,0.158,0.517,0.301c0.114,0.145,0.229,0.302,0.345,0.475
		c0.114,0.23,0.215,0.431,0.302,0.603c0.086,0.173,0.1,0.403,0.043,0.689c0,0.518-0.202,0.776-0.604,0.776
		c-0.46,0.115-0.775,0-0.948-0.345c-0.116-0.345-0.288-0.518-0.517-0.518c-0.919-0.114-1.81-0.2-2.671-0.259
		c-0.861-0.057-1.781-0.086-2.757-0.086c-1.322,0-2.456-0.014-3.404-0.043c-0.948-0.028-1.868-0.043-2.757-0.043
		c-0.892,0-1.81-0.014-2.758-0.043c-0.948-0.028-2.055-0.043-3.317-0.043c-0.345,0-0.603,0.144-0.775,0.431
		c-1.954,1.839-3.864,3.691-5.73,5.558c-1.868,1.866-3.749,3.749-5.645,5.645c-0.978,0.918-1.982,1.853-3.016,2.801
		c-1.034,0.948-2.126,1.909-3.274,2.887c-0.345,0.287-0.689,0.545-1.034,0.775c-0.345,0.229-0.719,0.487-1.12,0.775
		c-0.345,0.229-0.633,0.259-0.862,0.086c-0.23-0.172-0.258-0.344-0.086-0.517c0.114-0.23,0.244-0.431,0.388-0.604
		c0.143-0.172,0.272-0.345,0.388-0.517c1.724-2.299,3.562-4.468,5.515-6.506c1.952-2.04,3.934-4.065,5.946-6.075
		c0.746-0.632,1.465-1.293,2.154-1.982s1.379-1.435,2.068-2.24l0.172-0.345C117.211,58.314,115.444,58.358,114.44,58.386z"/>
	<path fill="#575757" d="M163.257,54.896c-0.919,0.115-1.796,0.302-2.628,0.56c-0.833,0.259-1.652,0.561-2.456,0.905
		c-1.15,0.46-2.471,1.092-3.964,1.896c-1.495,0.806-2.758,1.523-3.792,2.154v0.173c0.114-0.057,0.315-0.158,0.603-0.302
		c0.287-0.143,0.603-0.287,0.948-0.431s0.66-0.287,0.948-0.432c0.287-0.143,0.517-0.243,0.689-0.301
		c1.321-0.518,2.628-1.034,3.921-1.552c1.292-0.517,2.599-1.004,3.921-1.465c0.287-0.114,0.588-0.2,0.905-0.259
		c0.315-0.056,0.617-0.114,0.905-0.172c0.689-0.114,1.235,0.116,1.637,0.689c0.287,0.402,0.66,0.892,1.12,1.465
		c0.172,0.23,0.287,0.532,0.345,0.904c0.057,0.375,0.129,0.748,0.216,1.121c0.086,0.374,0.2,0.704,0.345,0.99
		c0.143,0.288,0.388,0.461,0.732,0.518c0.804,0.115,1.521,0.115,2.154,0c0.631-0.114,1.292-0.287,1.982-0.518
		c1.148-0.345,2.254-0.702,3.317-1.077c1.062-0.373,2.14-0.761,3.231-1.163c0.229-0.114,0.431-0.2,0.604-0.259
		c0.172-0.057,0.373-0.114,0.603-0.172c0.401-0.114,0.689,0,0.862,0.345c0.057,0.23-0.058,0.46-0.345,0.689
		c-1.265,0.805-2.542,1.594-3.835,2.369c-1.292,0.776-2.686,1.308-4.179,1.595c-0.978,0.172-1.954,0.259-2.93,0.259
		c-1.379,0-2.342-0.401-2.887-1.207c-0.547-0.804-0.963-1.78-1.25-2.93c-0.058-0.229-0.101-0.431-0.129-0.604
		c-0.03-0.172-0.043-0.373-0.043-0.603c0-0.401-0.172-0.518-0.517-0.345c-0.575,0.172-1.15,0.331-1.724,0.474
		c-0.575,0.145-1.15,0.359-1.723,0.646c-1.551,0.633-3.103,1.279-4.653,1.938c-1.551,0.661-3.103,1.336-4.653,2.025
		c-0.517,0.172-1.049,0.345-1.594,0.517c-0.547,0.173-1.049,0.345-1.508,0.518c-0.689,0.172-1.235-0.057-1.638-0.689
		c-0.114-0.229-0.244-0.444-0.388-0.646c-0.143-0.2-0.301-0.388-0.474-0.561c-0.287-0.4-0.259-0.775,0.086-1.12
		c0.288-0.286,0.56-0.56,0.819-0.818c0.258-0.259,0.56-0.502,0.905-0.732c1.607-1.206,3.274-2.297,4.998-3.274
		c1.723-0.977,3.561-1.78,5.515-2.413c1.436-0.459,2.728-0.659,3.878-0.603c1.09,0,1.982,0.431,2.671,1.292
		c0.345,0.518,0.517,0.834,0.517,0.948c0,0.115-0.116,0.144-0.345,0.086c-0.23-0.057-0.504-0.143-0.819-0.259
		C163.845,54.953,163.543,54.896,163.257,54.896z"/>
	<path fill="#575757" d="M193.416,53.258h-0.173c-0.46-0.286-0.935-0.416-1.422-0.388c-0.489,0.029-0.991,0.13-1.508,0.302
		c-1.034,0.345-2.025,0.79-2.973,1.336c-0.948,0.546-1.882,1.163-2.8,1.853c-1.092,0.805-2.126,1.667-3.103,2.585
		c-0.978,0.92-1.867,1.954-2.671,3.103c-0.632,0.919-1.121,1.867-1.465,2.844c-0.056,0.114-0.086,0.215-0.086,0.301
		c0,0.087-0.028,0.216-0.086,0.389l0.689-0.345c3.103-1.724,6.248-3.318,9.436-4.783s6.476-2.771,9.867-3.921
		c0.918-0.286,1.838-0.573,2.758-0.861c0.918-0.287,1.865-0.487,2.844-0.604c0.286-0.057,0.717-0.086,1.292-0.086
		c0.173,0,0.287,0.029,0.345,0.086c0.229,0.345,0.373,0.604,0.432,0.775c0.056,0.059,0.013,0.13-0.13,0.216
		c-0.144,0.086-0.273,0.129-0.388,0.129c-1.15,0.461-2.326,0.892-3.533,1.293c-1.207,0.402-2.385,0.805-3.533,1.206
		c-3.391,1.265-6.678,2.644-9.867,4.137c-3.188,1.493-6.333,3.103-9.436,4.825c-0.517,0.287-0.804,0.503-0.862,0.646
		c-0.057,0.143-0.057,0.53,0,1.163c0.058,0.46,0.101,0.876,0.129,1.25c0.029,0.373,0.073,0.789,0.129,1.249
		c0.345,2.7-0.775,4.481-3.36,5.343c-1.896,0.574-3.82,0.604-5.774,0.086c-0.804-0.172-1.407-0.603-1.81-1.292
		c-0.114-0.23-0.345-0.575-0.689-1.034c-0.287-0.345-0.315-0.719-0.086-1.12c0.172-0.23,0.331-0.446,0.474-0.646
		c0.144-0.202,0.301-0.388,0.474-0.561c0.978-0.919,1.969-1.737,2.973-2.455c1.006-0.72,2.083-1.422,3.231-2.111
		c0.402-0.23,0.791-0.461,1.163-0.689c0.375-0.23,0.762-0.461,1.164-0.689c0.288-0.116,0.374-0.288,0.258-0.518
		c-0.172-2.526,0.661-4.882,2.499-7.065c1.379-1.666,2.887-3.131,4.524-4.395c1.638-1.264,3.46-2.327,5.472-3.188
		c0.345-0.173,0.703-0.302,1.077-0.388c0.373-0.087,0.761-0.187,1.163-0.302c1.091-0.173,1.924,0.172,2.499,1.034
		c0.115,0.229,0.259,0.445,0.431,0.646C193.157,52.814,193.299,53.03,193.416,53.258z M175.664,69.028l-0.345,0.173
		c-0.804,0.459-1.579,0.933-2.327,1.422c-0.746,0.487-1.493,0.99-2.24,1.508c-0.574,0.401-1.12,0.847-1.637,1.336
		c-0.517,0.487-1.062,0.961-1.637,1.421c-0.115,0.115-0.201,0.216-0.259,0.302c-0.057,0.087-0.143,0.187-0.258,0.302
		c0.116,0.057,0.202,0.086,0.258,0.086c2.529,0.632,4.769,0.287,6.722-1.033c0.46-0.289,0.848-0.646,1.163-1.077
		c0.316-0.432,0.503-0.935,0.56-1.509c0.058-0.46,0.073-0.935,0.043-1.422C175.679,70.047,175.664,69.545,175.664,69.028z"/>
	<path fill="#575757" d="M224.609,56.619c0.459-0.115,0.775,0.029,0.947,0.431c0.172,0.402,0,0.747-0.518,1.034
		c-0.402,0.115-0.688,0.229-0.861,0.345c-0.172,0.115-0.46,0.229-0.861,0.345c-2.701,0.978-5.271,1.839-7.713,2.585
		c-2.441,0.747-5.099,1.351-7.971,1.81c-0.977,0.23-1.938,0.374-2.887,0.431c-0.947,0.058-1.91,0.145-2.887,0.259
		c-0.402,0.058-0.834,0.058-1.293,0c-0.46-0.057-0.919-0.114-1.379-0.173c-0.745-0.114-1.292-0.431-1.637-0.947
		c-0.345-0.518-0.689-0.919-1.033-1.207c-0.46-0.689-0.518-1.32-0.173-1.896c0.229-0.287,0.46-0.573,0.688-0.861
		c0.23-0.287,0.489-0.574,0.776-0.862c1.607-1.32,3.303-2.527,5.084-3.619c1.78-1.091,3.763-1.866,5.946-2.326
		c0.4-0.115,0.789-0.201,1.163-0.259c0.373-0.057,0.789-0.028,1.249,0.086c0.401,0.116,0.746,0.288,1.034,0.518l0.259,0.258
		c0.172,0.173,0.345,0.375,0.518,0.604c0.113,0.172,0.243,0.331,0.387,0.474c0.143,0.145,0.216,0.273,0.216,0.388
		c0,0.059-0.116,0.202-0.345,0.432c-0.23,0.229-0.518,0.474-0.861,0.732c-0.346,0.258-0.719,0.503-1.121,0.732
		s-0.746,0.402-1.033,0.517c-0.633,0.23-1.064,0.159-1.293-0.215c-0.23-0.373-0.431-0.675-0.604-0.905
		c-0.115-0.114-0.029-0.302,0.259-0.561c0.287-0.258,0.573-0.502,0.862-0.732c-1.438,0.461-2.801,1.006-4.094,1.638
		c-1.293,0.633-2.514,1.322-3.662,2.068c-0.115,0.115-0.461,0.374-1.034,0.775c-0.575,0.402-1.092,0.848-1.552,1.336
		c-0.459,0.488-0.745,0.934-0.861,1.335c-0.114,0.403,0.202,0.633,0.948,0.689c2.354,0.173,4.653,0,6.894-0.517
		c3.331-0.746,6.262-1.407,8.789-1.982c2.527-0.573,5.141-1.292,7.842-2.154c0.287-0.114,0.589-0.215,0.905-0.302
		C224.019,56.834,224.32,56.735,224.609,56.619z"/>
	<path fill="#575757" d="M234.345,50.156c-0.345,0.288-0.689,0.574-1.034,0.861c-0.345,0.288-0.689,0.575-1.034,0.861
		c-1.322,1.15-2.571,2.342-3.748,3.576c-1.178,1.236-2.283,2.542-3.318,3.921c-0.287,0.288-0.517,0.604-0.689,0.948
		c-0.172,0.345-0.373,0.689-0.603,1.034c-0.116,0.115-0.2,0.288-0.259,0.517c0.574,0,0.977-0.028,1.207-0.086
		c1.148-0.287,2.269-0.646,3.36-1.077c1.091-0.431,2.183-0.875,3.274-1.336l5.688-2.585c0.574-0.229,1.004-0.373,1.293-0.431
		c0.229,0,0.4,0.086,0.517,0.259c0.114,0.115,0.2,0.229,0.259,0.345c0.057,0.115,0,0.258-0.173,0.431
		c-0.345,0.345-0.603,0.574-0.775,0.689c-1.667,1.149-3.36,2.169-5.084,3.059c-1.724,0.892-3.533,1.652-5.429,2.284
		c-0.805,0.288-1.581,0.46-2.326,0.517c-1.15,0.172-1.953-0.172-2.414-1.034c-0.229-0.345-0.517-0.746-0.861-1.206
		c-0.287-0.459-0.345-0.891-0.172-1.293c0.23-0.746,0.488-1.349,0.775-1.81c0.689-1.148,1.493-2.24,2.412-3.274
		s1.867-2.01,2.844-2.93c0.632-0.632,1.264-1.207,1.896-1.724c0.631-0.517,1.263-1.034,1.896-1.551l0.173-0.173
		c0.459-0.286,0.803-0.401,1.033-0.345c0.229,0.059,0.488,0.316,0.775,0.775c0.115,0.116,0.201,0.245,0.26,0.388
		C234.143,49.912,234.23,50.041,234.345,50.156z M243.652,41.366c-0.059,0.116-0.115,0.259-0.172,0.431
		c-0.059,0.173-0.145,0.316-0.259,0.431c-0.461,0.689-0.991,1.308-1.595,1.854s-1.249,1.049-1.938,1.508
		c-0.46,0.288-0.92,0.56-1.379,0.818c-0.46,0.259-0.919,0.532-1.379,0.818c-0.288,0.173-0.575,0.188-0.861,0.044
		c-0.288-0.144-0.46-0.416-0.517-0.819c0-0.114,0.043-0.215,0.129-0.302c0.086-0.086,0.186-0.186,0.301-0.301
		c0.346-0.287,0.703-0.574,1.078-0.862c0.373-0.287,0.703-0.573,0.99-0.861c0.518-0.459,1.02-0.948,1.508-1.465
		c0.488-0.518,0.962-1.005,1.422-1.465c0.287-0.173,0.315-0.432,0.087-0.776c-0.173-0.172-0.245-0.301-0.216-0.388
		c0.028-0.086,0.129-0.186,0.302-0.301c0.114-0.057,0.187-0.115,0.216-0.173c0.027-0.057,0.1-0.114,0.215-0.172
		c0.229-0.345,0.459-0.401,0.689-0.173c0.229,0.288,0.444,0.575,0.646,0.861c0.201,0.289,0.416,0.575,0.646,0.862
		C243.623,40.993,243.652,41.138,243.652,41.366z"/>
	<path fill="#575757" d="M254.681,61.789c0.459-0.172,0.934-0.373,1.422-0.604c0.488-0.229,0.934-0.401,1.336-0.517
		c0.459-0.173,1.047-0.431,1.767-0.775c0.718-0.345,1.45-0.689,2.197-1.034c0.746-0.345,1.479-0.689,2.197-1.034
		c0.718-0.345,1.306-0.604,1.767-0.775c0.057-0.057,0.1-0.086,0.129-0.086s0.072-0.028,0.129-0.087
		c0.518-0.114,0.833,0.03,0.949,0.432c0,0.115-0.03,0.201-0.087,0.258c-0.288,0.173-0.575,0.359-0.862,0.561
		c-0.287,0.202-0.574,0.388-0.861,0.56c-0.633,0.288-1.365,0.676-2.197,1.164c-0.833,0.488-1.695,0.99-2.585,1.508
		c-0.892,0.517-1.738,0.991-2.542,1.422c-0.805,0.431-1.465,0.732-1.982,0.904c-0.633,0.23-1.076,0.245-1.336,0.043
		c-0.258-0.2-0.531-0.53-0.818-0.99c-0.344-0.574-0.46-1.105-0.344-1.595c0.113-0.487,0.344-1.22,0.689-2.197
		c0.286-0.746,0.517-1.364,0.689-1.853c0.172-0.487,0.372-1.077,0.603-1.767c0.173-0.459,0.043-0.675-0.388-0.646
		c-0.432,0.03-1.006,0.202-1.724,0.518c-0.719,0.316-1.538,0.719-2.456,1.206c-0.92,0.488-1.781,0.935-2.585,1.336
		c-0.862,0.46-1.538,0.805-2.024,1.034c-0.489,0.229-0.936,0.46-1.336,0.689c-0.402,0.229-0.834,0.474-1.293,0.732
		c-0.461,0.258-1.092,0.589-1.896,0.99c-0.633,0.403-1.322,0.775-2.068,1.12c-0.747,0.345-1.465,0.72-2.154,1.121
		c-0.288,0.058-0.517,0.172-0.689,0.345c-0.46,0.172-0.732,0.229-0.818,0.172c-0.087-0.057-0.188-0.259-0.302-0.604
		c-0.115-0.172-0.215-0.345-0.302-0.517c-0.086-0.173-0.157-0.345-0.216-0.518c-0.172-0.286-0.143-0.659,0.087-1.12
		c0.401-0.804,0.89-1.579,1.465-2.326c2.124-2.872,4.395-5.457,6.808-7.756c0.4-0.286,0.761-0.56,1.077-0.818
		c0.315-0.259,0.675-0.53,1.077-0.818c0.459-0.287,0.746-0.259,0.861,0.086c0.287,0.402,0.401,0.689,0.345,0.861
		c-0.058,0.173-0.316,0.461-0.775,0.862c-1.495,1.379-2.873,2.844-4.136,4.395c-1.265,1.551-2.557,3.103-3.879,4.653
		c-0.115,0.115-0.229,0.259-0.344,0.431c0.344-0.172,0.604-0.287,0.775-0.345c1.551-0.861,3.115-1.724,4.696-2.585
		c1.579-0.861,3.202-1.694,4.868-2.499c1.608-0.746,2.9-1.306,3.879-1.681c0.976-0.373,1.951-0.588,2.93-0.646
		c0.918,0,1.535,0.474,1.852,1.421c0.316,0.948,0.389,1.767,0.217,2.456c-0.173,0.633-0.446,1.437-0.819,2.413
		C255.298,60.268,254.968,61.1,254.681,61.789z"/>
	<path fill="#575757" d="M277.775,54.896c-0.919,0.115-1.795,0.302-2.628,0.56c-0.833,0.259-1.651,0.561-2.456,0.905
		c-1.149,0.46-2.471,1.092-3.963,1.896c-1.495,0.806-2.758,1.523-3.792,2.154v0.173c0.114-0.057,0.315-0.158,0.603-0.302
		c0.287-0.143,0.604-0.287,0.948-0.431s0.659-0.287,0.948-0.432c0.287-0.143,0.517-0.243,0.689-0.301
		c1.32-0.518,2.628-1.034,3.92-1.552c1.293-0.517,2.6-1.004,3.922-1.465c0.286-0.114,0.588-0.2,0.904-0.259
		c0.314-0.056,0.617-0.114,0.904-0.172c0.689-0.114,1.235,0.116,1.638,0.689c0.287,0.402,0.659,0.892,1.12,1.465
		c0.172,0.23,0.287,0.532,0.345,0.904c0.057,0.375,0.13,0.748,0.216,1.121c0.086,0.374,0.2,0.704,0.345,0.99
		c0.143,0.288,0.388,0.461,0.732,0.518c0.804,0.115,1.521,0.115,2.154,0c0.632-0.114,1.292-0.287,1.981-0.518
		c1.148-0.345,2.254-0.702,3.318-1.077c1.062-0.373,2.139-0.761,3.23-1.163c0.229-0.114,0.432-0.2,0.604-0.259
		c0.172-0.057,0.373-0.114,0.604-0.172c0.401-0.114,0.689,0,0.861,0.345c0.057,0.23-0.058,0.46-0.344,0.689
		c-1.266,0.805-2.543,1.594-3.836,2.369c-1.292,0.776-2.686,1.308-4.179,1.595c-0.978,0.172-1.954,0.259-2.93,0.259
		c-1.379,0-2.342-0.401-2.887-1.207c-0.547-0.804-0.963-1.78-1.249-2.93c-0.059-0.229-0.102-0.431-0.13-0.604
		c-0.03-0.172-0.043-0.373-0.043-0.603c0-0.401-0.173-0.518-0.517-0.345c-0.576,0.172-1.15,0.331-1.725,0.474
		c-0.574,0.145-1.149,0.359-1.723,0.646c-1.551,0.633-3.103,1.279-4.653,1.938c-1.552,0.661-3.103,1.336-4.653,2.025
		c-0.518,0.172-1.049,0.345-1.594,0.517c-0.547,0.173-1.049,0.345-1.508,0.518c-0.689,0.172-1.235-0.057-1.639-0.689
		c-0.113-0.229-0.243-0.444-0.387-0.646c-0.143-0.2-0.302-0.388-0.475-0.561c-0.287-0.4-0.258-0.775,0.086-1.12
		c0.289-0.286,0.561-0.56,0.819-0.818s0.56-0.502,0.905-0.732c1.607-1.206,3.273-2.297,4.998-3.274
		c1.723-0.977,3.561-1.78,5.514-2.413c1.436-0.459,2.729-0.659,3.879-0.603c1.09,0,1.981,0.431,2.671,1.292
		c0.345,0.518,0.517,0.834,0.517,0.948c0,0.115-0.115,0.144-0.344,0.086c-0.23-0.057-0.504-0.143-0.819-0.259
		C278.364,54.953,278.062,54.896,277.775,54.896z"/>
	<path fill="#575757" d="M311.984,38.523c-2.758-0.114-5.373-0.129-7.842-0.043c-2.471,0.086-4.912,0.129-7.324,0.129h-0.689
		c-1.15-0.114-1.695-0.717-1.638-1.81c0-0.172,0.114-0.258,0.345-0.258c0.574-0.057,1.12-0.1,1.637-0.13
		c0.518-0.028,1.062-0.071,1.638-0.129c3.103-0.114,5.917-0.216,8.444-0.302s5.085-0.071,7.67,0.043
		c0.401,0,0.718-0.114,0.947-0.345c1.494-1.206,2.959-2.412,4.396-3.619c1.435-1.206,2.9-2.383,4.395-3.533
		c0.632-0.573,1.379-1.09,2.241-1.551c0.459-0.287,0.803-0.172,1.033,0.345c0.115,0.288,0.229,0.561,0.346,0.818
		c0.113,0.259,0.229,0.532,0.344,0.819c0,0.229-0.058,0.402-0.172,0.517c-0.289,0.345-0.604,0.661-0.948,0.948l-5.946,5.687
		c-0.115,0-0.201,0.087-0.258,0.259c0.229,0,0.431,0.015,0.604,0.043c0.172,0.03,0.373,0.043,0.603,0.043
		c1.952,0.116,3.892,0.245,5.817,0.388c1.924,0.145,3.862,0.332,5.816,0.561c0.976,0.116,1.938,0.259,2.887,0.431
		c0.947,0.173,1.908,0.345,2.887,0.518c0.057,0,0.1,0.015,0.129,0.043c0.028,0.029,0.071,0.043,0.129,0.043
		c1.091,0.288,1.666,0.892,1.724,1.81l0.259,1.034c0.057,0.23-0.029,0.345-0.259,0.345c-0.402,0-0.661-0.143-0.775-0.431
		c-0.229-0.229-0.575-0.401-1.034-0.518c-0.633-0.114-1.25-0.215-1.853-0.302c-0.603-0.086-1.222-0.186-1.853-0.302
		c-2.184-0.286-4.352-0.502-6.506-0.646c-2.154-0.143-4.324-0.272-6.506-0.388c-0.748-0.057-1.495-0.1-2.24-0.13
		c-0.748-0.028-1.495-0.071-2.241-0.129c-0.345,0-0.603,0.086-0.775,0.259c-1.781,1.494-3.562,2.944-5.343,4.352
		c-1.781,1.408-3.591,2.772-5.429,4.093c-0.517,0.288-1.034,0.747-1.552,1.379l-9.307,9.823c-0.574,0.633-1.105,1.279-1.594,1.939
		c-0.488,0.661-0.99,1.335-1.508,2.024c-0.287,0.461-0.631,1.121-1.034,1.982c0.46,0,0.776-0.029,0.948-0.086
		c1.09-0.116,2.139-0.302,3.145-0.561c1.005-0.259,1.996-0.56,2.974-0.904c2.011-0.746,3.992-1.552,5.946-2.413
		c1.951-0.862,3.905-1.724,5.859-2.585c0.977-0.459,1.995-0.919,3.059-1.379c1.062-0.459,2.111-0.918,3.146-1.379
		c0.114-0.057,0.229-0.129,0.345-0.216c0.114-0.086,0.229-0.013,0.345,0.216c0.114,0.23,0.13,0.402,0.043,0.517
		c-0.086,0.116-0.187,0.23-0.302,0.345c-0.977,0.806-2.025,1.523-3.145,2.154c-1.121,0.633-2.256,1.236-3.404,1.81
		c-2.24,1.15-4.523,2.228-6.851,3.231c-2.327,1.005-4.726,1.823-7.195,2.456c-0.633,0.173-1.249,0.315-1.853,0.431
		s-1.222,0.144-1.854,0.087c-0.689,0-1.206-0.288-1.551-0.862c-0.114-0.172-0.229-0.345-0.345-0.517
		c-0.114-0.173-0.229-0.316-0.345-0.431c-0.459-0.518-0.545-1.062-0.258-1.638c0.287-0.517,0.56-1.048,0.818-1.594
		c0.258-0.546,0.561-1.048,0.904-1.509c1.034-1.551,2.168-3.029,3.404-4.438c1.234-1.407,2.484-2.771,3.748-4.093
		c3.965-4.193,8.043-8.272,12.236-12.236c0.115-0.057,0.201-0.13,0.259-0.216C311.782,38.739,311.869,38.639,311.984,38.523z"/>
	<path fill="#575757" d="M324.821,50.156c-0.345,0.288-0.689,0.574-1.034,0.861c-0.345,0.288-0.689,0.575-1.033,0.861
		c-1.322,1.15-2.572,2.342-3.749,3.576c-1.179,1.236-2.284,2.542-3.317,3.921c-0.289,0.288-0.518,0.604-0.689,0.948
		c-0.173,0.345-0.375,0.689-0.604,1.034c-0.115,0.115-0.201,0.288-0.258,0.517c0.572,0,0.976-0.028,1.205-0.086
		c1.148-0.287,2.27-0.646,3.361-1.077c1.091-0.431,2.183-0.875,3.274-1.336l5.688-2.585c0.573-0.229,1.005-0.373,1.292-0.431
		c0.229,0,0.402,0.086,0.518,0.259c0.114,0.115,0.201,0.229,0.258,0.345s0,0.258-0.172,0.431c-0.344,0.345-0.604,0.574-0.775,0.689
		c-1.667,1.149-3.361,2.169-5.084,3.059c-1.724,0.892-3.533,1.652-5.429,2.284c-0.806,0.288-1.581,0.46-2.327,0.517
		c-1.149,0.172-1.952-0.172-2.412-1.034c-0.229-0.345-0.518-0.746-0.862-1.206c-0.286-0.459-0.345-0.891-0.173-1.293
		c0.23-0.746,0.489-1.349,0.776-1.81c0.689-1.148,1.493-2.24,2.413-3.274c0.918-1.034,1.865-2.01,2.844-2.93
		c0.631-0.632,1.263-1.207,1.896-1.724c0.632-0.517,1.263-1.034,1.896-1.551l0.172-0.173c0.459-0.286,0.805-0.401,1.035-0.345
		c0.229,0.059,0.486,0.316,0.775,0.775c0.114,0.116,0.2,0.245,0.258,0.388C324.619,49.912,324.705,50.041,324.821,50.156z
		 M334.127,41.366c-0.058,0.116-0.116,0.259-0.173,0.431c-0.058,0.173-0.144,0.316-0.258,0.431
		c-0.461,0.689-0.991,1.308-1.594,1.854c-0.604,0.546-1.25,1.049-1.939,1.508c-0.461,0.288-0.92,0.56-1.379,0.818
		c-0.461,0.259-0.92,0.532-1.379,0.818c-0.288,0.173-0.574,0.188-0.861,0.044c-0.288-0.144-0.461-0.416-0.518-0.819
		c0-0.114,0.043-0.215,0.13-0.302c0.086-0.086,0.186-0.186,0.302-0.301c0.344-0.287,0.703-0.574,1.076-0.862
		c0.373-0.287,0.703-0.573,0.992-0.861c0.517-0.459,1.019-0.948,1.508-1.465c0.486-0.518,0.961-1.005,1.422-1.465
		c0.286-0.173,0.314-0.432,0.086-0.776c-0.172-0.172-0.245-0.301-0.216-0.388c0.028-0.086,0.13-0.186,0.302-0.301
		c0.114-0.057,0.186-0.115,0.215-0.173c0.029-0.057,0.1-0.114,0.216-0.172c0.229-0.345,0.46-0.401,0.689-0.173
		c0.229,0.288,0.444,0.575,0.646,0.861c0.2,0.289,0.416,0.575,0.646,0.862C334.097,40.993,334.127,41.138,334.127,41.366z"/>
	<path fill="#575757" d="M341.623,53.517c-0.402,0.058-0.719,0.116-0.947,0.172c-0.23,0.059-0.575,0.116-1.035,0.173
		c0.173,0.517,0.445,0.92,0.819,1.206c0.373,0.288,0.761,0.489,1.163,0.604c2.297,0.633,4.337,0.818,6.119,0.561
		c1.779-0.259,3.676-0.589,5.687-0.991c0.804-0.173,1.622-0.388,2.456-0.646c0.832-0.259,1.65-0.502,2.456-0.732
		c0.114-0.057,0.259-0.086,0.431-0.086c0.459,0,0.718,0.229,0.775,0.689c0.057,0.402-0.086,0.661-0.431,0.775
		c-1.034,0.574-2.068,0.978-3.103,1.206c-1.551,0.575-3.145,1.063-4.782,1.465c-1.638,0.402-3.317,0.633-5.041,0.689
		c-0.806,0.058-1.608,0.043-2.413-0.043s-1.609-0.272-2.412-0.561h-0.259c-0.345,1.322-0.905,2.327-1.681,3.017
		s-1.594,1.322-2.455,1.896c-1.379,0.862-2.601,1.436-3.663,1.724c-1.063,0.287-2.341,0.545-3.835,0.775c-0.46,0-0.934,0-1.422,0
		s-0.963-0.058-1.422-0.172c-0.287-0.173-0.545-0.332-0.775-0.475c-0.229-0.144-0.4-0.359-0.517-0.646
		c-0.114-0.229-0.243-0.444-0.388-0.646c-0.143-0.201-0.271-0.388-0.389-0.561c-0.4-0.573-0.43-1.263-0.086-2.068
		c0.173-0.517,0.402-0.976,0.689-1.378c0.289-0.401,0.604-0.805,0.948-1.207c1.263-1.206,2.427-2.183,3.489-2.93
		c1.062-0.746,2.371-1.493,3.922-2.24c1.148-0.459,2.312-0.905,3.49-1.336c1.176-0.431,2.369-0.646,3.576-0.646
		c0.689,0.116,1.162,0.302,1.422,0.561c0.258,0.259,0.529,0.79,0.818,1.594c0,0.633-0.102,0.862-0.303,0.689
		C342.326,53.776,342.024,53.633,341.623,53.517z M325.767,63.168c0.172,0,0.316,0.029,0.431,0.086
		c0.114,0.058,0.229,0.086,0.345,0.086c1.148,0.116,2.355,0.043,3.619-0.215c1.264-0.259,2.484-0.646,3.662-1.164
		c1.178-0.517,2.254-1.163,3.232-1.938c0.976-0.775,1.752-1.65,2.326-2.628c0.172-0.345,0.114-0.789-0.172-1.336
		c-0.289-0.545-0.489-0.991-0.604-1.336c-0.172-0.345-0.375-0.431-0.604-0.258c-1.15,0.402-2.126,0.747-2.93,1.033
		c-0.805,0.289-1.753,0.806-2.844,1.552c-0.978,0.575-1.867,1.178-2.672,1.81c-0.805,0.633-1.608,1.351-2.412,2.154
		c-0.288,0.288-0.547,0.604-0.775,0.947C326.14,62.306,325.939,62.709,325.767,63.168z"/>
	<path fill="#575757" d="M372.816,61.789c0.459-0.172,0.933-0.373,1.422-0.604c0.487-0.229,0.933-0.401,1.336-0.517
		c0.459-0.173,1.047-0.431,1.766-0.775c0.718-0.345,1.451-0.689,2.197-1.034s1.479-0.689,2.197-1.034s1.307-0.604,1.768-0.775
		c0.057-0.057,0.1-0.086,0.129-0.086c0.028,0,0.071-0.028,0.129-0.087c0.518-0.114,0.832,0.03,0.948,0.432
		c0,0.115-0.03,0.201-0.087,0.258c-0.287,0.173-0.574,0.359-0.861,0.561c-0.288,0.202-0.574,0.388-0.861,0.56
		c-0.633,0.288-1.365,0.676-2.197,1.164c-0.834,0.488-1.695,0.99-2.586,1.508c-0.891,0.517-1.738,0.991-2.541,1.422
		c-0.806,0.431-1.465,0.732-1.982,0.904c-0.633,0.23-1.077,0.245-1.336,0.043c-0.258-0.2-0.531-0.53-0.818-0.99
		c-0.345-0.574-0.461-1.105-0.345-1.595c0.114-0.487,0.345-1.22,0.689-2.197c0.286-0.746,0.517-1.364,0.689-1.853
		c0.173-0.487,0.372-1.077,0.603-1.767c0.173-0.459,0.043-0.675-0.387-0.646c-0.432,0.03-1.006,0.202-1.725,0.518
		c-0.719,0.316-1.537,0.719-2.455,1.206c-0.92,0.488-1.781,0.935-2.586,1.336c-0.861,0.46-1.537,0.805-2.024,1.034
		c-0.489,0.229-0.935,0.46-1.336,0.689c-0.402,0.229-0.833,0.474-1.292,0.732c-0.461,0.258-1.092,0.589-1.896,0.99
		c-0.633,0.403-1.322,0.775-2.068,1.12s-1.465,0.72-2.154,1.121c-0.287,0.058-0.517,0.172-0.689,0.345
		c-0.46,0.172-0.732,0.229-0.818,0.172s-0.188-0.259-0.301-0.604c-0.116-0.172-0.216-0.345-0.303-0.517
		c-0.086-0.173-0.156-0.345-0.215-0.518c-0.172-0.286-0.143-0.659,0.086-1.12c0.401-0.804,0.891-1.579,1.465-2.326
		c2.125-2.872,4.395-5.457,6.809-7.756c0.4-0.286,0.76-0.56,1.076-0.818c0.315-0.259,0.675-0.53,1.078-0.818
		c0.459-0.287,0.745-0.259,0.861,0.086c0.287,0.402,0.4,0.689,0.344,0.861c-0.057,0.173-0.316,0.461-0.775,0.862
		c-1.494,1.379-2.873,2.844-4.136,4.395c-1.265,1.551-2.557,3.103-3.878,4.653c-0.115,0.115-0.23,0.259-0.345,0.431
		c0.345-0.172,0.604-0.287,0.776-0.345c1.551-0.861,3.115-1.724,4.695-2.585s3.202-1.694,4.869-2.499
		c1.607-0.746,2.9-1.306,3.878-1.681c0.976-0.373,1.952-0.588,2.93-0.646c0.919,0,1.536,0.474,1.853,1.421
		c0.315,0.948,0.389,1.767,0.216,2.456c-0.173,0.633-0.446,1.437-0.819,2.413C373.432,60.268,373.103,61.1,372.816,61.789z"/>
</g>
</svg>
