<?xml version="1.0" encoding="utf-8"?>
<!-- Generator: Adobe Illustrator 16.0.0, SVG Export Plug-In . SVG Version: 6.00 Build 0)  -->
<!DOCTYPE svg PUBLIC "-//W3C//DTD SVG 1.1//EN" "http://www.w3.org/Graphics/SVG/1.1/DTD/svg11.dtd">
<svg version="1.1" id="圖層_1" xmlns="http://www.w3.org/2000/svg" xmlns:xlink="http://www.w3.org/1999/xlink" x="0px" y="0px"
	 width="280.623px" height="91px" viewBox="0 0 280.623 91" enable-background="new 0 0 280.623 91" xml:space="preserve">
<g enable-background="new    ">
	<path fill="#575757" d="M65.174,47.106c-1.131,0.033-2.083,0.049-2.859,0.049c-0.324,0-0.582-0.098-0.775-0.291
		c-0.387-0.517-0.581-1.066-0.581-1.648c0-0.258,0.097-0.451,0.291-0.582c2.132-0.128,4.231-0.226,6.299-0.29
		c2.067-0.063,4.102-0.129,6.105-0.194c0.388,0,0.679-0.129,0.873-0.388c1.356-1.356,2.6-2.583,3.731-3.683
		c1.13-1.098,2.244-2.181,3.344-3.246c1.098-1.066,2.212-2.164,3.343-3.296c1.13-1.129,2.375-2.374,3.731-3.73
		c2.713-2.972,5.313-5.896,7.801-8.771c2.487-2.875,4.376-6.058,5.669-9.547c0.71-2.195,0.5-3.908-0.63-5.136
		c-1.131-1.227-2.811-2.115-5.04-2.665c-2.229-0.549-4.782-0.824-7.656-0.824c-2.875,0-5.686,0.113-8.431,0.339
		c-2.747,0.228-5.233,0.502-7.462,0.824c-2.229,0.324-3.765,0.55-4.604,0.679C62.96,5.547,57.647,6.63,52.382,7.953
		c-5.267,1.325-10.386,2.844-15.361,4.555c-4.976,1.713-9.788,3.603-14.44,5.67c-4.652,2.068-9.013,4.2-13.083,6.396
		c-0.453,0.259-1.228,0.743-2.326,1.453c-1.099,0.712-2.052,1.422-2.859,2.133c-0.809,0.711-1.211,1.308-1.211,1.793
		c0,0.484,0.873,0.63,2.617,0.436c1.357-0.193,2.939-0.5,4.749-0.921c1.808-0.419,3.392-0.79,4.749-1.114
		c0.257-0.063,0.613,0.033,1.066,0.291c0.128,0.13,0.291,0.291,0.484,0.484c0.194,0.194,0.354,0.355,0.484,0.484
		c0.194,0.453,0.097,0.712-0.291,0.775c-0.969,0.324-2.149,0.695-3.538,1.114c-1.39,0.422-2.778,0.761-4.167,1.018
		c-1.39,0.26-2.665,0.34-3.828,0.243c-1.163-0.098-2.035-0.565-2.617-1.405c-0.259-0.323-0.501-0.582-0.727-0.775
		c-0.227-0.194-0.436-0.42-0.63-0.679c-0.453-0.839-0.291-1.776,0.485-2.811c0.775-1.032,1.856-2.084,3.247-3.149
		c1.388-1.066,2.987-2.115,4.797-3.15c1.808-1.032,3.553-1.97,5.233-2.81c1.68-0.84,3.165-1.534,4.458-2.084
		c1.292-0.548,2.099-0.888,2.423-1.018c8.463-3.746,16.927-6.654,25.392-8.723c8.463-2.066,16.927-3.746,25.392-5.039
		c1.938-0.322,3.988-0.582,6.154-0.775c2.164-0.194,4.328-0.306,6.493-0.339c2.164-0.032,4.216,0.048,6.154,0.242
		c1.938,0.193,3.649,0.518,5.136,0.969c1.033,0.324,1.987,0.712,2.859,1.163c0.872,0.453,1.663,1.163,2.375,2.132
		c0.388,0.518,0.759,1.018,1.114,1.502c0.354,0.485,0.727,0.986,1.115,1.503c0.904,1.615,1.033,3.392,0.388,5.33
		c-0.259,1.228-0.646,2.326-1.163,3.295c-0.518,0.969-1.066,1.906-1.647,2.811c-1.1,1.681-2.246,3.28-3.44,4.797
		c-1.196,1.52-2.471,3.053-3.828,4.604c-2.585,2.907-5.153,5.687-7.705,8.335c-2.553,2.649-5.25,5.17-8.092,7.559
		c3.165-0.128,6.234-0.111,9.207,0.049c2.971,0.162,5.944,0.373,8.916,0.629c0.129,0,0.226,0.018,0.291,0.049
		c0.063,0.033,0.161,0.082,0.291,0.146c0.258,0.064,0.452,0.178,0.582,0.338c0.129,0.162,0.257,0.34,0.388,0.533
		c0.129,0.26,0.242,0.485,0.339,0.678c0.097,0.194,0.112,0.453,0.048,0.775c0,0.582-0.227,0.873-0.678,0.873
		c-0.518,0.13-0.873,0-1.066-0.388c-0.13-0.388-0.324-0.582-0.581-0.582c-1.035-0.129-2.036-0.226-3.004-0.291
		c-0.969-0.063-2.003-0.097-3.102-0.097c-1.487,0-2.762-0.015-3.828-0.048c-1.066-0.032-2.1-0.049-3.101-0.049
		c-1.002,0-2.035-0.016-3.101-0.049c-1.066-0.031-2.311-0.048-3.731-0.048c-0.388,0-0.678,0.162-0.872,0.484
		c-2.197,2.068-4.346,4.152-6.445,6.251c-2.1,2.099-4.216,4.216-6.348,6.348c-1.1,1.033-2.229,2.084-3.392,3.149
		c-1.163,1.066-2.391,2.147-3.683,3.247c-0.388,0.322-0.775,0.613-1.163,0.872c-0.388,0.258-0.809,0.548-1.26,0.872
		c-0.388,0.258-0.712,0.291-0.969,0.097c-0.259-0.193-0.291-0.388-0.097-0.581c0.129-0.259,0.274-0.484,0.437-0.679
		c0.16-0.193,0.306-0.388,0.436-0.581c1.938-2.585,4.005-5.024,6.202-7.317c2.196-2.294,4.425-4.571,6.687-6.832
		c0.839-0.71,1.648-1.454,2.423-2.229c0.775-0.775,1.551-1.614,2.326-2.52l0.194-0.388C68.291,47.026,66.304,47.074,65.174,47.106z"
		/>
	<path fill="#575757" d="M120.077,43.182c-1.034,0.13-2.02,0.339-2.956,0.63c-0.937,0.291-1.858,0.63-2.762,1.018
		c-1.293,0.518-2.779,1.228-4.458,2.132c-1.681,0.905-3.102,1.713-4.264,2.423v0.194c0.128-0.063,0.354-0.178,0.678-0.34
		c0.322-0.16,0.678-0.322,1.066-0.484c0.388-0.16,0.742-0.322,1.066-0.484c0.323-0.16,0.582-0.274,0.775-0.339
		c1.486-0.582,2.956-1.163,4.41-1.745c1.454-0.581,2.922-1.129,4.41-1.647c0.322-0.129,0.662-0.226,1.018-0.291
		c0.354-0.063,0.693-0.128,1.018-0.193c0.775-0.129,1.389,0.13,1.841,0.775c0.323,0.454,0.742,1.002,1.26,1.647
		c0.194,0.259,0.323,0.598,0.388,1.018c0.064,0.421,0.146,0.841,0.242,1.26c0.097,0.421,0.226,0.792,0.388,1.114
		c0.161,0.324,0.437,0.519,0.824,0.582c0.904,0.13,1.711,0.13,2.423,0c0.71-0.129,1.454-0.322,2.229-0.582
		c1.292-0.388,2.535-0.79,3.731-1.211c1.195-0.42,2.406-0.855,3.634-1.309c0.257-0.129,0.484-0.226,0.678-0.291
		c0.194-0.063,0.419-0.128,0.679-0.193c0.451-0.129,0.775,0,0.969,0.388c0.064,0.259-0.065,0.518-0.388,0.775
		c-1.422,0.905-2.859,1.793-4.312,2.665s-3.021,1.471-4.7,1.793c-1.1,0.193-2.197,0.291-3.295,0.291
		c-1.551,0-2.633-0.452-3.247-1.357c-0.615-0.904-1.083-2.002-1.405-3.295c-0.065-0.258-0.114-0.484-0.146-0.679
		c-0.033-0.193-0.048-0.419-0.048-0.678c0-0.451-0.194-0.582-0.582-0.387c-0.646,0.193-1.293,0.371-1.938,0.532
		c-0.646,0.161-1.293,0.404-1.938,0.727c-1.745,0.712-3.489,1.438-5.233,2.181c-1.745,0.743-3.489,1.502-5.233,2.277
		c-0.582,0.193-1.18,0.388-1.793,0.581c-0.615,0.194-1.18,0.388-1.696,0.582c-0.775,0.193-1.389-0.063-1.842-0.775
		c-0.128-0.258-0.274-0.5-0.436-0.727c-0.16-0.226-0.339-0.437-0.533-0.631c-0.323-0.451-0.291-0.872,0.097-1.26
		c0.324-0.322,0.63-0.63,0.921-0.92c0.291-0.291,0.63-0.565,1.018-0.824c1.808-1.356,3.683-2.583,5.621-3.683
		c1.938-1.098,4.005-2.002,6.203-2.714c1.614-0.517,3.068-0.742,4.361-0.678c1.227,0,2.229,0.484,3.004,1.453
		c0.388,0.582,0.581,0.938,0.581,1.066c0,0.13-0.13,0.162-0.387,0.097c-0.259-0.063-0.566-0.16-0.921-0.291
		C120.739,43.247,120.4,43.182,120.077,43.182z"/>
	<path fill="#575757" d="M157.774,50.935c0.518-0.193,1.05-0.42,1.6-0.679c0.549-0.257,1.049-0.451,1.502-0.581
		c0.517-0.194,1.178-0.484,1.986-0.872c0.808-0.388,1.632-0.775,2.473-1.163c0.838-0.388,1.662-0.775,2.471-1.163
		c0.807-0.387,1.469-0.678,1.986-0.872c0.064-0.064,0.112-0.098,0.146-0.098c0.032,0,0.081-0.031,0.146-0.098
		c0.582-0.127,0.936,0.033,1.066,0.486c0,0.129-0.033,0.227-0.098,0.29c-0.324,0.195-0.646,0.404-0.969,0.63
		c-0.324,0.228-0.646,0.437-0.969,0.63c-0.712,0.324-1.535,0.761-2.472,1.309c-0.937,0.55-1.906,1.114-2.907,1.696
		c-1.002,0.581-1.955,1.114-2.859,1.599c-0.905,0.484-1.646,0.824-2.229,1.018c-0.712,0.259-1.211,0.275-1.502,0.049
		c-0.291-0.226-0.599-0.597-0.921-1.114c-0.388-0.646-0.519-1.243-0.388-1.793c0.129-0.549,0.388-1.372,0.775-2.472
		c0.322-0.839,0.581-1.533,0.775-2.084c0.193-0.547,0.419-1.21,0.678-1.986c0.194-0.517,0.049-0.759-0.436-0.727
		c-0.484,0.033-1.131,0.227-1.938,0.581c-0.809,0.356-1.729,0.809-2.763,1.358c-1.033,0.549-2.003,1.051-2.906,1.502
		c-0.97,0.517-1.73,0.904-2.277,1.162c-0.551,0.259-1.052,0.518-1.503,0.775c-0.452,0.259-0.937,0.532-1.454,0.823
		s-1.228,0.663-2.131,1.114c-0.713,0.453-1.488,0.872-2.327,1.26c-0.84,0.388-1.647,0.809-2.423,1.261
		c-0.324,0.064-0.582,0.193-0.775,0.388c-0.518,0.193-0.824,0.257-0.92,0.193c-0.097-0.063-0.21-0.291-0.339-0.679
		c-0.13-0.193-0.242-0.388-0.339-0.581c-0.097-0.194-0.177-0.388-0.242-0.582c-0.194-0.322-0.161-0.741,0.097-1.26
		c0.451-0.903,1-1.776,1.647-2.616c2.389-3.23,4.942-6.138,7.657-8.723c0.451-0.322,0.855-0.63,1.211-0.92
		c0.354-0.291,0.758-0.597,1.211-0.921c0.517-0.323,0.84-0.291,0.969,0.097c0.323,0.453,0.452,0.775,0.389,0.969
		c-0.065,0.194-0.356,0.519-0.873,0.97c-1.68,1.551-3.23,3.198-4.651,4.942c-1.422,1.745-2.875,3.489-4.361,5.233
		c-0.13,0.13-0.259,0.291-0.388,0.484c0.388-0.193,0.679-0.322,0.873-0.388c1.745-0.969,3.504-1.938,5.282-2.907
		c1.776-0.969,3.602-1.905,5.476-2.811c1.808-0.839,3.262-1.469,4.361-1.89c1.098-0.42,2.195-0.662,3.295-0.727
		c1.032,0,1.728,0.532,2.083,1.599s0.437,1.986,0.242,2.761c-0.193,0.713-0.5,1.617-0.92,2.714
		C158.469,49.224,158.098,50.159,157.774,50.935z"/>
	<path fill="#575757" d="M188.496,24.768c-3.101-0.129-6.042-0.146-8.819-0.048c-2.778,0.097-5.523,0.146-8.237,0.146h-0.775
		c-1.293-0.129-1.906-0.808-1.841-2.036c0-0.193,0.129-0.29,0.387-0.29c0.646-0.063,1.26-0.112,1.842-0.146
		c0.582-0.032,1.195-0.08,1.842-0.146c3.488-0.129,6.653-0.242,9.497-0.339c2.843-0.098,5.718-0.08,8.626,0.048
		c0.451,0,0.807-0.128,1.065-0.388c1.679-1.356,3.327-2.713,4.942-4.07c1.615-1.356,3.262-2.68,4.943-3.974
		c0.71-0.645,1.551-1.227,2.52-1.744c0.516-0.322,0.904-0.193,1.162,0.388c0.129,0.324,0.258,0.63,0.389,0.921
		c0.129,0.291,0.257,0.598,0.387,0.921c0,0.259-0.064,0.452-0.193,0.581c-0.324,0.388-0.678,0.743-1.066,1.066l-6.687,6.396
		c-0.13,0-0.228,0.097-0.291,0.29c0.258,0,0.485,0.017,0.679,0.049c0.193,0.033,0.42,0.049,0.678,0.049
		c2.196,0.13,4.377,0.275,6.543,0.436c2.163,0.162,4.344,0.373,6.541,0.63c1.098,0.131,2.181,0.291,3.246,0.484
		c1.066,0.194,2.147,0.388,3.247,0.582c0.063,0,0.112,0.017,0.146,0.048c0.031,0.034,0.08,0.049,0.145,0.049
		c1.227,0.324,1.874,1.003,1.939,2.035l0.29,1.163c0.063,0.259-0.033,0.388-0.29,0.388c-0.453,0-0.744-0.16-0.873-0.484
		c-0.259-0.258-0.646-0.451-1.162-0.582c-0.713-0.129-1.406-0.242-2.084-0.339c-0.679-0.097-1.373-0.209-2.084-0.339
		c-2.456-0.323-4.895-0.565-7.316-0.728c-2.424-0.16-4.863-0.306-7.317-0.436c-0.841-0.063-1.681-0.112-2.521-0.146
		c-0.84-0.032-1.68-0.08-2.52-0.146c-0.387,0-0.678,0.097-0.871,0.291c-2.004,1.681-4.008,3.312-6.01,4.894
		c-2.003,1.584-4.038,3.118-6.105,4.604c-0.581,0.324-1.162,0.841-1.744,1.551l-10.467,11.048c-0.646,0.712-1.244,1.438-1.793,2.181
		c-0.549,0.744-1.114,1.502-1.695,2.277c-0.322,0.519-0.711,1.261-1.164,2.229c0.519,0,0.873-0.033,1.066-0.097
		c1.227-0.131,2.406-0.34,3.537-0.63c1.131-0.291,2.244-0.63,3.344-1.018c2.262-0.839,4.49-1.745,6.688-2.714
		c2.195-0.97,4.393-1.938,6.59-2.907c1.098-0.516,2.244-1.034,3.44-1.551c1.194-0.516,2.374-1.033,3.538-1.55
		c0.128-0.063,0.257-0.146,0.387-0.242c0.129-0.097,0.258-0.016,0.389,0.242c0.128,0.259,0.145,0.453,0.048,0.581
		c-0.097,0.131-0.21,0.26-0.339,0.388c-1.1,0.906-2.277,1.713-3.537,2.423c-1.26,0.712-2.537,1.391-3.828,2.035
		c-2.521,1.294-5.088,2.505-7.705,3.635s-5.315,2.05-8.092,2.762c-0.713,0.194-1.406,0.354-2.084,0.484
		c-0.679,0.129-1.373,0.161-2.084,0.098c-0.775,0-1.357-0.324-1.744-0.97c-0.129-0.193-0.258-0.388-0.389-0.581
		c-0.128-0.194-0.257-0.356-0.387-0.484c-0.517-0.582-0.613-1.195-0.291-1.842c0.324-0.581,0.63-1.178,0.921-1.793
		c0.29-0.613,0.63-1.178,1.018-1.696c1.163-1.744,2.438-3.407,3.828-4.99c1.389-1.583,2.794-3.117,4.216-4.604
		c4.458-4.716,9.045-9.304,13.762-13.762c0.129-0.063,0.226-0.146,0.291-0.242C188.269,25.01,188.366,24.898,188.496,24.768z"/>
	<path fill="#575757" d="M203.808,43.182c-1.034,0.13-2.02,0.339-2.956,0.63s-1.858,0.63-2.762,1.018
		c-1.294,0.518-2.778,1.228-4.458,2.132c-1.682,0.905-3.102,1.713-4.264,2.423v0.194c0.128-0.063,0.354-0.178,0.678-0.34
		c0.322-0.16,0.678-0.322,1.066-0.484c0.387-0.16,0.742-0.322,1.065-0.484c0.323-0.16,0.581-0.274,0.775-0.339
		c1.485-0.582,2.956-1.163,4.409-1.745c1.454-0.581,2.923-1.129,4.41-1.647c0.322-0.129,0.662-0.226,1.018-0.291
		c0.354-0.063,0.693-0.128,1.018-0.193c0.775-0.129,1.389,0.13,1.842,0.775c0.322,0.454,0.742,1.002,1.26,1.647
		c0.193,0.259,0.322,0.598,0.387,1.018c0.064,0.421,0.146,0.841,0.242,1.26c0.098,0.421,0.227,0.792,0.389,1.114
		c0.16,0.324,0.436,0.519,0.823,0.582c0.904,0.13,1.712,0.13,2.423,0c0.711-0.129,1.454-0.322,2.229-0.582
		c1.293-0.388,2.535-0.79,3.732-1.211c1.194-0.42,2.406-0.855,3.634-1.309c0.257-0.129,0.484-0.226,0.679-0.291
		c0.193-0.063,0.419-0.128,0.678-0.193c0.451-0.129,0.775,0,0.969,0.388c0.064,0.259-0.064,0.518-0.387,0.775
		c-1.422,0.905-2.859,1.793-4.312,2.665c-1.454,0.872-3.021,1.471-4.701,1.793c-1.1,0.193-2.197,0.291-3.295,0.291
		c-1.551,0-2.633-0.452-3.246-1.357c-0.615-0.904-1.083-2.002-1.405-3.295c-0.065-0.258-0.114-0.484-0.146-0.679
		c-0.033-0.193-0.049-0.419-0.049-0.678c0-0.451-0.193-0.582-0.581-0.387c-0.646,0.193-1.294,0.371-1.938,0.532
		c-0.646,0.161-1.293,0.404-1.938,0.727c-1.745,0.712-3.49,1.438-5.234,2.181c-1.744,0.743-3.488,1.502-5.232,2.277
		c-0.582,0.193-1.18,0.388-1.793,0.581c-0.615,0.194-1.18,0.388-1.696,0.582c-0.775,0.193-1.389-0.063-1.842-0.775
		c-0.128-0.258-0.274-0.5-0.437-0.727c-0.16-0.226-0.338-0.437-0.532-0.631c-0.323-0.451-0.291-0.872,0.097-1.26
		c0.324-0.322,0.63-0.63,0.921-0.92c0.29-0.291,0.63-0.565,1.018-0.824c1.808-1.356,3.683-2.583,5.62-3.683
		c1.939-1.098,4.006-2.002,6.203-2.714c1.614-0.517,3.068-0.742,4.361-0.678c1.227,0,2.229,0.484,3.004,1.453
		c0.389,0.582,0.582,0.938,0.582,1.066c0,0.13-0.131,0.162-0.388,0.097c-0.259-0.063-0.566-0.16-0.921-0.291
		C204.47,43.247,204.13,43.182,203.808,43.182z"/>
	<path fill="#575757" d="M237.725,41.34h-0.194c-0.518-0.322-1.051-0.468-1.599-0.436c-0.55,0.033-1.114,0.146-1.696,0.339
		c-1.162,0.388-2.277,0.889-3.344,1.502c-1.065,0.615-2.116,1.309-3.148,2.084c-1.229,0.905-2.392,1.875-3.49,2.907
		c-1.099,1.034-2.1,2.197-3.004,3.489c-0.71,1.034-1.26,2.1-1.647,3.198c-0.063,0.128-0.097,0.242-0.097,0.339
		s-0.031,0.242-0.098,0.437l0.775-0.388c3.49-1.938,7.027-3.731,10.613-5.379c3.585-1.647,7.283-3.116,11.096-4.41
		c1.033-0.323,2.067-0.645,3.102-0.969c1.033-0.322,2.099-0.548,3.198-0.679c0.322-0.063,0.808-0.097,1.454-0.097
		c0.193,0,0.322,0.033,0.387,0.097c0.258,0.388,0.42,0.679,0.484,0.872c0.064,0.065,0.016,0.146-0.145,0.243
		c-0.162,0.097-0.308,0.145-0.437,0.145c-1.293,0.519-2.616,1.003-3.974,1.455c-1.356,0.453-2.682,0.904-3.973,1.355
		c-3.813,1.422-7.512,2.973-11.098,4.652s-7.123,3.489-10.611,5.427c-0.582,0.323-0.904,0.565-0.969,0.728
		c-0.064,0.16-0.064,0.597,0,1.308c0.064,0.517,0.113,0.984,0.145,1.405c0.033,0.42,0.082,0.888,0.146,1.405
		c0.388,3.036-0.872,5.04-3.779,6.009c-2.132,0.646-4.296,0.679-6.493,0.097c-0.904-0.193-1.582-0.678-2.035-1.453
		c-0.129-0.259-0.388-0.646-0.775-1.163c-0.322-0.388-0.354-0.809-0.098-1.26c0.194-0.259,0.373-0.501,0.533-0.727
		c0.162-0.228,0.34-0.437,0.533-0.631c1.1-1.034,2.214-1.954,3.344-2.762c1.131-0.809,2.343-1.599,3.635-2.374
		c0.452-0.259,0.889-0.519,1.308-0.775c0.421-0.259,0.857-0.518,1.309-0.775c0.324-0.13,0.421-0.324,0.29-0.582
		c-0.193-2.842,0.744-5.49,2.811-7.946c1.551-1.873,3.247-3.521,5.088-4.942c1.842-1.421,3.893-2.617,6.154-3.586
		c0.389-0.194,0.791-0.34,1.212-0.437c0.419-0.097,0.855-0.209,1.308-0.339c1.227-0.194,2.164,0.193,2.811,1.163
		c0.129,0.259,0.291,0.501,0.485,0.727C237.435,40.841,237.595,41.083,237.725,41.34z M217.761,59.075l-0.389,0.194
		c-0.903,0.516-1.775,1.049-2.616,1.599c-0.839,0.548-1.679,1.114-2.52,1.696c-0.646,0.451-1.26,0.952-1.841,1.502
		c-0.582,0.548-1.195,1.081-1.842,1.599c-0.129,0.129-0.226,0.243-0.291,0.34c-0.063,0.097-0.16,0.209-0.291,0.339
		c0.131,0.063,0.228,0.097,0.291,0.097c2.844,0.711,5.363,0.323,7.56-1.163c0.518-0.323,0.954-0.727,1.308-1.211
		c0.356-0.484,0.566-1.051,0.631-1.696c0.064-0.518,0.082-1.051,0.048-1.599C217.776,60.222,217.761,59.657,217.761,59.075z"/>
	<path fill="#575757" d="M278.233,44.538c0.194,0,0.355,0.065,0.485,0.194c-0.13,0.388-0.259,0.615-0.388,0.677l-5.137,2.714
		l-7.656,4.07c-0.324,0.194-0.549,0.484-0.678,0.872c-4.717,10.596-11.179,19.996-19.383,28.202
		c-1.292,1.292-2.633,2.486-4.022,3.586c-1.389,1.098-2.858,2.099-4.409,3.004c-0.775,0.517-1.566,0.937-2.375,1.26
		c-0.807,0.323-1.662,0.549-2.568,0.679c-1.227,0.194-2.131-0.193-2.713-1.163c-0.193-0.324-0.371-0.63-0.533-0.921
		c-0.16-0.29-0.306-0.598-0.436-0.92c-0.323-0.582-0.451-1.163-0.389-1.745c0.065-0.581,0.194-1.196,0.389-1.841
		c0.387-1.293,0.938-2.505,1.646-3.635c0.713-1.131,1.52-2.245,2.424-3.343c1.809-2.457,3.764-4.734,5.863-6.833
		c2.1-2.101,4.312-4.119,6.639-6.057c2.906-2.456,5.814-4.734,8.722-6.833c2.907-2.1,6.009-4.085,9.304-5.96
		c0.063-0.063,0.129-0.112,0.193-0.146c0.064-0.031,0.129-0.112,0.194-0.242l2.132-5.524c-0.13-0.128-0.372-0.097-0.727,0.098
		c-0.355,0.193-0.695,0.355-1.018,0.484l-7.269,4.167c-1.551,0.841-3.101,1.647-4.651,2.423s-3.167,1.422-4.846,1.938
		c-0.453,0.129-0.873,0.226-1.26,0.291c-0.389,0.063-0.775,0.128-1.164,0.193c-0.645,0.063-1.129-0.193-1.453-0.775
		c-0.193-0.388-0.388-0.742-0.582-1.065c-0.387-0.711-0.516-1.261-0.387-1.647l0.096-0.194c0.582-1.163,1.164-2.181,1.745-3.053
		c0.581-0.871,1.227-1.663,1.938-2.374c0.71-0.711,1.453-1.406,2.229-2.084s1.648-1.469,2.617-2.374
		c0.322-0.258,0.693-0.533,1.114-0.824c0.419-0.291,0.79-0.5,1.114-0.63c0.517-0.193,0.936-0.063,1.26,0.388
		c0.322,0.453,0.42,0.841,0.291,1.163c0.064,0.065,0,0.179-0.193,0.339c-0.194,0.162-0.422,0.34-0.679,0.533
		c-0.259,0.193-0.533,0.388-0.823,0.581c-0.291,0.194-0.533,0.356-0.728,0.485c-0.841,0.775-1.567,1.453-2.181,2.035
		c-0.615,0.582-1.18,1.148-1.695,1.695c-0.518,0.55-1.003,1.132-1.454,1.745c-0.452,0.614-0.938,1.373-1.454,2.277
		c-0.13,0.193-0.259,0.452-0.387,0.775c-0.131,0.324,0.062,0.388,0.581,0.193c1.163-0.388,2.292-0.839,3.392-1.356
		c1.098-0.517,2.195-1.033,3.295-1.551l7.27-3.683c0.257-0.063,0.709-0.291,1.355-0.679s1.324-0.759,2.036-1.114
		c0.71-0.354,1.388-0.646,2.035-0.872c0.646-0.226,1.098-0.209,1.356,0.048l1.454,2.229c0.063,0.13,0.032,0.372-0.097,0.726
		c-0.131,0.357-0.275,0.762-0.437,1.213c-0.162,0.451-0.324,0.888-0.485,1.307c-0.161,0.422-0.275,0.761-0.338,1.018l0.581-0.29
		c1.227-0.582,2.423-1.146,3.585-1.696c1.164-0.547,2.391-0.985,3.684-1.309c0.71-0.193,1.389-0.354,2.035-0.484
		C276.94,44.797,277.587,44.669,278.233,44.538z M260.983,55.489c0-0.13,0.016-0.227,0.049-0.29c0.031-0.065,0.08-0.162,0.145-0.291
		l-0.484,0.291c-3.812,2.454-7.462,5.039-10.951,7.753c-3.488,2.713-6.848,5.685-10.079,8.916c-1.42,1.485-2.762,2.987-4.021,4.506
		c-1.261,1.518-2.438,3.117-3.538,4.798c-0.516,0.839-0.984,1.662-1.404,2.471c-0.42,0.808-0.76,1.663-1.018,2.568
		c-0.129,0.646-0.161,1.018-0.098,1.115c0.065,0.097,0.453,0.111,1.163,0.048c0.712-0.065,1.374-0.227,1.987-0.484
		c0.614-0.259,1.244-0.55,1.89-0.872c3.038-1.681,5.911-3.845,8.625-6.493c3.683-3.555,6.978-7.334,9.886-11.339
		C256.04,64.179,258.657,59.947,260.983,55.489z"/>
</g>
</svg>
