<?xml version="1.0" encoding="utf-8"?>
<!-- Generator: Adobe Illustrator 16.0.0, SVG Export Plug-In . SVG Version: 6.00 Build 0)  -->
<!DOCTYPE svg PUBLIC "-//W3C//DTD SVG 1.1//EN" "http://www.w3.org/Graphics/SVG/1.1/DTD/svg11.dtd">
<svg version="1.1" id="圖層_1" xmlns="http://www.w3.org/2000/svg" xmlns:xlink="http://www.w3.org/1999/xlink" x="0px" y="0px"
	 width="158px" height="82px" viewBox="0 0 158 82" enable-background="new 0 0 158 82" xml:space="preserve">
<g>
	<g enable-background="new    ">
		<path fill="#575757" d="M9.86,56.174c-0.17-0.114-0.34-0.255-0.51-0.425s-0.199-0.397-0.085-0.68
			c0.056-0.34,0.268-0.78,0.637-1.317c0.368-0.54,0.778-1.077,1.232-1.615c0.453-0.539,0.893-1.062,1.318-1.572
			c0.425-0.511,0.75-0.907,0.978-1.19c1.02-1.247,1.968-2.38,2.847-3.4c0.878-1.02,1.728-2.025,2.55-3.018
			c0.821-0.99,1.67-1.997,2.55-3.017c0.878-1.021,1.828-2.125,2.848-3.315c4.193-4.93,8.315-9.788,12.367-14.577
			c4.051-4.788,8.4-9.421,13.048-13.897c0.793-0.681,1.572-1.346,2.337-1.998c0.765-0.65,1.543-1.317,2.337-1.997
			c0.17-0.226,0.354-0.411,0.553-0.553c0.198-0.141,0.41-0.269,0.637-0.383c0.226-0.17,0.425-0.085,0.595,0.255
			c0.113,0.284,0.226,0.582,0.34,0.893c0.113,0.312,0.226,0.61,0.34,0.893c0,0.228-0.029,0.369-0.085,0.425
			c-0.51,0.567-1.006,1.135-1.487,1.7c-0.482,0.567-1.035,1.077-1.658,1.53c-0.34,0.284-0.667,0.595-0.978,0.935
			c-0.312,0.341-0.637,0.681-0.977,1.021c-0.455,0.454-0.935,0.922-1.445,1.402c-0.51,0.482-0.992,0.949-1.445,1.402
			c-0.625,0.567-1.205,1.19-1.743,1.87c-0.539,0.68-1.035,1.417-1.487,2.21l-0.255,0.255c-0.114-0.226-0.213-0.453-0.298-0.68
			c-0.085-0.226-0.072-0.51,0.042-0.85c-0.284,0.284-0.539,0.552-0.765,0.807c-0.228,0.256-0.482,0.525-0.765,0.808
			c-3.174,3.457-6.192,6.999-9.053,10.625c-2.862,3.627-5.822,7.197-8.882,10.71c-0.907,1.135-1.757,2.154-2.55,3.061
			c-0.794,0.907-1.56,1.8-2.295,2.678c-0.737,0.879-1.502,1.771-2.295,2.677c-0.794,0.906-1.644,1.926-2.55,3.061
			c-0.284,0.396-0.582,0.778-0.893,1.147c-0.312,0.367-0.609,0.778-0.893,1.232c-0.34,0.51-0.609,0.905-0.808,1.189
			c-0.199,0.283-0.369,0.538-0.51,0.766c-0.142,0.226-0.212,0.367-0.212,0.425c1.19-0.17,2.167-0.312,2.933-0.425
			c0.765-0.114,1.487-0.228,2.167-0.34c0.68-0.114,1.105-0.17,1.275-0.17c4.136-0.567,8.117-1.021,11.942-1.36
			s7.578-0.609,11.263-0.808c3.683-0.199,7.31-0.369,10.88-0.51c3.57-0.143,7.196-0.354,10.88-0.638c0.51,0,1.02,0.042,1.53,0.128
			c0.51,0.085,0.991,0.155,1.445,0.212c0.736,0,1.275,0.34,1.615,1.021c0.113,0.282,0.226,0.51,0.34,0.68
			c0.113,0.17,0.226,0.368,0.34,0.595c-0.057,0-0.1,0.014-0.127,0.043c-0.029,0.027-0.072,0.042-0.127,0.042
			c-9.69-0.284-19.479,0-29.368,0.851c-9.889,0.85-19.337,1.926-28.348,3.229c-0.17,0-0.609,0.056-1.317,0.17
			c-0.709,0.113-1.487,0.24-2.337,0.383c-0.85,0.141-1.629,0.269-2.337,0.383c-0.709,0.112-1.147,0.17-1.317,0.17
			c-0.284,0-0.425-0.085-0.425-0.255c-0.114-0.228-0.185-0.455-0.212-0.681c-0.029-0.227-0.072-0.454-0.127-0.68
			c-0.114-0.228,0-0.34,0.34-0.34c0.226-0.058,0.651-0.128,1.275-0.213c0.623-0.085,1.275-0.185,1.955-0.297
			c0.68-0.114,1.331-0.228,1.955-0.341C9.208,56.399,9.633,56.287,9.86,56.174z"/>
		<path fill="#575757" d="M78.199,36.964c-0.397,0.058-0.709,0.114-0.935,0.17c-0.228,0.058-0.567,0.114-1.02,0.17
			c0.17,0.511,0.438,0.907,0.807,1.19c0.368,0.284,0.75,0.482,1.147,0.595c2.266,0.624,4.278,0.808,6.035,0.553
			c1.756-0.255,3.626-0.58,5.609-0.978c0.793-0.17,1.602-0.383,2.424-0.638c0.82-0.255,1.627-0.495,2.422-0.723
			c0.113-0.056,0.255-0.085,0.425-0.085c0.453,0,0.708,0.228,0.765,0.681c0.057,0.396-0.084,0.651-0.424,0.765
			c-1.021,0.567-2.041,0.964-3.061,1.19c-1.53,0.566-3.103,1.049-4.718,1.444c-1.614,0.397-3.272,0.624-4.972,0.681
			c-0.795,0.057-1.588,0.042-2.381-0.043c-0.794-0.085-1.587-0.269-2.38-0.553h-0.255c-0.34,1.305-0.893,2.295-1.658,2.976
			c-0.765,0.68-1.572,1.304-2.422,1.87c-1.36,0.85-2.564,1.415-3.612,1.699c-1.049,0.283-2.31,0.538-3.783,0.766
			c-0.454,0-0.922,0-1.402,0c-0.482,0-0.95-0.058-1.403-0.17c-0.284-0.17-0.538-0.327-0.765-0.468
			c-0.226-0.143-0.396-0.354-0.51-0.638c-0.113-0.226-0.24-0.438-0.382-0.638c-0.141-0.197-0.269-0.382-0.382-0.552
			c-0.396-0.566-0.425-1.246-0.085-2.04c0.17-0.511,0.397-0.963,0.68-1.36c0.284-0.396,0.595-0.793,0.935-1.19
			c1.246-1.189,2.393-2.152,3.442-2.89c1.048-0.735,2.337-1.473,3.868-2.21c1.133-0.453,2.28-0.893,3.442-1.317
			c1.161-0.425,2.337-0.638,3.527-0.638c0.68,0.114,1.148,0.298,1.403,0.553s0.523,0.779,0.808,1.572c0,0.624-0.1,0.85-0.298,0.68
			C78.893,37.219,78.595,37.078,78.199,36.964z M62.56,46.484c0.17,0,0.312,0.029,0.425,0.085c0.113,0.057,0.226,0.085,0.34,0.085
			c1.133,0.114,2.323,0.042,3.57-0.213c1.246-0.255,2.45-0.638,3.612-1.147c1.161-0.51,2.223-1.147,3.188-1.912
			c0.963-0.766,1.728-1.629,2.295-2.593c0.17-0.34,0.113-0.778-0.17-1.317c-0.284-0.538-0.482-0.978-0.595-1.317
			c-0.17-0.34-0.37-0.425-0.595-0.255c-1.134,0.396-2.097,0.736-2.89,1.02c-0.794,0.284-1.729,0.794-2.805,1.53
			c-0.964,0.567-1.842,1.162-2.635,1.785c-0.794,0.624-1.587,1.332-2.38,2.125c-0.284,0.284-0.539,0.595-0.765,0.935
			C62.927,45.634,62.729,46.031,62.56,46.484z"/>
		<path fill="#575757" d="M104.633,40.279c-0.283,0.114-0.539,0.199-0.765,0.255c-0.228,0.057-0.481,0.142-0.765,0.255
			c-0.965,0.51-1.928,1.02-2.891,1.53c-0.964,0.51-1.955,1.02-2.975,1.529c-1.359,0.737-2.721,1.445-4.08,2.125
			c-1.359,0.681-2.777,1.247-4.25,1.7c-0.396,0.113-0.766,0.198-1.105,0.255c-0.34,0.056-0.68,0.113-1.02,0.17
			c-0.566,0.057-0.99-0.17-1.275-0.68c-0.112-0.283-0.24-0.523-0.383-0.723c-0.141-0.197-0.268-0.41-0.382-0.638
			c-0.282-0.396-0.282-0.82,0-1.274c0.228-0.283,0.425-0.58,0.595-0.893c0.17-0.311,0.397-0.608,0.68-0.893
			c1.701-1.7,3.541-3.131,5.525-4.293c1.982-1.16,4.137-1.997,6.461-2.507c0.34-0.113,0.68-0.17,1.02-0.17s0.65,0,0.935,0
			c1.076,0.057,1.841,0.595,2.296,1.614c0.282,0.681,0.734,0.907,1.359,0.681c0.453-0.226,0.85-0.085,1.189,0.425
			c0.17,0.284,0.368,0.595,0.596,0.935c0.226,0.341,0.453,0.681,0.68,1.021c0.113,0.284,0.155,0.567,0.127,0.85
			c-0.029,0.284-0.071,0.567-0.127,0.851c0,0.114-0.057,0.396-0.17,0.85c0.113-0.056,0.197-0.099,0.255-0.127
			c0.056-0.028,0.142-0.071,0.255-0.128c1.076-0.51,2.125-1.006,3.145-1.487c1.021-0.481,2.097-0.863,3.23-1.147
			c0.623-0.17,1.219-0.311,1.785-0.425c0.566-0.113,1.133-0.227,1.7-0.341c0.17,0,0.311,0.058,0.425,0.17
			c-0.114,0.341-0.227,0.54-0.34,0.596c-0.737,0.396-1.475,0.779-2.21,1.147c-0.737,0.369-1.503,0.779-2.295,1.232
			c-1.134,0.624-2.253,1.219-3.358,1.785c-1.104,0.566-2.225,1.162-3.357,1.785c-0.283,0.17-0.481,0.425-0.594,0.765
			c-4.138,9.293-9.805,17.538-17,24.735c-1.133,1.133-2.309,2.181-3.528,3.145c-1.218,0.963-2.507,1.841-3.867,2.635
			c-0.68,0.453-1.374,0.821-2.083,1.105c-0.708,0.282-1.458,0.48-2.252,0.595c-1.076,0.17-1.87-0.17-2.38-1.02
			c-0.17-0.284-0.325-0.553-0.467-0.808c-0.141-0.255-0.268-0.524-0.382-0.808c-0.283-0.51-0.396-1.021-0.34-1.53
			c0.057-0.51,0.17-1.049,0.34-1.615c0.34-1.134,0.822-2.196,1.445-3.188c0.624-0.992,1.332-1.97,2.125-2.933
			c1.587-2.153,3.302-4.151,5.143-5.992c1.842-1.842,3.782-3.612,5.822-5.312c2.551-2.154,5.1-4.151,7.65-5.992
			c2.55-1.842,5.27-3.583,8.16-5.228c0.055-0.056,0.112-0.099,0.17-0.128c0.056-0.027,0.113-0.098,0.17-0.212
			c0.226-0.623,0.453-1.261,0.68-1.913c0.227-0.65,0.453-1.288,0.68-1.912V40.279z M101.318,48.694
			c-0.114,0.112-0.199,0.17-0.256,0.17s-0.113,0.027-0.17,0.085c-3.344,2.152-6.545,4.42-9.604,6.8s-6.006,4.985-8.84,7.82
			c-1.245,1.303-2.423,2.62-3.527,3.952c-1.105,1.331-2.139,2.733-3.103,4.208c-0.453,0.735-0.863,1.458-1.232,2.167
			c-0.368,0.708-0.666,1.458-0.893,2.253c-0.113,0.565-0.141,0.893-0.085,0.978c0.057,0.085,0.397,0.098,1.02,0.042
			c0.624-0.057,1.205-0.199,1.742-0.425c0.54-0.228,1.092-0.482,1.658-0.765c2.664-1.475,5.185-3.373,7.565-5.695
			c3.229-3.117,6.119-6.433,8.67-9.945c2.549-3.514,4.845-7.225,6.885-11.135c0-0.114,0.014-0.199,0.043-0.255
			C101.219,48.892,101.262,48.807,101.318,48.694z M86.698,45.719c0,0.058,0.029,0.085,0.085,0.085c0.34-0.112,0.623-0.17,0.85-0.17
			c1.021-0.34,2.012-0.735,2.976-1.189c0.963-0.453,1.926-0.906,2.89-1.36c1.473-0.735,2.945-1.473,4.42-2.21
			c1.473-0.735,2.945-1.501,4.42-2.295c-0.17-0.113-0.425-0.226-0.765-0.34c-0.851-0.226-1.785-0.198-2.806,0.085
			c-2.154,0.624-4.122,1.474-5.906,2.55c-1.785,1.077-3.5,2.353-5.143,3.825c-0.228,0.17-0.412,0.34-0.553,0.51
			C87.023,45.379,86.868,45.549,86.698,45.719z"/>
		<path fill="#575757" d="M124.437,33.649c-0.34,0.284-0.681,0.566-1.021,0.85c-0.34,0.284-0.68,0.567-1.02,0.85
			c-1.305,1.135-2.537,2.31-3.697,3.528c-1.162,1.219-2.253,2.507-3.273,3.867c-0.283,0.284-0.51,0.595-0.68,0.935
			s-0.369,0.681-0.595,1.021c-0.114,0.114-0.198,0.284-0.255,0.51c0.566,0,0.963-0.028,1.189-0.085
			c1.133-0.283,2.238-0.638,3.315-1.062c1.075-0.425,2.153-0.863,3.229-1.317l5.61-2.55c0.565-0.227,0.991-0.368,1.275-0.426
			c0.226,0,0.396,0.086,0.51,0.256c0.112,0.114,0.198,0.227,0.255,0.34c0.057,0.114,0,0.255-0.17,0.425
			c-0.34,0.34-0.595,0.567-0.765,0.68c-1.645,1.135-3.315,2.14-5.015,3.018c-1.701,0.88-3.485,1.63-5.355,2.253
			c-0.795,0.284-1.56,0.454-2.295,0.51c-1.135,0.17-1.926-0.17-2.381-1.02c-0.225-0.341-0.51-0.736-0.85-1.19
			c-0.283-0.453-0.34-0.878-0.17-1.275c0.228-0.735,0.482-1.33,0.766-1.784c0.68-1.134,1.473-2.211,2.379-3.23
			s1.842-1.982,2.806-2.89c0.623-0.623,1.245-1.19,1.87-1.7c0.623-0.51,1.246-1.021,1.87-1.53l0.17-0.17
			c0.452-0.283,0.793-0.396,1.021-0.34c0.225,0.057,0.48,0.312,0.764,0.765c0.113,0.114,0.199,0.242,0.256,0.383
			C124.237,33.408,124.322,33.536,124.437,33.649z M133.616,24.979c-0.057,0.113-0.114,0.255-0.17,0.425
			c-0.058,0.17-0.142,0.312-0.255,0.425c-0.454,0.68-0.978,1.289-1.572,1.827c-0.596,0.539-1.232,1.035-1.912,1.487
			c-0.455,0.285-0.908,0.553-1.36,0.808c-0.454,0.255-0.907,0.525-1.36,0.808c-0.284,0.17-0.566,0.185-0.85,0.043
			c-0.285-0.141-0.455-0.41-0.51-0.808c0-0.113,0.042-0.213,0.127-0.298s0.184-0.183,0.297-0.297
			c0.341-0.283,0.693-0.566,1.062-0.851c0.369-0.282,0.693-0.565,0.979-0.85c0.51-0.453,1.005-0.936,1.487-1.445
			c0.48-0.51,0.948-0.99,1.402-1.445c0.282-0.17,0.311-0.425,0.085-0.765c-0.17-0.17-0.242-0.298-0.213-0.383
			c0.028-0.085,0.128-0.183,0.298-0.297c0.112-0.056,0.184-0.113,0.212-0.17c0.028-0.056,0.1-0.113,0.213-0.17
			c0.227-0.341,0.453-0.396,0.68-0.17c0.227,0.284,0.439,0.566,0.639,0.85c0.197,0.284,0.41,0.567,0.637,0.85
			C133.588,24.611,133.616,24.753,133.616,24.979z"/>
		<path fill="#575757" d="M144.496,45.124c0.453-0.17,0.92-0.368,1.402-0.595c0.48-0.226,0.921-0.396,1.318-0.511
			c0.452-0.17,1.033-0.425,1.742-0.765c0.707-0.34,1.43-0.68,2.167-1.02c0.735-0.341,1.458-0.681,2.168-1.021
			c0.708-0.34,1.288-0.595,1.742-0.765c0.056-0.056,0.099-0.085,0.128-0.085c0.027,0,0.07-0.028,0.127-0.085
			c0.51-0.113,0.82,0.029,0.936,0.425c0,0.114-0.029,0.199-0.086,0.255c-0.283,0.17-0.566,0.354-0.85,0.553
			c-0.284,0.199-0.566,0.382-0.85,0.553c-0.625,0.284-1.347,0.666-2.168,1.147c-0.822,0.481-1.672,0.978-2.55,1.487
			c-0.879,0.51-1.714,0.978-2.507,1.402c-0.795,0.425-1.445,0.723-1.955,0.893c-0.625,0.227-1.062,0.241-1.318,0.042
			c-0.255-0.197-0.524-0.522-0.807-0.978c-0.34-0.565-0.455-1.09-0.34-1.572c0.112-0.48,0.34-1.203,0.68-2.167
			c0.283-0.736,0.51-1.346,0.68-1.828c0.17-0.48,0.367-1.062,0.595-1.742c0.171-0.453,0.043-0.665-0.382-0.638
			c-0.426,0.029-0.992,0.199-1.7,0.51c-0.71,0.312-1.517,0.71-2.423,1.19c-0.907,0.482-1.757,0.922-2.55,1.317
			c-0.851,0.454-1.517,0.794-1.997,1.021c-0.482,0.227-0.922,0.454-1.318,0.68c-0.396,0.227-0.822,0.468-1.274,0.723
			c-0.454,0.255-1.077,0.581-1.87,0.978c-0.625,0.396-1.305,0.765-2.04,1.104c-0.737,0.34-1.445,0.709-2.125,1.105
			c-0.284,0.057-0.511,0.17-0.681,0.34c-0.453,0.17-0.722,0.226-0.807,0.17c-0.086-0.056-0.186-0.255-0.298-0.595
			c-0.114-0.17-0.212-0.34-0.298-0.511c-0.084-0.17-0.154-0.34-0.212-0.51c-0.17-0.282-0.142-0.65,0.085-1.104
			c0.396-0.793,0.878-1.559,1.445-2.295c2.096-2.833,4.334-5.383,6.715-7.65c0.396-0.283,0.75-0.553,1.062-0.808
			c0.311-0.255,0.665-0.523,1.062-0.808c0.453-0.282,0.735-0.255,0.85,0.085c0.283,0.397,0.396,0.681,0.34,0.851
			s-0.312,0.454-0.765,0.85c-1.474,1.36-2.835,2.805-4.08,4.335c-1.247,1.53-2.522,3.061-3.825,4.59
			c-0.114,0.114-0.227,0.255-0.34,0.426c0.34-0.171,0.596-0.283,0.766-0.341c1.529-0.85,3.072-1.699,4.632-2.55
			c1.558-0.85,3.158-1.671,4.803-2.465c1.585-0.735,2.86-1.288,3.825-1.657c0.963-0.368,1.926-0.581,2.89-0.638
			c0.905,0,1.516,0.468,1.827,1.402c0.311,0.936,0.383,1.742,0.213,2.423c-0.17,0.624-0.439,1.417-0.808,2.38
			C145.104,43.623,144.779,44.444,144.496,45.124z"/>
	</g>
</g>
</svg>
