<?xml version="1.0" encoding="utf-8"?>
<!-- Generator: Adobe Illustrator 16.0.0, SVG Export Plug-In . SVG Version: 6.00 Build 0)  -->
<!DOCTYPE svg PUBLIC "-//W3C//DTD SVG 1.1//EN" "http://www.w3.org/Graphics/SVG/1.1/DTD/svg11.dtd">
<svg version="1.1" id="圖層_1" xmlns="http://www.w3.org/2000/svg" xmlns:xlink="http://www.w3.org/1999/xlink" x="0px" y="0px"
	 width="362px" height="160px" viewBox="0 0 362 160" enable-background="new 0 0 362 160" xml:space="preserve">
<rect x="15" y="15.333" fill="#F8D9D7" width="347" height="49"/>
<rect x="15" y="86.333" fill="#F8D9D7" width="242" height="49"/>
<g enable-background="new    ">
	<path fill="#575757" d="M2.068,57.829c-0.517-0.23-0.791-0.661-0.819-1.292c-0.03-0.633,0.071-1.336,0.302-2.111
		c0.229-0.776,0.53-1.566,0.905-2.37c0.373-0.805,0.674-1.494,0.905-2.068c1.838-4.365,4.05-8.617,6.635-12.753
		c1.493-2.7,3.087-5.328,4.782-7.885c1.694-2.556,3.49-5.128,5.386-7.713c2.413-3.562,4.912-6.836,7.497-9.823
		c2.585-2.986,5.141-5.975,7.669-8.962c0.229-0.287,0.53-0.502,0.905-0.646c0.373-0.143,0.703,0.015,0.991,0.474
		c0.115-0.114,0.259-0.286,0.431-0.517c0.172-0.229,0.431-0.373,0.775-0.431c0.345-0.057,0.703-0.043,1.077,0.043
		c0.373,0.086,0.646,0.245,0.819,0.474c-1.15,3.16-2.313,6.392-3.49,9.694c-1.178,3.305-2.227,6.579-3.145,9.824
		c-0.92,3.246-1.652,6.406-2.197,9.479c-0.547,3.074-0.733,5.961-0.561,8.66c0.057,0.461,0.143,0.92,0.259,1.379
		c0.114,0.461,0.315,0.948,0.603,1.465c0.287,0.461,0.689,0.661,1.207,0.604c0.689-0.114,1.392-0.345,2.111-0.689
		c0.717-0.345,1.45-0.689,2.197-1.034c3.906-1.896,7.798-4.137,11.676-6.722s7.712-5.371,11.504-8.358
		c3.792-2.986,7.497-6.075,11.116-9.264s7.094-6.304,10.427-9.35c0.459-0.517,0.905-1.02,1.336-1.508
		c0.431-0.487,0.818-1.02,1.163-1.595c0.172-0.345,0.33-0.459,0.474-0.345c0.143,0.116,0.272,0.202,0.388,0.259
		c0.057-0.057,0.114-0.086,0.172-0.086c0.057,0,0.114-0.028,0.172-0.086c0.229-0.287,0.588-0.689,1.077-1.207
		c0.487-0.517,0.991-1.004,1.508-1.465c0.517-0.459,1.004-0.832,1.465-1.12c0.459-0.287,0.833-0.314,1.121-0.086
		c0,0.058,0.086,0.172,0.258,0.345c-0.345,0.402-0.762,0.904-1.25,1.508c-0.489,0.604-1.006,1.25-1.551,1.938
		c-0.546,0.689-1.12,1.395-1.723,2.111c-0.603,0.72-1.193,1.365-1.767,1.939c-0.46,0.633-0.935,1.279-1.422,1.938
		c-0.489,0.661-0.962,1.308-1.422,1.939c-5.4,7.296-10.34,14.793-14.821,22.49c-1.724,2.874-3.391,5.702-4.998,8.488
		c-1.609,2.787-3.247,5.616-4.912,8.488c-0.747,1.32-1.538,2.871-2.37,4.653c-0.833,1.779-1.609,3.503-2.327,5.17
		c-0.719,1.665-1.307,3.103-1.767,4.309c-0.46,1.206-0.661,1.896-0.603,2.068c0.114,0.172,0.201,0.314,0.258,0.431
		c0.057,0.114,0.229,0.229,0.517,0.345c0.287,0.172,0.416,0.302,0.388,0.388c-0.029,0.086-0.144,0.143-0.344,0.172
		c-0.202,0.028-0.446,0-0.733-0.086c-0.288-0.086-0.546-0.215-0.775-0.388c-0.689-0.46-1.021-1.221-0.991-2.283
		c0.028-1.063,0.186-1.911,0.474-2.542c1.148-3.447,2.614-6.952,4.395-10.514c1.78-3.561,3.676-7.036,5.687-10.427
		c2.01-3.389,4.05-6.663,6.119-9.823c2.068-3.159,3.964-6.089,5.687-8.79c0.689-1.148,1.564-2.483,2.628-4.007
		c1.062-1.521,1.967-2.856,2.714-4.007c0.057-0.057,0.1-0.157,0.129-0.302c0.028-0.143-0.015-0.157-0.129-0.043
		c-1.322,1.265-2.973,2.787-4.955,4.567c-1.982,1.781-4.179,3.662-6.592,5.645c-2.413,1.981-4.927,3.979-7.54,5.988
		c-2.615,2.012-5.185,3.893-7.712,5.645c-2.529,1.753-4.955,3.289-7.282,4.61c-2.327,1.322-4.381,2.24-6.161,2.758
		c-0.633,0.229-1.379,0.187-2.241-0.13c-0.862-0.314-1.609-0.616-2.24-0.904c-1.034-0.401-1.767-1.293-2.197-2.672
		c-0.431-1.379-0.661-3.029-0.689-4.955c-0.03-1.924,0.1-4.05,0.388-6.376c0.287-2.327,0.689-4.639,1.207-6.938
		c0.517-2.297,1.09-4.494,1.723-6.592c0.631-2.097,1.263-3.892,1.896-5.386c0.172-0.632,0.373-1.22,0.603-1.767
		c0.229-0.545,0.431-1.077,0.603-1.594c-0.23,0.288-0.431,0.517-0.603,0.688C34.296,8.97,34.066,9.2,33.779,9.486
		c-0.633,0.862-1.378,1.81-2.24,2.844s-1.738,2.083-2.628,3.146c-0.891,1.063-1.767,2.126-2.628,3.188
		c-0.861,1.063-1.609,2.055-2.24,2.973c-1.551,2.012-3.016,4.007-4.395,5.989c-1.379,1.981-2.758,4.064-4.137,6.247
		c-2.471,3.85-4.782,7.57-6.937,11.159c-2.154,3.592-3.921,7.368-5.3,11.332c-0.23,0.573-0.258,1.034-0.086,1.379
		c0,0.057-0.086,0.143-0.259,0.259C2.757,58.116,2.469,58.059,2.068,57.829z"/>
	<path fill="#575757" d="M80.657,36.459c-0.345,0.288-0.689,0.574-1.034,0.861c-0.345,0.288-0.689,0.575-1.034,0.861
		c-1.322,1.15-2.572,2.342-3.749,3.576c-1.178,1.236-2.284,2.542-3.318,3.921c-0.288,0.288-0.517,0.604-0.689,0.948
		s-0.374,0.689-0.603,1.034c-0.116,0.115-0.201,0.288-0.258,0.517c0.573,0,0.976-0.028,1.206-0.086
		c1.148-0.287,2.269-0.646,3.361-1.077c1.091-0.431,2.183-0.875,3.274-1.336l5.688-2.585c0.574-0.229,1.004-0.373,1.292-0.431
		c0.229,0,0.401,0.086,0.517,0.259c0.114,0.115,0.201,0.229,0.258,0.345c0.057,0.115,0,0.258-0.172,0.431
		c-0.344,0.345-0.603,0.574-0.775,0.689c-1.667,1.149-3.361,2.169-5.084,3.059c-1.724,0.892-3.533,1.652-5.429,2.284
		c-0.805,0.288-1.581,0.46-2.327,0.517c-1.15,0.172-1.953-0.172-2.413-1.034c-0.229-0.345-0.517-0.746-0.862-1.206
		c-0.287-0.459-0.345-0.891-0.172-1.293c0.23-0.746,0.489-1.349,0.776-1.81c0.689-1.148,1.493-2.24,2.413-3.274
		c0.918-1.034,1.866-2.01,2.844-2.93c0.631-0.632,1.263-1.207,1.896-1.724c0.631-0.517,1.263-1.034,1.896-1.551l0.172-0.173
		c0.459-0.286,0.804-0.401,1.034-0.345c0.229,0.059,0.487,0.316,0.775,0.775c0.115,0.116,0.201,0.245,0.259,0.388
		C80.455,36.215,80.542,36.344,80.657,36.459z M89.964,27.669c-0.058,0.116-0.116,0.259-0.172,0.431
		c-0.058,0.173-0.144,0.316-0.258,0.431c-0.461,0.689-0.991,1.308-1.594,1.854c-0.604,0.546-1.25,1.049-1.939,1.508
		c-0.46,0.288-0.92,0.56-1.379,0.818c-0.46,0.259-0.919,0.532-1.379,0.818c-0.288,0.173-0.575,0.188-0.861,0.044
		c-0.288-0.144-0.46-0.416-0.517-0.819c0-0.114,0.043-0.215,0.129-0.302c0.086-0.086,0.186-0.186,0.301-0.301
		c0.345-0.287,0.703-0.574,1.077-0.862c0.373-0.287,0.703-0.573,0.991-0.861c0.517-0.459,1.019-0.948,1.508-1.465
		c0.487-0.518,0.961-1.005,1.422-1.465c0.287-0.173,0.315-0.432,0.086-0.776c-0.172-0.172-0.245-0.301-0.216-0.388
		c0.028-0.086,0.129-0.186,0.302-0.301c0.114-0.057,0.186-0.115,0.215-0.173c0.028-0.057,0.1-0.114,0.215-0.172
		c0.229-0.345,0.459-0.401,0.689-0.173c0.229,0.288,0.444,0.575,0.646,0.861c0.201,0.289,0.416,0.575,0.646,0.862
		C89.934,27.296,89.964,27.44,89.964,27.669z"/>
	<path fill="#575757" d="M126.586,18.276c-0.46,0.46-0.876,0.892-1.25,1.293c-0.375,0.402-0.762,0.833-1.164,1.292
		c-2.471,2.471-4.97,4.869-7.497,7.195c-2.529,2.327-5.084,4.64-7.669,6.937c-1.15,0.978-2.356,1.939-3.619,2.888
		c-1.265,0.947-2.499,1.91-3.706,2.887c-0.23,0.172-0.517,0.488-0.862,0.947c-0.517,0.747-1.006,1.495-1.465,2.24
		c-0.46,0.748-0.833,1.552-1.12,2.413c-0.058,0.23-0.101,0.431-0.129,0.604c-0.03,0.172-0.073,0.374-0.129,0.604
		c-0.058,0.402,0.115,0.633,0.517,0.688c0.976,0.173,1.953,0.173,2.93,0c1.09-0.229,2.139-0.517,3.145-0.861
		c1.004-0.345,1.996-0.718,2.973-1.12c0.689-0.287,1.364-0.545,2.025-0.775c0.66-0.229,1.335-0.487,2.025-0.775
		c0.345-0.115,0.588-0.1,0.732,0.043c0.143,0.144,0.272,0.359,0.388,0.646c0.057,0.172-0.029,0.374-0.258,0.603
		c-0.517,0.288-1.021,0.604-1.508,0.948c-0.489,0.345-1.021,0.661-1.594,0.948c-1.092,0.574-2.198,1.063-3.318,1.465
		c-1.12,0.402-2.283,0.689-3.49,0.861c-0.46,0.114-0.948,0.172-1.465,0.172s-1.006-0.058-1.465-0.172
		c-0.747-0.172-1.322-0.573-1.723-1.206c-0.172-0.229-0.345-0.46-0.517-0.689s-0.345-0.487-0.517-0.775
		c-0.288-0.401-0.431-0.819-0.431-1.25s0.056-0.875,0.172-1.336c0.114-0.345,0.201-0.631,0.258-0.861l-0.517,0.345
		c-1.495,0.978-3.031,1.926-4.61,2.844c-1.581,0.92-3.204,1.724-4.869,2.413c-0.633,0.229-1.25,0.431-1.853,0.603
		c-0.603,0.173-1.221,0.287-1.853,0.345c-1.15,0.173-1.953-0.172-2.413-1.034c-0.114-0.172-0.229-0.345-0.345-0.517
		c-0.114-0.173-0.229-0.345-0.345-0.518c-0.401-0.459-0.459-1.033-0.172-1.723c0.23-0.46,0.504-0.862,0.819-1.207
		c0.316-0.345,0.646-0.659,0.991-0.947c3.619-2.931,7.611-4.769,11.978-5.516c0.287-0.114,0.604-0.157,0.948-0.129
		c0.345,0.029,0.689,0.043,1.034,0.043c0.804,0.116,1.407,0.489,1.81,1.12l0.345,0.345c0.401-0.287,0.789-0.545,1.164-0.775
		c0.373-0.229,0.703-0.573,0.991-1.034c1.149-1.493,2.34-2.915,3.576-4.266c1.235-1.349,2.542-2.685,3.921-4.007
		c2.241-2.068,4.552-4.05,6.937-5.946c2.383-1.896,4.839-3.705,7.368-5.429c0.517-0.345,1.034-0.689,1.551-1.034
		c0.517-0.345,1.034-0.659,1.551-0.947c0.345-0.173,0.574-0.244,0.689-0.216c0.114,0.03,0.287,0.188,0.517,0.475
		C126.125,17.645,126.298,17.932,126.586,18.276z M96.943,41.198c0-0.114-0.03-0.201-0.086-0.259
		c-0.402,0.058-0.791,0.101-1.163,0.129c-0.375,0.03-0.791,0.102-1.25,0.216c-1.667,0.288-3.231,0.762-4.697,1.422
		c-1.465,0.661-2.916,1.451-4.352,2.37c-0.633,0.402-1.236,0.818-1.81,1.249c-0.575,0.431-1.092,0.935-1.551,1.508
		c-0.114,0.116-0.229,0.245-0.344,0.388c-0.115,0.145-0.229,0.302-0.345,0.475h0.861c0.689-0.115,1.364-0.287,2.025-0.518
		c0.66-0.229,1.306-0.487,1.939-0.775c1.78-0.804,3.49-1.693,5.127-2.671c1.637-0.977,3.26-1.982,4.869-3.017L96.943,41.198z
		 M120.123,22.93c0-0.057-0.03-0.086-0.086-0.086c-0.402,0.229-1.12,0.762-2.154,1.594c-1.034,0.834-2.083,1.71-3.145,2.628
		c-1.064,0.92-2.025,1.781-2.887,2.586c-0.862,0.805-1.322,1.292-1.379,1.465c1.607-1.379,3.217-2.758,4.826-4.137
		C116.905,25.601,118.514,24.252,120.123,22.93z"/>
	<path fill="#575757" d="M129.688,48.092c0.459-0.172,0.933-0.373,1.421-0.604c0.488-0.229,0.933-0.401,1.336-0.517
		c0.459-0.173,1.047-0.431,1.767-0.775c0.717-0.345,1.45-0.689,2.197-1.034c0.746-0.345,1.479-0.689,2.197-1.034
		c0.718-0.345,1.306-0.604,1.767-0.775c0.057-0.057,0.1-0.086,0.129-0.086c0.028,0,0.071-0.028,0.129-0.087
		c0.517-0.114,0.833,0.03,0.948,0.432c0,0.115-0.03,0.201-0.086,0.258c-0.288,0.173-0.575,0.359-0.862,0.561
		c-0.288,0.202-0.575,0.388-0.861,0.56c-0.633,0.288-1.365,0.676-2.198,1.164c-0.833,0.488-1.695,0.99-2.585,1.508
		c-0.891,0.517-1.738,0.991-2.542,1.422c-0.805,0.431-1.465,0.732-1.982,0.904c-0.633,0.23-1.077,0.245-1.336,0.043
		c-0.258-0.2-0.532-0.53-0.818-0.99c-0.345-0.574-0.46-1.105-0.345-1.595c0.114-0.487,0.345-1.22,0.689-2.197
		c0.287-0.746,0.517-1.364,0.689-1.853c0.172-0.487,0.373-1.077,0.603-1.767c0.172-0.459,0.043-0.675-0.388-0.646
		c-0.431,0.03-1.006,0.202-1.724,0.518c-0.719,0.316-1.538,0.719-2.456,1.206c-0.919,0.488-1.781,0.935-2.585,1.336
		c-0.862,0.46-1.538,0.805-2.025,1.034c-0.489,0.229-0.935,0.46-1.336,0.689c-0.402,0.229-0.833,0.474-1.292,0.732
		c-0.46,0.258-1.092,0.589-1.896,0.99c-0.633,0.403-1.322,0.775-2.068,1.12c-0.747,0.345-1.465,0.72-2.154,1.121
		c-0.288,0.058-0.517,0.172-0.689,0.345c-0.46,0.172-0.732,0.229-0.818,0.172c-0.086-0.057-0.188-0.259-0.302-0.604
		c-0.116-0.172-0.215-0.345-0.302-0.517c-0.086-0.173-0.157-0.345-0.215-0.518c-0.172-0.286-0.143-0.659,0.086-1.12
		c0.401-0.804,0.89-1.579,1.465-2.326c2.125-2.872,4.395-5.457,6.808-7.756c0.401-0.286,0.761-0.56,1.077-0.818
		c0.315-0.259,0.674-0.53,1.077-0.818c0.459-0.287,0.746-0.259,0.861,0.086c0.287,0.402,0.401,0.689,0.345,0.861
		c-0.058,0.173-0.316,0.461-0.775,0.862c-1.495,1.379-2.873,2.844-4.136,4.395c-1.264,1.551-2.557,3.103-3.878,4.653
		c-0.116,0.115-0.23,0.259-0.345,0.431c0.345-0.172,0.604-0.287,0.776-0.345c1.551-0.861,3.116-1.724,4.696-2.585
		c1.58-0.861,3.202-1.694,4.869-2.499c1.608-0.746,2.9-1.306,3.878-1.681c0.976-0.373,1.952-0.588,2.93-0.646
		c0.918,0,1.536,0.474,1.853,1.421c0.315,0.948,0.388,1.767,0.216,2.456c-0.172,0.633-0.446,1.437-0.819,2.413
		C130.305,46.57,129.975,47.402,129.688,48.092z"/>
	<path fill="#575757" d="M149.765,36.459c-0.345,0.288-0.689,0.574-1.034,0.861c-0.345,0.288-0.689,0.575-1.034,0.861
		c-1.322,1.15-2.572,2.342-3.749,3.576c-1.178,1.236-2.284,2.542-3.318,3.921c-0.288,0.288-0.517,0.604-0.689,0.948
		s-0.374,0.689-0.603,1.034c-0.116,0.115-0.201,0.288-0.258,0.517c0.573,0,0.976-0.028,1.206-0.086
		c1.148-0.287,2.269-0.646,3.361-1.077c1.091-0.431,2.183-0.875,3.274-1.336l5.688-2.585c0.574-0.229,1.004-0.373,1.292-0.431
		c0.229,0,0.401,0.086,0.517,0.259c0.114,0.115,0.201,0.229,0.258,0.345c0.057,0.115,0,0.258-0.172,0.431
		c-0.344,0.345-0.603,0.574-0.775,0.689c-1.667,1.149-3.361,2.169-5.084,3.059c-1.724,0.892-3.533,1.652-5.429,2.284
		c-0.805,0.288-1.581,0.46-2.327,0.517c-1.15,0.172-1.953-0.172-2.413-1.034c-0.229-0.345-0.517-0.746-0.862-1.206
		c-0.287-0.459-0.345-0.891-0.172-1.293c0.23-0.746,0.489-1.349,0.776-1.81c0.689-1.148,1.493-2.24,2.413-3.274
		c0.918-1.034,1.866-2.01,2.844-2.93c0.631-0.632,1.263-1.207,1.896-1.724c0.631-0.517,1.263-1.034,1.896-1.551l0.172-0.173
		c0.459-0.286,0.804-0.401,1.034-0.345c0.229,0.059,0.487,0.316,0.775,0.775c0.115,0.116,0.201,0.245,0.259,0.388
		C149.562,36.215,149.649,36.344,149.765,36.459z M159.071,27.669c-0.058,0.116-0.116,0.259-0.172,0.431
		c-0.058,0.173-0.144,0.316-0.258,0.431c-0.461,0.689-0.991,1.308-1.594,1.854c-0.604,0.546-1.25,1.049-1.939,1.508
		c-0.46,0.288-0.92,0.56-1.379,0.818c-0.46,0.259-0.919,0.532-1.379,0.818c-0.288,0.173-0.575,0.188-0.861,0.044
		c-0.288-0.144-0.46-0.416-0.517-0.819c0-0.114,0.043-0.215,0.129-0.302c0.086-0.086,0.186-0.186,0.301-0.301
		c0.345-0.287,0.703-0.574,1.077-0.862c0.373-0.287,0.703-0.573,0.991-0.861c0.517-0.459,1.019-0.948,1.508-1.465
		c0.487-0.518,0.961-1.005,1.422-1.465c0.287-0.173,0.315-0.432,0.086-0.776c-0.172-0.172-0.245-0.301-0.216-0.388
		c0.028-0.086,0.129-0.186,0.302-0.301c0.114-0.057,0.186-0.115,0.215-0.173c0.028-0.057,0.1-0.114,0.215-0.172
		c0.229-0.345,0.459-0.401,0.689-0.173c0.229,0.288,0.444,0.575,0.646,0.861c0.201,0.289,0.416,0.575,0.646,0.862
		C159.042,27.296,159.071,27.44,159.071,27.669z"/>
	<path fill="#575757" d="M167.515,43.18c-0.288,0.116-0.547,0.202-0.775,0.259c-0.23,0.058-0.489,0.145-0.776,0.259
		c-0.978,0.517-1.954,1.034-2.93,1.551c-0.978,0.518-1.982,1.034-3.016,1.551c-1.379,0.748-2.757,1.465-4.136,2.154
		s-2.815,1.265-4.309,1.724c-0.402,0.114-0.775,0.201-1.12,0.259c-0.345,0.057-0.689,0.114-1.034,0.172
		c-0.574,0.057-1.004-0.172-1.292-0.689c-0.115-0.286-0.244-0.53-0.388-0.732c-0.143-0.2-0.272-0.416-0.388-0.646
		c-0.287-0.401-0.287-0.832,0-1.293c0.23-0.287,0.431-0.588,0.604-0.904c0.172-0.315,0.402-0.617,0.689-0.905
		c1.723-1.724,3.589-3.174,5.601-4.352c2.01-1.177,4.193-2.025,6.549-2.542c0.345-0.114,0.689-0.173,1.034-0.173s0.66,0,0.948,0
		c1.091,0.059,1.866,0.604,2.327,1.638c0.287,0.689,0.746,0.92,1.379,0.689c0.459-0.229,0.862-0.086,1.207,0.431
		c0.172,0.288,0.373,0.604,0.603,0.948c0.229,0.345,0.459,0.689,0.689,1.034c0.114,0.288,0.158,0.574,0.129,0.861
		c-0.03,0.288-0.073,0.575-0.129,0.861c0,0.116-0.058,0.403-0.172,0.862c0.114-0.057,0.201-0.1,0.259-0.13
		c0.056-0.028,0.143-0.071,0.258-0.129c1.091-0.517,2.154-1.02,3.188-1.508c1.034-0.487,2.125-0.875,3.274-1.163
		c0.631-0.173,1.235-0.315,1.81-0.432c0.574-0.114,1.148-0.229,1.724-0.345c0.172,0,0.315,0.059,0.431,0.173
		c-0.116,0.345-0.23,0.547-0.345,0.604c-0.747,0.402-1.495,0.79-2.24,1.163c-0.748,0.374-1.523,0.79-2.327,1.249
		c-1.15,0.633-2.284,1.236-3.404,1.81c-1.121,0.575-2.255,1.179-3.404,1.81c-0.288,0.173-0.489,0.432-0.604,0.776
		c-4.194,9.421-9.939,17.779-17.234,25.075c-1.148,1.148-2.34,2.211-3.576,3.188c-1.234,0.977-2.542,1.866-3.92,2.672
		c-0.689,0.459-1.393,0.832-2.111,1.12c-0.718,0.287-1.479,0.487-2.284,0.604c-1.091,0.172-1.896-0.173-2.413-1.034
		c-0.172-0.288-0.33-0.561-0.474-0.819c-0.143-0.258-0.272-0.531-0.388-0.818c-0.287-0.517-0.401-1.034-0.345-1.551
		c0.058-0.518,0.172-1.063,0.345-1.638c0.345-1.149,0.833-2.227,1.465-3.231c0.633-1.006,1.351-1.996,2.154-2.973
		c1.609-2.184,3.347-4.209,5.213-6.075c1.868-1.867,3.834-3.662,5.903-5.386c2.585-2.184,5.17-4.209,7.755-6.075
		c2.585-1.867,5.343-3.633,8.272-5.3c0.057-0.057,0.115-0.1,0.172-0.129c0.057-0.028,0.115-0.1,0.172-0.216
		c0.229-0.631,0.459-1.277,0.689-1.938c0.229-0.66,0.459-1.306,0.689-1.938V43.18z M164.154,51.711
		c-0.116,0.114-0.202,0.173-0.258,0.173c-0.058,0-0.116,0.028-0.172,0.086c-3.391,2.183-6.635,4.48-9.738,6.894
		c-3.102,2.413-6.088,5.055-8.961,7.928c-1.263,1.321-2.456,2.656-3.576,4.007c-1.121,1.35-2.168,2.771-3.146,4.266
		c-0.459,0.746-0.875,1.479-1.25,2.197c-0.373,0.718-0.674,1.479-0.905,2.284c-0.114,0.573-0.143,0.904-0.086,0.99
		c0.058,0.087,0.402,0.1,1.034,0.044c0.633-0.059,1.221-0.202,1.767-0.432c0.547-0.229,1.107-0.488,1.681-0.775
		c2.701-1.494,5.256-3.418,7.669-5.773c3.275-3.16,6.205-6.521,8.79-10.082c2.585-3.562,4.912-7.324,6.98-11.288
		c0-0.116,0.014-0.202,0.043-0.259C164.053,51.912,164.097,51.825,164.154,51.711z M149.333,48.695c0,0.058,0.029,0.086,0.086,0.086
		c0.345-0.114,0.631-0.173,0.862-0.173c1.034-0.345,2.039-0.745,3.016-1.206c0.976-0.459,1.952-0.918,2.93-1.379
		c1.493-0.746,2.986-1.493,4.481-2.24c1.493-0.746,2.986-1.521,4.481-2.326c-0.172-0.115-0.431-0.229-0.775-0.345
		c-0.862-0.229-1.81-0.201-2.844,0.086c-2.184,0.633-4.18,1.494-5.989,2.585c-1.81,1.092-3.548,2.385-5.213,3.878
		c-0.23,0.172-0.417,0.345-0.56,0.517C149.663,48.351,149.505,48.522,149.333,48.695z"/>
	<path fill="#575757" d="M183.886,35.252c-0.173-0.229-0.316-0.431-0.431-0.603c-0.115-0.173-0.23-0.345-0.345-0.518
		c0.459-0.287,0.89-0.517,1.292-0.689c0.402-0.172,0.832-0.401,1.293-0.689c0.115-0.114,0.229-0.2,0.345-0.258
		c0.114-0.057,0.229-0.144,0.345-0.259c2.183-2.527,4.424-4.94,6.722-7.238c2.297-2.298,4.739-4.51,7.325-6.636
		c1.262-1.091,2.526-2.125,3.791-3.102c1.263-0.977,2.642-1.896,4.137-2.758c0.4-0.229,0.803-0.431,1.205-0.604
		c0.402-0.172,0.833-0.287,1.293-0.345c0.401-0.114,0.718,0,0.948,0.345c0.114,0.23,0.229,0.446,0.345,0.646
		c0.114,0.202,0.229,0.388,0.345,0.561c0.173,0.172,0.2,0.402,0.086,0.688c-0.288,0.345-0.517,0.661-0.689,0.948
		c-0.173,0.288-0.374,0.575-0.603,0.861c-1.035,1.265-2.141,2.456-3.318,3.576c-1.178,1.121-2.398,2.17-3.662,3.146
		c-2.184,2.012-4.496,3.835-6.937,5.472c-2.442,1.638-4.955,3.203-7.54,4.697c-0.172,0.115-0.345,0.244-0.518,0.388
		c-0.172,0.144-0.374,0.301-0.604,0.474c-1.839,2.184-3.619,4.366-5.342,6.549c-1.724,2.185-3.419,4.453-5.084,6.808
		c-0.058,0.116-0.116,0.202-0.172,0.259c-0.058,0.058-0.086,0.144-0.086,0.259c0.573-0.401,1.09-0.746,1.551-1.034
		c2.585-1.78,5.399-3.073,8.444-3.878c2.241-0.804,4.107-0.287,5.602,1.551c0.287,0.402,0.561,0.747,0.818,1.034
		c0.26,0.288,0.531,0.575,0.819,0.862c1.206,1.321,2.671,1.839,4.395,1.551c0.862-0.173,1.681-0.373,2.456-0.604
		c0.775-0.229,1.564-0.487,2.369-0.775c0.229-0.114,0.459-0.172,0.689-0.172c0.229,0,0.459-0.057,0.689-0.173
		c0.459-0.172,0.689-0.114,0.689,0.173c0.229,0.288,0.401,0.633,0.518,1.033c0.114,0.288-0.029,0.489-0.432,0.604
		c-0.689,0.461-1.422,0.818-2.197,1.077s-1.565,0.532-2.369,0.818c-0.978,0.173-1.982,0.259-3.016,0.259
		c-1.035-0.114-1.868-0.487-2.5-1.12c-0.344-0.287-0.676-0.617-0.99-0.991c-0.316-0.373-0.618-0.732-0.905-1.077
		c-0.806-1.034-1.694-1.693-2.671-1.981c-0.978-0.287-2.04-0.287-3.188,0c-1.206,0.345-2.37,0.79-3.49,1.335
		c-1.12,0.547-2.228,1.107-3.317,1.681c-1.15,0.747-2.241,1.522-3.274,2.327c-1.034,0.804-2.097,1.665-3.188,2.585
		c-0.287,0.057-0.632,0.286-1.034,0.689c-0.287,0.114-0.459,0.086-0.517-0.087c-0.345-0.345-0.545-0.661-0.603-0.947
		c-0.229-0.288-0.302-0.604-0.215-0.948c0.086-0.345,0.245-0.689,0.474-1.034c0.116-0.229,0.245-0.474,0.388-0.732
		c0.144-0.258,0.302-0.53,0.474-0.818c1.322-2.354,2.757-4.581,4.309-6.679c1.551-2.096,3.188-4.179,4.911-6.247
		c0.057-0.057,0.087-0.114,0.087-0.173C183.8,35.282,183.828,35.252,183.886,35.252z M210.341,14.14l-0.173-0.172
		c-3.045,2.012-5.889,4.18-8.531,6.506c-2.643,2.327-5.199,4.782-7.668,7.368c2.986-1.953,5.844-4.064,8.573-6.334
		C205.27,19.239,207.87,16.783,210.341,14.14z"/>
	<path fill="#575757" d="M225.422,24.825c-2.758-0.114-5.373-0.129-7.842-0.043c-2.471,0.086-4.912,0.129-7.324,0.129h-0.689
		c-1.15-0.114-1.695-0.717-1.638-1.81c0-0.172,0.114-0.258,0.345-0.258c0.574-0.057,1.12-0.1,1.637-0.13
		c0.518-0.028,1.062-0.071,1.638-0.129c3.103-0.114,5.917-0.216,8.444-0.302s5.085-0.071,7.67,0.043
		c0.401,0,0.718-0.114,0.947-0.345c1.494-1.206,2.959-2.412,4.396-3.619c1.435-1.206,2.9-2.383,4.395-3.533
		c0.632-0.573,1.379-1.09,2.241-1.551c0.459-0.287,0.803-0.172,1.033,0.345c0.115,0.288,0.229,0.561,0.346,0.818
		c0.113,0.259,0.229,0.532,0.344,0.819c0,0.229-0.058,0.402-0.172,0.517c-0.289,0.345-0.604,0.661-0.948,0.948l-5.946,5.687
		c-0.115,0-0.201,0.087-0.258,0.259c0.229,0,0.431,0.015,0.604,0.043c0.172,0.03,0.373,0.043,0.603,0.043
		c1.952,0.116,3.892,0.245,5.817,0.388c1.924,0.145,3.862,0.332,5.816,0.561c0.976,0.116,1.938,0.259,2.887,0.431
		c0.947,0.173,1.908,0.345,2.887,0.518c0.057,0,0.1,0.015,0.129,0.043c0.028,0.029,0.071,0.043,0.129,0.043
		c1.091,0.288,1.666,0.892,1.724,1.81l0.259,1.034c0.057,0.23-0.029,0.345-0.259,0.345c-0.402,0-0.661-0.143-0.775-0.431
		c-0.229-0.229-0.575-0.401-1.034-0.518c-0.633-0.114-1.25-0.215-1.853-0.302c-0.603-0.086-1.222-0.186-1.853-0.302
		c-2.184-0.286-4.352-0.502-6.506-0.646c-2.154-0.143-4.324-0.272-6.506-0.388c-0.748-0.057-1.495-0.1-2.24-0.13
		c-0.748-0.028-1.495-0.071-2.241-0.129c-0.345,0-0.603,0.086-0.775,0.259c-1.781,1.494-3.562,2.944-5.343,4.352
		c-1.781,1.408-3.591,2.772-5.429,4.093c-0.517,0.288-1.034,0.747-1.552,1.379l-9.307,9.823c-0.574,0.633-1.105,1.279-1.594,1.939
		c-0.488,0.661-0.99,1.335-1.508,2.024c-0.287,0.461-0.631,1.121-1.034,1.982c0.46,0,0.776-0.029,0.948-0.086
		c1.09-0.116,2.139-0.302,3.145-0.561c1.005-0.259,1.996-0.56,2.974-0.904c2.011-0.746,3.992-1.552,5.946-2.413
		c1.951-0.862,3.905-1.724,5.859-2.585c0.977-0.459,1.995-0.919,3.059-1.379c1.062-0.459,2.111-0.918,3.146-1.379
		c0.114-0.057,0.229-0.129,0.345-0.216c0.114-0.086,0.229-0.013,0.345,0.216c0.114,0.23,0.13,0.402,0.043,0.517
		c-0.086,0.116-0.187,0.23-0.302,0.345c-0.977,0.806-2.025,1.523-3.145,2.154c-1.121,0.633-2.256,1.236-3.404,1.81
		c-2.24,1.15-4.523,2.228-6.851,3.231c-2.327,1.005-4.726,1.823-7.195,2.456c-0.633,0.173-1.249,0.315-1.853,0.431
		s-1.222,0.144-1.854,0.087c-0.689,0-1.206-0.288-1.551-0.862c-0.114-0.172-0.229-0.345-0.345-0.517
		c-0.114-0.173-0.229-0.316-0.345-0.431c-0.459-0.518-0.545-1.062-0.258-1.638c0.287-0.517,0.56-1.048,0.818-1.594
		c0.258-0.546,0.561-1.048,0.904-1.509c1.034-1.551,2.168-3.029,3.404-4.438c1.234-1.407,2.484-2.771,3.748-4.093
		c3.965-4.193,8.043-8.272,12.236-12.236c0.115-0.057,0.201-0.13,0.259-0.216C225.22,25.041,225.307,24.941,225.422,24.825z"/>
</g>
<g enable-background="new    ">
	<path fill="#575757" d="M172.366,86.309c0.631,0.806,0.89,1.609,0.775,2.413c-0.116,0.805-0.402,1.609-0.861,2.413
		c-0.46,0.861-1.006,1.594-1.637,2.197c-0.633,0.603-1.322,1.221-2.068,1.853c-1.551,1.206-3.188,2.313-4.912,3.317
		c-1.724,1.006-3.505,1.969-5.343,2.887c-2.758,1.379-5.588,2.658-8.488,3.835c-2.902,1.178-5.875,2.255-8.919,3.231
		c-0.92,0.345-2.385,0.833-4.395,1.465c-2.011,0.633-4.166,1.308-6.463,2.025c-2.298,0.719-4.539,1.422-6.721,2.111
		c-2.184,0.688-3.907,1.206-5.17,1.551c0.057,0.058,0.086,0.101,0.086,0.129c0,0.03,0.028,0.073,0.086,0.13
		c0.574,0.919,1.207,1.766,1.896,2.542c0.689,0.775,1.407,1.565,2.154,2.369c0.976,0.978,2.139,2.04,3.49,3.188
		c1.349,1.15,2.7,2.256,4.05,3.317c1.349,1.062,2.585,2.011,3.705,2.844c1.121,0.832,1.939,1.422,2.456,1.767
		c0.804,0.518,1.465,0.891,1.982,1.12s0.918,0.358,1.207,0.388c0.287,0.028,0.487,0.028,0.603,0
		c0.114-0.029,0.172-0.015,0.172,0.044c0,0.056-0.129,0.4-0.388,1.033c-0.259,0.632-0.762,0.948-1.508,0.948
		c-0.46,0-0.977-0.101-1.551-0.302c-0.575-0.202-1.409-0.704-2.499-1.508c-0.116,0-0.23-0.058-0.345-0.172
		c-2.24-1.552-4.41-3.16-6.506-4.826c-2.098-1.665-4.093-3.475-5.989-5.429c-0.633-0.632-1.236-1.293-1.81-1.982
		c-0.575-0.688-1.15-1.378-1.723-2.067c-0.288-0.287-0.517-0.632-0.689-1.034c-0.172-0.401-0.316-0.775-0.431-1.12
		c-0.116-0.115-0.172-0.244-0.172-0.388s-0.029-0.272-0.086-0.388c-0.058,0-0.129,0.029-0.215,0.086
		c-0.086,0.058-0.159,0.086-0.215,0.086c-1.15,1.379-2.284,2.758-3.404,4.137c-1.121,1.378-2.169,2.814-3.146,4.309
		c-0.345,0.46-0.676,0.962-0.991,1.508c-0.316,0.546-0.646,1.105-0.991,1.68l-0.172,0.259c0.229,0.057,0.431,0.114,0.603,0.173
		c0.172,0.057,0.259,0.229,0.259,0.517l0.086,0.086c-0.172,0.173-0.316,0.33-0.431,0.475c-0.116,0.143-0.258,0.271-0.431,0.388
		c-0.058,0.057-0.159,0.071-0.302,0.043c-0.144-0.03-0.245-0.102-0.302-0.216c-0.288-0.288-0.517-0.59-0.689-0.904
		c-0.172-0.316-0.345-0.646-0.517-0.991c-0.116-0.23-0.129-0.474-0.043-0.732c0.086-0.259,0.186-0.53,0.302-0.818
		c0.804-1.493,1.708-2.931,2.714-4.309c1.004-1.379,2.025-2.758,3.059-4.137l0.259-0.345v-0.086l-0.345,0.086
		c-0.116-0.345-0.23-0.89-0.345-1.637c-0.116-0.746-0.03-1.177,0.258-1.293c0.459-0.173,0.948-0.33,1.465-0.474
		s1.034-0.302,1.551-0.475c0.345,0,0.545-0.114,0.603-0.345c1.493-1.838,3.03-3.733,4.61-5.688c1.58-1.952,3.173-3.791,4.783-5.515
		c0.804-0.804,1.579-1.564,2.327-2.283c0.746-0.718,1.579-1.422,2.499-2.111c0.056,0,0.114-0.028,0.172-0.086
		c0.459-0.287,0.789-0.401,0.991-0.345c0.201,0.058,0.444,0.316,0.732,0.775l0.431,0.604c0.229,0.172,0.33,0.331,0.301,0.474
		c-0.029,0.144-0.101,0.331-0.215,0.56c-0.288,0.345-0.517,0.704-0.689,1.077c-0.172,0.375-0.374,0.732-0.603,1.077l-1.379,1.724
		c-0.345,0.461-0.676,0.892-0.991,1.293c-0.316,0.402-0.532,0.661-0.646,0.775c-0.116,0.172-0.258,0.316-0.431,0.431
		c-0.116,0.116-0.23,0.216-0.345,0.302c-0.116,0.086-0.202,0.129-0.259,0.129c0.689-1.435,1.551-2.93,2.585-4.48
		c0.056-0.057,0.086-0.201,0.086-0.431c-1.609,1.608-3.361,3.446-5.256,5.515c-1.896,2.068-3.591,3.993-5.084,5.773
		c0.229,0,0.373-0.028,0.431-0.086c4.193-1.263,8.587-2.57,13.184-3.921c4.596-1.35,8.962-2.829,13.098-4.438
		c2.7-1.091,5.343-2.211,7.928-3.361c2.585-1.148,5.112-2.44,7.583-3.878c1.321-0.745,2.613-1.551,3.877-2.412
		c1.263-0.862,2.441-1.81,3.533-2.844c1.263-1.263,1.982-2.413,2.154-3.447s0.014-1.938-0.474-2.714
		c-0.489-0.776-1.206-1.45-2.154-2.025c-0.948-0.573-1.938-1.005-2.973-1.293c-2.298-0.631-4.597-1.047-6.894-1.249
		c-2.298-0.201-4.653-0.272-7.066-0.216c-2.93,0-5.803,0.102-8.617,0.302c-2.815,0.202-5.659,0.445-8.531,0.732
		c-11.088,1.379-22.004,3.649-32.746,6.808c-2.585,0.806-5.127,1.638-7.626,2.499c-2.499,0.862-6.234,2.37-11.203,4.524
		c-4.97,2.154-8.086,4.122-9.35,5.902c-0.23,0.23-0.375,0.489-0.431,0.775c-0.116,0.288-0.259,0.345-0.431,0.173
		c-1.264-1.436-1.437-2.685-0.517-3.749c0.918-1.062,1.982-1.967,3.188-2.714c1.207-0.746,2.383-1.436,3.533-2.068
		c2.872-1.493,5.802-2.786,8.79-3.878c2.986-1.091,6.002-2.124,9.048-3.102c3.447-1.091,6.864-2.054,10.254-2.887
		c3.389-0.833,6.864-1.595,10.427-2.284c2.47-0.517,4.955-0.976,7.454-1.379c2.499-0.401,5.011-0.745,7.54-1.034
		c3.503-0.4,7.008-0.702,10.513-0.904c3.503-0.201,7.008-0.244,10.513-0.129c2.183,0.115,4.322,0.316,6.42,0.603
		c2.096,0.288,4.208,0.806,6.333,1.552c0.976,0.345,1.896,0.747,2.758,1.206c0.861,0.46,1.607,1.092,2.24,1.896
		c0.345,0.461,0.689,0.877,1.034,1.25C171.763,85.434,172.078,85.85,172.366,86.309z"/>
	<path fill="#575757" d="M147.549,120.261c-0.861,0.46-1.624,0.935-2.283,1.422c-0.661,0.488-1.221,1.077-1.681,1.767
		c-0.345,0.229-0.603,0.546-0.775,0.947c-0.114,0.288-0.057,0.432,0.172,0.432c0.287,0.058,0.56,0.115,0.819,0.172
		c0.258,0.058,0.502,0.116,0.732,0.172c2.183,0,4.451-0.258,6.808-0.775c2.757-0.631,5.485-1.363,8.186-2.197
		c2.7-0.832,5.343-1.708,7.928-2.628c0.632-0.287,1.321-0.546,2.068-0.775c0.746-0.229,1.435-0.459,2.068-0.689
		c0.287-0.114,0.459-0.114,0.517,0c0.057,0.115,0.143,0.23,0.259,0.345c0.114,0.288,0,0.547-0.345,0.775
		c-0.805,0.402-1.624,0.805-2.456,1.206c-0.833,0.403-1.652,0.806-2.456,1.207c-2.413,1.149-4.883,2.111-7.411,2.887
		c-2.528,0.775-5.056,1.451-7.583,2.024c-1.207,0.288-2.428,0.489-3.663,0.604c-1.236,0.114-2.399,0.086-3.49-0.086
		c-0.633-0.114-1.193-0.302-1.68-0.561c-0.488-0.259-0.875-0.703-1.164-1.336c-0.229-0.344-0.459-0.631-0.689-0.861
		c-0.287-0.689-0.143-1.521,0.431-2.499c0.46-0.517,0.962-0.991,1.508-1.422s1.047-0.847,1.508-1.249
		c1.378-0.919,2.786-1.737,4.222-2.456c1.436-0.718,2.93-1.307,4.481-1.767c0.459-0.114,0.976-0.216,1.551-0.302
		c0.573-0.086,1.148-0.186,1.723-0.302c0.804-0.172,1.379,0.086,1.724,0.775c0.114,0.23,0.229,0.432,0.345,0.604
		c0.114,0.173,0.229,0.345,0.345,0.518c0.287,0.344,0.201,0.719-0.259,1.12c-0.402,0.402-0.689,0.661-0.861,0.775
		c-1.207,0.689-2.413,1.292-3.62,1.81c-1.206,0.517-2.557,0.892-4.05,1.12c-0.23,0.058-0.489,0.086-0.776,0.086
		c-0.288,0-0.575,0-0.861,0C148.381,121.065,147.95,120.777,147.549,120.261z M149.531,119.141c2.413-0.459,4.682-1.35,6.808-2.672
		c-1.206,0.288-2.356,0.646-3.447,1.077C151.8,117.977,150.68,118.509,149.531,119.141z"/>
	<path fill="#575757" d="M209.852,95.185c-0.461,0.46-0.877,0.892-1.25,1.293c-0.375,0.402-0.762,0.833-1.164,1.292
		c-2.471,2.471-4.969,4.869-7.496,7.195c-2.529,2.327-5.084,4.64-7.67,6.937c-1.149,0.978-2.355,1.939-3.619,2.888
		c-1.264,0.947-2.498,1.91-3.705,2.887c-0.23,0.172-0.518,0.488-0.861,0.947c-0.518,0.747-1.006,1.495-1.465,2.24
		c-0.461,0.748-0.834,1.552-1.121,2.413c-0.058,0.23-0.101,0.431-0.129,0.604c-0.03,0.172-0.073,0.374-0.129,0.604
		c-0.058,0.402,0.115,0.633,0.517,0.688c0.976,0.173,1.952,0.173,2.931,0c1.09-0.229,2.139-0.517,3.145-0.861
		c1.004-0.345,1.996-0.718,2.973-1.12c0.689-0.287,1.364-0.545,2.025-0.775c0.66-0.229,1.336-0.487,2.025-0.775
		c0.344-0.115,0.588-0.1,0.732,0.043c0.143,0.144,0.271,0.359,0.387,0.646c0.057,0.172-0.029,0.374-0.258,0.603
		c-0.518,0.288-1.021,0.604-1.508,0.948c-0.488,0.345-1.021,0.661-1.594,0.948c-1.093,0.574-2.198,1.063-3.318,1.465
		c-1.12,0.402-2.283,0.689-3.49,0.861c-0.46,0.114-0.947,0.172-1.465,0.172c-0.517,0-1.006-0.058-1.465-0.172
		c-0.747-0.172-1.322-0.573-1.723-1.206c-0.172-0.229-0.345-0.46-0.517-0.689s-0.345-0.487-0.517-0.775
		c-0.288-0.401-0.431-0.819-0.431-1.25s0.056-0.875,0.172-1.336c0.114-0.345,0.201-0.631,0.258-0.861l-0.517,0.345
		c-1.495,0.978-3.031,1.926-4.61,2.844c-1.581,0.92-3.204,1.724-4.869,2.413c-0.633,0.229-1.25,0.431-1.853,0.603
		c-0.603,0.173-1.221,0.287-1.853,0.345c-1.15,0.173-1.953-0.172-2.413-1.034c-0.114-0.172-0.229-0.345-0.345-0.517
		c-0.114-0.173-0.229-0.345-0.345-0.518c-0.401-0.459-0.459-1.033-0.172-1.723c0.23-0.46,0.504-0.862,0.819-1.207
		c0.316-0.345,0.646-0.659,0.991-0.947c3.619-2.931,7.611-4.769,11.978-5.516c0.287-0.114,0.604-0.157,0.948-0.129
		c0.345,0.029,0.689,0.043,1.034,0.043c0.804,0.116,1.407,0.489,1.81,1.12l0.345,0.345c0.401-0.287,0.789-0.545,1.163-0.775
		c0.373-0.229,0.703-0.573,0.991-1.034c1.149-1.493,2.341-2.915,3.576-4.266c1.235-1.349,2.542-2.685,3.921-4.007
		c2.24-2.068,4.553-4.05,6.938-5.946c2.383-1.896,4.838-3.705,7.367-5.429c0.518-0.345,1.034-0.689,1.551-1.034
		c0.518-0.345,1.034-0.659,1.551-0.947c0.346-0.173,0.574-0.244,0.689-0.216c0.115,0.03,0.287,0.188,0.518,0.475
		C209.391,94.553,209.562,94.84,209.852,95.185z M180.208,118.106c0-0.114-0.03-0.201-0.086-0.259
		c-0.402,0.058-0.791,0.101-1.163,0.129c-0.375,0.03-0.791,0.102-1.25,0.216c-1.667,0.288-3.231,0.762-4.697,1.422
		c-1.465,0.661-2.916,1.451-4.352,2.37c-0.633,0.402-1.236,0.818-1.81,1.249c-0.575,0.431-1.092,0.935-1.551,1.508
		c-0.114,0.116-0.229,0.245-0.344,0.388c-0.115,0.145-0.229,0.302-0.345,0.475h0.861c0.689-0.115,1.364-0.287,2.025-0.518
		c0.66-0.229,1.306-0.487,1.939-0.775c1.78-0.804,3.49-1.693,5.127-2.671c1.637-0.977,3.26-1.982,4.869-3.017L180.208,118.106z
		 M203.389,99.838c0-0.057-0.03-0.086-0.087-0.086c-0.402,0.229-1.12,0.762-2.154,1.594c-1.034,0.834-2.083,1.71-3.146,2.628
		c-1.063,0.92-2.025,1.781-2.887,2.586s-1.322,1.292-1.379,1.465c1.607-1.379,3.217-2.758,4.826-4.137
		C200.17,102.509,201.779,101.16,203.389,99.838z"/>
	<path fill="#575757" d="M208.644,128.103c0.288-0.059,0.547-0.087,0.776-0.087s0.46-0.029,0.688-0.086
		c1.321-0.172,2.614-0.46,3.878-0.861s2.499-0.862,3.705-1.379c2.068-0.861,4.137-1.752,6.205-2.672
		c2.068-0.918,4.136-1.865,6.204-2.843c0.632-0.287,1.22-0.531,1.767-0.732c0.545-0.201,1.134-0.444,1.767-0.733
		c0.286-0.172,0.487-0.172,0.603,0c0.173,0.345,0.115,0.604-0.172,0.776c-0.689,0.46-1.379,0.934-2.068,1.422
		s-1.408,0.962-2.154,1.422c-2.412,1.321-4.825,2.528-7.238,3.619c-2.412,1.092-4.912,2.038-7.497,2.844
		c-0.806,0.286-1.608,0.517-2.413,0.688c-0.805,0.173-1.608,0.287-2.412,0.345c-0.518,0-0.961-0.072-1.336-0.215
		c-0.373-0.145-0.703-0.446-0.991-0.905c-0.114-0.229-0.229-0.374-0.345-0.431c-0.573-0.689-0.631-1.551-0.172-2.585
		c0.402-0.804,0.848-1.564,1.336-2.283c0.488-0.718,1.02-1.45,1.594-2.198c1.666-2.067,3.417-4.078,5.256-6.031
		c1.838-1.953,3.706-3.906,5.602-5.86c2.527-2.527,5.069-4.982,7.627-7.367c2.555-2.384,5.213-4.667,7.971-6.851
		c0.804-0.746,1.65-1.45,2.542-2.111c0.89-0.66,1.767-1.307,2.628-1.939c0.229-0.172,0.459-0.314,0.689-0.431
		c0.229-0.114,0.487-0.229,0.775-0.345c0.229-0.057,0.401,0.03,0.518,0.259l0.775,1.81c0.114,0.172,0.057,0.374-0.172,0.604
		c-0.117,0.172-0.26,0.331-0.432,0.474c-0.172,0.145-0.345,0.302-0.518,0.474c-3.102,3.16-6.333,6.118-9.693,8.876
		c-3.361,2.758-6.822,5.429-10.385,8.014c-0.115,0.116-0.244,0.23-0.387,0.345c-0.145,0.116-0.273,0.23-0.389,0.345
		c-1.781,1.781-3.52,3.548-5.213,5.3c-1.695,1.753-3.375,3.576-5.041,5.472c-0.518,0.633-1.021,1.265-1.508,1.896
		c-0.488,0.633-0.991,1.292-1.508,1.981c-0.346,0.461-0.66,1.062-0.948,1.81C208.558,127.986,208.588,128.044,208.644,128.103z"/>
	<path fill="#575757" d="M241.904,113.367c-0.345,0.288-0.689,0.574-1.034,0.861c-0.345,0.288-0.689,0.575-1.034,0.861
		c-1.322,1.15-2.571,2.342-3.748,3.576c-1.178,1.236-2.283,2.542-3.318,3.921c-0.287,0.288-0.517,0.604-0.689,0.948
		c-0.172,0.345-0.373,0.689-0.603,1.034c-0.116,0.115-0.2,0.288-0.259,0.517c0.574,0,0.977-0.028,1.207-0.086
		c1.148-0.287,2.269-0.646,3.36-1.077c1.091-0.431,2.183-0.875,3.274-1.336l5.688-2.585c0.574-0.229,1.004-0.373,1.293-0.431
		c0.229,0,0.4,0.086,0.517,0.259c0.114,0.115,0.2,0.229,0.259,0.345c0.057,0.115,0,0.258-0.173,0.431
		c-0.345,0.345-0.603,0.574-0.775,0.689c-1.667,1.149-3.36,2.169-5.084,3.059c-1.724,0.892-3.533,1.652-5.429,2.284
		c-0.805,0.288-1.581,0.46-2.326,0.517c-1.15,0.172-1.953-0.172-2.414-1.034c-0.229-0.345-0.517-0.746-0.861-1.206
		c-0.287-0.459-0.345-0.891-0.172-1.293c0.23-0.746,0.488-1.349,0.775-1.81c0.689-1.148,1.493-2.24,2.412-3.274
		s1.867-2.01,2.844-2.93c0.632-0.632,1.264-1.207,1.896-1.724c0.631-0.517,1.263-1.034,1.896-1.551l0.173-0.173
		c0.459-0.286,0.803-0.401,1.033-0.345c0.229,0.059,0.488,0.316,0.775,0.775c0.115,0.116,0.201,0.245,0.26,0.388
		C241.702,113.123,241.789,113.252,241.904,113.367z M251.211,104.577c-0.059,0.116-0.115,0.259-0.172,0.431
		c-0.059,0.173-0.145,0.316-0.259,0.431c-0.461,0.689-0.991,1.308-1.595,1.854s-1.249,1.049-1.938,1.508
		c-0.46,0.288-0.92,0.56-1.379,0.818c-0.46,0.259-0.919,0.532-1.379,0.818c-0.288,0.173-0.575,0.188-0.861,0.044
		c-0.288-0.144-0.46-0.416-0.517-0.819c0-0.114,0.043-0.215,0.129-0.302c0.086-0.086,0.186-0.186,0.301-0.301
		c0.346-0.287,0.703-0.574,1.078-0.862c0.373-0.287,0.703-0.573,0.99-0.861c0.518-0.459,1.02-0.948,1.508-1.465
		c0.488-0.518,0.962-1.005,1.422-1.465c0.287-0.173,0.315-0.432,0.087-0.776c-0.173-0.172-0.245-0.301-0.216-0.388
		c0.028-0.086,0.129-0.186,0.302-0.301c0.114-0.057,0.187-0.115,0.216-0.173c0.027-0.057,0.1-0.114,0.215-0.172
		c0.229-0.345,0.459-0.401,0.689-0.173c0.229,0.288,0.444,0.575,0.646,0.861c0.201,0.289,0.416,0.575,0.646,0.862
		C251.182,104.204,251.211,104.349,251.211,104.577z"/>
	<path fill="#575757" d="M225.444,150.636c0.173-0.201,0.316-0.388,0.431-0.56c1.034-1.206,2.055-2.428,3.06-3.662
		c1.005-1.236,2.024-2.456,3.06-3.663c1.723-2.011,3.446-4.007,5.17-5.988c1.723-1.982,3.447-3.979,5.17-5.989l3.361-3.619
		c0.573-0.632,1.262-1.306,2.067-2.025c0.804-0.718,1.638-1.45,2.499-2.197c0.861-0.746,1.709-1.465,2.543-2.154
		c0.832-0.689,1.594-1.32,2.283-1.896c0.918-0.804,1.938-1.508,3.059-2.111c1.121-0.604,2.082-1.077,2.887-1.422
		c0.401-0.229,0.918-0.345,1.551-0.345c0.346,0,0.604,0.145,0.775,0.431c0.229,0.23,0.416,0.461,0.561,0.689
		c0.143,0.23,0.302,0.461,0.475,0.689c0.229,0.345,0.286,0.806,0.172,1.379c-0.115,0.517-0.461,1.135-1.034,1.853
		c-0.575,0.719-1.222,1.437-1.938,2.154c-0.719,0.719-1.438,1.379-2.154,1.982c-0.719,0.603-1.279,1.049-1.681,1.335
		c3.619-0.918,7.095-1.981,10.427-3.188c3.331-1.207,6.691-2.556,10.082-4.051c0.287-0.172,0.604-0.33,0.948-0.474
		c0.345-0.143,0.659-0.272,0.948-0.388c0.113-0.057,0.314-0.028,0.603,0.086c0.114,0.116,0.229,0.345,0.345,0.689
		c0,0.116-0.058,0.23-0.172,0.345l-4.654,2.585c-3.849,2.012-7.684,3.576-11.504,4.696s-7.568,2.054-11.244,2.801
		c-0.862,0.229-1.638,0.186-2.327-0.129c-0.689-0.316-1.351-0.791-1.981-1.422c-0.059-0.114-0.117-0.201-0.173-0.259
		c-0.058-0.057-0.144-0.143-0.259-0.259c-0.115,0.173-0.331,0.403-0.646,0.689c-0.316,0.287-0.633,0.589-0.947,0.905
		c-0.316,0.314-0.633,0.616-0.948,0.904c-0.316,0.287-0.532,0.487-0.646,0.604c-2.126,2.354-4.179,4.71-6.161,7.066
		c-1.982,2.354-3.949,4.768-5.902,7.238c-1.494,2.01-3.017,3.992-4.567,5.945c-1.552,1.953-3.073,3.906-4.567,5.86
		c-0.459,0.573-0.934,1.12-1.422,1.637c-0.487,0.518-0.961,1.005-1.422,1.465c-0.287,0.287-0.487,0.416-0.604,0.388
		c-0.113-0.029-0.286-0.187-0.517-0.474c-0.173-0.23-0.329-0.431-0.474-0.604c-0.143-0.172-0.302-0.374-0.475-0.603
		c-0.286-0.288-0.344-0.547-0.172-0.775c0.345-0.978,0.719-1.896,1.12-2.758c1.667-3.274,3.462-6.463,5.386-9.565
		c1.926-3.102,3.921-6.204,5.989-9.307c1.724-2.471,3.505-4.911,5.343-7.324c1.839-2.413,3.764-4.71,5.773-6.894
		c0.861-0.977,1.752-1.909,2.671-2.801c0.919-0.89,1.896-1.737,2.931-2.542c0.057-0.057,0.113-0.1,0.172-0.13
		c0.057-0.027,0.114-0.071,0.172-0.129c0.346-0.172,0.589-0.243,0.732-0.215c0.143,0.029,0.33,0.187,0.561,0.474
		c0.287,0.46,0.416,0.747,0.388,0.861c-0.03,0.116-0.216,0.375-0.56,0.775c-0.806,0.862-1.625,1.738-2.457,2.629
		c-0.833,0.891-1.651,1.796-2.455,2.714c-1.494,1.667-2.93,3.376-4.309,5.128c-1.379,1.751-2.699,3.546-3.965,5.386
		c-1.435,2.01-2.843,4.05-4.222,6.118c-1.379,2.067-2.728,4.106-4.05,6.118c-0.632,0.918-1.221,1.838-1.767,2.757
		s-1.105,1.838-1.681,2.758c-0.057,0.057-0.086,0.1-0.086,0.129c0,0.028-0.028,0.071-0.086,0.13l0.086,0.086
		C225.129,151.024,225.271,150.837,225.444,150.636z M263.102,116.642c0-0.057-0.015-0.087-0.043-0.087
		c-0.029,0-0.043-0.027-0.043-0.086c-0.289,0.116-0.532,0.188-0.732,0.216c-0.202,0.029-0.418,0.101-0.646,0.215
		c-0.861,0.345-1.637,0.763-2.326,1.25c-0.689,0.488-1.438,1.049-2.241,1.681c-1.378,1.092-2.714,2.11-4.007,3.059
		s-2.542,1.939-3.748,2.973l0.172,0.173c0.459,0.23,1.004,0.345,1.637,0.345c0.518,0,1.005-0.071,1.465-0.216
		c0.46-0.143,0.919-0.33,1.379-0.56c1.607-0.919,3.275-2.097,4.998-3.533c1.724-1.436,2.986-2.986,3.792-4.653
		C262.871,117.244,262.986,116.986,263.102,116.642z"/>
	<path fill="#575757" d="M290.072,116.469h-0.173c-0.46-0.286-0.935-0.416-1.422-0.388c-0.489,0.029-0.991,0.13-1.508,0.302
		c-1.034,0.345-2.024,0.79-2.974,1.336c-0.947,0.546-1.882,1.163-2.8,1.853c-1.093,0.805-2.126,1.667-3.103,2.585
		c-0.978,0.92-1.867,1.954-2.671,3.103c-0.632,0.919-1.12,1.867-1.466,2.844c-0.056,0.114-0.086,0.215-0.086,0.301
		c0,0.087-0.027,0.216-0.086,0.389l0.689-0.345c3.103-1.724,6.248-3.318,9.436-4.783c3.189-1.465,6.477-2.771,9.867-3.921
		c0.918-0.286,1.838-0.573,2.758-0.861c0.918-0.287,1.865-0.487,2.844-0.604c0.286-0.057,0.717-0.086,1.292-0.086
		c0.173,0,0.287,0.029,0.345,0.086c0.229,0.345,0.373,0.604,0.432,0.775c0.056,0.059,0.013,0.13-0.13,0.216
		c-0.144,0.086-0.273,0.129-0.388,0.129c-1.15,0.461-2.326,0.892-3.533,1.293c-1.207,0.402-2.385,0.805-3.533,1.206
		c-3.391,1.265-6.678,2.644-9.867,4.137c-3.188,1.493-6.333,3.103-9.436,4.825c-0.517,0.287-0.804,0.503-0.861,0.646
		c-0.057,0.143-0.057,0.53,0,1.163c0.058,0.46,0.102,0.876,0.129,1.25c0.029,0.373,0.073,0.789,0.129,1.249
		c0.346,2.7-0.775,4.481-3.359,5.343c-1.896,0.574-3.82,0.604-5.774,0.086c-0.804-0.172-1.407-0.603-1.81-1.292
		c-0.114-0.23-0.345-0.575-0.689-1.034c-0.287-0.345-0.314-0.719-0.086-1.12c0.172-0.23,0.331-0.446,0.475-0.646
		c0.144-0.202,0.301-0.388,0.473-0.561c0.979-0.919,1.969-1.737,2.974-2.455c1.006-0.72,2.083-1.422,3.231-2.111
		c0.402-0.23,0.791-0.461,1.163-0.689c0.374-0.23,0.763-0.461,1.163-0.689c0.289-0.116,0.375-0.288,0.259-0.518
		c-0.173-2.526,0.661-4.882,2.499-7.065c1.379-1.666,2.887-3.131,4.523-4.395c1.639-1.264,3.461-2.327,5.473-3.188
		c0.345-0.173,0.703-0.302,1.077-0.388c0.373-0.087,0.761-0.187,1.163-0.302c1.091-0.173,1.924,0.172,2.499,1.034
		c0.114,0.229,0.259,0.445,0.431,0.646C289.813,116.024,289.956,116.24,290.072,116.469z M272.32,132.238l-0.345,0.173
		c-0.804,0.459-1.579,0.933-2.327,1.422c-0.745,0.487-1.492,0.99-2.24,1.508c-0.573,0.401-1.119,0.847-1.637,1.336
		c-0.518,0.487-1.062,0.961-1.637,1.421c-0.115,0.115-0.201,0.216-0.26,0.302c-0.057,0.087-0.143,0.187-0.258,0.302
		c0.115,0.057,0.201,0.086,0.258,0.086c2.529,0.632,4.77,0.287,6.723-1.033c0.46-0.289,0.848-0.646,1.162-1.077
		c0.316-0.432,0.504-0.935,0.561-1.509c0.059-0.46,0.072-0.935,0.043-1.422C272.336,133.258,272.32,132.756,272.32,132.238z"/>
</g>
</svg>
