<?xml version="1.0" encoding="utf-8"?>
<!-- Generator: Adobe Illustrator 16.0.0, SVG Export Plug-In . SVG Version: 6.00 Build 0)  -->
<!DOCTYPE svg PUBLIC "-//W3C//DTD SVG 1.1//EN" "http://www.w3.org/Graphics/SVG/1.1/DTD/svg11.dtd">
<svg version="1.1" id="圖層_1" xmlns="http://www.w3.org/2000/svg" xmlns:xlink="http://www.w3.org/1999/xlink" x="0px" y="0px"
	 width="223px" height="82px" viewBox="0 0 223 82" enable-background="new 0 0 223 82" xml:space="preserve">
<g enable-background="new    ">
	<path fill="#575757" d="M102.68,8.959c0.623,0.794,0.878,1.587,0.765,2.38c-0.114,0.794-0.397,1.587-0.85,2.38
		c-0.455,0.851-0.992,1.573-1.615,2.168c-0.624,0.595-1.304,1.204-2.04,1.827c-1.53,1.19-3.145,2.282-4.845,3.272
		c-1.7,0.992-3.458,1.942-5.27,2.848c-2.72,1.36-5.512,2.622-8.373,3.782c-2.862,1.162-5.795,2.225-8.798,3.188
		c-0.907,0.34-2.352,0.822-4.335,1.445c-1.984,0.624-4.109,1.29-6.375,1.997c-2.267,0.71-4.477,1.403-6.63,2.083
		c-2.154,0.68-3.854,1.189-5.1,1.53c0.056,0.057,0.085,0.1,0.085,0.127c0,0.029,0.028,0.072,0.085,0.128
		c0.566,0.907,1.19,1.742,1.87,2.507c0.68,0.766,1.388,1.545,2.125,2.338c0.963,0.964,2.11,2.012,3.442,3.146
		c1.331,1.134,2.663,2.225,3.995,3.272c1.331,1.048,2.55,1.982,3.655,2.805c1.105,0.82,1.912,1.402,2.422,1.742
		c0.793,0.51,1.445,0.878,1.955,1.105c0.51,0.226,0.906,0.353,1.19,0.382c0.283,0.028,0.481,0.028,0.595,0
		c0.113-0.029,0.17-0.015,0.17,0.043c0,0.056-0.127,0.396-0.383,1.02c-0.255,0.623-0.751,0.936-1.487,0.936
		c-0.454,0-0.964-0.1-1.53-0.298c-0.567-0.199-1.389-0.694-2.465-1.487c-0.114,0-0.227-0.057-0.34-0.17
		c-2.21-1.53-4.35-3.117-6.417-4.76c-2.069-1.644-4.038-3.428-5.908-5.355c-0.624-0.623-1.219-1.274-1.785-1.955
		c-0.567-0.68-1.134-1.359-1.7-2.04c-0.284-0.282-0.51-0.623-0.68-1.02c-0.17-0.396-0.312-0.766-0.425-1.105
		c-0.114-0.112-0.17-0.24-0.17-0.382s-0.029-0.269-0.085-0.383c-0.057,0-0.127,0.029-0.213,0.085
		c-0.085,0.057-0.157,0.085-0.212,0.085c-1.134,1.36-2.252,2.72-3.357,4.08s-2.14,2.777-3.103,4.25
		c-0.34,0.454-0.667,0.949-0.978,1.487c-0.312,0.539-0.637,1.091-0.978,1.657l-0.17,0.256c0.226,0.056,0.425,0.112,0.595,0.17
		c0.17,0.056,0.255,0.226,0.255,0.51l0.085,0.085c-0.17,0.17-0.312,0.325-0.425,0.468c-0.114,0.141-0.255,0.268-0.425,0.382
		c-0.057,0.056-0.157,0.07-0.297,0.043c-0.142-0.029-0.242-0.1-0.297-0.213c-0.284-0.284-0.51-0.581-0.68-0.893
		s-0.34-0.638-0.51-0.978c-0.114-0.227-0.128-0.467-0.042-0.723c0.085-0.255,0.183-0.522,0.297-0.807
		c0.793-1.474,1.685-2.891,2.677-4.25c0.991-1.36,1.998-2.721,3.018-4.08l0.255-0.34v-0.086l-0.34,0.086
		c-0.114-0.341-0.227-0.878-0.34-1.615c-0.114-0.736-0.029-1.161,0.255-1.275c0.453-0.17,0.935-0.325,1.445-0.468
		c0.51-0.141,1.02-0.297,1.53-0.467c0.34,0,0.538-0.113,0.595-0.34c1.473-1.813,2.988-3.684,4.548-5.61
		c1.558-1.926,3.13-3.74,4.717-5.44c0.793-0.793,1.558-1.543,2.295-2.252c0.736-0.708,1.558-1.402,2.465-2.083
		c0.056,0,0.113-0.027,0.17-0.085c0.453-0.282,0.778-0.396,0.978-0.34c0.198,0.058,0.438,0.312,0.722,0.765l0.425,0.596
		c0.226,0.17,0.325,0.326,0.297,0.467c-0.029,0.143-0.1,0.327-0.212,0.553c-0.284,0.34-0.51,0.695-0.68,1.062
		c-0.17,0.369-0.369,0.723-0.595,1.062l-1.36,1.7c-0.34,0.454-0.667,0.879-0.978,1.275c-0.312,0.396-0.524,0.651-0.637,0.765
		c-0.114,0.17-0.255,0.312-0.425,0.425c-0.114,0.114-0.227,0.213-0.34,0.298c-0.114,0.085-0.199,0.127-0.255,0.127
		c0.68-1.415,1.53-2.89,2.55-4.42c0.056-0.056,0.085-0.197,0.085-0.425c-1.587,1.587-3.315,3.4-5.185,5.44
		c-1.87,2.04-3.542,3.938-5.015,5.694c0.226,0,0.368-0.027,0.425-0.085c4.136-1.245,8.471-2.535,13.005-3.867
		c4.533-1.331,8.84-2.79,12.92-4.378c2.663-1.075,5.27-2.181,7.82-3.314c2.55-1.133,5.043-2.408,7.48-3.825
		c1.303-0.735,2.578-1.53,3.825-2.38c1.246-0.85,2.408-1.785,3.485-2.805c1.246-1.246,1.955-2.38,2.125-3.4
		c0.17-1.02,0.013-1.912-0.468-2.678c-0.482-0.765-1.19-1.43-2.125-1.997C97.197,5.843,96.22,5.418,95.2,5.134
		c-2.267-0.623-4.534-1.033-6.8-1.232c-2.267-0.197-4.59-0.269-6.97-0.212c-2.89,0-5.725,0.1-8.5,0.297
		c-2.777,0.199-5.583,0.439-8.415,0.723c-10.937,1.36-21.705,3.6-32.3,6.715c-2.55,0.794-5.057,1.615-7.522,2.465
		c-2.465,0.851-6.149,2.338-11.05,4.463c-4.902,2.125-7.977,4.066-9.223,5.822c-0.227,0.228-0.369,0.482-0.425,0.766
		c-0.114,0.284-0.255,0.34-0.425,0.17c-1.247-1.416-1.417-2.648-0.51-3.698c0.906-1.048,1.955-1.94,3.145-2.677
		s2.351-1.416,3.485-2.04c2.833-1.474,5.723-2.748,8.67-3.825c2.946-1.076,5.921-2.096,8.925-3.061
		c3.4-1.075,6.771-2.025,10.115-2.847c3.343-0.821,6.771-1.573,10.285-2.253c2.436-0.51,4.887-0.963,7.353-1.36
		c2.465-0.396,4.943-0.735,7.438-1.02c3.456-0.396,6.913-0.693,10.37-0.893c3.456-0.198,6.913-0.24,10.37-0.128
		c2.153,0.114,4.264,0.312,6.333,0.596c2.068,0.284,4.15,0.794,6.248,1.529c0.963,0.341,1.87,0.737,2.72,1.19
		c0.85,0.454,1.585,1.077,2.21,1.87c0.34,0.454,0.68,0.864,1.02,1.232C102.085,8.096,102.396,8.506,102.68,8.959z"/>
	<path fill="#575757" d="M78.2,42.449c-0.85,0.454-1.602,0.922-2.252,1.402c-0.652,0.482-1.205,1.062-1.657,1.742
		c-0.34,0.228-0.595,0.539-0.765,0.936c-0.113,0.284-0.056,0.425,0.17,0.425c0.283,0.057,0.553,0.114,0.808,0.17
		c0.255,0.057,0.495,0.114,0.722,0.17c2.153,0,4.391-0.255,6.715-0.765c2.72-0.623,5.411-1.346,8.075-2.168
		c2.663-0.82,5.27-1.686,7.82-2.593c0.623-0.282,1.303-0.537,2.04-0.765c0.736-0.226,1.416-0.453,2.04-0.68
		c0.283-0.113,0.453-0.113,0.51,0c0.056,0.114,0.141,0.227,0.255,0.34c0.113,0.284,0,0.539-0.34,0.765
		c-0.794,0.397-1.602,0.795-2.422,1.19c-0.822,0.397-1.63,0.794-2.423,1.189c-2.38,1.135-4.817,2.083-7.31,2.848
		c-2.495,0.766-4.987,1.432-7.48,1.998c-1.19,0.284-2.395,0.481-3.612,0.595c-1.219,0.113-2.367,0.085-3.442-0.085
		c-0.625-0.113-1.177-0.298-1.658-0.553c-0.48-0.255-0.863-0.693-1.147-1.317c-0.226-0.34-0.453-0.623-0.68-0.85
		c-0.283-0.681-0.141-1.501,0.425-2.465c0.454-0.511,0.95-0.978,1.487-1.403c0.538-0.425,1.034-0.835,1.488-1.232
		c1.36-0.905,2.748-1.713,4.165-2.422c1.416-0.708,2.89-1.289,4.42-1.743c0.453-0.112,0.963-0.212,1.53-0.297
		c0.566-0.085,1.133-0.184,1.7-0.298c0.793-0.17,1.36,0.085,1.7,0.765c0.113,0.228,0.226,0.426,0.34,0.596
		c0.113,0.17,0.226,0.34,0.34,0.51c0.283,0.34,0.198,0.709-0.255,1.104c-0.397,0.397-0.68,0.652-0.85,0.766
		c-1.19,0.68-2.38,1.274-3.57,1.785c-1.19,0.51-2.522,0.879-3.995,1.104c-0.227,0.058-0.482,0.085-0.765,0.085
		c-0.284,0-0.567,0-0.85,0C79.021,43.243,78.596,42.959,78.2,42.449z M80.155,41.344c2.38-0.452,4.618-1.33,6.715-2.635
		c-1.19,0.284-2.324,0.638-3.4,1.062C82.393,40.196,81.288,40.721,80.155,41.344z"/>
	<path fill="#575757" d="M113.475,42.279c-0.283,0.114-0.539,0.199-0.765,0.255c-0.228,0.057-0.481,0.142-0.765,0.255
		c-0.964,0.51-1.927,1.02-2.89,1.53c-0.964,0.51-1.955,1.02-2.975,1.529c-1.36,0.737-2.72,1.445-4.08,2.125
		c-1.36,0.681-2.777,1.247-4.25,1.7c-0.397,0.113-0.765,0.198-1.105,0.255c-0.34,0.056-0.68,0.113-1.02,0.17
		c-0.566,0.057-0.991-0.17-1.275-0.68c-0.113-0.283-0.241-0.523-0.383-0.723c-0.141-0.197-0.268-0.41-0.382-0.638
		c-0.283-0.396-0.283-0.82,0-1.274c0.227-0.283,0.425-0.58,0.595-0.893c0.17-0.311,0.397-0.608,0.68-0.893
		c1.7-1.7,3.541-3.131,5.525-4.293c1.983-1.16,4.136-1.997,6.46-2.507c0.34-0.113,0.68-0.17,1.02-0.17c0.34,0,0.65,0,0.935,0
		c1.076,0.057,1.841,0.595,2.295,1.614c0.283,0.681,0.735,0.907,1.36,0.681c0.453-0.226,0.85-0.085,1.189,0.425
		c0.17,0.284,0.368,0.595,0.596,0.935c0.226,0.341,0.453,0.681,0.68,1.021c0.113,0.284,0.155,0.567,0.127,0.85
		c-0.029,0.284-0.071,0.567-0.127,0.851c0,0.114-0.057,0.396-0.17,0.85c0.113-0.056,0.197-0.099,0.255-0.127
		c0.056-0.028,0.142-0.071,0.255-0.128c1.076-0.51,2.125-1.006,3.145-1.487c1.021-0.481,2.097-0.863,3.23-1.147
		c0.623-0.17,1.219-0.311,1.785-0.425c0.566-0.113,1.133-0.227,1.7-0.341c0.17,0,0.311,0.058,0.425,0.17
		c-0.114,0.341-0.227,0.54-0.34,0.596c-0.737,0.396-1.475,0.779-2.21,1.147c-0.737,0.369-1.503,0.779-2.295,1.232
		c-1.134,0.624-2.253,1.219-3.358,1.785c-1.104,0.566-2.225,1.162-3.357,1.785c-0.283,0.17-0.481,0.425-0.594,0.765
		c-4.138,9.293-9.805,17.538-17,24.735c-1.133,1.133-2.309,2.181-3.528,3.145c-1.218,0.963-2.507,1.841-3.867,2.635
		c-0.68,0.453-1.374,0.821-2.083,1.105c-0.708,0.282-1.458,0.48-2.252,0.595c-1.076,0.17-1.87-0.17-2.38-1.02
		c-0.17-0.284-0.325-0.553-0.467-0.808c-0.141-0.255-0.268-0.524-0.382-0.808c-0.283-0.51-0.396-1.021-0.34-1.53
		c0.057-0.51,0.17-1.049,0.34-1.615c0.34-1.134,0.822-2.196,1.445-3.188c0.624-0.992,1.332-1.97,2.125-2.933
		c1.587-2.153,3.302-4.151,5.143-5.992c1.842-1.842,3.782-3.612,5.822-5.312c2.55-2.154,5.1-4.151,7.65-5.992
		c2.55-1.842,5.27-3.583,8.16-5.228c0.056-0.056,0.113-0.099,0.17-0.128c0.056-0.027,0.114-0.098,0.17-0.212
		c0.226-0.623,0.453-1.261,0.68-1.913c0.227-0.65,0.453-1.288,0.68-1.912V42.279z M110.16,50.694
		c-0.114,0.112-0.199,0.17-0.255,0.17c-0.057,0-0.114,0.027-0.17,0.085c-3.344,2.152-6.545,4.42-9.605,6.8s-6.006,4.985-8.84,7.82
		c-1.246,1.303-2.422,2.62-3.527,3.952c-1.105,1.331-2.139,2.733-3.103,4.208c-0.453,0.735-0.863,1.458-1.232,2.167
		c-0.368,0.708-0.666,1.458-0.893,2.253c-0.113,0.565-0.141,0.893-0.085,0.978c0.057,0.085,0.397,0.098,1.02,0.042
		c0.624-0.057,1.205-0.199,1.742-0.425c0.54-0.228,1.092-0.482,1.658-0.765c2.664-1.475,5.185-3.373,7.565-5.695
		c3.23-3.117,6.12-6.433,8.67-9.945c2.55-3.514,4.845-7.225,6.885-11.135c0-0.114,0.013-0.199,0.042-0.255
		C110.061,50.892,110.103,50.807,110.16,50.694z M95.54,47.719c0,0.058,0.029,0.085,0.085,0.085c0.34-0.112,0.623-0.17,0.85-0.17
		c1.02-0.34,2.011-0.735,2.975-1.189c0.963-0.453,1.926-0.906,2.89-1.36c1.473-0.735,2.946-1.473,4.42-2.21
		c1.473-0.735,2.946-1.501,4.42-2.295c-0.17-0.113-0.425-0.226-0.765-0.34c-0.85-0.226-1.785-0.198-2.805,0.085
		c-2.154,0.624-4.123,1.474-5.907,2.55c-1.785,1.077-3.5,2.353-5.143,3.825c-0.227,0.17-0.412,0.34-0.553,0.51
		C95.865,47.379,95.71,47.549,95.54,47.719z"/>
	<path fill="#575757" d="M133.278,35.649c-0.34,0.284-0.681,0.566-1.021,0.85c-0.34,0.284-0.68,0.567-1.02,0.85
		c-1.305,1.135-2.537,2.31-3.697,3.528c-1.162,1.219-2.253,2.507-3.273,3.867c-0.283,0.284-0.51,0.595-0.68,0.935
		s-0.369,0.681-0.595,1.021c-0.114,0.114-0.198,0.284-0.255,0.51c0.566,0,0.963-0.028,1.189-0.085
		c1.133-0.283,2.238-0.638,3.315-1.062c1.075-0.425,2.153-0.863,3.229-1.317l5.61-2.55c0.565-0.227,0.991-0.368,1.275-0.426
		c0.226,0,0.396,0.086,0.51,0.256c0.112,0.114,0.198,0.227,0.255,0.34c0.057,0.114,0,0.255-0.17,0.425
		c-0.34,0.34-0.595,0.567-0.765,0.68c-1.645,1.135-3.315,2.14-5.015,3.018c-1.701,0.88-3.485,1.63-5.355,2.253
		c-0.795,0.284-1.56,0.454-2.295,0.51c-1.135,0.17-1.926-0.17-2.381-1.02c-0.225-0.341-0.51-0.736-0.85-1.19
		c-0.283-0.453-0.34-0.878-0.17-1.275c0.228-0.735,0.482-1.33,0.766-1.784c0.68-1.134,1.473-2.211,2.379-3.23
		s1.842-1.982,2.806-2.89c0.623-0.623,1.245-1.19,1.87-1.7c0.623-0.51,1.246-1.021,1.87-1.53l0.17-0.17
		c0.452-0.283,0.793-0.396,1.021-0.34c0.225,0.057,0.48,0.312,0.764,0.765c0.113,0.114,0.199,0.242,0.256,0.383
		C133.079,35.408,133.164,35.536,133.278,35.649z M142.458,26.979c-0.057,0.113-0.114,0.255-0.17,0.425
		c-0.058,0.17-0.142,0.312-0.255,0.425c-0.454,0.68-0.978,1.289-1.572,1.827c-0.596,0.539-1.232,1.035-1.912,1.487
		c-0.455,0.285-0.908,0.553-1.36,0.808c-0.454,0.255-0.907,0.525-1.36,0.808c-0.284,0.17-0.566,0.185-0.85,0.043
		c-0.285-0.141-0.455-0.41-0.51-0.808c0-0.113,0.042-0.213,0.127-0.298s0.184-0.183,0.297-0.297
		c0.341-0.283,0.693-0.566,1.062-0.851c0.369-0.282,0.693-0.565,0.979-0.85c0.51-0.453,1.005-0.936,1.487-1.445
		c0.48-0.51,0.948-0.99,1.402-1.445c0.282-0.17,0.311-0.425,0.085-0.765c-0.17-0.17-0.242-0.298-0.213-0.383
		c0.028-0.085,0.128-0.183,0.298-0.297c0.112-0.056,0.184-0.113,0.212-0.17c0.028-0.056,0.1-0.113,0.213-0.17
		c0.227-0.341,0.453-0.396,0.68-0.17c0.227,0.284,0.439,0.566,0.639,0.85c0.197,0.284,0.41,0.567,0.637,0.85
		C142.43,26.611,142.458,26.753,142.458,26.979z"/>
	<path fill="#575757" d="M148.917,38.709h-0.171c-0.453-0.283-0.921-0.41-1.402-0.383c-0.481,0.029-0.977,0.128-1.486,0.298
		c-1.021,0.34-1.998,0.779-2.934,1.317c-0.935,0.539-1.856,1.147-2.762,1.827c-1.078,0.795-2.098,1.645-3.061,2.551
		c-0.964,0.907-1.842,1.927-2.635,3.06c-0.623,0.907-1.105,1.842-1.445,2.805c-0.056,0.113-0.085,0.213-0.085,0.298
		s-0.028,0.213-0.085,0.383l0.68-0.34c3.061-1.7,6.163-3.272,9.309-4.718c3.145-1.445,6.388-2.733,9.732-3.867
		c0.905-0.283,1.812-0.566,2.72-0.851c0.905-0.283,1.841-0.48,2.805-0.595c0.283-0.056,0.708-0.085,1.274-0.085
		c0.171,0,0.283,0.029,0.341,0.085c0.226,0.34,0.368,0.595,0.425,0.765c0.056,0.058,0.014,0.128-0.127,0.213
		c-0.143,0.085-0.27,0.127-0.383,0.127c-1.135,0.455-2.295,0.88-3.485,1.275c-1.19,0.397-2.353,0.794-3.485,1.19
		c-3.344,1.247-6.587,2.606-9.732,4.079c-3.145,1.474-6.247,3.061-9.307,4.761c-0.51,0.282-0.793,0.495-0.851,0.638
		c-0.056,0.141-0.056,0.522,0,1.147c0.058,0.452,0.1,0.863,0.128,1.232c0.029,0.367,0.071,0.778,0.127,1.232
		c0.34,2.663-0.765,4.42-3.314,5.27c-1.87,0.566-3.768,0.595-5.695,0.085c-0.793-0.17-1.388-0.595-1.785-1.274
		c-0.113-0.228-0.34-0.567-0.68-1.021c-0.283-0.34-0.311-0.709-0.085-1.104c0.17-0.228,0.327-0.44,0.468-0.638
		c0.142-0.199,0.297-0.383,0.467-0.553c0.965-0.907,1.941-1.715,2.933-2.423c0.992-0.709,2.055-1.402,3.188-2.082
		c0.397-0.228,0.78-0.454,1.147-0.68c0.369-0.228,0.752-0.454,1.147-0.681c0.284-0.114,0.37-0.284,0.255-0.51
		c-0.17-2.493,0.652-4.815,2.465-6.97c1.36-1.644,2.848-3.088,4.463-4.335c1.615-1.246,3.414-2.295,5.397-3.146
		c0.341-0.17,0.693-0.297,1.062-0.382c0.368-0.085,0.751-0.184,1.147-0.298c1.076-0.17,1.898,0.17,2.465,1.02
		c0.113,0.228,0.256,0.44,0.426,0.638C148.662,38.271,148.803,38.483,148.917,38.709z M131.406,54.264l-0.34,0.17
		c-0.793,0.453-1.558,0.921-2.295,1.403c-0.735,0.48-1.473,0.978-2.21,1.487c-0.565,0.396-1.104,0.835-1.614,1.317
		c-0.511,0.48-1.049,0.948-1.615,1.402c-0.113,0.113-0.198,0.213-0.256,0.298c-0.055,0.085-0.141,0.183-0.254,0.297
		c0.113,0.056,0.199,0.085,0.254,0.085c2.494,0.623,4.705,0.283,6.631-1.02c0.454-0.284,0.836-0.638,1.147-1.062
		s0.497-0.922,0.552-1.487c0.058-0.454,0.072-0.922,0.043-1.402C131.422,55.27,131.406,54.774,131.406,54.264z"/>
	<path fill="#575757" d="M174.33,24.174c-2.72-0.112-5.299-0.127-7.734-0.042c-2.438,0.085-4.846,0.127-7.225,0.127h-0.681
		c-1.134-0.112-1.673-0.708-1.615-1.785c0-0.17,0.113-0.255,0.341-0.255c0.564-0.056,1.104-0.098,1.614-0.127
		c0.511-0.028,1.048-0.07,1.615-0.128c3.06-0.112,5.835-0.212,8.33-0.297c2.493-0.086,5.015-0.071,7.565,0.042
		c0.395,0,0.707-0.113,0.935-0.34c1.473-1.19,2.917-2.38,4.335-3.57c1.416-1.189,2.861-2.351,4.335-3.484
		c0.622-0.566,1.36-1.076,2.21-1.53c0.453-0.283,0.793-0.17,1.02,0.34c0.113,0.284,0.227,0.553,0.34,0.808s0.227,0.524,0.34,0.808
		c0,0.227-0.057,0.396-0.17,0.51c-0.283,0.34-0.594,0.652-0.935,0.935l-5.864,5.61c-0.115,0-0.199,0.085-0.256,0.255
		c0.227,0,0.426,0.015,0.596,0.043c0.17,0.029,0.367,0.042,0.595,0.042c1.926,0.114,3.839,0.242,5.737,0.383
		c1.898,0.142,3.811,0.326,5.738,0.553c0.963,0.114,1.912,0.255,2.847,0.425s1.884,0.34,2.848,0.51c0.056,0,0.099,0.015,0.128,0.043
		c0.027,0.029,0.07,0.042,0.127,0.042c1.076,0.284,1.643,0.879,1.7,1.785l0.255,1.02c0.056,0.228-0.029,0.341-0.255,0.341
		c-0.397,0-0.652-0.142-0.765-0.426c-0.228-0.226-0.567-0.396-1.021-0.51c-0.624-0.112-1.232-0.212-1.827-0.297
		c-0.596-0.085-1.205-0.184-1.828-0.298c-2.154-0.283-4.292-0.495-6.417-0.638c-2.125-0.141-4.265-0.269-6.417-0.383
		c-0.738-0.056-1.475-0.098-2.211-0.127c-0.736-0.028-1.475-0.07-2.21-0.128c-0.34,0-0.595,0.085-0.765,0.255
		c-1.758,1.475-3.514,2.905-5.27,4.293c-1.758,1.39-3.543,2.734-5.355,4.037c-0.51,0.284-1.02,0.737-1.53,1.36l-9.18,9.69
		c-0.567,0.624-1.092,1.262-1.573,1.912c-0.481,0.652-0.977,1.317-1.486,1.997c-0.283,0.455-0.623,1.105-1.021,1.955
		c0.454,0,0.765-0.029,0.935-0.085c1.076-0.114,2.111-0.297,3.104-0.552c0.99-0.256,1.968-0.553,2.932-0.893
		c1.982-0.736,3.938-1.53,5.865-2.381c1.926-0.85,3.854-1.699,5.779-2.55c0.963-0.452,1.969-0.905,3.018-1.359
		c1.049-0.453,2.083-0.906,3.104-1.36c0.112-0.056,0.225-0.128,0.34-0.213c0.113-0.085,0.226-0.013,0.34,0.213
		c0.113,0.228,0.127,0.397,0.043,0.51c-0.086,0.114-0.186,0.228-0.299,0.34c-0.963,0.795-1.996,1.503-3.102,2.125
		c-1.105,0.625-2.225,1.22-3.357,1.785c-2.211,1.135-4.463,2.197-6.758,3.188c-2.295,0.991-4.662,1.799-7.098,2.423
		c-0.624,0.17-1.232,0.311-1.827,0.425c-0.595,0.113-1.204,0.141-1.827,0.085c-0.681,0-1.19-0.284-1.531-0.85
		c-0.112-0.17-0.225-0.34-0.34-0.511c-0.112-0.17-0.225-0.312-0.34-0.425c-0.453-0.51-0.537-1.048-0.254-1.614
		c0.283-0.511,0.552-1.034,0.807-1.573c0.256-0.538,0.553-1.033,0.893-1.487c1.02-1.53,2.139-2.988,3.357-4.377
		s2.451-2.733,3.697-4.038c3.91-4.136,7.934-8.16,12.07-12.07c0.113-0.056,0.197-0.127,0.255-0.212
		C174.131,24.387,174.217,24.288,174.33,24.174z"/>
	<path fill="#575757" d="M177.729,42.449c-0.85,0.454-1.602,0.922-2.252,1.402c-0.652,0.482-1.205,1.062-1.657,1.742
		c-0.341,0.228-0.595,0.539-0.765,0.936c-0.113,0.284-0.057,0.425,0.17,0.425c0.282,0.057,0.553,0.114,0.807,0.17
		c0.256,0.057,0.496,0.114,0.723,0.17c2.153,0,4.391-0.255,6.715-0.765c2.721-0.623,5.411-1.346,8.075-2.168
		c2.663-0.82,5.271-1.686,7.82-2.593c0.622-0.282,1.303-0.537,2.04-0.765c0.736-0.226,1.416-0.453,2.04-0.68
		c0.282-0.113,0.452-0.113,0.51,0c0.056,0.114,0.141,0.227,0.255,0.34c0.113,0.284,0,0.539-0.34,0.765
		c-0.795,0.397-1.602,0.795-2.422,1.19c-0.822,0.397-1.631,0.794-2.424,1.189c-2.379,1.135-4.816,2.083-7.309,2.848
		c-2.495,0.766-4.988,1.432-7.48,1.998c-1.19,0.284-2.395,0.481-3.613,0.595s-2.366,0.085-3.441-0.085
		c-0.625-0.113-1.178-0.298-1.658-0.553s-0.863-0.693-1.147-1.317c-0.226-0.34-0.452-0.623-0.68-0.85
		c-0.283-0.681-0.142-1.501,0.425-2.465c0.454-0.511,0.949-0.978,1.487-1.403c0.538-0.425,1.034-0.835,1.487-1.232
		c1.36-0.905,2.748-1.713,4.166-2.422c1.415-0.708,2.889-1.289,4.42-1.743c0.452-0.112,0.963-0.212,1.529-0.297
		s1.133-0.184,1.7-0.298c0.793-0.17,1.36,0.085,1.7,0.765c0.113,0.228,0.226,0.426,0.34,0.596c0.113,0.17,0.226,0.34,0.34,0.51
		c0.283,0.34,0.197,0.709-0.255,1.104c-0.397,0.397-0.681,0.652-0.851,0.766c-1.189,0.68-2.379,1.274-3.569,1.785
		c-1.19,0.51-2.522,0.879-3.995,1.104c-0.227,0.058-0.482,0.085-0.766,0.085s-0.566,0-0.85,0
		C178.55,43.243,178.125,42.959,177.729,42.449z M179.684,41.344c2.381-0.452,4.619-1.33,6.715-2.635
		c-1.189,0.284-2.324,0.638-3.399,1.062C181.922,40.196,180.816,40.721,179.684,41.344z"/>
	<path fill="#575757" d="M218.953,42.024c-0.17,0.17-0.354,0.199-0.553,0.085c-0.199-0.113-0.354-0.255-0.467-0.426
		c-0.17-0.226-0.312-0.48-0.426-0.765c0.113-0.565,0.396-1.232,0.85-1.997c0.453-0.766,0.623-1.261,0.511-1.488
		c-0.284-0.396-1.092-0.34-2.423,0.171c-1.332,0.51-2.861,1.247-4.59,2.21c-1.729,0.964-3.484,2.04-5.27,3.229
		c-1.785,1.19-3.273,2.295-4.463,3.315c-0.624,0.566-1.289,1.104-1.998,1.614c-0.709,0.511-1.432,1.021-2.167,1.53
		c-0.34,0.34-0.651,0.283-0.935-0.17c0-0.057-0.156-0.354-0.468-0.893c-0.312-0.538-0.523-0.863-0.638-0.978
		c-0.113-0.283-0.056-0.595,0.17-0.935c0.397-0.681,0.766-1.36,1.105-2.04c0.34-0.681,0.709-1.331,1.104-1.955
		c0.905-1.416,1.913-2.763,3.018-4.038c1.104-1.274,2.224-2.535,3.357-3.782c0.17-0.17,0.368-0.34,0.595-0.51
		s0.453-0.311,0.681-0.425c0.396-0.34,0.765-0.255,1.104,0.255c0.17,0.284,0.311,0.624,0.426,1.02
		c0.055,0.114,0.042,0.255-0.043,0.426c-0.085,0.17-0.185,0.312-0.297,0.425l-1.615,1.955c-0.228,0.284-0.553,0.709-0.979,1.274
		c-0.424,0.567-0.879,1.177-1.359,1.828c-0.482,0.651-0.978,1.304-1.487,1.955c-0.511,0.651-0.935,1.204-1.275,1.657
		c0.905-0.681,1.983-1.473,3.229-2.38c1.246-0.906,2.551-1.799,3.91-2.678c1.36-0.878,2.706-1.671,4.038-2.38
		c1.331-0.708,2.563-1.232,3.697-1.572c1.983-0.566,3.413-0.453,4.292,0.34c0.879,0.794,1.432,1.842,1.658,3.145
		c0.056,0.624-0.213,1.177-0.808,1.657C219.846,41.188,219.349,41.628,218.953,42.024z"/>
</g>
</svg>
